<?xml version="1.0" encoding="utf-8"?>
<!-- Generator: Adobe Illustrator 26.0.3, SVG Export Plug-In . SVG Version: 6.00 Build 0)  -->
<svg version="1.1" id="Layer_1" xmlns="http://www.w3.org/2000/svg" xmlns:xlink="http://www.w3.org/1999/xlink" x="0px" y="0px"
	 viewBox="0 0 1171 1280" style="enable-background:new 0 0 1171 1280;" xml:space="preserve">
<style type="text/css">
	.st0{fill:#FFFFFF;}
</style>
<g transform="translate(0.000000,1280.000000) scale(0.100000,-0.100000)">
	<path class="st0" d="M11560,12688c-2063-1426-4216-3664-6295-6542c-671-929-1445-2103-2024-3069c-38-62-57-87-68-83
		c-8,3-705,467-1548,1030C781,4588,81,5054,69,5061c-19,10-17,4,12-37c20-27,836-1147,1815-2489S3686,80,3698,62c13-17,27-32,31-32
		s70,147,146,328c695,1643,1373,3072,2107,4437c1529,2841,3292,5347,5367,7624c272,300,274,301,264,301
		C11609,12719,11585,12705,11560,12688z"/>
</g>
</svg>
