<svg width="57" height="56" viewBox="0 0 57 56" fill="none" xmlns="http://www.w3.org/2000/svg">
<g clip-path="url(#clip0_21_711)">
<path d="M13.4322 32.4882L3.70382 39.633C3.28818 39.9251 2.94174 40.3048 2.68901 40.7453C2.43627 41.186 2.28341 41.6766 2.24123 42.1829C2.19905 42.6891 2.26858 43.1984 2.4449 43.6745C2.62123 44.1509 2.90005 44.5828 3.26164 44.9394L11.3841 53.0621C11.7345 53.4455 12.1666 53.7452 12.6484 53.9391C13.1301 54.1333 13.6493 54.2167 14.1677 54.1831C14.686 54.1496 15.1901 54.0002 15.6429 53.7457C16.0957 53.4911 16.4855 53.1383 16.7836 52.7129L24.0217 42.9844" stroke="white" stroke-width="3.49611" stroke-linecap="round" stroke-linejoin="round"/>
<path d="M43.3855 23.5039L53.1371 16.3588C53.5529 16.0669 53.8993 15.6872 54.1521 15.2466C54.4048 14.806 54.5577 14.3153 54.5999 13.8091C54.6421 13.3029 54.5724 12.7936 54.3962 12.3173C54.2197 11.841 53.941 11.4092 53.5795 11.0524L45.4569 2.83684C45.1 2.45828 44.6623 2.1649 44.1766 1.97844C43.6909 1.79198 43.1695 1.71721 42.6509 1.75968C42.1323 1.80215 41.63 1.96077 41.1809 2.22378C40.732 2.48679 40.3481 2.84745 40.0575 3.27903L32.9124 13.0074" stroke="white" stroke-width="3.49611" stroke-linecap="round" stroke-linejoin="round"/>
<path d="M29.3274 36.6765L40.6385 54.1785L42.9657 42.5416L54.6026 40.2141L37.1009 28.9033" stroke="white" stroke-width="3.49611" stroke-linecap="round" stroke-linejoin="round"/>
<path d="M19.6926 27.9962C19.6926 30.3109 20.6121 32.5307 22.2489 34.1675C23.8857 35.8042 26.1055 36.7237 28.4201 36.7237C30.735 36.7237 32.9548 35.8042 34.5917 34.1675C36.2284 32.5307 37.1478 30.3109 37.1478 27.9962C37.1478 25.6813 36.2284 23.4615 34.5917 21.8248C32.9548 20.188 30.735 19.2685 28.4201 19.2685C26.1055 19.2685 23.8857 20.188 22.2489 21.8248C20.6121 23.4615 19.6926 25.6813 19.6926 27.9962Z" stroke="white" stroke-width="3.49611" stroke-linecap="round" stroke-linejoin="round"/>
</g>
<defs>
<clipPath id="clip0_21_711">
<rect width="55.9377" height="55.9377" fill="white" transform="translate(0.45166)"/>
</clipPath>
</defs>
</svg>
