<svg width="57" height="56" viewBox="0 0 57 56" fill="none" xmlns="http://www.w3.org/2000/svg">
<g clip-path="url(#clip0_21_716)">
<path d="M47.6491 1.74799H9.19192C7.33747 1.74799 5.55898 2.48466 4.24768 3.79596C2.93638 5.10726 2.19971 6.88575 2.19971 8.7402V36.7091C2.19971 38.5634 2.93638 40.342 4.24768 41.6533C5.55898 42.9645 7.33747 43.7013 9.19192 43.7013H12.688V52.4416C12.6879 52.7872 12.7902 53.1252 12.9822 53.4128C13.1741 53.7004 13.4469 53.9246 13.7663 54.057C14.0856 54.1894 14.437 54.2243 14.7761 54.157C15.1152 54.0899 15.4268 53.9234 15.6714 53.6792L24.9244 43.7013H31.9166L41.1697 53.6745C41.4142 53.9188 41.7258 54.0852 42.0649 54.1523C42.404 54.2197 42.7555 54.1847 43.0748 54.0523C43.3941 53.92 43.6671 53.6957 43.8589 53.4081C44.0509 53.1205 44.1532 52.7826 44.153 52.4369V43.7013H47.6491C49.5035 43.7013 51.282 42.9645 52.5933 41.6533C53.9046 40.342 54.6413 38.5634 54.6413 36.7091V8.7402C54.6413 6.88575 53.9046 5.10726 52.5933 3.79596C51.282 2.48466 49.5035 1.74799 47.6491 1.74799Z" stroke="white" stroke-width="3.49611" stroke-linecap="round" stroke-linejoin="round"/>
<path d="M24.4885 25.3467H17.9321V31.9031" stroke="white" stroke-width="3.49611" stroke-linecap="round" stroke-linejoin="round"/>
<path d="M37.8898 26.6286C37.1955 28.6578 35.8509 30.4009 34.0646 31.5878C32.2783 32.7746 30.1504 33.3386 28.0108 33.1925C25.8711 33.0463 23.8397 32.1982 22.2313 30.7797C20.623 29.361 19.5278 27.4514 19.1157 25.3467" stroke="white" stroke-width="3.49611" stroke-linecap="round" stroke-linejoin="round"/>
<path d="M33.0818 18.3545H39.6382V11.7982" stroke="white" stroke-width="3.49611" stroke-linecap="round" stroke-linejoin="round"/>
<path d="M19.6802 17.0725C20.3745 15.0435 21.7192 13.3003 23.5054 12.1135C25.2917 10.9267 27.4196 10.3626 29.5592 10.5087C31.6989 10.6548 33.7303 11.5029 35.3385 12.9215C36.947 14.3401 38.0422 16.2499 38.4543 18.3544" stroke="white" stroke-width="3.49611" stroke-linecap="round" stroke-linejoin="round"/>
</g>
<defs>
<clipPath id="clip0_21_716">
<rect width="55.9377" height="55.9377" fill="white" transform="translate(0.45166)"/>
</clipPath>
</defs>
</svg>
