<svg width="57" height="56" viewBox="0 0 57 56" fill="none" xmlns="http://www.w3.org/2000/svg">
<g clip-path="url(#clip0_21_684)">
<path d="M38.3605 6.56207H44.1985C45.2308 6.56207 46.2207 6.97214 46.9507 7.70204C47.6806 8.43195 48.0906 9.42191 48.0906 10.4542V49.3751C48.0906 50.4074 47.6806 51.3972 46.9507 52.1272C46.2207 52.8572 45.2308 53.2672 44.1985 53.2672H13.0618C12.0295 53.2672 11.0396 52.8572 10.3097 52.1272C9.57975 51.3972 9.16968 50.4074 9.16968 49.3751V10.4542C9.16968 9.42191 9.57975 8.43195 10.3097 7.70204C11.0396 6.97214 12.0295 6.56207 13.0618 6.56207H18.8999" stroke="white" stroke-width="3.49611" stroke-linecap="round" stroke-linejoin="round"/>
<path d="M34.4683 2.67047H22.792C20.6425 2.67047 18.8999 4.41303 18.8999 6.56257V8.50862C18.8999 10.6581 20.6425 12.4007 22.792 12.4007H34.4683C36.6179 12.4007 38.3604 10.6581 38.3604 8.50862V6.56257C38.3604 4.41303 36.6179 2.67047 34.4683 2.67047Z" stroke="white" stroke-width="3.49611" stroke-linecap="round" stroke-linejoin="round"/>
<path d="M32.5799 22.0858H24.6836V28.7921H17.9771V36.6887H24.6836V43.3949H32.5799V36.6887H39.2862V28.7921H32.5799V22.0858Z" stroke="white" stroke-width="3.49611" stroke-linecap="round" stroke-linejoin="round"/>
</g>
<defs>
<clipPath id="clip0_21_684">
<rect width="55.9377" height="55.9377" fill="white" transform="translate(0.661377)"/>
</clipPath>
</defs>
</svg>
