<svg width="56" height="56" viewBox="0 0 56 56" fill="none" xmlns="http://www.w3.org/2000/svg">
<g clip-path="url(#clip0_21_701)">
<path d="M12.2361 27.9688C12.2361 32.1413 13.8936 36.143 16.844 39.0935C19.7944 42.0437 23.7961 43.7013 27.9686 43.7013C32.1411 43.7013 36.1427 42.0437 39.0932 39.0935C42.0434 36.143 43.7011 32.1413 43.7011 27.9688C43.7011 23.7964 42.0434 19.7947 39.0932 16.8443C36.1427 13.8939 32.1411 12.2364 27.9686 12.2364C23.7961 12.2364 19.7944 13.8939 16.844 16.8443C13.8936 19.7947 12.2361 23.7964 12.2361 27.9688Z" stroke="white" stroke-width="3.49611" stroke-linecap="round" stroke-linejoin="round"/>
<path d="M27.9688 5.24416V1.74805" stroke="white" stroke-width="3.49611" stroke-linecap="round" stroke-linejoin="round"/>
<path d="M44.0369 11.9006L46.5098 9.42764" stroke="white" stroke-width="3.49611" stroke-linecap="round" stroke-linejoin="round"/>
<path d="M50.6934 27.9688H54.1895" stroke="white" stroke-width="3.49611" stroke-linecap="round" stroke-linejoin="round"/>
<path d="M44.0369 44.0371L46.5098 46.51" stroke="white" stroke-width="3.49611" stroke-linecap="round" stroke-linejoin="round"/>
<path d="M27.9688 50.6936V54.1897" stroke="white" stroke-width="3.49611" stroke-linecap="round" stroke-linejoin="round"/>
<path d="M11.9004 44.0371L9.42749 46.51" stroke="white" stroke-width="3.49611" stroke-linecap="round" stroke-linejoin="round"/>
<path d="M5.24391 27.9688H1.7478" stroke="white" stroke-width="3.49611" stroke-linecap="round" stroke-linejoin="round"/>
<path d="M11.9004 11.9006L9.42749 9.42764" stroke="white" stroke-width="3.49611" stroke-linecap="round" stroke-linejoin="round"/>
</g>
<defs>
<clipPath id="clip0_21_701">
<rect width="55.9377" height="55.9377" fill="white"/>
</clipPath>
</defs>
</svg>
