<svg width="57" height="56" viewBox="0 0 57 56" fill="none" xmlns="http://www.w3.org/2000/svg">
<g clip-path="url(#clip0_21_675)">
<path d="M19.8902 19.2286H14.646C13.7188 19.2286 12.8295 19.597 12.1739 20.2526C11.5183 20.9083 11.1499 21.7975 11.1499 22.7247V36.7092C11.1499 37.6364 11.5183 38.5258 12.1739 39.1814C12.8295 39.837 13.7188 40.2053 14.646 40.2053" stroke="white" stroke-width="3.49611" stroke-linecap="round" stroke-linejoin="round"/>
<path d="M42.6148 40.2053C43.5419 40.2053 44.4313 39.837 45.087 39.1814C45.7426 38.5258 46.1109 37.6364 46.1109 36.7092V22.7247C46.1109 21.7975 45.7426 20.9083 45.087 20.2526C44.4313 19.597 43.5419 19.2286 42.6148 19.2286H37.3706" stroke="white" stroke-width="3.49611" stroke-linecap="round" stroke-linejoin="round"/>
<path d="M49.183 49.4676C49.3812 49.9965 49.448 50.5656 49.3781 51.1262C49.3082 51.6865 49.1038 52.2219 48.7819 52.6859C48.4601 53.15 48.0305 53.5292 47.5301 53.7911C47.0297 54.0531 46.4731 54.1897 45.9084 54.1897H11.1501C10.5863 54.1878 10.0312 54.0499 9.53232 53.7872C9.03343 53.5245 8.60548 53.1451 8.28493 52.681C7.96441 52.2172 7.76082 51.6828 7.69153 51.1231C7.62226 50.5638 7.68934 49.9955 7.88705 49.4676L10.5091 42.4754C10.7581 41.8104 11.2037 41.2371 11.7866 40.8315C12.3695 40.426 13.0621 40.2076 13.7722 40.2053H43.6895C44.3997 40.2076 45.0921 40.426 45.6751 40.8315C46.258 41.2371 46.7036 41.8104 46.9525 42.4754L49.183 49.4676Z" stroke="white" stroke-width="3.49611" stroke-linecap="round" stroke-linejoin="round"/>
<path d="M25.1343 47.1975H32.1265" stroke="white" stroke-width="3.49611" stroke-linecap="round" stroke-linejoin="round"/>
<path d="M28.6304 19.2286C28.1477 19.2286 27.7563 18.8373 27.7563 18.3546C27.7563 17.8719 28.1477 17.4806 28.6304 17.4806" stroke="white" stroke-width="3.49611"/>
<path d="M28.6304 19.2286C29.1131 19.2286 29.5044 18.8373 29.5044 18.3546C29.5044 17.8719 29.1131 17.4806 28.6304 17.4806" stroke="white" stroke-width="3.49611"/>
<path d="M42.6149 6.69609C38.6568 3.49535 33.7208 1.74921 28.6304 1.74921C23.5402 1.74921 18.604 3.49535 14.646 6.69609" stroke="white" stroke-width="3.49611" stroke-linecap="round" stroke-linejoin="round"/>
<path d="M20.4729 12.2361C22.7817 10.3689 25.6611 9.35028 28.6305 9.35028C31.5999 9.35028 34.4792 10.3689 36.7881 12.2361" stroke="white" stroke-width="3.49611" stroke-linecap="round" stroke-linejoin="round"/>
</g>
<defs>
<clipPath id="clip0_21_675">
<rect width="55.9377" height="55.9377" fill="white" transform="translate(0.661377)"/>
</clipPath>
</defs>
</svg>
