<svg width="57" height="56" viewBox="0 0 57 56" fill="none" xmlns="http://www.w3.org/2000/svg">
<g clip-path="url(#clip0_21_728)">
<path d="M19.6802 19.2285C19.6802 23.8646 21.5219 28.311 24.8001 31.5891C28.0783 34.8673 32.5246 36.7091 37.1607 36.7091C41.7968 36.7091 46.2431 34.8673 49.5213 31.5891C52.7995 28.311 54.6413 23.8646 54.6413 19.2285C54.6413 14.5924 52.7995 10.1462 49.5213 6.86792C46.2431 3.58969 41.7968 1.74799 37.1607 1.74799C32.5246 1.74799 28.0783 3.58969 24.8001 6.86792C21.5219 10.1462 19.6802 14.5924 19.6802 19.2285Z" stroke="white" stroke-width="3.49611" stroke-linecap="round" stroke-linejoin="round"/>
<path d="M15.3101 32.8448C15.3101 33.4695 15.4973 34.0799 15.8475 34.5971C16.1977 35.1143 16.6949 35.5147 17.2749 35.7466L22.0855 37.6718C22.7592 37.9428 23.3176 38.44 23.6649 39.0777C24.0121 39.7154 24.1268 40.4542 23.989 41.1672C23.8513 41.8802 23.4696 42.523 22.9096 42.9854C22.3497 43.4478 21.6463 43.7009 20.9201 43.7014H16.1841" stroke="white" stroke-width="3.49611" stroke-linecap="round" stroke-linejoin="round"/>
<path d="M19.6802 47.1974V43.7013" stroke="white" stroke-width="3.49611" stroke-linecap="round" stroke-linejoin="round"/>
<path d="M12.7602 20.6665C10.1374 21.7942 7.83077 23.5472 6.04188 25.7723C4.25299 27.9973 3.0363 30.6266 2.49817 33.4304C1.96002 36.2341 2.1168 39.127 2.95479 41.8563C3.79281 44.5856 5.28651 47.0678 7.30537 49.0867C9.32424 51.1054 11.8068 52.5987 14.5361 53.4363C17.2654 54.2742 20.1584 54.4306 22.9621 53.8922C25.7657 53.3538 28.395 52.137 30.6199 50.3476C32.8446 48.5586 34.5974 46.2518 35.725 43.6288" stroke="white" stroke-width="3.49611" stroke-linecap="round" stroke-linejoin="round"/>
<path d="M40.6568 12.2363H35.9184C35.1921 12.2368 34.489 12.49 33.9289 12.9524C33.369 13.4148 32.9875 14.0576 32.8495 14.7706C32.7118 15.4836 32.8264 16.2223 33.1737 16.8601C33.521 17.4979 34.0794 17.9949 34.753 18.266L39.5637 20.1911C40.2375 20.4622 40.7957 20.9592 41.143 21.597C41.4905 22.2348 41.6049 22.9735 41.4672 23.6866C41.3294 24.3995 40.9477 25.0423 40.3878 25.5048C39.828 25.9672 39.1246 26.2203 38.3983 26.2208H33.6646" stroke="white" stroke-width="3.49611" stroke-linecap="round" stroke-linejoin="round"/>
<path d="M37.1606 12.2363V8.7402" stroke="white" stroke-width="3.49611" stroke-linecap="round" stroke-linejoin="round"/>
<path d="M37.1606 29.7169V26.2208" stroke="white" stroke-width="3.49611" stroke-linecap="round" stroke-linejoin="round"/>
</g>
<defs>
<clipPath id="clip0_21_728">
<rect width="55.9377" height="55.9377" fill="white" transform="translate(0.45166)"/>
</clipPath>
</defs>
</svg>
