<svg width="57" height="56" viewBox="0 0 57 56" fill="none" xmlns="http://www.w3.org/2000/svg">
<g clip-path="url(#clip0_21_722)">
<path d="M2.53052 33.2131V54.1897" stroke="white" stroke-width="3.49611" stroke-linecap="round" stroke-linejoin="round"/>
<path d="M2.53052 50.6936H37.4916C37.4916 48.8393 36.7549 47.0607 35.4436 45.7494C34.1323 44.4381 32.3537 43.7014 30.4994 43.7014H21.7591C21.7591 41.847 21.0224 40.0685 19.7111 38.7572C18.3998 37.4459 16.6214 36.7092 14.7669 36.7092H2.53052" stroke="white" stroke-width="3.49611" stroke-linecap="round" stroke-linejoin="round"/>
<path d="M14.7668 43.7014H21.7591" stroke="white" stroke-width="3.49611" stroke-linecap="round" stroke-linejoin="round"/>
<path d="M18.6914 29.8711C16.8447 26.3295 16.1467 22.3009 16.6943 18.3445C17.2419 14.3881 19.0079 10.7004 21.7471 7.79357C24.4864 4.88672 28.0627 2.90501 31.9797 2.12363C35.8965 1.34226 39.9597 1.80001 43.6045 3.43331C47.2493 5.06663 50.2951 7.79443 52.3189 11.2379C54.3427 14.6813 55.244 18.6695 54.8974 22.6486C54.551 26.6276 52.9741 30.3999 50.3858 33.442C47.7973 36.4838 44.3259 38.6442 40.4536 39.6229" stroke="white" stroke-width="3.49611" stroke-linecap="round" stroke-linejoin="round"/>
<path d="M33.9956 8.7403V22.7247H42.7359" stroke="white" stroke-width="3.49611" stroke-linecap="round" stroke-linejoin="round"/>
</g>
<defs>
<clipPath id="clip0_21_722">
<rect width="55.9377" height="55.9377" fill="white" transform="translate(0.782471)"/>
</clipPath>
</defs>
</svg>
