<svg width="57" height="56" viewBox="0 0 57 56" fill="none" xmlns="http://www.w3.org/2000/svg">
<g clip-path="url(#clip0_21_691)">
<path d="M5.0293 41.0793C5.0293 42.702 5.67389 44.2582 6.82129 45.4056C7.96866 46.5528 9.52485 47.1975 11.1475 47.1975C12.7701 47.1975 14.3263 46.5528 15.4737 45.4056C16.6211 44.2582 17.2657 42.702 17.2657 41.0793C17.2657 40.2759 17.1074 39.4802 16.8 38.7381C16.4925 37.9957 16.0418 37.3212 15.4737 36.753C14.9056 36.185 14.2311 35.7342 13.4888 35.4268C12.7465 35.1194 11.9509 34.9611 11.1475 34.9611C10.344 34.9611 9.54846 35.1194 8.80617 35.4268C8.06387 35.7342 7.3894 36.185 6.82129 36.753C6.25314 37.3212 5.8025 37.9957 5.49503 38.7381C5.18755 39.4802 5.0293 40.2759 5.0293 41.0793Z" stroke="white" stroke-width="3.49611" stroke-linecap="round" stroke-linejoin="round"/>
<path d="M19.8878 54.1897C19.0429 52.6055 17.7834 51.281 16.2439 50.3573C14.7044 49.4334 12.9428 48.9456 11.1475 48.9456C9.35217 48.9456 7.59057 49.4334 6.0511 50.3573C4.5116 51.281 3.25209 52.6055 2.40723 54.1897" stroke="white" stroke-width="3.49611" stroke-linecap="round" stroke-linejoin="round"/>
<path d="M39.9905 41.0793C39.9905 41.8827 40.1487 42.6784 40.4562 43.4205C40.7636 44.1629 41.2143 44.8374 41.7823 45.4056C42.3506 45.9736 43.0251 46.4244 43.7672 46.7318C44.5095 47.0392 45.3053 47.1975 46.1087 47.1975C46.9121 47.1975 47.7078 47.0392 48.4499 46.7318C49.1922 46.4244 49.8668 45.9736 50.4348 45.4056C51.003 44.8374 51.4538 44.1629 51.7612 43.4205C52.0686 42.6784 52.2269 41.8827 52.2269 41.0793C52.2269 40.2759 52.0686 39.4802 51.7612 38.7381C51.4538 37.9957 51.003 37.3212 50.4348 36.753C49.8668 36.185 49.1922 35.7342 48.4499 35.4268C47.7078 35.1194 46.9121 34.9611 46.1087 34.9611C45.3053 34.9611 44.5095 35.1194 43.7672 35.4268C43.0251 35.7342 42.3506 36.185 41.7823 36.753C41.2143 37.3212 40.7636 37.9957 40.4562 38.7381C40.1487 39.4802 39.9905 40.2759 39.9905 41.0793Z" stroke="white" stroke-width="3.49611" stroke-linecap="round" stroke-linejoin="round"/>
<path d="M54.849 54.1897C54.0041 52.6055 52.7445 51.281 51.2051 50.3573C49.6656 49.4334 47.9041 48.9456 46.1087 48.9456C44.3133 48.9456 42.5517 49.4334 41.0123 50.3573C39.4728 51.281 38.2133 52.6055 37.3684 54.1897" stroke="white" stroke-width="3.49611" stroke-linecap="round" stroke-linejoin="round"/>
<path d="M22.51 7.86627C22.51 8.66972 22.6683 9.46529 22.9757 10.2076C23.2832 10.9499 23.7339 11.6244 24.3019 12.1925C24.8701 12.7606 25.5447 13.2113 26.2868 13.5187C27.0291 13.8262 27.8248 13.9845 28.6282 13.9845C29.4316 13.9845 30.2273 13.8262 30.9695 13.5187C31.7118 13.2113 32.3863 12.7606 32.9543 12.1925C33.5225 11.6244 33.9733 10.9499 34.2807 10.2076C34.5882 9.46529 34.7464 8.66972 34.7464 7.86627C34.7464 7.06282 34.5882 6.26724 34.2807 5.52495C33.9733 4.78265 33.5225 4.10818 32.9543 3.54004C32.3863 2.97193 31.7118 2.52125 30.9695 2.2138C30.2273 1.90633 29.4316 1.74808 28.6282 1.74808C27.8248 1.74808 27.0291 1.90633 26.2868 2.2138C25.5447 2.52125 24.8701 2.97193 24.3019 3.54004C23.7339 4.10818 23.2832 4.78265 22.9757 5.52495C22.6683 6.26724 22.51 7.06282 22.51 7.86627Z" stroke="white" stroke-width="3.49611" stroke-linecap="round" stroke-linejoin="round"/>
<path d="M36.2009 19.2287C35.2667 18.1319 34.1058 17.2511 32.7977 16.6471C31.49 16.0431 30.0666 15.7302 28.626 15.7302C27.1853 15.7302 25.7619 16.0431 24.4539 16.6471C23.1462 17.2511 21.9851 18.1319 21.051 19.2287" stroke="white" stroke-width="3.49611" stroke-linecap="round" stroke-linejoin="round"/>
<path d="M21.7542 45.9318C26.218 47.6335 31.1545 47.6186 35.6081 45.8899" stroke="white" stroke-width="3.49611" stroke-linecap="round" stroke-linejoin="round"/>
<path d="M15.4571 13.9844C13.5437 15.7765 12.0185 17.9424 10.9762 20.3479C9.93378 22.7534 9.39638 25.3473 9.39722 27.9689C9.39722 28.5585 9.43218 29.1342 9.48579 29.7169" stroke="white" stroke-width="3.49611" stroke-linecap="round" stroke-linejoin="round"/>
<path d="M47.768 29.7169C47.8193 29.1389 47.8566 28.5516 47.8566 27.9689C47.8577 25.3473 47.3205 22.7532 46.2782 20.3476C45.2356 17.9421 43.7104 15.7763 41.7966 13.9844" stroke="white" stroke-width="3.49611" stroke-linecap="round" stroke-linejoin="round"/>
</g>
<defs>
<clipPath id="clip0_21_691">
<rect width="55.9377" height="55.9377" fill="white" transform="translate(0.661377)"/>
</clipPath>
</defs>
</svg>
