<?xml version="1.0" encoding="utf-8"?>
<!-- Generator: Adobe Illustrator 28.1.0, SVG Export Plug-In . SVG Version: 6.00 Build 0)  -->
<svg version="1.1" id="Layer_1" xmlns="http://www.w3.org/2000/svg" xmlns:xlink="http://www.w3.org/1999/xlink" x="0px" y="0px"
	 viewBox="0 0 120 96.1" style="enable-background:new 0 0 120 96.1;" xml:space="preserve">
<style type="text/css">
	.st0{fill:#90C5D3;}
	.st1{fill:#B9E4EF;}
	.st2{fill:#9CD4E8;}
	.st3{fill:#C8F2F4;}
	.st4{fill:#C2E8EA;}
	.st5{fill:#EBF5FF;}
	.st6{fill:#A9D1D3;}
	.st7{fill:#5EBFB8;}
	.st8{fill:#017777;}
	.st9{fill:#D9EAF9;}
	.st10{fill:#E5F1FD;}
	.st11{fill:#352821;}
	.st12{fill:#F7C7B7;}
	.st13{fill:#2A70B6;}
	.st14{fill:#4A4A51;}
	.st15{fill:#5E8EBF;}
	.st16{fill:#0E8784;}
	.st17{fill:#004F4A;}
	.st18{fill:#AAB9C1;}
	.st19{fill:#C3CED6;}
	.st20{fill:#D8A48B;}
	.st21{fill:#E8B9AC;}
	.st22{fill:#0E545B;}
	.st23{fill:#16707F;}
	.st24{fill:#8094BC;}
	.st25{fill:#8E9B9A;}
	.st26{fill:#F7CFB8;}
	.st27{fill:#8E5E5E;}
	.st28{fill:#6D4141;}
	.st29{fill:#78BED1;}
	.st30{fill:#565656;}
	.st31{fill:#A81C00;}
	.st32{fill:#68A8DD;}
	.st33{fill:#AFAFAF;}
	.st34{fill:#878787;}
	.st35{fill:#FFFCF7;}
	.st36{fill:#008A8A;}
	.st37{fill:#75531C;}
	.st38{fill:#F5F3F9;}
	.st39{fill:#4C7DA5;}
	.st40{fill:#F2C199;}
	.st41{fill:#FFCFA4;}
	.st42{fill:none;}
	
		.st43{clip-path:url(#SVGID_00000091693541484352182610000012123684099855922860_);fill:url(#SVGID_00000026869119983116437890000013278882090265305786_);}
	.st44{clip-path:url(#SVGID_00000091693541484352182610000012123684099855922860_);}
	.st45{fill:#95D0E5;}
	.st46{fill:#CAE7F1;}
	.st47{opacity:0.46;}
	.st48{fill:url(#SVGID_00000076585585255732399630000012110789706885809579_);}
	.st49{fill:url(#SVGID_00000073693293056186731440000011492282366480626834_);}
	.st50{fill:#ABD9EA;}
	.st51{fill:url(#SVGID_00000068663569930662949780000016489015611380822679_);}
	.st52{fill:#71B9D8;}
	.st53{opacity:0.6;fill:url(#SVGID_00000031903930935695168560000009962567132185144508_);}
	.st54{opacity:0.6;fill:url(#SVGID_00000103965079261363133290000013661496839450222234_);}
	.st55{opacity:0.6;fill:url(#SVGID_00000178911418050334876860000000843126349794362555_);}
	.st56{opacity:0.6;fill:url(#SVGID_00000048490849723250140210000003295832107507419308_);}
	.st57{fill:#3F657D;}
	.st58{fill:#373C3F;}
	.st59{clip-path:url(#SVGID_00000091693541484352182610000012123684099855922860_);fill:#477C99;}
	.st60{fill:none;stroke:#373C3F;stroke-width:0.392;stroke-linecap:round;stroke-linejoin:round;stroke-miterlimit:10;}
</style>
<g>
	<g>
		<g>
			<path class="st0" d="M27,47.8C27,47.8,27,47.8,27,47.8c0-0.4,0-0.8-0.1-1.2c0,0,0,0,0,0l1.3-0.9l-0.4-1.1l-0.4-1.1l-1.6,0.2
				c-0.2-0.3-0.5-0.7-0.7-0.9l0.6-1.5l-1-0.7l-1-0.7l-1.2,1c0,0,0,0,0,0c-0.4-0.2-0.7-0.3-1.1-0.4c0,0,0,0,0,0l-0.3-1.6L20,38.7
				l-1.2-0.1l-0.5,1.5c-0.4,0.1-0.8,0.1-1.2,0.3l-1.1-1.2l-1.1,0.6L14,40.4l0.4,1.6c0,0,0,0,0,0c-0.3,0.3-0.6,0.5-0.8,0.8L12,42.4
				l-0.6,1.1l-0.6,1.1l1.2,1.1c-0.1,0.4-0.2,0.8-0.2,1.2l-1.5,0.5l0.1,1.2l0.1,1.2l1.6,0.3c0.1,0.4,0.3,0.8,0.4,1.1l-1,1.2l0.7,1
				l0.7,1l1.5-0.6c0.3,0.3,0.6,0.5,1,0.7l-0.2,1.6l1.1,0.4l1.1,0.4l0.9-1.3c0.2,0,0.4,0,0.6,0.1c0.2,0,0.4,0,0.6,0l0.7,1.4l1.2-0.3
				l1.2-0.3l0-1.6c0.4-0.2,0.7-0.4,1-0.6L25,55l0.8-0.8l0.8-0.8l-0.8-1.4c0.2-0.3,0.4-0.7,0.6-1l1.6,0l0.3-1.2l0.3-1.2L27,47.8z
				 M19,52.9c-2.9-0.2-5-2.7-4.8-5.6c0.2-2.9,2.7-5,5.6-4.8c2.9,0.2,5,2.7,4.8,5.6C24.4,51,21.9,53.1,19,52.9z"/>
		</g>
	</g>
	<g>
		<g>
			<path class="st1" d="M25.5,47.8c0-0.3,0-0.6-0.1-0.9c-0.1-0.9-0.4-1.6-0.9-2.3c-0.2-0.3-0.4-0.5-0.6-0.8c-0.6-0.6-1.2-1.1-2-1.5
				c-0.3-0.1-0.6-0.2-0.9-0.3c-0.4-0.1-0.8-0.2-1.2-0.2c-0.4,0-0.9,0-1.3,0c-0.3,0-0.6,0.1-0.9,0.2c-0.8,0.2-1.6,0.7-2.2,1.2
				c-1.2,1-2,2.5-2.1,4.2c-0.2,3.4,2.3,6.3,5.6,6.5c1.4,0.1,2.7-0.3,3.8-1c0.7-0.5,1.3-1.1,1.8-1.8c0.2-0.3,0.3-0.5,0.5-0.8
				c0.3-0.6,0.5-1.3,0.5-2C25.5,48,25.5,47.9,25.5,47.8z M24.5,50c-0.1,0.3-0.3,0.5-0.4,0.8c-0.4,0.7-1,1.2-1.6,1.6
				c-1,0.7-2.2,1-3.4,0.9c-3.1-0.2-5.4-2.9-5.2-5.9c0.1-1.5,0.8-2.9,1.9-3.8c0.6-0.5,1.3-0.9,2-1.1c0.3-0.1,0.6-0.1,0.8-0.2
				c0.4-0.1,0.8-0.1,1.2,0c0.4,0,0.8,0.1,1.1,0.2c0.3,0.1,0.6,0.2,0.8,0.3c0.7,0.3,1.3,0.8,1.8,1.4c0.2,0.2,0.4,0.4,0.5,0.7
				c0.4,0.6,0.7,1.4,0.8,2.1c0,0.3,0.1,0.6,0.1,0.9c0,0.1,0,0.3,0,0.4C24.9,48.8,24.7,49.4,24.5,50z"/>
		</g>
	</g>
</g>
<g>
	<g>
		<g>
			<g>
				<path class="st2" d="M38.3,32.1C38.3,32.1,38.3,32.1,38.3,32.1c0-0.7-0.1-1.3-0.3-2c0,0,0,0,0,0l2.1-1.7l-0.8-1.8l-0.8-1.8
					l-2.7,0.5c-0.4-0.5-0.8-1-1.3-1.5l0.9-2.6l-1.7-1.1L32,19l-2,1.9c0,0,0,0,0,0c-0.6-0.2-1.3-0.4-1.9-0.6c0,0,0,0,0,0l-0.6-2.6h-2
					h-2l-0.6,2.6c-0.7,0.1-1.3,0.3-1.9,0.6l-2-1.9l-1.7,1.1l-1.7,1.1l0.9,2.6c0,0,0,0,0,0c-0.5,0.5-0.9,1-1.3,1.5l-2.7-0.5l-0.8,1.8
					l-0.8,1.8l2.1,1.7c-0.1,0.6-0.2,1.3-0.3,2l-2.5,1l0.3,2l0.3,2l2.7,0.3c0.2,0.6,0.5,1.2,0.8,1.8l-1.6,2.2L14,43l1.3,1.5l2.4-1.3
					c0.5,0.4,1.1,0.8,1.7,1.1L19.2,47l1.9,0.6l1.9,0.6l1.4-2.4c0.3,0,0.6,0,1,0c0.4,0,0.7,0,1,0l1.3,2.3l1.9-0.6l1.9-0.6l-0.1-2.7
					c0.6-0.3,1.2-0.7,1.7-1.1l2.4,1.2l1.3-1.5l1.3-1.5l-1.6-2.2c0.3-0.6,0.6-1.2,0.8-1.8l2.7-0.3l0.3-2l0.3-2L38.3,32.1z M25.4,40.2
					c-4,0-7.2-3.2-7.2-7.2c0-4,3.2-7.2,7.2-7.2c4,0,7.2,3.2,7.2,7.2C32.6,36.9,29.4,40.2,25.4,40.2z"/>
			</g>
		</g>
	</g>
	<g>
		<g>
			<g>
				<g>
					<path class="st1" d="M35.7,32.3c0-0.5-0.1-1.1-0.2-1.6c-0.3-1.4-0.9-2.7-1.8-3.8c-0.3-0.4-0.7-0.8-1-1.2c-1-1-2.2-1.8-3.6-2.3
						c-0.5-0.2-1-0.3-1.5-0.4c-0.7-0.1-1.4-0.2-2.1-0.2c-0.7,0-1.5,0.1-2.1,0.2c-0.5,0.1-1,0.3-1.5,0.5c-1.3,0.5-2.6,1.3-3.6,2.3
						c-1.9,1.9-3,4.4-3,7.3c0,5.7,4.6,10.3,10.3,10.3c2.3,0,4.5-0.8,6.2-2.1c1.1-0.9,2.1-2,2.8-3.2c0.3-0.5,0.5-1,0.7-1.5
						c0.4-1.1,0.6-2.3,0.6-3.5C35.7,32.7,35.7,32.5,35.7,32.3z M33.3,35.8c-0.1,0.4-0.3,0.8-0.5,1.2c-0.6,1-1.3,1.9-2.2,2.6
						c-1.4,1.1-3.1,1.7-5,1.7c-4.6,0-8.3-3.7-8.3-8.3c0-2.3,0.9-4.4,2.5-5.9c0.8-0.8,1.8-1.4,2.9-1.9c0.4-0.2,0.8-0.3,1.2-0.4
						c0.6-0.1,1.1-0.2,1.7-0.2c0.6,0,1.1,0.1,1.7,0.2c0.4,0.1,0.8,0.2,1.2,0.4c1.1,0.4,2.1,1,2.9,1.8c0.3,0.3,0.6,0.6,0.8,1
						c0.7,0.9,1.2,2,1.4,3.1c0.1,0.4,0.2,0.8,0.2,1.3c0,0.2,0,0.4,0,0.6C33.8,34,33.6,34.9,33.3,35.8z"/>
				</g>
			</g>
		</g>
	</g>
</g>
<g>
	<path class="st3" d="M67.6,21.8c-1.2-0.5-6.2-2.5-6.2-2.5S61,21.9,62,22.6c1,0.8,3.2,0,3.6,0.8c0.3,0.8-0.9,1-3.1,0.5
		c-2.2-0.4-2.1-0.1-1.7,1.2c0.3,1.3,1.1,2.4,3.1,2.5c1.9,0.2,4.1-1.2,5.2-1.1c1.1,0.1,2.7,0,0.8,1.8c-2,1.8-7.4,0.6-7.1,1.3
		c0.3,0.7,0.7,2,1.9,3.5c1.2,1.6,2.3,1.3,3.8-0.2c1.5-1.5,2.8-2.1,3.3-0.6c0.5,1.5-2.8,2.1-3.9,3c-1.1,0.9,0.2,1.2,2.1,2.7
		c2,1.5,2.2,0.8,3.5-0.4c1.3-1.2,2.5-3.5,3.1-3.2c0.7,0.3-0.3,2.3-1.7,3.1c-1.4,0.8-1.6,1.6-0.4,1.9c1.2,0.3,1.7,0.3,3.3-0.5
		c1.6-0.8,2.3-3.2,2.1-4.5c-0.2-1.3,0.2-2,0.2-2l0.4-0.6l0,0l0,0l0,0l0.2-0.9c0,0-2.4-2.8-3.5-3.9C76.1,25.9,68.8,22.4,67.6,21.8z
		 M67.2,25.4c0,0-0.9,0.7-0.9-0.1C66.2,24.6,67.2,25.4,67.2,25.4z M76.1,30.8c0.6-0.2,0.9,0,0.9,0s-0.5,1.5-1.1,2.2
		c-0.6,0.6-1.5,1.1-1.8,0.2C73.7,32.4,75.5,31,76.1,30.8z M74.3,29c0,0-1.2,1.5-1.9,0.8C71.8,29.2,74.3,29,74.3,29z"/>
	<path class="st4" d="M83.6,20.1c0.1,0.6,0.4,4.9-1,5.9c-1.3,1-2.1-0.3-1.4-1.6c0.7-1.4,0.6-3.6,0.1-4.8c-0.4-1.2-2.1-1.9-3.7-2.6
		c-1.6-0.7-2.8-1.1-2.9-0.6c0,0.5,1.1,3,1.3,5c0.2,2-0.1,2.3-1.1,1.3c-1-1-0.2-4-1.4-5.3c-1.2-1.3-1.3-0.5-3.2-0.4
		c-1.9,0.1-2.7,0.6-1.9,1.9c0.8,1.2,2.6,2.8,1.6,2.7c-1-0.1-1.8-1.7-2.8-2.6c-1-1-2.2-1.4-3.5-0.6c-1.3,0.8-2.4,0.6-2.3,0.8
		c0,0.2,4,1.7,8.4,4c4.4,2.3,8.4,5,9.5,6.5c1,1.3,1.1,1.9,1.1,2.1l0,0l0,0l0,0c0,0,1.1-1,2.1-0.7c1,0.2,5-1.2,5.6-3.3
		c0.7-2.1,0.2-3.4-1.5-5.9C84.9,19.4,83.5,19.6,83.6,20.1z M73.3,21.9c0,0-0.9,0.1-1.3-0.5c-0.2-0.4-0.3-1.3,0.5-1.1
		C73.4,20.4,73.3,21.7,73.3,21.9z M79,25.3c0,0-0.6-0.1-0.7-0.7c-0.2-0.7,0.8-1.8,1.2-1.1C79.8,24.1,79,25.3,79,25.3z"/>
</g>
<path class="st5" d="M21,85.7c2.7,0.9,5.5,1.3,8.3,1.3c9.3,0.1,38.8,0.3,52.1-0.1c16-0.5,28.2-1.1,26.4-4.1
	c-1.8-3-14.7-2.8-15.9-4.5c-1.2-1.7,13.4-1.1,19.9-2.1c8.3-1.4,8.8-5.2-9-5.1c-27.2,0.1-45.9,0.2-48.3-1c-2.4-1.2,3.8-1.5,11.4-2.1
	c7.8-0.6,4.9-3.8-9.1-4.4c-14-0.6-33.6,0-35.4,0c-26.6,0.2-21.3,9.7-5.1,9.9c7,0.1,15.7,0.7,21,0.6c9.9-0.2,12.5,2.8,6.4,3.5
	c-5.9,0.7-22.6,0-25.5,1.9C13.7,82.4,17.2,84.5,21,85.7z"/>
<g>
	<path class="st6" d="M103.5,30.2c0,0,0.7,0.4,1.5,1.9c0.8,1.5,1.9,2.5,1.9,2.8c0,0.2-0.8,0.5-1.2,0.8c-0.5,0.3-0.1,0.4,0.3,0.4
		c0.5-0.1,1-0.4,1.3-0.3c0.3,0.1,0.2,2.7,0.3,3.3c0.1,0.6-0.5,0.4-1.2,0.7c-0.8,0.3-1.1,0.5-0.2,0.5c0.9-0.1,1.6-0.2,1.6,0.2
		s0,2-0.3,2.7c-0.3,0.7-1.1,0.5-2,0.7c-0.9,0.2-0.9,0.7-0.2,0.7c0.8,0,2-0.2,2-0.2s0,0.7-0.6,1.8c-0.5,1.1-0.5,1.7-1,1.6
		c-0.4,0-1.6,0.2-1.8,0.3c-0.3,0.1,1.2,0,1.5,0.1c0.3,0.1-1.3,1.9-1.7,2.3c-0.4,0.4-1.2,0.2-2.1,0.3c-0.9,0.1-0.7,0.5,0.1,0.5
		c0.8,0.1,1.7,0.1,1.3,0.6c-0.4,0.5-1.8,1.5-2.2,1.8c-0.4,0.3-0.9,0-1.1,0c-0.3,0,0.6,0.6,0.1,0.9c-0.4,0.3-1.8,0.9-2.3,1
		c-0.5,0.1-2.1,0.7-2.1,0.7s1.6-2.3,2.2-3.3c0.6-1,3.4-5.3,4.5-9c1.1-3.8,1.6-7.1,1.6-8.5C103.5,34.2,103.5,30.2,103.5,30.2z"/>
	<path class="st4" d="M91.5,59.9c0,0,2.4-2.2,3-3.3c0.5-1.1,0.7-0.9,0.5-1.8c-0.2-0.9-1.1-2.8-1.2-3.3c0-0.5,0.9-1.2,1.1-1.7
		c0.2-0.4,1,0.1,1.4,0.3s0.8,0.4,0.4-0.1c-0.4-0.5-1.4-0.7-1.4-1.2c0-0.5,1-2.2,1.1-3.9c0.1-1.7-0.1-2.6,0-3
		c0.1-0.4,0.3-0.6,0.3-0.6s2.5,1.6,2.9,2.3c0.4,0.7,0.8,1.5,0.7,0.9c-0.1-0.6-0.3-1.2-1.3-2.5c-1-1.2-1.6-1.1-1.5-1.6
		c0.1-0.5,1.5-2.3,1.9-3.7c0.3-1.4,0.8-0.6,1.1-0.2c0.3,0.4,0.8,0.7,0.7,0.3c-0.2-0.4-0.5-1.1-0.8-1.6c-0.3-0.5,0.6-1.1,1.1-1.9
		c0.5-0.7,1.1-1.8,1.3-2.4c0.2-0.5,0.6-1,0.6-1s1.4,7.6-0.7,13.6c-2.1,5.9-5.3,10-6.1,10.9c-0.7,0.9-2.7,3.3-3.1,3.7
		c-0.4,0.4-1.7,1.8-1.9,1.7C91.5,59.9,91.5,59.9,91.5,59.9z"/>
</g>
<g>
	<path class="st6" d="M95.7,64.5c0,0,1.6,0.2,6.3,1.1c4.7,1,7.9-2.2,10-6.9c1.3-3.1,2.3-5.7,2.3-5.7s-4.5-0.9-7.8-1.2
		c-5.1-0.5-8.2,3-9.2,6.7C96.2,62.2,95.7,64.5,95.7,64.5z"/>
	<g>
		<path class="st7" d="M96.4,63.7C96.4,63.8,96.4,63.8,96.4,63.7c0.1,0.1,0.2,0.1,0.3,0.1c0,0,2.5-2.4,7-5.1c4.5-2.7,9.4-4.9,9.5-5
			c0.1,0,0.1-0.1,0.1-0.2c0-0.1-0.1-0.1-0.2-0.1c0,0-5,2.3-9.5,5c-4.5,2.7-7,5.1-7,5.1C96.4,63.6,96.4,63.7,96.4,63.7z"/>
	</g>
	<g>
		<path class="st7" d="M110,55.1C110,55.1,110,55.1,110,55.1c0,0.1,0.1,0.1,0.1,0.1l2.3,0.4c0.1,0,0.2,0,0.2-0.1
			c0-0.1,0-0.2-0.1-0.2l-2.1-0.3l0.8-1.8c0-0.1,0-0.2-0.1-0.2c-0.1,0-0.2,0-0.2,0.1l-0.9,2C110,55,109.9,55.1,110,55.1z"/>
	</g>
	<g>
		<path class="st7" d="M104.9,57.8C104.9,57.8,104.9,57.8,104.9,57.8c0.1,0.1,0.1,0.1,0.2,0.1c0,0,1.1-0.2,2.1-0.1
			c0.9,0.1,3.1,0.7,3.1,0.7c0.1,0,0.2,0,0.2-0.1c0-0.1,0-0.2-0.1-0.2c-0.1,0-2.2-0.6-3.1-0.7c-0.7-0.1-1.5,0-1.9,0.1
			c0.3-0.6,0.9-2,1.1-2.4c0.2-0.6,0.6-1.6,0.6-1.6l-0.3-0.1c0,0-0.4,1-0.6,1.6c-0.2,0.6-1.2,2.7-1.2,2.7
			C104.9,57.7,104.9,57.8,104.9,57.8z"/>
	</g>
	<g>
		<path class="st7" d="M107.4,56.4C107.4,56.5,107.4,56.5,107.4,56.4c0.1,0.1,0.1,0.1,0.2,0.1c0,0,0.8-0.1,1.5-0.1
			c0.7,0.1,2.2,0.5,2.3,0.5c0.1,0,0.2,0,0.2-0.1c0-0.1,0-0.2-0.1-0.2c-0.1,0-1.6-0.4-2.3-0.5c-0.5,0-1,0-1.3,0
			c0.2-0.5,0.6-1.4,0.8-1.7c0.2-0.4,0.4-1.1,0.4-1.1l-0.3-0.1c0,0-0.3,0.7-0.4,1.1c-0.2,0.4-0.9,2-0.9,2
			C107.4,56.4,107.3,56.4,107.4,56.4z"/>
	</g>
	<g>
		<path class="st7" d="M101.7,59.7C101.7,59.7,101.7,59.8,101.7,59.7c0.1,0.1,0.1,0.1,0.2,0.1c0,0,1.6-0.3,2.9-0.2
			c1.3,0.1,4.2,0.9,4.2,0.9c0.1,0,0.2,0,0.2-0.1c0-0.1,0-0.2-0.1-0.2c-0.1,0-3-0.8-4.3-0.9c-1-0.1-2.1,0-2.7,0.1
			c0.3-0.7,1.3-2.8,1.5-3.4c0.3-0.8,0.8-2.1,0.8-2.1c0-0.1,0-0.2-0.1-0.2c-0.1,0-0.2,0-0.2,0.1c0,0-0.5,1.3-0.8,2.1
			c-0.3,0.8-1.6,3.7-1.6,3.7C101.7,59.7,101.7,59.7,101.7,59.7z"/>
	</g>
	<g>
		<path class="st7" d="M98.6,61.9C98.6,61.9,98.6,61.9,98.6,61.9c0.1,0.1,0.1,0.1,0.2,0.1c0,0,1.6-0.3,2.9-0.2
			c1.3,0.1,4.2,0.9,4.2,0.9c0.1,0,0.2,0,0.2-0.1c0-0.1,0-0.2-0.1-0.2c-0.1,0-3-0.8-4.3-0.9c-1-0.1-2.1,0-2.6,0.1
			c0.3-0.7,1.3-2.8,1.5-3.4c0.3-0.8,0.8-2.1,0.8-2.1c0-0.1,0-0.2-0.1-0.2c-0.1,0-0.2,0-0.2,0.1c0,0-0.5,1.3-0.8,2.1
			c-0.3,0.8-1.6,3.7-1.6,3.7C98.6,61.8,98.6,61.8,98.6,61.9z"/>
	</g>
</g>
<g>
	<g>
		<path class="st7" d="M24.3,39.8c-0.1,0-0.2,0-0.2,0c0,0-2.7-4-3.3-7.9c-0.3-2.2-0.2-4,0-5.2c0.1-1.1,0.3-1.7,0.3-1.7
			c0-0.1,0.1-0.1,0.2-0.1c0.1,0,0.1,0.1,0.1,0.2c0,0-0.2,0.6-0.3,1.7c-0.2,1.2-0.3,3,0,5.1c0.6,3.9,3.2,7.7,3.2,7.8
			C24.4,39.7,24.4,39.8,24.3,39.8L24.3,39.8z"/>
	</g>
	<path class="st7" d="M21.2,23.5c0,0.3-0.1,0.6-0.5,1.2c-0.4,0.6,0.4,1.3,0.4,1.3s0.6-0.5,0.9-1.2C22.2,24,21.2,23.5,21.2,23.5z"/>
	<path class="st7" d="M20.8,28.7c0-0.2-0.3-1.2-1.1-1.6c-0.7-0.4-1-1-1-1s-0.2,1.1,0.4,1.9C19.6,28.7,20.8,28.7,20.8,28.7z"/>
	<path class="st7" d="M20.8,30.6c0,0,0.3-0.5,1.2-1.9c0.9-1.5,2.4-1.8,2.4-1.8s0.7,1.6-0.7,2.8C22.2,30.9,20.8,30.6,20.8,30.6z"/>
	<path class="st7" d="M20.8,32.3c0,0-0.3-0.9-1.4-1.1c-1.1-0.2-1.2-0.8-1.2-0.8s-0.5,2,0.8,2.6C19.9,33.3,20.8,32.3,20.8,32.3z"/>
	<path class="st7" d="M21.6,34.4c0,0,0.5-1.2,1.4-1.6c1-0.4,1.3-1.1,1.3-1.1s0.6,1.8-0.6,2.6C22.4,35.1,21.6,34.4,21.6,34.4z"/>
</g>
<g>
	<g>
		<path class="st8" d="M69.2,79.1H53.1c-1.1,0-2.3,0-2.5-0.4c-0.1-0.2,0-0.5,0.3-0.6l2.7-1.3c0.2-0.1,0.3-0.2,0.3-0.3
			c0.2-0.6,1.2-1.1,2.4-1.1h9.6c1.2,0,2.2,0.5,2.4,1.1c0,0.1,0.2,0.2,0.3,0.3L71,78c0.3,0.2,0.4,0.4,0.3,0.6
			C71.1,79,70.3,79.1,69.2,79.1z"/>
		<path class="st7" d="M97.3,71.9h-72c-0.8,0-1.5-0.7-1.5-1.5V29.5c0-0.8,0.7-1.5,1.5-1.5h72c0.8,0,1.5,0.7,1.5,1.5v40.9
			C98.8,71.2,98.1,71.9,97.3,71.9z"/>
		<rect x="26" y="30.6" class="st5" width="70.5" height="35.2"/>
		<rect x="53.9" y="71.9" class="st8" width="14.4" height="5.8"/>
		<path class="st5" d="M63.2,68.8c0,1-0.8,1.8-1.8,1.8c-1,0-1.8-0.8-1.8-1.8c0-1,0.8-1.8,1.8-1.8C62.4,67,63.2,67.8,63.2,68.8z"/>
	</g>
	<g>
		<rect x="26" y="32.6" class="st9" width="70.4" height="33.1"/>
		<path class="st2" d="M40.8,47.7H30.7c-0.2,0-0.4-0.2-0.4-0.4l0,0c0-0.2,0.2-0.4,0.4-0.4h10.1c0.2,0,0.4,0.2,0.4,0.4l0,0
			C41.2,47.5,41.1,47.7,40.8,47.7z"/>
		<path class="st2" d="M40.8,51.2H30.7c-0.2,0-0.4-0.2-0.4-0.4l0,0c0-0.2,0.2-0.4,0.4-0.4h10.1c0.2,0,0.4,0.2,0.4,0.4l0,0
			C41.2,51.1,41.1,51.2,40.8,51.2z"/>
		<path class="st2" d="M40.8,52.8H30.7c-0.2,0-0.4-0.2-0.4-0.4l0,0c0-0.2,0.2-0.4,0.4-0.4h10.1c0.2,0,0.4,0.2,0.4,0.4l0,0
			C41.2,52.6,41.1,52.8,40.8,52.8z"/>
		<path class="st2" d="M40.8,54.4H30.7c-0.2,0-0.4-0.2-0.4-0.4l0,0c0-0.2,0.2-0.4,0.4-0.4h10.1c0.2,0,0.4,0.2,0.4,0.4l0,0
			C41.2,54.2,41.1,54.4,40.8,54.4z"/>
		<path class="st2" d="M40.8,56H30.7c-0.2,0-0.4-0.2-0.4-0.4l0,0c0-0.2,0.2-0.4,0.4-0.4h10.1c0.2,0,0.4,0.2,0.4,0.4l0,0
			C41.2,55.8,41.1,56,40.8,56z"/>
		<path class="st2" d="M92,59.7H30.6c-0.1,0-0.3-0.1-0.3-0.3l0,0c0-0.1,0.1-0.3,0.3-0.3H92c0.1,0,0.3,0.1,0.3,0.3l0,0
			C92.3,59.6,92.2,59.7,92,59.7z"/>
		<path class="st2" d="M92,61.8H30.6c-0.2,0-0.3-0.1-0.3-0.3l0,0c0-0.2,0.1-0.3,0.3-0.3H92c0.2,0,0.3,0.1,0.3,0.3l0,0
			C92.3,61.7,92.2,61.8,92,61.8z"/>
		<path class="st2" d="M92,63.9H30.6c-0.2,0-0.3-0.1-0.3-0.3l0,0c0-0.2,0.1-0.3,0.3-0.3H92c0.2,0,0.3,0.1,0.3,0.3l0,0
			C92.3,63.8,92.2,63.9,92,63.9z"/>
		<rect x="26" y="30.5" class="st2" width="70.5" height="2.1"/>
		<path class="st10" d="M34.3,31.5c0,0.4-0.3,0.8-0.8,0.8c-0.4,0-0.8-0.4-0.8-0.8c0-0.4,0.3-0.8,0.8-0.8
			C34,30.8,34.3,31.1,34.3,31.5z"/>
		<path class="st10" d="M31.4,31.5c0,0.4-0.3,0.8-0.8,0.8c-0.4,0-0.8-0.4-0.8-0.8c0-0.4,0.3-0.8,0.8-0.8
			C31.1,30.8,31.4,31.1,31.4,31.5z"/>
		<path class="st10" d="M28.6,31.5c0,0.4-0.3,0.8-0.8,0.8c-0.4,0-0.8-0.4-0.8-0.8c0-0.4,0.3-0.8,0.8-0.8
			C28.3,30.8,28.6,31.1,28.6,31.5z"/>
		<rect x="48.2" y="37.4" class="st1" width="44.1" height="18.6"/>
		<rect x="50.6" y="51.1" class="st10" width="2.6" height="3.3"/>
		<rect x="55.1" y="45.2" class="st10" width="2.6" height="9.2"/>
		<rect x="73.9" y="40.6" class="st10" width="2.6" height="13.8"/>
		<rect x="64.6" y="42.8" class="st10" width="2.6" height="11.6"/>
		<rect x="79" y="41.5" class="st10" width="2.6" height="12.9"/>
		<rect x="59.7" y="46.6" class="st10" width="2.6" height="7.8"/>
		<rect x="87.5" y="38.8" class="st10" width="2.6" height="15.6"/>
		<rect x="69.3" y="46.1" class="st10" width="2.6" height="8.4"/>
		<rect x="83.2" y="43.4" class="st10" width="2.6" height="11"/>
	</g>
</g>
<g>
	<g>
		<path class="st11" d="M54.5,15.9c0,0-0.2,1.2-0.5,1.5c-0.5,0.3-0.5,0.8-0.5,0.9c0,0.2,0.3,0.4,0.3,0.4l2.7-0.6L55.8,16l-1-0.4
			L54.5,15.9z"/>
		<path class="st12" d="M41.5,35.4c0,0,0.1,0,0.2-0.1c0.1-0.1,0.5-0.8,0.7-1.1c0.2-0.3,0.4-0.7,0.4-0.9c0.1-0.2,0.3-0.8,0.3-0.8
			l0.8,0.4c0,0-0.3,0.6-0.3,0.7c0,0.1-0.1,0.5-0.1,0.5l-0.2,0.7l-0.8,0.6l-0.9,0.4L41.5,35.4z"/>
		<path class="st13" d="M55.8,25.3c-0.1-0.9-0.8-1.6-1.7-1.5l0.1,0.3L47,24.3l-0.1,0c-0.4,0-0.7,0.3-0.9,0.6l-3.1,7.1
			c-0.2,0.4,0,0.5,0.4,0.7c0.4,0.2,0.9,0.5,1.2,0l0,0l3.1-6.3l6.4,0.5c0.1,0,0.2,0,0.2,0C55.2,26.9,55.9,26.2,55.8,25.3z"/>
		<path class="st14" d="M43.5,34.1c0,0,0.1,0.2,0,0.4c0,0.3-0.1,1.4-0.1,1.4l-0.1,0l0-0.9c0,0-0.4,0.1-0.7,0.5
			c-0.3,0.3-0.7,0.5-1,0.5c-0.3,0-1-0.1-1-0.1c0,0,0-0.3,0.5-0.4c0.3,0,0.4-0.1,0.4-0.1c0,0,0,0,0.1,0c0,0,0.1,0.1,0.4,0
			c0.3-0.1,0.9-0.9,1.1-1.1C43.3,34.2,43.4,34.2,43.5,34.1C43.5,34.1,43.5,34.1,43.5,34.1z"/>
		<path class="st12" d="M45.6,35.4c0,0,0.1,0,0.2-0.1c0.1-0.1,0.4-0.7,0.6-1c0.2-0.3,0.2-0.6,0.2-0.8c0-0.2,0-1.2,0-1.2l0.8,0.2
			c0,0,0,1,0,1.1c0,0.1,0,0.4,0,0.4l-0.1,0.7l-0.7,0.6l-0.8,0.4L45.6,35.4z"/>
		<path class="st15" d="M56.9,26c-0.1-1-1.1-1.8-2.1-1.6l-7,0.9l-0.2,0c-0.5,0.1-0.9,0.5-1,1L46.3,32c0,0.4,0.3,0.3,0.7,0.4
			c0.4,0.1,0.8,0.2,0.9-0.2l0,0l0.9-4.5l6.1,0.4c0.1,0,0.3,0,0.4,0C56.3,28,57,27,56.9,26z"/>
		<path class="st14" d="M47.4,34c0,0,0.1,0.2,0.1,0.4c0,0.2-0.1,1.3-0.1,1.3l-0.1,0l0-0.8c0,0-0.3,0.2-0.6,0.5
			c-0.3,0.3-0.6,0.5-0.9,0.5c-0.3,0-0.9,0-1,0c0,0,0-0.3,0.4-0.4c0.2,0,0.4-0.1,0.4-0.1c0,0,0,0,0.1,0c0,0,0.1,0.1,0.3,0
			c0.3-0.1,0.8-0.8,1-1C47.2,34.2,47.3,34.2,47.4,34C47.4,34.1,47.4,34,47.4,34z"/>
		<path class="st12" d="M49.9,22.1c0,0-0.5,0-0.8,0s-0.6-0.1-0.8-0.1c-0.2-0.1-0.3-0.2-0.4-0.2c-0.1,0-0.5,0-0.5,0
			c-0.1,0-0.1,0-0.1,0c0,0,0.2,0.1,0.3,0.1c0.1,0,0.3,0.1,0.4,0.1c0.1,0,0.2,0.1,0.3,0.1c0,0-0.2,0-0.2,0.1c-0.1,0,0,0.1,0.1,0.1
			c0.1,0,0.3,0,0.5,0s0.3,0.1,0.4,0c0.1,0,0.2,0,0.5,0c0.3,0,0.6,0.1,0.6,0.1L49.9,22.1z"/>
		<path class="st8" d="M56,17.1c-0.5-0.1-2,0.5-2.3,1.2l-1.5,3.4l-2.3,0.2c-0.2,0-0.1,0-0.1,0.3c0,0.1-0.1,0.4,0,0.4l0.1,0l2.8,0.3
			l0.1,0c0.1,0,0.3-0.1,0.3-0.2l0.1-0.2l2.3-3.6c0,0,0.1-0.1,0.1-0.1C55.7,18.4,56.5,17.2,56,17.1z"/>
		<path class="st11" d="M53.5,13.6c0,0,0.1-0.6,1.3-1.1c1.2-0.4,2.1,0.4,2.2,0.9c0.2,0.5,1,1.5,1.3,2.3s0.5,2.1,0.5,2.6
			c0,1.4-1.7,1.3-1.7,1.3l-2-5.1L55,13.5L53.5,13.6z"/>
		<path class="st12" d="M53.7,13.6c0,0,0,0.6,0.1,0.7c0.1,0.2,0,0.6,0.1,0.7c0,0.2,0.3,1,0.4,1.1c0.1,0.1,0.4-0.1,0.6-0.2
			c0.1-0.1,0.3,0,0.4,0.2c0.1,0.2,0.1,0.4,0.2,0.7c0,0.3-0.4,0.6-0.7,1c-0.3,0.4-0.6,1-0.6,1l2.1-0.6l0.7-1.6L56,13.3l-2-0.1
			L53.7,13.6z"/>
		<path class="st16" d="M54.6,18c0,0-0.1,0.2,0.1,0.3c0.2,0.1,0.5-0.2,0.5-0.2l-0.5,6.7L54,24.6c-0.3-0.1-0.5-0.2-0.8-0.5l0,0
			l0.2-2.2l0.1-2.6l0.8-1.1L54.6,18z"/>
		<path class="st17" d="M55.2,17.3c0,0-0.9,1.1-1.3,2c-0.3,0.6,0,1.7,0,2.2c0,0.5-0.5,2.7-0.5,2.7l-0.6,0.1c0,0,0.7-2.3,0.6-2.9
			c0-0.6-0.1-1.4-0.1-1.8c0-0.2,0.1-1,0.6-1.5C54.3,17.7,55.2,17.3,55.2,17.3z"/>
		<path class="st11" d="M53.9,13.5c0,0-0.1,0.1-0.2,0.4c0,0.2,0,0.5,0,0.5s-0.4-0.4-0.2-0.7c0.1-0.3,0.4-0.5,0.4-0.5V13.5z"/>
		<path class="st11" d="M53.9,13.5c0,0,0.3,0,0.5,0.2c0.2,0.2,0.4,0.4,0.5,0.5c0.3,0.3,0.7,0.4,0.7,0.4s-0.1,0.9,0.2,1.4
			c0.2,0.5,1.2,0.8,1.2,0.8L57,14l-1.5-1.3l-1.6,0.5V13.5z"/>
		<path class="st12" d="M51.5,22.5c0,0-1.4,0-1.6-0.1c-0.2,0-0.6-0.2-0.8-0.2c-0.1,0-0.2,0-0.3,0c-0.1,0-0.3,0-0.5,0
			c-0.1,0-0.4,0.4-0.5,0.5c-0.1,0.1,0.1,0.1,0.1,0.1c0,0,0,0,0,0.1c0,0,0.1,0,0.2-0.1c0.1-0.1,0.3-0.2,0.3-0.2c0,0,0.3,0,0.4,0.2
			s0.4,0.2,0.7,0.1s0.6,0,0.7,0c0.1,0,1.1,0.1,1.1,0.1L51.5,22.5z"/>
		<path class="st17" d="M55.6,17.4c0.2-0.2,0.6-0.5,0.9-0.6c0.3-0.1,0.5,0,0.8,0.1c0.2,0.1,1.1,0.2,0.8,1.5c-0.3,1.5-0.9,3.4-1,4.4
			c-0.1,1-0.1,1.8-0.1,2.4c0,0.6,0,1.1,0,1.1s-0.7-0.5-1.5-0.7c-0.9-0.2-1.8-0.3-1.8-0.3s0.4-0.5,0.7-2
			C54.7,21.7,53.9,19.1,55.6,17.4z"/>
		<path class="st8" d="M57.9,17.2c-0.5-0.3-1.2,0.6-1.4,1.1L54.2,22l-3,0.2c-0.1,0-0.2,0-0.2,0.4c0,0.4-0.1,0.4,0,0.4l3.6,0.4
			c0.3,0,0.5-0.1,0.7-0.3l2.7-4.1C58.2,18.4,58.3,17.4,57.9,17.2z"/>
	</g>
	<g>
		<path class="st18" d="M51.1,24.9L49,24.6l0,0.2c0,0,0.8,0.1,0.8,0.1C49.8,24.9,51.1,24.9,51.1,24.9z"/>
		<path class="st19" d="M49.4,24.9l-4.1-0.3c0,0-0.1-0.1-0.1-0.1l-0.7-3.2c0-0.1,0-0.1,0.1-0.1l4.1,0.3c0,0,0.1,0.1,0.1,0.1l0.7,3.2
			C49.5,24.8,49.4,24.9,49.4,24.9z"/>
		<path class="st19" d="M49.6,24.9l1.6,0c0,0,0,0,0-0.1c0,0-1.7,0-1.7,0l-0.1,0c0,0,0.1,0,0.1,0.1C49.5,24.9,49.6,24.9,49.6,24.9z"
			/>
		<path class="st18" d="M45.3,24.5c0,0,0,0,0.1,0.1c0.1,0,4.2,0.3,4.2,0.3s-0.1,0-0.1,0c0,0,0-0.1,0-0.1L45.3,24.5z"/>
	</g>
</g>
<g>
	<g>
		<g>
			<path class="st20" d="M90.2,81.7c0,0,0.1,0.7,0,0.8c0,0.2-0.3,0.3-0.5,0.5c-0.2,0.2-0.3,0.2-0.3,0.3c0,0.1,0.2,0.2,0.7-0.1
				c0.5-0.3,0.7-0.4,0.8-0.5c0-0.1-0.1-0.7-0.1-1.1c0-0.3,0-0.4,0-0.4l-0.5,0L90.2,81.7z"/>
		</g>
	</g>
	<g>
		<g>
			<path class="st14" d="M89.6,83.1c0,0-0.1,0.1,0,0.1c0.2,0.1,0.6-0.2,0.8-0.3c0.2-0.1,0.3-0.3,0.4-0.3c0.1,0,0.1-0.1,0.1-0.1
				s0,0.4,0.1,0.5c0,0.1,0,0.2,0,0.2l-0.5,0.2l0-0.2c0,0-0.3,0.3-0.7,0.4c-0.3,0.1-0.8,0.1-0.8,0C89,83.4,89.6,83.1,89.6,83.1z"/>
		</g>
	</g>
	<g>
		<g>
			<path class="st20" d="M87.7,81c0,0,0.1,0.8,0,1c0,0.2-1.1,0.3-1.1,0.4c0,0.1,0.2,0.2,0.8,0.1c0.4-0.1,0.9-0.2,0.9-0.3
				c0-0.1,0-0.8,0-1.2c0-0.4,0-0.4,0-0.4l-0.5,0L87.7,81z"/>
		</g>
	</g>
	<g>
		<g>
			<path class="st14" d="M86.9,82.3c-0.1,0-0.3,0.2,0.1,0.2c0.4,0,0.7-0.1,1-0.2c0.2-0.1,0.2-0.1,0.3-0.1c0.1-0.1,0.1-0.1,0.1-0.1
				l0,0.6l-0.7,0.1l0-0.1c0,0-0.6,0.2-1,0.1c-0.3,0-0.4-0.2-0.4-0.3C86.3,82.4,87,82.3,86.9,82.3z"/>
		</g>
	</g>
	<g>
		<g>
			<g>
				<path class="st11" d="M88.8,52.9C88.8,52.9,88.8,52.9,88.8,52.9c-0.1,0-0.3,0-0.3-0.1c0-0.1-0.1-0.6,0-0.7c0,0,0,0,0,0
					c0.1,0,0.4,0,0.4,0l0,0.1c-0.1,0-0.3,0-0.4,0c0,0.1,0,0.5,0,0.6C88.6,52.8,88.7,52.8,88.8,52.9C88.8,52.8,88.8,52.8,88.8,52.9
					c0-0.1,0.1-0.1,0.1-0.2l0.1,0C89,52.8,88.9,52.9,88.8,52.9z"/>
			</g>
		</g>
	</g>
	<g>
		<g>
			<path class="st21" d="M86.7,58.8c0,0-0.2,0-0.3-0.2s-0.3-0.2-0.5-0.4c-0.2-0.1-0.3-0.2-0.4-0.2c-0.2,0-0.1,0.1-0.1,0.1
				c0,0,0.1,0.1,0.1,0.2c0,0.1-0.1,0.4,0,0.5c0.1,0.2-0.1,0.4,0,0.4c0.1,0,0.6-0.1,0.8-0.1c0.3,0,0.4,0.1,0.4,0.1L86.7,58.8z"/>
		</g>
	</g>
	<g>
		<g>
			<path class="st2" d="M88.8,60.1l-2.2-0.5c-0.3-0.1-0.2-0.3-0.1-0.6c0.1-0.3,0-0.5,0.3-0.4L89,59c0.3,0,0.5,0.3,0.5,0.7
				C89.5,60,89.2,60.2,88.8,60.1C88.8,60.1,88.8,60.1,88.8,60.1z"/>
		</g>
	</g>
	<g>
		<g>
			<path class="st22" d="M90.1,62.4c-1.1-0.1-1.8,2.3-1.8,2.3L87.7,68c-0.1,0.6-0.2,1.1-0.2,1.7l-0.3,3.7l0,0.2l0.1,1.9
				c0,0.6,0.1,1.3,0.1,1.9l0.1,1.9l0,1.9l0,0c0,0.3,0.3,0.3,0.6,0.3c0.3,0,0.6,0,0.6-0.3c0-0.6,0.1-1.2,0.1-1.8l0.2-1.9
				c0.1-0.6,0.1-1.2,0.2-1.9l0.2-1.9l0,0.1l0.6-2.2c0.2-0.7,0.4-1.5,0.6-2.2l0.6-2.2c0.2-0.7,0.4-1.5,0.7-2.2c0-0.1,0.1-0.3,0.1-0.4
				C92,63.5,91.2,62.5,90.1,62.4z"/>
		</g>
	</g>
	<g>
		<g>
			<path class="st2" d="M89.1,58.3c0,0-0.5,1.7-0.7,3.3c-0.3,1.6-0.5,2.7-0.4,3c0.2,0.3,1.2,0.1,1.2,0.1L89.1,58.3z"/>
		</g>
	</g>
	<g>
		<g>
			<path class="st23" d="M90.8,62.2c-1,0.1-1.8,0.9-1.8,1.8l0,0l0,0.6l0,0.6l-0.1,1.2l-0.1,2.4l0,0.6l0,0.6l0,1.2l-0.1,2.4l0,0.2
				c0,0,0,0.1,0,0.1l0.3,2.1c0.1,0.7,0.2,1.4,0.3,2.1l0.3,2.1l0.2,1l0.1,0.5l0.1,0.5c0.1,0.3,0.4,0.2,0.8,0.2c0.3-0.1,0.5,0,0.5-0.2
				l0,0c0-0.7,0.1-1.4,0.1-2.1c0,0,0-0.9,0.1-1.8c0-1.5,0-3.1-0.3-4.6l0,0c0,0,1.1-3.5,1.2-4.2l0.4-2.3c0.1-0.8,0.3-1.2,0.4-2
				c0,0,0-0.1,0-0.1C93,63.5,92,62.1,90.8,62.2z"/>
		</g>
	</g>
	<g>
		<g>
			<path class="st12" d="M89,51.3c0,0-0.1,0.2-0.1,0.2c0,0.2-0.1,0.5-0.1,0.7c0,0.2,0.1,0.4,0,0.6C88.8,53,89,53.7,89,53.9
				c0.1,0.2,0.1,0.3,0.5,0.3c0.4,0,0.8,0,1,0.4c0.2,0.4,0.2,0.7,0.2,0.7l1-0.9c0,0-0.2-0.3-0.3-0.6c0-0.3,0.2-1.5,0.2-1.8
				c0-0.3-1.4-0.9-1.4-0.9s-0.9,0-1,0.1C89.2,51.2,89.1,51.2,89,51.3z"/>
		</g>
	</g>
	<g>
		<g>
			<path class="st11" d="M88.8,51.1c0,0-0.1,0.5,0.2,0.7c0.4,0.2,0.4,0.1,0.6,0.3c0.1,0.2,0.1,0.3,0.2,0.3c0.1,0,0.2-0.2,0.4-0.1
				c0.2,0.2,0.1,0.3,0.1,0.4c0,0.1,0.1,0.2,0.4,0.4c0.3,0.2,0.6,0.2,0.8,0.2c0.2,0,0.6-0.3,0.6-0.8c0.1-0.5,0-0.7,0-0.7
				s0.4,0.2,0.4-0.2c0-0.2-0.1-0.6-0.3-0.8c-0.2-0.1-0.3,0.1-0.3,0.1c0,0-0.4-0.5-1-0.6c-0.6-0.1-1.2,0-1.4,0.1
				c-0.2,0.1-0.3,0.1-0.5,0.2C88.9,51,88.8,51.1,88.8,51.1z"/>
		</g>
	</g>
	<g>
		<g>
			<g>
				<polygon class="st11" points="89.8,52.5 88.5,52.4 88.5,52.3 89.8,52.4 				"/>
			</g>
		</g>
	</g>
	<g>
		<g>
			<path class="st13" d="M92.2,54.7c0,0,0.7,1.2,0.8,2.4c0.1,0.7-0.2,3.4-0.3,4.4c-0.1,1,0.3,2.7,0.3,2.7s-1.5,0.4-2.3,0.4
				c-0.9,0.1-2.2-0.1-2.2-0.1s0.5-2.4,0.2-3.6c-0.2-1.2,0.2-2.8,0.2-2.8s0.6-1.5,1-2C90.6,55.8,92.2,54.7,92.2,54.7z"/>
		</g>
	</g>
	<g>
		<g>
			<path class="st2" d="M89.1,58.3c0,0,0.6-1.7,1.1-2.5c0.6-0.8,1.5-1.7,1.7-1.5c0.2,0.2,0.6,0.4,0.4,0.6c-0.3,0.2-2,1.5-2.6,2.4
				C89.1,58.3,89.1,58.3,89.1,58.3z"/>
		</g>
	</g>
	<g>
		<g>
			<g>
				<path class="st12" d="M87.9,62c-0.2-0.1-0.4-0.3-0.6-0.5c-0.1-0.2-0.3-0.3-0.3-0.5s-0.2-0.5-0.2-0.6c-0.1-0.1-0.1-0.2-0.2-0.3
					c-0.1,0,0,0.3,0,0.3c0,0,0.1,0.3,0.1,0.2c-0.1,0-0.2-0.2-0.3-0.2c-0.1-0.1-0.3-0.1-0.4-0.2s-0.1-0.2-0.2-0.3s-0.1,0.1-0.1,0.2
					c0,0.1,0,0.1,0.1,0.2c-0.1,0-0.1-0.1-0.1-0.2c0-0.1-0.1-0.3-0.2-0.4c-0.1-0.1-0.1,0.2,0,0.3c0.1,0.1,0.1,0.5,0.4,0.6
					c0.2,0.1,0.5,0.2,0.7,0.4c0.2,0.2,0.5,0.6,0.6,0.8c0.2,0.2,0.2,0.1,0.4,0.2C87.6,62.1,87.8,62.1,87.9,62z"/>
			</g>
		</g>
	</g>
	<g>
		<g>
			<path class="st2" d="M91.5,55.9c-0.7,0-1.2,0.5-1.3,1.2l-0.2,4.4l-2.3-0.5c-0.3-0.1-0.3,0.1-0.4,0.4c-0.1,0.3-0.2,0.6,0.1,0.7
				l0,0l3.3,1.4c0.1,0,0.1,0.1,0.2,0.1c0.5,0.1,0.9-0.3,1-0.7l0-0.1l0.7-5.4c0,0,0-0.1,0-0.1C92.7,56.5,92.2,55.9,91.5,55.9z"/>
		</g>
	</g>
	<g>
		<g>
			<g>
				<g>
					<path class="st23" d="M87.5,59.8l-0.9,0.5c-0.1,0.1-0.3,0-0.4-0.1l-2.6-4.5c-0.1-0.1,0-0.3,0.1-0.4l0.1,0
						c0.3-0.1,0.5-0.2,0.8-0.4l0.1-0.1c0.1-0.1,0.3,0,0.4,0.1l2.6,4.5C87.7,59.6,87.6,59.7,87.5,59.8z"/>
				</g>
			</g>
		</g>
		<g>
			<g>
				<g>
					<path class="st22" d="M88.4,62.3L88.4,62.3c-0.5,0.3-1.1,0.1-1.4-0.5L85.3,59c-0.1-0.1,0-0.3,0.1-0.3l0,0
						c0.5-0.1,0.9-0.3,1.2-0.7l0.1-0.1c0.1-0.1,0.3,0,0.3,0.1l1.6,2.8C88.9,61.4,88.8,62,88.4,62.3z"/>
				</g>
			</g>
		</g>
		<g>
			<g>
				<g>
					<path class="st23" d="M81.1,56.2c-3.5-0.2-6.2-3.3-5.9-6.8c0.2-3.5,3.3-6.2,6.8-5.9c3.5,0.2,6.2,3.3,5.9,6.8
						C87.7,53.8,84.6,56.4,81.1,56.2z M81.2,55.2c3,0.2,5.6-2,5.8-5c0.2-3-2-5.6-5-5.8c-3-0.2-5.6,2-5.8,5
						C75.9,52.4,78.2,55,81.2,55.2z"/>
				</g>
			</g>
		</g>
		<g>
			<g>
				<g>
					<path class="st23" d="M87.7,62.1L87.7,62.1c0.1-0.1,0.2-0.2,0.1-0.3l-1.6-2.8c-0.1-0.1-0.2-0.2-0.3-0.1l0,0
						c-0.1,0.1-0.2,0.2-0.1,0.3l1.6,2.8C87.4,62.1,87.6,62.1,87.7,62.1z"/>
				</g>
			</g>
		</g>
		<g>
			<g>
				<g>
					<path class="st1" d="M78,50.2c0.5,0,1-0.4,1-0.9c0-0.5-0.4-1-0.9-1c-0.5,0-1,0.4-1,0.9C77.1,49.7,77.5,50.2,78,50.2z"/>
				</g>
			</g>
		</g>
		<g>
			<g>
				<g>
					<path class="st1" d="M78.6,52.3c0.3,0,0.5-0.2,0.6-0.5c0-0.3-0.2-0.5-0.5-0.6c-0.3,0-0.5,0.2-0.6,0.5
						C78.1,52,78.3,52.3,78.6,52.3z"/>
				</g>
			</g>
		</g>
	</g>
	<g>
		<g>
			<path class="st12" d="M85.6,58.3C85.7,58.3,85.7,58.4,85.6,58.3c0,0.1-0.1,0.1-0.1,0.1c-0.2,0-0.2,0-0.2,0c0,0,0.2,0,0.3,0
				c0.1,0,0.2,0.1,0.2,0.1c0,0,0,0.1,0,0.1c0,0,0,0,0,0.1c0,0-0.1,0.1-0.1,0.1s0.1,0,0,0.1c0,0-0.1,0-0.2,0.1
				c-0.1,0-0.2,0.1-0.2,0.2c0,0.1-0.2,0.1-0.2,0c0,0,0-0.1,0-0.1s-0.1,0-0.1-0.1c0-0.1,0-0.3,0-0.4c0-0.1-0.1-0.2,0-0.2
				c0.1,0,0.3,0,0.5,0C85.6,58.3,85.6,58.3,85.6,58.3z"/>
		</g>
	</g>
</g>
<rect x="30.6" y="36.4" class="st2" width="10.6" height="8.4"/>
<path class="st13" d="M33.4,42.7h-1.2c-0.8,0-1.5-0.7-1.5-1.5v-4.8H35v4.8C35,42,34.3,42.7,33.4,42.7z"/>
<path class="st13" d="M36.6,44.4h-0.2c-0.8,0-1.4-0.6-1.4-1.4v-6.6h3.1v6.5C38.1,43.7,37.4,44.4,36.6,44.4z"/>
<path class="st24" d="M21.4,75.8h17.7l0.8,5.1l0.3-0.1l-4-26.2l-11.9-0.1l-3.9,26.3l0.3,0.1L21.4,75.8z M23.6,61h13.2l0.8,5H22.9
	L23.6,61z M37.7,66.3l0.7,4.5H22.1l0.7-4.5H37.7z M36.8,60.7H23.7l0.9-5.8L35.9,55L36.8,60.7z M21.5,75.4l0.6-4.2h16.3l0.6,4.2H21.5
	z"/>
<g>
	<path class="st14" d="M26.7,69.9c0,0-0.1,0.9-0.1,1.1c0,0.3,0.2,0.4,0.6,0.4c0.4,0,0.5-0.1,0.6-0.2c0-0.1,0.1-0.1,0.3-0.1
		c0.2,0,0.4,0,0.6-0.1c0.2-0.1,0.2-0.4,0-0.6c-0.2-0.1-0.4-0.2-0.6-0.3c-0.2,0-0.2-0.3-0.2-0.3L26.7,69.9z"/>
	<path class="st14" d="M30.2,69.4c0,0-0.1,1.2,0,1.5c0.1,0.3,0.5,0.2,1,0.1c0.5-0.1,0.9,0.1,1.4,0c0.4-0.1,0.4-0.5-0.1-0.7
		c-0.6-0.1-1-0.1-1.1-0.4c-0.1-0.3-0.1-0.6-0.1-0.6L30.2,69.4z"/>
	<path class="st17" d="M26.9,54.2c1,0,2,0.8,1.9,1.8l0,0l0,0.4l0,0.4l-0.1,0.9l-0.3,0.8l0.2,4.6l-0.1,1.5L28,69.8
		c0,0.5-0.4,0.3-0.8,0.3c-0.5,0-0.7,0.2-0.7-0.3l0,0l-0.2-4.5c0-0.4,0-0.8,0-1.2l0.1-1.1l-1.2-5.1c-0.1-0.3-0.1-0.8-0.1-1.2
		C25.1,55.3,25.5,54.1,26.9,54.2z"/>
	<path class="st8" d="M27.3,53.5c0.9-0.3,2,0.1,2.3,1.1l0,0l2.2,5.9l0.1,0.2c0,0.1,0.1,0.3,0.1,0.4l-0.6,8.1c0,0.5,0,0.5-0.6,0.5
		c-0.4,0-0.7,0.1-0.7-0.3l-0.6-5.1c0-0.5,0-1,0.1-1.5l0.2-1.3l-3.5-4.7C25.5,55.4,26.4,53.9,27.3,53.5z"/>
	<g>
		<g>
			<path class="st2" d="M31.2,39.9l2.6-1.5c0.2-0.1,0.2-0.3,0.1-0.5l-0.1-0.2c-0.1-0.2-0.3-0.2-0.5-0.1l-2.6,1.5
				c-0.2,0.1-0.2,0.3-0.1,0.5l0.1,0.2C30.9,39.9,31.1,40,31.2,39.9z"/>
		</g>
		<g>
			<path class="st25" d="M33.5,40.8C33.5,40.8,33.5,40.7,33.5,40.8l-0.2-0.4c0,0,0-0.1,0-0.1l1.3-1.6c0.1-0.1,0.1-0.1,0-0.2
				l-0.4-0.6c-0.1-0.1-0.2-0.1-0.3-0.1l-0.2,0.1c0,0,0,0,0,0.1c0,0,0,0,0.1,0l0.2-0.1c0,0,0.1,0,0.1,0l0.4,0.6c0,0,0,0.1,0,0.1
				l-1.3,1.6c-0.1,0.1-0.1,0.2,0,0.3L33.5,40.8C33.4,40.8,33.5,40.8,33.5,40.8z"/>
		</g>
		<g>
			<path class="st11" d="M34.4,42.7l0.2-0.1c0.1,0,0.1-0.1,0-0.2l-1-1.8c0-0.1-0.1-0.1-0.2,0l-0.2,0.1c-0.1,0-0.1,0.1,0,0.2l1,1.8
				C34.3,42.7,34.4,42.7,34.4,42.7z"/>
		</g>
	</g>
	<path class="st26" d="M28.3,43.2c0,0,0.7,1.7,0.4,1.9c-0.3,0.2-0.5,0.3-0.5,0.4c0,0.1,0,0.1,0,0.1l0,0l0,0.5l-1.7-0.2l-0.2-1.5
		L25.7,43l2.1-0.4L28.3,43.2z"/>
	<path class="st11" d="M28.2,43c0,0-0.2,0.3-0.2,0.5c0,0.2,0,0.4-0.1,0.4c-0.1,0-0.1-0.2-0.4-0.2c-0.3,0.1-0.3,0.4-0.2,0.6
		c0.1,0.2,0,0.8-0.2,0.9s-0.6,0.4-1,0.2c-0.3-0.2-0.2-0.6-0.5-1c-0.3-0.3-0.4-0.5-0.4-0.6c0-0.1,0.5-0.9,0.5-0.9L28.2,43z"/>
	<path class="st27" d="M28.8,43.1c0,0-0.1,0.2-0.6,0.2c-0.5-0.1-1,0.2-1.4,0.5c-0.4,0.3-1.2,0.6-1.4,0.7c-0.2,0-0.1,0-0.1-0.1
		c0-0.2-0.3-0.5-0.2-1c0.1-0.5,0.6-1.5,1.7-1.3c1.1,0.2,1.5,0.9,1.7,1C28.8,43,28.8,43.1,28.8,43.1z"/>
	<path class="st28" d="M26.7,43.4c0,0-0.7,0.4-1,0.6c-0.3,0.1-0.4,0.2-0.4,0.2l0-0.1c0,0,0.4-0.1,0.7-0.3
		C26.3,43.5,26.7,43.4,26.7,43.4z"/>
	<path class="st26" d="M30.2,47.6l2.8-2.3l0.1-0.1c0,0,0.1-0.1,0.1-0.1l0.8-2.2l0,0c0.1-0.2,0.1-0.4-0.2-0.5c-0.2-0.1-0.3-0.1-0.4,0
		l-1.4,2.2l0.2-0.2l-2.9,2.1c-0.3,0.2-0.4,0.7-0.2,1C29.4,47.8,29.8,47.9,30.2,47.6C30.2,47.7,30.2,47.6,30.2,47.6z"/>
	<path class="st6" d="M26.9,45.8c-0.1,0-1.2-0.1-1.5,1c-0.3,1.3,0,2.3,0.1,3.6s0,3.3,0,3.3l0.1,0.1c1,0.5,2.1,0.7,3.2,0.7l0.4,0
		c0,0,0.3-4.9,0.5-5.8c0.2-0.8,1.7-1.8,1.7-1.8l-0.6-1.6c0,0-0.6,0.3-1,0.5c-0.5,0.2-0.7,0.2-0.8,0.2c-0.2,0-0.7,0.2-1.1,0.2
		S26.9,45.8,26.9,45.8z"/>
	<path class="st8" d="M26.6,45.8c0,0-0.3,0.8-0.4,1.8c-0.1,0.9,0,1.4,0,1.4l0.8,0c0,0,0.7-2.1,1-2.6c0.3-0.5,0.4-0.5,0.4-0.5
		l0.6-0.1c0,0-0.8,0.7-1.1,1.8c-0.3,1.2-0.3,1.5-0.3,1.5s0.3,0,0.3,0.5c0,0.5-0.2,1.8,0,2.1c0.2,0.3,0.9,0.3,1.3,0.1
		c0.2-0.2,0.4-0.5,0.4-0.5s0,2.8,0.3,3.6c-0.2,0.5-2.7,0.8-3.8,0.7c-0.6,0-0.7-0.3-0.7-0.3s0.1-0.6,0.1-1.7c0.1-2.1-0.1-2.4-0.1-3.6
		c0-0.3,0-0.5,0.1-0.7c0-0.1,0.3-0.2,0.4-0.2c0.1-1.6,0.2-2.1,0.2-2.1s0.2-0.9,0.3-1C26.2,45.8,26.6,45.8,26.6,45.8z"/>
	<path class="st26" d="M33.5,42.4c0,0,0.1-0.6,0.1-0.8c0-0.1,0.1-0.3,0.2-0.4c0-0.1,0.2-0.1,0.2-0.1c0,0.1,0,0.1,0,0.1
		s0.1-0.1,0.2,0c0.1,0,0.1,0.1,0.1,0.1s0.2,0.1,0.2,0.1c0.1,0,0.1,0,0.1,0s0.1,0.2,0.2,0.3c0.1,0.1,0,0.3-0.2,0.5
		c-0.2,0.2-0.4,0.6-0.4,0.6L33.5,42.4z"/>
</g>
<g>
	<path class="st29" d="M50.1,55.3c0.3-0.5,1-0.7,1.5-0.3l0,0l4.2,2.8l3.6-0.2c0.3,0,0.3,0.3,0.3,0.7c0,0.4,0.2,0.7-0.1,0.6l-4.1,0.4
		c-0.1,0-0.1,0-0.2-0.1l-0.1,0l-4.6-2.3c0,0-0.1,0-0.1-0.1C50,56.5,49.8,55.8,50.1,55.3z"/>
	<g>
		<path class="st30" d="M58.7,74.2c0,0,0.1,0,0.2,0c0,0,0,0,0,0l0.2-0.5l-0.6,0L58.7,74.2C58.7,74.1,58.7,74.1,58.7,74.2z"/>
		<path class="st26" d="M58.6,73.7c0.1,0,0.3,0,0.5,0c0,0,0.1,0,0.1-0.1c0,0,1-1.3,1-1.3l-1-0.2l-1.7,0L58.6,73.7
			C58.5,73.6,58.5,73.7,58.6,73.7z"/>
		<polygon class="st31" points="59.1,72.7 60.1,72.4 59.8,71.9 58.4,71.8 57.4,72.1 57.8,72.6 		"/>
		<polygon class="st32" points="60,54.5 60.1,72.4 59.1,72.7 59,54.8 		"/>
		<polygon class="st13" points="57.7,54.7 57.8,72.6 59.1,72.7 59,54.8 		"/>
		<polygon class="st32" points="57.3,54.2 57.4,72.1 57.8,72.6 57.7,54.7 		"/>
		<g>
			<path class="st33" d="M57.7,54.7c0.6,0.2,1.5,0.2,2,0c0.3-0.1,0.4-0.2,0.4-0.4h0l0-1.8l-2.8,0l0,1.8
				C57.3,54.5,57.4,54.6,57.7,54.7z"/>
			<path class="st34" d="M57.7,52.9c-0.6-0.2-0.6-0.5,0-0.7c0.6-0.2,1.5-0.2,2,0c0.6,0.2,0.6,0.5,0,0.7
				C59.1,53.1,58.2,53.1,57.7,52.9z"/>
		</g>
		<g>
			<path class="st35" d="M57.8,52.8c0.5,0.2,1.3,0.2,1.8,0c0.3-0.1,0.4-0.2,0.4-0.3h0l0-1.4l-2.5,0l0,1.4
				C57.5,52.6,57.6,52.7,57.8,52.8z"/>
			<path class="st33" d="M57.8,51.4c-0.5-0.2-0.5-0.4,0-0.6c0.5-0.2,1.3-0.2,1.8,0c0.5,0.2,0.5,0.4,0,0.6S58.3,51.6,57.8,51.4z"/>
		</g>
	</g>
	<g>
		<path class="st36" d="M50.4,81.6l0,0.5c0,0,0.2,0.3,0.6,0.2c0.4-0.1,0.6-0.2,0.6-0.2s-0.2-0.1-0.2-0.3c0-0.2-0.1-0.5-0.1-0.5
			L50.4,81.6z"/>
		<path class="st14" d="M53.7,83.1c0.1,0,0.2-0.1,0.2-0.2c0-0.1-0.1-0.2-0.2-0.3c-0.4-0.1-0.9-0.1-1.3-0.2c-0.4-0.1-0.6-0.5-0.8-0.5
			s-0.3,0-0.3,0.1c0,0.1,0.1,0.1-0.1,0.2c-0.1,0-0.5,0-0.6-0.1c-0.1-0.1-0.2-0.2-0.2-0.2l0,1.2l0.9,0l0-0.2c0,0,0.2,0,0.3,0.2
			c0.1,0.1,0.2,0.1,0.3,0.1C52,83.1,53.3,83.1,53.7,83.1z"/>
		<path class="st36" d="M42.5,80.1l-0.2,0.4c0,0,0,0.4,0.4,0.6c0.4,0.2,0.6,0.2,0.6,0.2s-0.1-0.2,0-0.3c0.1-0.2,0.3-0.5,0.3-0.5
			L42.5,80.1z"/>
		<path class="st14" d="M44.4,83.1c0.1,0,0.2,0,0.3,0c0.1-0.1,0.1-0.2,0-0.3c-0.2-0.2-0.5-0.3-0.7-0.4c-0.1-0.1-0.2-0.2-0.3-0.3
			c-0.2-0.4-0.2-0.7-0.3-0.9C43.3,81,43.1,81,43.1,81c0,0,0,0.2-0.1,0.1c-0.1-0.1-0.4-0.3-0.4-0.5c-0.1-0.1-0.1-0.3-0.1-0.3l-0.7,1
			l0.7,0.6l0.1-0.2c0,0,0.1,0.2,0.1,0.3c0,0.1,0.1,0.2,0.2,0.3c0,0,0.3,0.2,0.6,0.5C43.7,82.9,44.1,83.1,44.4,83.1z"/>
		<path class="st12" d="M58.3,60.8c0,0,0.5,0.1,0.7,0.1c0.1,0,0.5-0.1,0.6-0.1c0.1,0,0.2,0.1,0.2,0.1s-0.1,0-0.1,0c0,0-0.1,0,0,0
			c0,0,0.2,0.2,0.3,0.2c0.1,0.1,0.3,0.2,0.3,0.3c0,0.1,0,0.1-0.1,0.1c0,0-0.1,0-0.1,0s-0.1,0.1-0.1,0.1c-0.1,0-0.1,0.1-0.1,0.1
			c-0.1,0-0.1,0-0.1,0s-0.1,0.1-0.1,0.1c0,0-0.3-0.2-0.4-0.2c-0.1,0-0.2,0-0.3-0.1c-0.6-0.2-1-0.3-1-0.3L58.3,60.8z"/>
		<path class="st29" d="M53.4,59.5c0,0-0.2,4.1-0.4,5.5c-0.2,1.2-0.3,1.8-0.3,1.8L51.1,66L53.4,59.5z"/>
		<path class="st17" d="M50,64.1c1.1,0,1.9,0.9,2,2l0,0l0.1,8.5l0,0.2c0,0,0,0,0,0l-0.3,3l-0.2,1.5l-0.1,1.9l0,0
			c-0.1,0.5-0.3,0.5-0.8,0.5c-0.6,0-0.4-0.1-0.5-0.6l-0.6-4.2c0-0.3,0-0.7,0-1c0.1-0.7,0.2-0.8,0.5-1.9l0,0c0,0-1.1-3.7-1.2-4.4
			l-0.5-1.1L48,66.4c0-0.1,0-0.2,0-0.3C47.9,65,48.9,64,50,64.1z"/>
		<path class="st8" d="M42.6,79.5l1.5-3.8c0.2-0.4,0.4-0.9,0.7-1.3c0.3-0.4,0.7-0.8,1.1-1.2l0,0l0.9-8.2c0-0.1,0-0.2,0.1-0.2
			c0.4-1.1,1.6-1.6,2.6-1.2c1,0.4,1.5,1.5,1.1,2.5l0,0L48,74.1l-0.1,0.2c0,0.1-0.1,0.2-0.2,0.3l-4,6l0,0c-0.3,0.3-0.5,0.1-0.9-0.1
			C42.4,80.2,42.4,80,42.6,79.5z"/>
		<path class="st12" d="M53.6,50.7c0,0,0.2,0.7,0.1,0.9c0,0.2,0.1,0.5,0.1,0.9c0,0.3,0.1,1.1-0.2,1.4c-0.2,0.3-0.8,0.1-1.1,0.3
			c-0.2,0.3-0.3,0.6-0.3,0.6l-1.3-0.7c0,0,0.4-0.5,0.3-0.9c-0.1-0.5-0.4-1-0.4-1.8c0-0.8,0.8-1.4,1.4-1.4
			C52.9,50.1,53.6,50.7,53.6,50.7z"/>
		<path class="st37" d="M53.2,51.1c-0.4,0.1-0.6-0.1-1-0.1c-0.3,0-0.6,0.3-0.5,0.6c0.1,0.3,0.2,0.6,0.2,0.6l-0.2,0.2
			c0,0-0.2-0.4-0.4-0.2c-0.2,0.2,0.1,0.6-0.1,0.7c-0.1,0.1-0.1,0.4-0.1,0.4s-0.2,0.1-0.5-0.5c-0.3-0.6-0.4-1.9-0.1-2.2
			c0.4-0.3,0.2-0.5,0.5-0.6c0.3-0.2,1.4-0.5,2,0c0.5,0.5,0.7,0.6,0.8,0.6C54.1,50.4,53.9,50.9,53.2,51.1z"/>
		<path class="st37" d="M53.8,52.5c0,0-0.3,0.4-0.8,0.5c-0.5,0.1-0.8-0.3-0.9-0.5c-0.1-0.2-0.2-0.4-0.2-0.4l-0.2,0.2
			c0,0,0.1,0.4,0,0.6c0,0.2-0.1,0.5,0,0.8c0.1,0.3,0.4,0.5,0.8,0.6c0.4,0,1.2,0,1.3-0.2C53.9,53.8,53.8,52.5,53.8,52.5z"/>
		<path class="st12" d="M53.1,53.5c0.1,0,0.3,0,0.4-0.1c0.1-0.1,0.1-0.3,0.1-0.3l-0.2,0.1c-0.1,0-0.2,0.1-0.4,0.1l-0.2,0
			C52.8,53.2,53,53.4,53.1,53.5z"/>
		<path class="st38" d="M52.8,56.1c0,0,0-0.4,0.1-0.6c0.1-0.2,0.2-0.3,0.2-0.3L52,54.4L52.8,56.1z"/>
		<path class="st15" d="M53.3,61.3c0,0-0.3,2-0.7,3.4c-0.4,1.4-0.9,2.2-1,2.3c-0.1,0.1-1.5-1-2.7-1.3c-1.2-0.3-2.5-1-2.5-1
			s1.7-3,2-4c0.3-0.9,0.8-4.1,1.4-5.2s0.8-1.2,0.8-1.2l1.4,0.6l0.9,1.4l0.4,1.9l0.1,1.6l0,1L53.3,61.3z"/>
		<path class="st39" d="M53.3,61.3c0,0,0.4-2.4-0.1-4.1c-0.5-1.7-0.8-2.4-1.3-2.9c-0.5-0.5-0.9-0.6-1-0.6c-0.1,0.1-0.4,0.5-0.4,0.6
			c0,0.1,1.2,0.2,1.9,1.8c0.7,1.7,0.8,3.1,0.9,3.9C53.4,60.9,53.3,61.3,53.3,61.3z"/>
		<path class="st29" d="M50.3,54.8c0.5-0.4,1.2-0.2,1.6,0.3l0,0l3,4.2l3.6,1.1c0.3,0.1,0.2,0.4,0,0.8c-0.2,0.3-0.1,0.7-0.4,0.5
			l-4.2-1.2c-0.1,0-0.1-0.1-0.2-0.1l0-0.1l-3.5-3.9c0,0-0.1-0.1-0.1-0.1C49.6,55.9,49.8,55.2,50.3,54.8z"/>
	</g>
</g>
<g>
	<g>
		<polygon class="st24" points="86.2,23.9 86.3,-2.6 86,-2.6 85.9,23.9 		"/>
	</g>
	<g>
		<path class="st40" d="M90.3,26l2.4,3l-0.4-0.2l4.7,1.8l0.5,0.1c0.3,0.1,0.5,0.3,0.5,0.6c-0.1,0.2-0.3,0.3-0.5,0.2l-5.5-1.2
			c-0.1,0-0.2,0.1-0.3,0l-0.1-0.1l-3-2.4l0,0c-0.5-0.4-0.6-1.2-0.2-1.8c0.4-0.5,1.2-0.6,1.8-0.2C90.1,25.8,90.2,25.9,90.3,26z"/>
		<g>
			<path class="st41" d="M89.9,26.1c-0.5-0.6-1.5-0.6-2,0.1c-0.3,0.5-0.3,1.1,0.1,1.6l0,0l2.8,3.2c0.1,0.1,0.1,0.1,0.2,0.1l0.1,0
				c0.4,0.1,1,0,1.1-0.3l0-0.1c0-0.1,0.1-0.2,0.1-0.2c0.1-0.2,0.2-0.3,0.2-0.5c0.2-0.3,0.4-0.6,0.6-0.9c0.4-0.6,0.9-1.1,1.5-1.5
				c0.2-0.2,0.3-0.5,0-0.7c-0.1-0.1-0.3-0.1-0.5,0l0,0c-0.7,0.4-1.4,0.9-1.9,1.5c-0.3,0.3-0.5,0.6-0.8,1c0,0,0,0,0,0l-1.5-3
				C90,26.3,90,26.2,89.9,26.1z"/>
			<polygon class="st41" points="92.2,31 92.2,31 92.2,31 			"/>
		</g>
		<rect x="77.4" y="30.3" class="st23" width="6" height="3.8"/>
		<g>
			<g>
				<g>
					<path class="st1" d="M81.6,32.2C81.6,32.2,81.6,32.2,81.6,32.2c0-0.1,0-0.1,0-0.2c0,0,0,0,0,0l0.2-0.1l-0.1-0.2l-0.1-0.2
						l-0.3,0c0-0.1-0.1-0.1-0.1-0.2l0.1-0.2L81.3,31l-0.2-0.1l-0.2,0.2c0,0,0,0,0,0c-0.1,0-0.1,0-0.2-0.1l0,0l0-0.3l-0.2,0l-0.2,0
						L80.2,31c-0.1,0-0.1,0-0.2,0l-0.2-0.2l-0.2,0.1L79.5,31l0.1,0.3l0,0c0,0-0.1,0.1-0.1,0.1l-0.3-0.1l-0.1,0.2L79,31.7l0.2,0.2
						c0,0.1,0,0.1,0,0.2l-0.2,0.1l0,0.2l0,0.2l0.3,0c0,0.1,0,0.1,0.1,0.2l-0.2,0.2l0.1,0.2l0.1,0.2l0.2-0.1c0,0,0.1,0.1,0.2,0.1
						l0,0.3l0.2,0.1l0.2,0.1l0.1-0.2c0,0,0.1,0,0.1,0c0,0,0.1,0,0.1,0l0.1,0.2l0.2,0l0.2,0l0-0.3c0.1,0,0.1-0.1,0.2-0.1l0.2,0.1
						l0.1-0.1l0.1-0.1l-0.1-0.2c0-0.1,0.1-0.1,0.1-0.2l0.3,0l0-0.2l0-0.2L81.6,32.2z M80.3,33c-0.5,0-0.8-0.4-0.8-0.9
						c0-0.5,0.4-0.8,0.9-0.8c0.5,0,0.8,0.4,0.8,0.9C81.2,32.7,80.8,33.1,80.3,33z"/>
				</g>
			</g>
			<g>
				<g>
					<path class="st0" d="M81.4,32.2c0-0.1,0-0.1,0-0.2c0-0.1-0.1-0.3-0.1-0.4c0,0-0.1-0.1-0.1-0.1c-0.1-0.1-0.2-0.2-0.3-0.2
						c0,0-0.1,0-0.1-0.1c-0.1,0-0.1,0-0.2,0c-0.1,0-0.1,0-0.2,0c-0.1,0-0.1,0-0.2,0c-0.1,0-0.3,0.1-0.4,0.2
						c-0.2,0.2-0.3,0.4-0.3,0.7c0,0.5,0.4,1,0.9,1.1c0.2,0,0.4,0,0.6-0.2c0.1-0.1,0.2-0.2,0.3-0.3c0,0,0.1-0.1,0.1-0.1
						C81.4,32.5,81.4,32.4,81.4,32.2C81.4,32.2,81.4,32.2,81.4,32.2z M81.2,32.6c0,0,0,0.1-0.1,0.1c-0.1,0.1-0.2,0.2-0.3,0.3
						c-0.2,0.1-0.4,0.2-0.6,0.1c-0.5,0-0.9-0.5-0.8-1c0-0.2,0.1-0.5,0.3-0.6c0.1-0.1,0.2-0.1,0.3-0.2c0,0,0.1,0,0.1,0
						c0.1,0,0.1,0,0.2,0c0.1,0,0.1,0,0.2,0c0,0,0.1,0,0.1,0c0.1,0.1,0.2,0.1,0.3,0.2c0,0,0.1,0.1,0.1,0.1c0.1,0.1,0.1,0.2,0.1,0.3
						c0,0,0,0.1,0,0.1c0,0,0,0,0,0.1C81.3,32.4,81.3,32.5,81.2,32.6z"/>
				</g>
			</g>
		</g>
		<path class="st14" d="M94.4,28.1c0,0-0.3-0.5-0.6-0.7c-0.2-0.2-0.3-0.2-0.3-0.2s0.7-0.5,0.9-0.6c0.2-0.1,0.2-0.3,0.3-0.4
			c0.1-0.1,0.7,0.3,1,0.6c0.3,0.3,0.5,0.6,0.3,0.5c-0.2,0-0.6-0.2-0.8-0.1C95,27.2,94.4,28.1,94.4,28.1z"/>
		<path class="st14" d="M96.4,31.4c0,0,0.3-0.5,0.4-0.8c0.1-0.3,0.1-0.4,0.1-0.4s0.7,0.4,0.9,0.5c0.2,0.1,0.4,0,0.5,0.1
			c0.1,0.1,0,0.8-0.1,1.2c-0.1,0.4-0.3,0.7-0.4,0.5c-0.1-0.2,0-0.6-0.2-0.7C97.5,31.6,96.4,31.4,96.4,31.4z"/>
		<path class="st41" d="M81.4,29.4c0.1-0.3,0.1-0.5,0.1-0.5l0.4,0.2c0,0,0,0.3-0.1,0.6c0,0.3,0,0.3-0.1,0.5
			c-0.1,0.2-0.1,0.3-0.1,0.3c-0.1,0-0.1-0.2-0.1-0.3c0-0.1-0.1-0.1-0.2-0.1c0,0-0.1,0-0.1,0l-0.6,0C80.8,29.8,81.3,29.7,81.4,29.4z"
			/>
		<path class="st13" d="M83.5,23.5l-0.3,3.2l0,0.1c0,0,0,0.1,0,0.1l-1.1,2.4c-0.1,0.2-0.3,0.1-0.5,0c-0.2-0.1-0.4-0.1-0.3-0.3
			l0.7-2.5l-0.1,0.3l-0.4-3.2l0,0c-0.1-0.5,0.3-1,0.8-1.1c0.5-0.1,1,0.3,1.1,0.8C83.5,23.4,83.5,23.5,83.5,23.5z"/>
		<path class="st41" d="M78.1,21.7c0,0.3,0.3,0.9,0.5,1.1c0.3,0.3,0.8,0.6,1.1,0.7c0.3,0,0.4-0.3,0.6-0.3c0.2,0,0.5,0.3,0.5,0.3
			l1-0.8c0,0-0.6-0.8-1.3-1.2c-0.7-0.4-1.8-0.5-2.1,0C78.4,21.6,78.1,21.5,78.1,21.7z"/>
		<path class="st27" d="M78.4,22.2c0,0-0.6,0-0.5-0.8c0.1-0.9,0.8-1.1,1.3-1.5c0.3-0.2,0.3-0.6,0.9-0.9c0.4-0.3,0.7-0.1,1.4-0.4
			c1.2-0.6,0.5-2.2,0.5-3.3c0-1.1,0.6-1.4,0.8-1.4c0.2,0,0.2,0.3,0.3,0.3c0.2,0.1-0.1-0.9,0.5-1.4c0.5-0.5,2.5,1.4,2.6,2.8
			c0.1,1.2,0.3,1.9-0.3,3.6c-0.8,2.1-1.9,2.2-2.7,2.3c-0.8,0.1-1.2,0.8-1.4,1c-0.2,0.2-0.6,0.1-0.8,0c-0.2-0.1-0.6-0.5-0.7-0.4
			c-0.2,0-0.2,0.2-0.2,0.2s-0.3,0.2-0.5,0c-0.3-0.3-0.2-0.4-0.5-0.4c-0.2,0-0.1,0.3-0.4,0.4C78.4,22.2,78.4,22.2,78.4,22.2z"/>
		<path class="st15" d="M81.1,24.6c0,0.1,0,0.1,0.1,0.2c0.4,0.3,1.7,1.3,3.1,1.9c1.7,0.6,2.9,1.5,3.6,2.3c0.2,0.3,0.4,0.5,0.5,0.8
			c0.1,0.2,0.3,0.2,0.4,0c0.2-0.8,0.5-1.9,1.1-2.4c0.8-0.8,2-1.9,2.5-3c0.4-0.8,0.4-2,0.4-2.6c0-0.2-0.2-0.3-0.3-0.2
			c-0.5,0.3-1.4,0.8-2.4,0.8c-1.4,0-2.3,0.2-3.7,0.6c-1.2,0.4-3-0.4-3.4-0.6c-0.1,0-0.1,0-0.2,0l-1.2,0.8c0,0-0.1,0.1-0.1,0.1
			L81.1,24.6z"/>
		<path class="st2" d="M82.3,22.3c0,0,0.2-1.8,1.1-2.4c0.9-0.6,2.2-1.4,2.7-3.3c0.5-1.9-0.3-3-0.3-3s1.3,0,2,0.3
			c0.8,0.3,1.2,3.1-0.7,4.9c-1.9,1.8-2.9,1.7-3.5,2.6s-0.7,1.4-0.7,1.4L82.3,22.3z"/>
		<path class="st41" d="M82.3,30.4c0,0-0.2,0.3-0.3,0.3c-0.1,0.1-0.2,0.2-0.2,0.3c-0.1,0.1-0.1,0.3-0.1,0.3c0,0,0,0.1,0,0.1
			c0,0,0,0,0,0s0,0.1,0,0.2c0,0,0,0.2,0.1,0.2c0,0,0.1,0,0.1,0s0-0.1,0-0.1l0-0.1c0,0,0,0.1,0.1,0.1c0,0,0.1,0,0.1,0
			c0,0,0-0.1,0-0.1s0,0.1,0.1,0.1c0.1,0,0.1-0.1,0.1-0.1s0-0.1,0-0.1c0,0,0-0.1,0-0.1s0,0.1,0,0.1c0,0,0.1,0.1,0.1,0
			c0,0,0.1-0.1,0.1-0.2c0-0.1,0.1-0.2,0.1-0.3c0-0.1,0-0.3,0.1-0.4c0-0.1,0.2-0.3,0.2-0.3L82.3,30.4z"/>
		<path class="st29" d="M80.5,23.3c0,0-0.1,0.2-0.2,0.4c0,0.2,0.4,0.5,0.4,0.5s-0.2,0.2-0.1,0.5c0.1,0.3,0.5,0.6,0.7,0.4
			c0.1-0.2,0.2-1.2,0.5-1.5c0.3-0.3,0.7-0.5,1.1-0.7c0.4-0.2-0.3-0.9-0.6-1c-0.2-0.2-0.6,0.1-0.9,0.3C81.2,22.3,80.5,23.3,80.5,23.3
			z"/>
		<path class="st13" d="M83.3,23.8l0.4,4.2l0,0.1c0,0.1,0,0.1,0,0.2l-0.9,2.5l0,0c-0.1,0.2-0.3,0.1-0.5,0c-0.2-0.1-0.4,0-0.3-0.2
			l0.5-2.6l0,0.3l-1-4.1l0,0c-0.1-0.5,0.2-1,0.7-1.2c0.5-0.1,1,0.2,1.2,0.7C83.3,23.7,83.3,23.7,83.3,23.8z"/>
	</g>
</g>
<rect x="0" class="st42" width="120" height="96.1"/>
<g>
	<defs>
		
			<rect id="SVGID_1_" x="8.4" y="-209.7" transform="matrix(6.123234e-17 -1 1 6.123234e-17 158.6021 -14.6351)" width="127.1" height="246.1"/>
	</defs>
	<clipPath id="SVGID_00000167358089729523600450000010497247309328017808_">
		<use xlink:href="#SVGID_1_"  style="overflow:visible;"/>
	</clipPath>
	
		<radialGradient id="SVGID_00000005960157486248424780000001070265951901841831_" cx="1557.8733" cy="1565.9097" r="116.1989" gradientTransform="matrix(0 1 -1 0 1637.8931 -1579.3931)" gradientUnits="userSpaceOnUse">
		<stop  offset="0.2391" style="stop-color:#236DA8"/>
		<stop  offset="0.3386" style="stop-color:#2770AA"/>
		<stop  offset="0.4412" style="stop-color:#3478AF"/>
		<stop  offset="0.5451" style="stop-color:#4886B7"/>
		<stop  offset="0.6502" style="stop-color:#6599C2"/>
		<stop  offset="0.7559" style="stop-color:#8AB2D1"/>
		<stop  offset="0.8624" style="stop-color:#B8D0E3"/>
		<stop  offset="0.9674" style="stop-color:#EDF3F8"/>
		<stop  offset="1" style="stop-color:#FFFFFF"/>
	</radialGradient>
	
		<circle style="clip-path:url(#SVGID_00000167358089729523600450000010497247309328017808_);fill:url(#SVGID_00000005960157486248424780000001070265951901841831_);" cx="72" cy="-21.5" r="116.2"/>
	<g style="clip-path:url(#SVGID_00000167358089729523600450000010497247309328017808_);">
		<path class="st45" d="M72-23.1v-104.7c28.9,0,55.1,11.7,74,30.7L72-23.1L72-23.1z"/>
		<polygon class="st45" points="72,-23.1 72,-23.1 72,-23.1 		"/>
		<polygon class="st45" points="72,-23.1 72,-23.1 72,-23.1 		"/>
		<path class="st46" d="M72-23.1H-32.7C-32.7-52-21-78.1-2-97.1L72-23.1L72-23.1z"/>
		<g class="st47">
			
				<linearGradient id="SVGID_00000128448815029690942290000011365693333885619100_" gradientUnits="userSpaceOnUse" x1="169.5764" y1="6660.4902" x2="180.9028" y2="6660.4902" gradientTransform="matrix(0.7071 0.7071 -0.7809 0.7809 5197.4712 -5404.2197)">
				<stop  offset="0" style="stop-color:#FFFFFF"/>
				<stop  offset="0.1314" style="stop-color:#FBFBFB"/>
				<stop  offset="0.2577" style="stop-color:#F0F0F0"/>
				<stop  offset="0.382" style="stop-color:#DCDCDC"/>
				<stop  offset="0.5051" style="stop-color:#C1C1C1"/>
				<stop  offset="0.6274" style="stop-color:#9E9E9E"/>
				<stop  offset="0.749" style="stop-color:#737373"/>
				<stop  offset="0.8701" style="stop-color:#404040"/>
				<stop  offset="0.9881" style="stop-color:#060606"/>
				<stop  offset="1" style="stop-color:#000000"/>
			</linearGradient>
			<polygon style="fill:url(#SVGID_00000128448815029690942290000011365693333885619100_);" points="146,-96.9 102.5,-53.4 
				94.5,-61.4 138,-104.9 			"/>
		</g>
		<g class="st47">
			
				<linearGradient id="SVGID_00000077291004333371007880000012988738746761075849_" gradientUnits="userSpaceOnUse" x1="-9025.5088" y1="9332.9297" x2="-9014.1826" y2="9332.9297" gradientTransform="matrix(0.7071 -0.7071 0.7809 0.7809 -894.0475 -13737.3506)">
				<stop  offset="0" style="stop-color:#FFFFFF"/>
				<stop  offset="0.1314" style="stop-color:#FBFBFB"/>
				<stop  offset="0.2577" style="stop-color:#F0F0F0"/>
				<stop  offset="0.382" style="stop-color:#DCDCDC"/>
				<stop  offset="0.5051" style="stop-color:#C1C1C1"/>
				<stop  offset="0.6274" style="stop-color:#9E9E9E"/>
				<stop  offset="0.749" style="stop-color:#737373"/>
				<stop  offset="0.8701" style="stop-color:#404040"/>
				<stop  offset="0.9881" style="stop-color:#060606"/>
				<stop  offset="1" style="stop-color:#000000"/>
			</linearGradient>
			<polygon style="fill:url(#SVGID_00000077291004333371007880000012988738746761075849_);" points="-1.6,-97.1 41.9,-53.6 
				33.9,-45.6 -9.6,-89.1 			"/>
		</g>
		<path class="st50" d="M72-23.1l-74-74c18.9-18.9,45.1-30.7,74-30.7V-23.1z"/>
		<g class="st47">
			
				<linearGradient id="SVGID_00000183939774001949303550000015534543009584843147_" gradientUnits="userSpaceOnUse" x1="-3857.1741" y1="9427.7852" x2="-3845.8479" y2="9427.7852" gradientTransform="matrix(1 0 0 1.1043 3917.7876 -10508.1787)">
				<stop  offset="0" style="stop-color:#FFFFFF"/>
				<stop  offset="0.1314" style="stop-color:#FBFBFB"/>
				<stop  offset="0.2577" style="stop-color:#F0F0F0"/>
				<stop  offset="0.382" style="stop-color:#DCDCDC"/>
				<stop  offset="0.5051" style="stop-color:#C1C1C1"/>
				<stop  offset="0.6274" style="stop-color:#9E9E9E"/>
				<stop  offset="0.749" style="stop-color:#737373"/>
				<stop  offset="0.8701" style="stop-color:#404040"/>
				<stop  offset="0.9881" style="stop-color:#060606"/>
				<stop  offset="1" style="stop-color:#000000"/>
			</linearGradient>
			<polygon style="fill:url(#SVGID_00000183939774001949303550000015534543009584843147_);" points="71.9,-127.8 71.9,-66.3 
				60.6,-66.3 60.6,-127.8 			"/>
		</g>
		<path class="st52" d="M72-23.1l74-74c18.9,18.9,30.7,45.1,30.7,74L72-23.1L72-23.1z"/>
	</g>
	<g style="clip-path:url(#SVGID_00000167358089729523600450000010497247309328017808_);">
		
			<linearGradient id="SVGID_00000023998296682251775290000007902130856190620588_" gradientUnits="userSpaceOnUse" x1="1482.3192" y1="1513.577" x2="1556.3287" y2="1513.577" gradientTransform="matrix(0 1 -1 0 1637.8931 -1579.3931)">
			<stop  offset="0" style="stop-color:#FFFFFF"/>
			<stop  offset="1" style="stop-color:#000000"/>
		</linearGradient>
		<path style="opacity:0.6;fill:url(#SVGID_00000023998296682251775290000007902130856190620588_);" d="M72-23.1l74-74
			c18.9,18.9,30.7,45.1,30.7,74L72-23.1L72-23.1z"/>
		
			<linearGradient id="SVGID_00000080191923086179688470000004481953966596246657_" gradientUnits="userSpaceOnUse" x1="1451.6635" y1="1528.9049" x2="1556.3287" y2="1528.9049" gradientTransform="matrix(0 1 -1 0 1637.8931 -1579.3931)">
			<stop  offset="0" style="stop-color:#FFFFFF"/>
			<stop  offset="1" style="stop-color:#000000"/>
		</linearGradient>
		<path style="opacity:0.6;fill:url(#SVGID_00000080191923086179688470000004481953966596246657_);" d="M72-23.1v-104.7
			c28.9,0,55.1,11.7,74,30.7L72-23.1L72-23.1z"/>
		
			<linearGradient id="SVGID_00000133497459670966572450000002224670361709911738_" gradientUnits="userSpaceOnUse" x1="1451.6635" y1="1602.9143" x2="1556.3287" y2="1602.9143" gradientTransform="matrix(0 1 -1 0 1637.8931 -1579.3931)">
			<stop  offset="0" style="stop-color:#FFFFFF"/>
			<stop  offset="1" style="stop-color:#000000"/>
		</linearGradient>
		<path style="opacity:0.6;fill:url(#SVGID_00000133497459670966572450000002224670361709911738_);" d="M72-23.1l-74-74
			c18.9-18.9,45.1-30.7,74-30.7V-23.1z"/>
		
			<linearGradient id="SVGID_00000028300338144363032400000000704256746502989441_" gradientUnits="userSpaceOnUse" x1="1482.3192" y1="1618.2422" x2="1556.3287" y2="1618.2422" gradientTransform="matrix(0 1 -1 0 1637.8931 -1579.3931)">
			<stop  offset="0" style="stop-color:#FFFFFF"/>
			<stop  offset="1" style="stop-color:#000000"/>
		</linearGradient>
		<path style="opacity:0.6;fill:url(#SVGID_00000028300338144363032400000000704256746502989441_);" d="M72-23.1H-32.7
			C-32.7-52-21-78.1-2-97.1L72-23.1L72-23.1z"/>
	</g>
	<g style="clip-path:url(#SVGID_00000167358089729523600450000010497247309328017808_);">
		<circle class="st57" cx="72" cy="-23.2" r="56"/>
		<path class="st58" d="M72,33c-7.6,0-14.9-1.5-21.9-4.4c-3.3-1.4-6.5-3.2-9.5-5.2c-3-2-5.8-4.3-8.3-6.9c-2.5-2.5-4.9-5.3-6.9-8.3
			c-2-3-3.8-6.2-5.2-9.5c-2.9-6.9-4.4-14.3-4.4-21.9s1.5-14.9,4.4-21.9c1.4-3.3,3.2-6.5,5.2-9.5c2-3,4.3-5.8,6.9-8.3
			c2.5-2.5,5.3-4.9,8.3-6.9c3-2,6.2-3.8,9.5-5.2c6.9-2.9,14.3-4.4,21.9-4.4S87-77.9,93.9-75c3.3,1.4,6.5,3.2,9.5,5.2
			c3,2,5.8,4.3,8.3,6.9c2.5,2.5,4.9,5.3,6.9,8.3c2,3,3.8,6.2,5.2,9.5c2.9,6.9,4.4,14.3,4.4,21.9s-1.5,14.9-4.4,21.9
			c-1.4,3.3-3.2,6.5-5.2,9.5c-2,3-4.3,5.8-6.9,8.3c-2.5,2.5-5.3,4.9-8.3,6.9c-3,2-6.2,3.8-9.5,5.2C87,31.5,79.6,33,72,33z M72-78.9
			c-7.5,0-14.8,1.5-21.7,4.4c-3.3,1.4-6.5,3.1-9.5,5.1c-3,2-5.7,4.3-8.3,6.8c-2.5,2.5-4.8,5.3-6.8,8.3c-2,3-3.7,6.2-5.1,9.5
			c-2.9,6.9-4.4,14.2-4.4,21.7s1.5,14.8,4.4,21.7C22,1.8,23.8,5,25.8,8c2,3,4.3,5.7,6.8,8.3c2.5,2.5,5.3,4.8,8.3,6.8
			c3,2,6.2,3.7,9.5,5.1c6.9,2.9,14.2,4.4,21.7,4.4c7.5,0,14.8-1.5,21.7-4.4c3.3-1.4,6.5-3.1,9.5-5.1c3-2,5.7-4.3,8.3-6.8
			c2.5-2.5,4.8-5.3,6.8-8.3c2-3,3.7-6.2,5.1-9.5c2.9-6.9,4.4-14.2,4.4-21.7s-1.5-14.8-4.4-21.7c-1.4-3.3-3.1-6.5-5.1-9.5
			c-2-3-4.3-5.7-6.8-8.3c-2.5-2.5-5.3-4.8-8.3-6.8c-3-2-6.2-3.7-9.5-5.1C86.9-77.5,79.5-78.9,72-78.9z"/>
	</g>
	
		<circle style="clip-path:url(#SVGID_00000167358089729523600450000010497247309328017808_);fill:#477C99;" cx="72" cy="-23.1" r="46"/>
</g>
<g>
	<g>
		<g>
			<path class="st58" d="M146.8-52.3c-1.1,0-2-0.9-2-2c0-1.1,0.9-2.1,2-2.1l0,0c1.1,0,2.1,0.9,2.1,2C148.9-53.2,148-52.3,146.8-52.3
				C146.8-52.3,146.8-52.3,146.8-52.3z M146.8-56c-0.9,0-1.6,0.8-1.6,1.7c0,0.9,0.8,1.6,1.7,1.6c0,0,0,0,0,0c0.9,0,1.6-0.8,1.6-1.7
				C148.4-55.3,147.7-56,146.8-56C146.8-56,146.8-56,146.8-56L146.8-56z"/>
			<path class="st58" d="M146.8-49.3c-1.3,0-2.5-0.5-3.5-1.4c-1-0.9-1.5-2.2-1.6-3.5c-0.1-2.8,2.1-5.1,4.9-5.2c0.5,0,1,0,1.5,0.2
				c0.1,0,0.2,0.1,0.1,0.2c0,0.1-0.1,0.2-0.2,0.1c-0.5-0.1-0.9-0.2-1.4-0.2c-2.6,0.1-4.6,2.2-4.5,4.8c0,1.2,0.6,2.4,1.5,3.3
				c0.9,0.9,2.1,1.3,3.3,1.3c1.2,0,2.4-0.6,3.3-1.5c0.9-0.9,1.3-2.1,1.3-3.3c0-0.6-0.2-1.2-0.4-1.8c0-0.1,0-0.2,0.1-0.3
				c0.1,0,0.2,0,0.3,0.1c0.3,0.6,0.4,1.3,0.5,2c0,1.3-0.5,2.6-1.4,3.6c-0.9,1-2.2,1.5-3.5,1.6C146.9-49.3,146.9-49.3,146.8-49.3z"/>
			<path class="st58" d="M146.8-45.6c-4.7,0-8.6-3.7-8.7-8.5c-0.1-4.8,3.7-8.8,8.5-8.9c1.3,0,2.6,0.2,3.8,0.8c0.1,0,0.1,0.2,0.1,0.3
				c0,0.1-0.2,0.1-0.3,0.1c-1.2-0.5-2.4-0.8-3.7-0.7c-4.6,0.1-8.2,4-8.1,8.5c0.1,4.5,3.8,8.1,8.3,8.1c0.1,0,0.2,0,0.2,0
				c4.6-0.1,8.2-4,8.1-8.5c0-1.7-0.6-3.4-1.7-4.7c-0.1-0.1,0-0.2,0-0.3c0.1-0.1,0.2,0,0.3,0c1.1,1.4,1.7,3.2,1.7,5
				c0.1,4.8-3.7,8.8-8.5,8.9C147-45.6,146.9-45.6,146.8-45.6z"/>
			<path class="st58" d="M146.7-53.9c0,0-0.1,0-0.1,0c-0.1-0.1-0.1-0.2,0-0.3l8.7-11c0.1-0.1,0.2-0.1,0.3,0c0.1,0.1,0.1,0.2,0,0.3
				l-8.7,11C146.8-53.9,146.7-53.9,146.7-53.9z"/>
			<g>
				<path class="st58" d="M156.9-61.7c-0.1,0-0.1,0-0.2,0l-3.2-0.8c-0.1,0-0.1-0.1-0.1-0.1c0-0.1,0-0.1,0-0.2l4.3-5.5
					c0-0.1,0.1-0.1,0.2-0.1l2.7,0.7c0.3,0.1,0.5,0.3,0.6,0.5c0.1,0.3,0,0.5-0.1,0.7l-3.5,4.5C157.3-61.8,157.1-61.7,156.9-61.7z
					 M153.9-62.8l2.9,0.7c0.1,0,0.3,0,0.4-0.1l3.5-4.5c0.1-0.1,0.1-0.2,0.1-0.4c0-0.1-0.1-0.2-0.3-0.3l-2.6-0.6L153.9-62.8z"/>
				<path class="st58" d="M153.5-62.5C153.5-62.5,153.5-62.5,153.5-62.5c-0.1,0-0.1,0-0.2-0.1l-1.5-2.9c-0.1-0.3-0.1-0.6,0.1-0.8
					l3.5-4.5c0.2-0.2,0.4-0.3,0.7-0.3c0.3,0,0.5,0.2,0.6,0.4l1.3,2.5c0,0.1,0,0.2,0,0.2l-4.3,5.5C153.6-62.6,153.6-62.5,153.5-62.5z
					 M156-70.8c-0.1,0-0.2,0.1-0.3,0.1l-3.5,4.5c-0.1,0.1-0.1,0.3,0,0.4l1.4,2.7l4.1-5.1l-1.2-2.3C156.3-70.7,156.2-70.7,156-70.8
					C156.1-70.8,156-70.8,156-70.8z"/>
			</g>
		</g>
	</g>
</g>
<g>
	<g>
		<path class="st58" d="M94.9-99.2c-0.1,0-0.2,0-0.3,0c-0.3-0.1-0.6-0.3-0.8-0.6l-1.2-2.2c-0.4-0.6-0.1-1.4,0.5-1.8l3.4-1.9
			c0.1-0.1,0.3-0.1,0.4-0.2c0.1,0,0.2,0,0.2,0.1l2.3,4c0,0.1,0,0.2,0,0.2c-0.1,0.1-0.2,0.2-0.3,0.3l-3.4,1.9
			C95.4-99.2,95.2-99.2,94.9-99.2z M96.8-105.4c-0.1,0-0.1,0-0.2,0.1l-3.4,1.9c-0.4,0.2-0.6,0.8-0.3,1.2l1.2,2.2
			c0.1,0.2,0.3,0.4,0.5,0.4c0.2,0.1,0.5,0,0.7-0.1l3.4-1.9c0.1,0,0.1-0.1,0.2-0.1L96.8-105.4z"/>
		<path class="st58" d="M100.2-100.9c-0.5,0-0.9-0.2-1.1-0.7l0,0l-2.3-4c-0.2-0.3-0.2-0.7-0.1-1s0.3-0.6,0.6-0.8l2.8-1.6
			c0.1,0,0.1,0,0.2,0c0.1,0,0.1,0.1,0.1,0.1c0,0,0,0.1,0.1,0.1l2.6,4.6c0,0.1,0,0.1,0,0.2c0,0.1-0.1,0.1-0.2,0.1
			c-0.8,0.1-1.4,0.7-1.4,1.5c0,0.2,0.1,0.5,0.2,0.7c0,0.1,0,0.2-0.1,0.3l-0.7,0.4C100.6-101,100.4-100.9,100.2-100.9z M100.1-108.5
			l-2.6,1.5c-0.2,0.1-0.4,0.3-0.4,0.5c-0.1,0.2,0,0.5,0.1,0.7l0,0l2.3,4c0.2,0.4,0.8,0.6,1.2,0.3l0.6-0.3c-0.1-0.2-0.1-0.4-0.1-0.7
			c0-0.9,0.6-1.6,1.4-1.8L100.1-108.5C100.1-108.5,100.1-108.5,100.1-108.5z"/>
		<path class="st58" d="M104.6-102.3c0,0-0.1,0-0.1,0c0,0-0.1-0.1-0.1-0.1c0-0.3-0.1-0.6-0.3-0.8c-0.3-0.4-0.7-0.6-1.1-0.6
			c0,0,0,0,0,0c0,0,0,0-0.1,0c-0.1,0-0.1,0-0.2-0.1l-2.6-4.6c0-0.1-0.1-0.1-0.1-0.2c-0.2-0.6,0-1.2,0.6-1.6l3.1-1.8
			c0.1-0.1,0.3-0.1,0.4-0.2c0.1,0,0.2,0,0.2,0.1l4.2,7.4c0,0.1,0,0.2,0,0.2c-0.1,0.1-0.2,0.2-0.3,0.3l-3.1,1.8
			C104.9-102.4,104.8-102.3,104.6-102.3C104.6-102.3,104.6-102.3,104.6-102.3z M102.9-104.3c0.6,0,1.1,0.3,1.5,0.7
			c0.2,0.2,0.3,0.5,0.4,0.8c0,0,0,0,0.1,0l3.1-1.8c0.1,0,0.1-0.1,0.2-0.1l-4.1-7.1c-0.1,0-0.1,0-0.2,0.1l-3.1,1.8
			c-0.4,0.2-0.6,0.7-0.4,1.1c0,0.1,0,0.1,0.1,0.2L102.9-104.3C102.9-104.3,102.9-104.3,102.9-104.3z"/>
		<path class="st58" d="M109.3-103.8c-0.5,0-0.9-0.2-1.1-0.7l0,0l-4.2-7.4c-0.4-0.6-0.1-1.4,0.5-1.8l1.8-1.1c0.3-0.2,0.7-0.2,1-0.1
			c0.3,0.1,0.6,0.3,0.8,0.6l4.3,7.5c0.4,0.6,0.1,1.4-0.5,1.8c0,0,0,0,0,0l-1.8,1.1C109.7-103.9,109.5-103.8,109.3-103.8z
			 M106.9-114.6c-0.2,0-0.3,0-0.4,0.1l-1.8,1.1c-0.4,0.2-0.6,0.8-0.3,1.2l0,0l4.2,7.4l0,0c0.2,0.4,0.8,0.6,1.2,0.3l1.8-1.1
			c0.4-0.2,0.6-0.8,0.3-1.2l-4.3-7.5c-0.1-0.2-0.3-0.4-0.5-0.4C107-114.6,107-114.6,106.9-114.6z M111.7-105.2L111.7-105.2
			L111.7-105.2z"/>
		<path class="st58" d="M102.9-91c-0.1,0-0.2-0.1-0.2-0.2v-9.6c0-0.1,0.1-0.2,0.2-0.2s0.2,0.1,0.2,0.2v9.6
			C103.1-91.1,103.1-91,102.9-91z"/>
		<path class="st58" d="M100.5-91C100.5-91,100.5-91,100.5-91c-0.2,0-0.2-0.2-0.2-0.3l2.4-6.6c0-0.1,0.2-0.2,0.3-0.1
			c0.1,0,0.2,0.2,0.1,0.3l-2.4,6.6C100.7-91.1,100.6-91,100.5-91z"/>
		<path class="st58" d="M105.4-91c-0.1,0-0.2,0-0.2-0.1l-2.4-6.6c0-0.1,0-0.2,0.1-0.3c0.1,0,0.2,0,0.3,0.1l2.4,6.6
			C105.7-91.2,105.6-91.1,105.4-91C105.5-91,105.5-91,105.4-91z"/>
		<path class="st58" d="M102.9-100.6c-0.7,0-1.3-0.4-1.7-1c-0.1-0.3-0.2-0.5-0.2-0.8c0-1,0.8-1.8,1.7-1.9c0,0,0,0,0,0l0,0l0,0
			c0,0,0,0,0.1,0c0.6,0,1.1,0.3,1.5,0.7c0.2,0.3,0.4,0.7,0.4,1.1c0,0,0,0.1,0,0.1C104.8-101.4,104-100.6,102.9-100.6z M102.8-103.9
			c-0.8,0.1-1.3,0.7-1.3,1.5c0,0.2,0.1,0.5,0.2,0.7c0.3,0.5,0.8,0.8,1.3,0.8c0.8,0,1.5-0.7,1.5-1.5c0,0,0,0,0-0.1
			c0-0.3-0.1-0.6-0.3-0.8c-0.3-0.3-0.7-0.5-1.1-0.6l0,0C102.9-103.9,102.9-103.9,102.8-103.9L102.8-103.9z"/>
	</g>
</g>
<g>
	<g>
		<path class="st58" d="M40.8-92.9c-1.5,0-2.7-1.1-2.9-2.6c0-0.1,0-0.2,0.1-0.2c0.1,0,0.2,0,0.3,0c0.7,0.5,1.6,0.8,2.5,0.8
			c0.9,0,1.7-0.3,2.5-0.8h0c0.1-0.1,0.2-0.1,0.3,0c0.1,0,0.1,0.1,0.1,0.2c-0.1,0.7-0.4,1.4-0.9,1.9C42.2-93.1,41.5-92.9,40.8-92.9z
			 M38.4-95.2c0.2,1.1,1.2,2,2.4,2c0.6,0,1.2-0.2,1.7-0.7c0.4-0.4,0.6-0.8,0.8-1.3c-0.7,0.4-1.6,0.7-2.4,0.7
			C40-94.6,39.1-94.8,38.4-95.2z"/>
		<path class="st58" d="M40.8-95.6c-0.9,0-1.8-0.3-2.6-0.8c-0.2-0.1-0.3-0.3-0.3-0.5l-0.1-0.9c-0.1-0.9-0.6-1.8-1.3-2.3
			c-0.1-0.1-0.2-0.1-0.3-0.2c-1-0.7-1.8-1.7-2.3-2.7c-0.6-1.1-0.9-2.3-0.8-3.6c0-2.1,0.8-4,2.3-5.5c1.5-1.5,3.5-2.2,5.5-2.2
			c2,0,4,0.9,5.4,2.3c1.4,1.5,2.2,3.4,2.2,5.4c0,1.2-0.3,2.5-0.9,3.6c-0.5,1.1-1.3,2-2.3,2.7c-0.1,0.1-0.2,0.1-0.2,0.2
			c-0.8,0.5-1.3,1.4-1.4,2.3L43.7-97c0,0.2-0.1,0.4-0.3,0.5C42.6-95.9,41.7-95.6,40.8-95.6z M40.8-113.9c-1.9,0-3.8,0.7-5.1,2.1
			c-1.4,1.4-2.2,3.2-2.2,5.2c0,2.4,1.1,4.6,3,6c0.1,0.1,0.2,0.1,0.3,0.2c0.9,0.6,1.4,1.5,1.5,2.6l0.1,0.9c0,0.1,0.1,0.2,0.1,0.2
			c0.7,0.5,1.5,0.7,2.4,0.7c0.8,0,1.7-0.2,2.4-0.7c0.1-0.1,0.1-0.1,0.1-0.2l0.1-0.9c0.1-1.1,0.7-2,1.5-2.6c0.1-0.1,0.2-0.1,0.2-0.2
			c0.9-0.7,1.7-1.6,2.2-2.6c0.5-1,0.8-2.2,0.8-3.4c0-1.9-0.8-3.8-2.1-5.2c-1.4-1.4-3.2-2.2-5.1-2.2
			C40.9-113.9,40.9-113.9,40.8-113.9z"/>
		<path class="st58" d="M39.3-99.1h-0.4v-6.1h-0.4c-0.3,0-0.6-0.2-0.8-0.5c-0.1-0.3-0.1-0.7,0.2-0.9c0.2-0.2,0.6-0.3,0.9-0.2
			c0.3,0.1,0.5,0.4,0.5,0.8v0.4h1.5v0.4h-1.5V-99.1z M38.5-106.5c-0.1,0-0.2,0-0.3,0.1c-0.2,0.2-0.1,0.3-0.1,0.5
			c0.1,0.1,0.2,0.3,0.4,0.3h0.4v-0.4c0-0.2-0.1-0.4-0.3-0.4C38.6-106.5,38.5-106.5,38.5-106.5z"/>
		<path class="st58" d="M42.7-99.1h-0.4v-6.1h-1.5v-0.4h1.5v-0.4c0-0.3,0.2-0.6,0.5-0.8c0.3-0.1,0.7-0.1,0.9,0.2
			c0.2,0.2,0.3,0.6,0.2,0.9c-0.1,0.3-0.4,0.5-0.8,0.5h-0.4V-99.1z M42.7-105.6h0.4c0.2,0,0.4-0.1,0.4-0.3c0.1-0.1,0.1-0.3-0.1-0.5
			c-0.2-0.2-0.3-0.1-0.5-0.1c-0.1,0.1-0.3,0.2-0.3,0.4V-105.6z"/>
		<g>
			<g id="_x3C_Radial_Repeat_x3E__00000157309328867988056450000004366289567840779187_">
				
					<rect x="32" y="-96.9" transform="matrix(0.707 -0.7072 0.7072 0.707 77.9572 -5.1667)" class="st58" width="1.4" height="0.4"/>
			</g>
			<g id="_x3C_Radial_Repeat_x3E__00000055705647077023328940000003543112541674268047_">
				<rect x="28.7" y="-105" class="st58" width="1.4" height="0.4"/>
			</g>
			<g id="_x3C_Radial_Repeat_x3E__00000090276188357583793870000003519820122740861335_">
				
					<rect x="32.5" y="-113.6" transform="matrix(0.7071 -0.7071 0.7071 0.7071 89.4356 -9.9206)" class="st58" width="0.4" height="1.4"/>
			</g>
			<g id="_x3C_Radial_Repeat_x3E__00000170983846379380701370000011668178705216726196_">
				<rect x="40.7" y="-117" class="st58" width="0.4" height="1.4"/>
			</g>
			<g id="_x3C_Radial_Repeat_x3E__00000106856575899299201900000013978995875543041969_">
				
					<rect x="48.3" y="-113.1" transform="matrix(0.7071 -0.7071 0.7071 0.7071 94.1935 1.5659)" class="st58" width="1.4" height="0.4"/>
			</g>
			<g id="_x3C_Radial_Repeat_x3E__00000010998270887962483920000009351198368786681504_">
				<rect x="51.7" y="-105" class="st58" width="1.4" height="0.4"/>
			</g>
			<g id="_x3C_Radial_Repeat_x3E__00000181086836469271254830000004332033504644979361_">
				
					<rect x="48.8" y="-97.4" transform="matrix(0.7071 -0.7071 0.7071 0.7071 82.708 6.3234)" class="st58" width="0.4" height="1.4"/>
			</g>
		</g>
	</g>
</g>
<g>
	<g>
		<path class="st58" d="M-16.8-51c-0.1,0-0.2-0.1-0.2-0.2l-0.1-3.5c0-0.1,0.1-0.2,0.2-0.2l2.6-0.1c0.1,0,0.1,0,0.1,0.1
			c0,0,0.1,0.1,0.1,0.1l0,0.7c0,0.3,0.1,0.6,0.4,0.8c0.2,0.2,0.5,0.3,0.8,0.3h0c0.1,0,0.2,0.1,0.2,0.2c0,0.1-0.1,0.2-0.2,0.2
			c0,0,0,0,0,0l-1.3,0c0,0.4-0.2,0.7-0.4,0.9c-0.3,0.3-0.7,0.5-1.1,0.5L-16.8-51C-16.8-51-16.8-51-16.8-51z M-16.7-54.4l0.1,3.1
			l0.8,0c0.3,0,0.6-0.1,0.9-0.4c0.2-0.2,0.3-0.5,0.3-0.9c0-0.1,0-0.1,0.1-0.1c0,0,0.1-0.1,0.1-0.1l0.4,0c0,0,0,0-0.1-0.1
			c-0.3-0.3-0.5-0.7-0.5-1.1l0-0.5L-16.7-54.4z"/>
		<path class="st58" d="M-0.7-51.3c-0.4,0-0.8-0.2-1.1-0.4c-0.3-0.3-0.4-0.6-0.5-0.9l-1.2,0c0,0,0,0,0,0c-0.1,0-0.2-0.1-0.2-0.2
			c0-0.1,0.1-0.2,0.2-0.2h0c0.3,0,0.6-0.1,0.8-0.4c0.2-0.2,0.3-0.5,0.3-0.8l0-0.7c0-0.1,0.1-0.2,0.2-0.2l2.5-0.1
			c0.1,0,0.1,0,0.1,0.1c0,0,0.1,0.1,0.1,0.1l0.1,3.5c0,0.1-0.1,0.2-0.2,0.2L-0.7-51.3C-0.7-51.3-0.7-51.3-0.7-51.3z M-2.1-53.1
			c0.1,0,0.2,0.1,0.2,0.2c0,0.3,0.1,0.6,0.4,0.8c0.2,0.2,0.5,0.3,0.9,0.3l0.8,0l-0.1-3.1L-2-54.8l0,0.5c0,0.4-0.1,0.8-0.4,1.1
			c0,0,0,0-0.1,0.1L-2.1-53.1C-2.1-53.1-2.1-53.1-2.1-53.1z"/>
		<path class="st60" d="M-4.3-66.4c-1.1-1.1-2.7-1.7-4.3-1.7c-3.4,0.1-6,2.9-5.9,6.2l0.2,7.9c0,0.7,0.6,1.3,1.4,1.3l9.5-0.2
			c0.7,0,1.3-0.6,1.3-1.4l-0.2-7.9C-2.4-63.8-3.1-65.3-4.3-66.4z M-8.4-59.6c-1.5,0-2.7-1.1-2.7-2.6c0-1.5,1.1-2.7,2.6-2.7
			c1.5,0,2.7,1.1,2.7,2.6C-5.8-60.8-6.9-59.6-8.4-59.6z"/>
		<path class="st58" d="M-8.1-44.8c-0.1,0-0.2-0.1-0.2-0.2l-0.2-6.4c0-0.1,0.1-0.2,0.2-0.2c0.1,0,0.2,0.1,0.2,0.2l0.2,6.4
			C-7.9-44.9-7.9-44.8-8.1-44.8C-8-44.8-8.1-44.8-8.1-44.8z"/>
		<path class="st58" d="M-9.9-46.8c-0.1,0-0.2-0.1-0.2-0.2l-0.1-4.3c0-0.1,0.1-0.2,0.2-0.2c0.1,0,0.2,0.1,0.2,0.2l0.1,4.3
			C-9.7-46.9-9.8-46.8-9.9-46.8C-9.9-46.8-9.9-46.8-9.9-46.8z"/>
		<path class="st58" d="M-6.3-46.9c-0.1,0-0.2-0.1-0.2-0.2l-0.1-4.3c0-0.1,0.1-0.2,0.2-0.2c0.1,0,0.2,0.1,0.2,0.2l0.1,4.3
			C-6.1-47-6.2-46.9-6.3-46.9C-6.3-46.9-6.3-46.9-6.3-46.9z"/>
	</g>
</g>
<g>
	<path class="st58" d="M-19.2-40.4C-19.2-40.5-19.2-40.5-19.2-40.4l1.9-0.1c0,0,0.1,0,0.1,0.1v0.4c0,0,0,0.1-0.1,0.1h-1.3v0.7h1.1
		c0,0,0.1,0,0.1,0.1v0.4c0,0,0,0.1-0.1,0.1h-1.1v0.8h1.3c0,0,0.1,0,0.1,0.1v0.4c0,0,0,0.1-0.1,0.1h-1.8c0,0-0.1,0-0.1-0.1V-40.4z"/>
	<path class="st58" d="M-16.3-40.5C-16.3-40.5-16.3-40.6-16.3-40.5l0.1-0.1c0,0,0.1,0,0.1,0l1,2.1c0,0,0,0,0,0l1-2.1c0,0,0,0,0.1,0
		h0.1c0,0,0.1,0,0.1,0.1l0.5,3c0,0.1,0,0.1-0.1,0.1h-0.4c0,0-0.1,0-0.1-0.1l-0.3-1.7c0,0,0,0,0,0l-0.8,1.7c0,0,0,0-0.1,0h-0.1
		c0,0-0.1,0-0.1,0l-0.8-1.7c0,0,0,0,0,0l-0.3,1.7c0,0,0,0.1-0.1,0.1h-0.4c-0.1,0-0.1,0-0.1-0.1L-16.3-40.5z"/>
	<path class="st58" d="M-12.8-40.4C-12.8-40.5-12.8-40.5-12.8-40.4l1.1-0.1c0.5,0,1,0.4,1,1c0,0.5-0.4,1-1,1h-0.6v1
		c0,0,0,0.1-0.1,0.1h-0.4c0,0-0.1,0-0.1-0.1V-40.4z M-11.7-39.1c0.2,0,0.5-0.2,0.5-0.5c0-0.2-0.2-0.4-0.5-0.4h-0.5v0.9H-11.7z"/>
	<path class="st58" d="M-8.8-40.6c0.9,0,1.6,0.7,1.6,1.6c0,0.9-0.7,1.6-1.6,1.6c-0.9,0-1.6-0.7-1.6-1.6
		C-10.4-39.9-9.7-40.6-8.8-40.6z M-8.8-38c0.6,0,1-0.5,1-1c0-0.6-0.5-1-1-1c-0.6,0-1,0.5-1,1C-9.8-38.4-9.4-38-8.8-38z"/>
	<path class="st58" d="M-7-40.4c0-0.1,0-0.1,0.1-0.1h0.4c0,0,0.1,0,0.1,0.1l0.5,1.8h0l0.7-1.8c0,0,0,0,0.1,0h0.1c0,0,0.1,0,0.1,0
		l0.7,1.8h0l0.4-1.8c0,0,0-0.1,0.1-0.1h0.4c0.1,0,0.1,0,0.1,0.1l-0.8,3c0,0,0,0.1-0.1,0.1h-0.1c0,0-0.1,0-0.1,0l-0.8-2h0l-0.8,2
		c0,0,0,0-0.1,0h-0.1c0,0-0.1,0-0.1-0.1L-7-40.4z"/>
	<path class="st58" d="M-2.7-40.4C-2.7-40.5-2.7-40.5-2.7-40.4l1.9-0.1c0,0,0.1,0,0.1,0.1v0.4c0,0,0,0.1-0.1,0.1h-1.3v0.7h1.1
		c0,0,0.1,0,0.1,0.1v0.4c0,0,0,0.1-0.1,0.1h-1.1v0.8h1.3c0,0,0.1,0,0.1,0.1v0.4c0,0,0,0.1-0.1,0.1h-1.8c0,0-0.1,0-0.1-0.1V-40.4z"/>
	<path class="st58" d="M-0.2-40.4C-0.2-40.5-0.1-40.5-0.2-40.4l1.3-0.1c0.5,0,1,0.4,1,0.9c0,0.4-0.3,0.7-0.7,0.9l0.6,1.1
		c0,0.1,0,0.1-0.1,0.1H1.6c0,0-0.1,0-0.1,0l-0.6-1.2H0.4v1.1c0,0,0,0.1-0.1,0.1h-0.4c0,0-0.1,0-0.1-0.1V-40.4z M1.1-39.1
		c0.2,0,0.4-0.2,0.4-0.4c0-0.2-0.2-0.4-0.4-0.4H0.4v0.9H1.1z"/>
	<path class="st58" d="M-24.9-34.6l-1-1.5c0-0.1,0-0.1,0.1-0.1h0.4c0,0,0.1,0,0.1,0l0.7,1l0.7-1c0,0,0,0,0.1,0h0.5
		c0.1,0,0.1,0.1,0.1,0.1l-1,1.5v1.4c0,0,0,0.1-0.1,0.1h-0.4c0,0-0.1,0-0.1-0.1V-34.6z"/>
	<path class="st58" d="M-21.6-36.2c0.9,0,1.6,0.7,1.6,1.6c0,0.9-0.7,1.6-1.6,1.6c-0.9,0-1.6-0.7-1.6-1.6
		C-23.2-35.5-22.5-36.2-21.6-36.2z M-21.6-33.7c0.6,0,1-0.5,1-1c0-0.6-0.5-1-1-1c-0.6,0-1,0.5-1,1C-22.7-34.1-22.2-33.7-21.6-33.7z"
		/>
	<path class="st58" d="M-19.5-36.1C-19.5-36.2-19.5-36.2-19.5-36.1l0.5-0.1c0,0,0.1,0,0.1,0.1v1.8c0,0.4,0.3,0.7,0.6,0.7
		c0.4,0,0.6-0.3,0.6-0.7v-1.8c0,0,0-0.1,0.1-0.1h0.4c0,0,0.1,0,0.1,0.1v1.8c0,0.7-0.5,1.2-1.2,1.2c-0.7,0-1.2-0.5-1.2-1.2V-36.1z"/>
	<path class="st58" d="M-16.3-36.1C-16.3-36.2-16.3-36.2-16.3-36.1l1.3-0.1c0.5,0,1,0.4,1,0.9c0,0.4-0.3,0.7-0.7,0.9l0.6,1.1
		c0,0.1,0,0.1-0.1,0.1h-0.5c0,0-0.1,0-0.1,0l-0.6-1.2h-0.5v1.1c0,0,0,0.1-0.1,0.1h-0.4c0,0-0.1,0-0.1-0.1V-36.1z M-15-34.8
		c0.2,0,0.4-0.2,0.4-0.4c0-0.2-0.2-0.4-0.4-0.4h-0.7v0.9H-15z"/>
	<path class="st58" d="M-12.4-36.1C-12.4-36.2-12.4-36.2-12.4-36.1l1.9-0.1c0,0,0.1,0,0.1,0.1v0.4c0,0,0,0.1-0.1,0.1h-1.3v0.7h1.1
		c0,0,0.1,0,0.1,0.1v0.4c0,0,0,0.1-0.1,0.1h-1.1v0.8h1.3c0,0,0.1,0,0.1,0.1v0.4c0,0,0,0.1-0.1,0.1h-1.8c0,0-0.1,0-0.1-0.1V-36.1z"/>
	<path class="st58" d="M-9.5-36.2C-9.5-36.2-9.5-36.2-9.5-36.2l0.1-0.1c0,0,0.1,0,0.1,0l1,2.1c0,0,0,0,0,0l1-2.1c0,0,0,0,0.1,0h0.1
		c0,0,0.1,0,0.1,0.1l0.5,3c0,0.1,0,0.1-0.1,0.1h-0.4c0,0-0.1,0-0.1-0.1l-0.3-1.7c0,0,0,0,0,0l-0.8,1.7c0,0,0,0-0.1,0h-0.1
		c0,0-0.1,0-0.1,0l-0.8-1.7c0,0,0,0,0,0l-0.3,1.7c0,0,0,0.1-0.1,0.1h-0.4c-0.1,0-0.1,0-0.1-0.1L-9.5-36.2z"/>
	<path class="st58" d="M-6-36.1C-6-36.2-5.9-36.2-6-36.1l1.1-0.1c0.5,0,1,0.4,1,1c0,0.5-0.4,1-1,1h-0.6v1c0,0,0,0.1-0.1,0.1h-0.4
		c0,0-0.1,0-0.1-0.1V-36.1z M-4.9-34.8c0.2,0,0.5-0.2,0.5-0.5c0-0.2-0.2-0.4-0.5-0.4h-0.5v0.9H-4.9z"/>
	<path class="st58" d="M-3.4-36.1C-3.4-36.2-3.3-36.2-3.4-36.1l0.5-0.1c0,0,0.1,0,0.1,0.1v2.5h1.1c0,0,0.1,0,0.1,0.1v0.4
		c0,0,0,0.1-0.1,0.1h-1.6c0,0-0.1,0-0.1-0.1V-36.1z"/>
	<path class="st58" d="M0.2-36.2c0.9,0,1.6,0.7,1.6,1.6c0,0.9-0.7,1.6-1.6,1.6c-0.9,0-1.6-0.7-1.6-1.6C-1.4-35.5-0.7-36.2,0.2-36.2z
		 M0.2-33.7c0.6,0,1-0.5,1-1c0-0.6-0.5-1-1-1c-0.6,0-1,0.5-1,1C-0.8-34.1-0.4-33.7,0.2-33.7z"/>
	<path class="st58" d="M2.9-34.6l-1-1.5c0-0.1,0-0.1,0.1-0.1h0.4c0,0,0.1,0,0.1,0l0.7,1l0.7-1c0,0,0,0,0.1,0h0.5
		c0.1,0,0.1,0.1,0.1,0.1l-1,1.5v1.4c0,0,0,0.1-0.1,0.1H3c0,0-0.1,0-0.1-0.1V-34.6z"/>
	<path class="st58" d="M4.9-36.1C4.9-36.2,4.9-36.2,4.9-36.1l1.9-0.1c0,0,0.1,0,0.1,0.1v0.4c0,0,0,0.1-0.1,0.1H5.4v0.7h1.1
		c0,0,0.1,0,0.1,0.1v0.4c0,0,0,0.1-0.1,0.1H5.4v0.8h1.3c0,0,0.1,0,0.1,0.1v0.4c0,0,0,0.1-0.1,0.1H4.9c0,0-0.1,0-0.1-0.1V-36.1z"/>
	<path class="st58" d="M7.4-36.1C7.4-36.2,7.5-36.2,7.4-36.1l1.9-0.1c0,0,0.1,0,0.1,0.1v0.4c0,0,0,0.1-0.1,0.1H8v0.7h1.1
		c0,0,0.1,0,0.1,0.1v0.4c0,0,0,0.1-0.1,0.1H8v0.8h1.3c0,0,0.1,0,0.1,0.1v0.4c0,0,0,0.1-0.1,0.1H7.5c0,0-0.1,0-0.1-0.1V-36.1z"/>
</g>
<g>
	<path class="st58" d="M25.8-88C25.8-88.1,25.8-88.1,25.8-88l1.9-0.1c0,0,0.1,0,0.1,0.1v0.4c0,0,0,0.1-0.1,0.1h-1.3v0.7h1.1
		c0,0,0.1,0,0.1,0.1v0.4c0,0,0,0.1-0.1,0.1h-1.1v0.8h1.3c0,0,0.1,0,0.1,0.1v0.4c0,0,0,0.1-0.1,0.1h-1.8c0,0-0.1,0-0.1-0.1V-88z"/>
	<path class="st58" d="M28.3-88.1C28.3-88.1,28.4-88.1,28.3-88.1l0.2-0.1l1.8,1.9h0V-88c0,0,0-0.1,0.1-0.1h0.4c0,0,0.1,0,0.1,0.1v3
		c0,0,0,0.1-0.1,0.1h-0.1l-1.8-2h0v1.9c0,0,0,0.1-0.1,0.1h-0.4c0,0-0.1,0-0.1-0.1V-88.1z"/>
	<path class="st58" d="M33.1-88.1c0.4,0,0.8,0.2,1.1,0.4c0,0,0,0.1,0,0.1l-0.3,0.3c0,0-0.1,0-0.1,0c-0.2-0.2-0.4-0.3-0.7-0.3
		c-0.6,0-1,0.5-1,1c0,0.5,0.4,1,1,1c0.2,0,0.4-0.1,0.5-0.1V-86h-0.4c0,0-0.1,0-0.1-0.1v-0.3c0,0,0-0.1,0.1-0.1h0.8
		c0,0,0.1,0,0.1,0.1v1.1c0,0,0,0.1,0,0.1c0,0-0.5,0.3-1.1,0.3c-0.9,0-1.6-0.7-1.6-1.6C31.5-87.4,32.2-88.1,33.1-88.1z"/>
	<path class="st58" d="M34.5-85.1l1.4-3c0,0,0,0,0.1,0h0c0,0,0.1,0,0.1,0l1.4,3c0,0.1,0,0.1-0.1,0.1h-0.4c-0.1,0-0.1,0-0.1-0.1
		l-0.2-0.5h-1.3l-0.2,0.5c0,0-0.1,0.1-0.1,0.1h-0.4C34.5-85,34.5-85.1,34.5-85.1z M36.4-86.1l-0.4-1h0l-0.4,1H36.4z"/>
	<path class="st58" d="M39.1-88.1c0.4,0,0.8,0.2,1.1,0.4c0,0,0,0.1,0,0.1l-0.3,0.3c0,0-0.1,0-0.1,0c-0.2-0.2-0.4-0.3-0.7-0.3
		c-0.6,0-1,0.5-1,1c0,0.5,0.4,1,1,1c0.2,0,0.4-0.1,0.5-0.1V-86h-0.4c0,0-0.1,0-0.1-0.1v-0.3c0,0,0-0.1,0.1-0.1h0.8
		c0,0,0.1,0,0.1,0.1v1.1c0,0,0,0.1,0,0.1c0,0-0.5,0.3-1.1,0.3c-0.9,0-1.6-0.7-1.6-1.6C37.6-87.4,38.3-88.1,39.1-88.1z"/>
	<path class="st58" d="M40.9-88C40.9-88.1,40.9-88.1,40.9-88l1.9-0.1c0,0,0.1,0,0.1,0.1v0.4c0,0,0,0.1-0.1,0.1h-1.3v0.7h1.1
		c0,0,0.1,0,0.1,0.1v0.4c0,0,0,0.1-0.1,0.1h-1.1v0.8h1.3c0,0,0.1,0,0.1,0.1v0.4c0,0,0,0.1-0.1,0.1H41c0,0-0.1,0-0.1-0.1V-88z"/>
	<path class="st58" d="M45.1-86.5l-1-1.5c0-0.1,0-0.1,0.1-0.1h0.4c0,0,0.1,0,0.1,0l0.7,1l0.7-1c0,0,0,0,0.1,0h0.5
		c0.1,0,0.1,0.1,0.1,0.1l-1,1.5v1.4c0,0,0,0.1-0.1,0.1h-0.4c0,0-0.1,0-0.1-0.1V-86.5z"/>
	<path class="st58" d="M48.3-88.1c0.9,0,1.6,0.7,1.6,1.6c0,0.9-0.7,1.6-1.6,1.6c-0.9,0-1.6-0.7-1.6-1.6
		C46.8-87.4,47.5-88.1,48.3-88.1z M48.3-85.5c0.6,0,1-0.5,1-1c0-0.6-0.5-1-1-1c-0.6,0-1,0.5-1,1C47.3-86,47.8-85.5,48.3-85.5z"/>
	<path class="st58" d="M50.5-88C50.5-88.1,50.5-88.1,50.5-88l0.5-0.1c0,0,0.1,0,0.1,0.1v1.8c0,0.4,0.3,0.7,0.6,0.7s0.6-0.3,0.6-0.7
		V-88c0,0,0-0.1,0.1-0.1h0.4c0,0,0.1,0,0.1,0.1v1.8c0,0.7-0.5,1.2-1.2,1.2c-0.7,0-1.2-0.5-1.2-1.2V-88z"/>
	<path class="st58" d="M53.7-88C53.7-88.1,53.7-88.1,53.7-88l1.3-0.1c0.5,0,1,0.4,1,0.9c0,0.4-0.3,0.7-0.7,0.9l0.6,1.1
		c0,0.1,0,0.1-0.1,0.1h-0.5c0,0-0.1,0-0.1,0l-0.6-1.2h-0.5v1.1c0,0,0,0.1-0.1,0.1h-0.4c0,0-0.1,0-0.1-0.1V-88z M55-86.7
		c0.2,0,0.4-0.2,0.4-0.4c0-0.2-0.2-0.4-0.4-0.4h-0.7v0.9H55z"/>
	<path class="st58" d="M30-83.8c0.4,0,0.8,0.1,1.1,0.4c0,0,0,0.1,0,0.1L30.8-83c0,0-0.1,0-0.1,0c-0.2-0.2-0.4-0.3-0.7-0.3
		c-0.6,0-1,0.5-1,1c0,0.6,0.4,1,1,1c0.3,0,0.5-0.1,0.7-0.3c0,0,0.1,0,0.1,0l0.3,0.3c0,0,0,0.1,0,0.1c-0.3,0.3-0.7,0.4-1.1,0.4
		c-0.9,0-1.6-0.7-1.6-1.6C28.4-83.1,29.1-83.8,30-83.8z"/>
	<path class="st58" d="M31.6-83.7C31.6-83.7,31.7-83.8,31.6-83.7l0.5-0.1c0,0,0.1,0,0.1,0.1v1.8c0,0.4,0.3,0.7,0.6,0.7
		c0.4,0,0.6-0.3,0.6-0.7v-1.8c0,0,0-0.1,0.1-0.1H34c0,0,0.1,0,0.1,0.1v1.8c0,0.7-0.5,1.2-1.2,1.2c-0.7,0-1.2-0.5-1.2-1.2V-83.7z"/>
	<path class="st58" d="M34.7-81.1l0.2-0.3c0-0.1,0.1-0.1,0.1,0c0,0,0.4,0.3,0.7,0.3c0.2,0,0.4-0.1,0.4-0.3c0-0.2-0.2-0.4-0.6-0.5
		c-0.4-0.2-0.8-0.4-0.8-1c0-0.4,0.3-0.8,1-0.8c0.4,0,0.8,0.2,0.9,0.3c0,0,0.1,0.1,0,0.1l-0.2,0.3c0,0.1-0.1,0.1-0.2,0.1
		c0,0-0.4-0.2-0.6-0.2c-0.3,0-0.4,0.2-0.4,0.3c0,0.2,0.2,0.3,0.5,0.5c0.4,0.2,0.9,0.4,0.9,1c0,0.5-0.4,0.9-1,0.9
		c-0.6,0-0.9-0.3-1-0.3C34.6-81,34.6-81.1,34.7-81.1z"/>
	<path class="st58" d="M37.6-83.3H37c0,0-0.1,0-0.1-0.1v-0.4c0,0,0-0.1,0.1-0.1h1.9c0,0,0.1,0,0.1,0.1v0.4c0,0,0,0.1-0.1,0.1h-0.7
		v2.5c0,0,0,0.1-0.1,0.1h-0.4c0,0-0.1,0-0.1-0.1V-83.3z"/>
	<path class="st58" d="M40.8-83.8c0.9,0,1.6,0.7,1.6,1.6c0,0.9-0.7,1.6-1.6,1.6c-0.9,0-1.6-0.7-1.6-1.6
		C39.2-83.1,39.9-83.8,40.8-83.8z M40.8-81.2c0.6,0,1-0.5,1-1s-0.5-1-1-1c-0.6,0-1,0.5-1,1S40.2-81.2,40.8-81.2z"/>
	<path class="st58" d="M43.2-83.8C43.2-83.8,43.3-83.8,43.2-83.8l0.1-0.1c0,0,0.1,0,0.1,0l1,2.1c0,0,0,0,0,0l1-2.1c0,0,0,0,0.1,0
		h0.1c0,0,0.1,0,0.1,0.1l0.5,3c0,0.1,0,0.1-0.1,0.1h-0.4c0,0-0.1,0-0.1-0.1l-0.3-1.7c0,0,0,0,0,0l-0.8,1.7c0,0,0,0-0.1,0h-0.1
		c0,0-0.1,0-0.1,0l-0.8-1.7c0,0,0,0,0,0l-0.3,1.7c0,0,0,0.1-0.1,0.1h-0.4c-0.1,0-0.1,0-0.1-0.1L43.2-83.8z"/>
	<path class="st58" d="M46.8-83.7C46.8-83.7,46.8-83.8,46.8-83.7l1.9-0.1c0,0,0.1,0,0.1,0.1v0.4c0,0,0,0.1-0.1,0.1h-1.3v0.7h1.1
		c0,0,0.1,0,0.1,0.1v0.4c0,0,0,0.1-0.1,0.1h-1.1v0.8h1.3c0,0,0.1,0,0.1,0.1v0.4c0,0,0,0.1-0.1,0.1h-1.8c0,0-0.1,0-0.1-0.1V-83.7z"/>
	<path class="st58" d="M49.4-83.7C49.4-83.7,49.4-83.8,49.4-83.7l1.3-0.1c0.5,0,1,0.4,1,0.9c0,0.4-0.3,0.7-0.7,0.9l0.6,1.1
		c0,0.1,0,0.1-0.1,0.1h-0.5c0,0-0.1,0-0.1,0l-0.6-1.2h-0.5v1.1c0,0,0,0.1-0.1,0.1h-0.4c0,0-0.1,0-0.1-0.1V-83.7z M50.6-82.4
		c0.2,0,0.4-0.2,0.4-0.4c0-0.2-0.2-0.4-0.4-0.4h-0.7v0.9H50.6z"/>
	<path class="st58" d="M52.1-81.1l0.2-0.3c0-0.1,0.1-0.1,0.1,0c0,0,0.4,0.3,0.7,0.3c0.2,0,0.4-0.1,0.4-0.3c0-0.2-0.2-0.4-0.6-0.5
		c-0.4-0.2-0.8-0.4-0.8-1c0-0.4,0.3-0.8,1-0.8c0.4,0,0.8,0.2,0.9,0.3c0,0,0.1,0.1,0,0.1l-0.2,0.3c0,0.1-0.1,0.1-0.2,0.1
		c0,0-0.4-0.2-0.6-0.2c-0.3,0-0.4,0.2-0.4,0.3c0,0.2,0.2,0.3,0.5,0.5c0.4,0.2,0.9,0.4,0.9,1c0,0.5-0.4,0.9-1,0.9
		c-0.6,0-0.9-0.3-1-0.3C52.1-81,52.1-81.1,52.1-81.1z"/>
</g>
<g>
	<path class="st58" d="M87.7-88.1c0.9,0,1.6,0.7,1.6,1.6c0,0.9-0.7,1.6-1.6,1.6s-1.6-0.7-1.6-1.6C86.1-87.4,86.8-88.1,87.7-88.1z
		 M87.7-85.5c0.6,0,1-0.5,1-1c0-0.6-0.5-1-1-1c-0.6,0-1,0.5-1,1C86.7-86,87.2-85.5,87.7-85.5z"/>
	<path class="st58" d="M89.9-88C89.9-88.1,89.9-88.1,89.9-88l1.1-0.1c0.5,0,1,0.4,1,1c0,0.5-0.4,1-1,1h-0.6v1c0,0,0,0.1-0.1,0.1H90
		c0,0-0.1,0-0.1-0.1V-88z M91-86.7c0.2,0,0.5-0.2,0.5-0.5c0-0.2-0.2-0.4-0.5-0.4h-0.5v0.9H91z"/>
	<path class="st58" d="M92.9-87.6h-0.7c0,0-0.1,0-0.1-0.1V-88c0,0,0-0.1,0.1-0.1h1.9c0,0,0.1,0,0.1,0.1v0.4c0,0,0,0.1-0.1,0.1h-0.7
		v2.5c0,0,0,0.1-0.1,0.1H93c0,0-0.1,0-0.1-0.1V-87.6z"/>
	<path class="st58" d="M94.7-88C94.7-88.1,94.7-88.1,94.7-88l0.5-0.1c0,0,0.1,0,0.1,0.1v2.9c0,0,0,0.1-0.1,0.1h-0.4
		c0,0-0.1,0-0.1-0.1V-88z"/>
	<path class="st58" d="M96.4-88.1C96.4-88.1,96.4-88.1,96.4-88.1l0.1-0.1c0,0,0.1,0,0.1,0l1,2.1c0,0,0,0,0,0l1-2.1c0,0,0,0,0.1,0
		h0.1c0,0,0.1,0,0.1,0.1l0.5,3c0,0.1,0,0.1-0.1,0.1h-0.4c0,0-0.1,0-0.1-0.1l-0.3-1.7c0,0,0,0,0,0L97.7-85c0,0,0,0-0.1,0h-0.1
		c0,0-0.1,0-0.1,0l-0.8-1.7c0,0,0,0,0,0l-0.3,1.7c0,0,0,0.1-0.1,0.1H96c-0.1,0-0.1,0-0.1-0.1L96.4-88.1z"/>
	<path class="st58" d="M99.9-88C99.9-88.1,100-88.1,99.9-88l0.5-0.1c0,0,0.1,0,0.1,0.1v2.9c0,0,0,0.1-0.1,0.1H100c0,0-0.1,0-0.1-0.1
		V-88z"/>
	<path class="st58" d="M101-85.2l1.3-2.4v0h-1.1c0,0-0.1,0-0.1-0.1V-88c0,0,0-0.1,0.1-0.1h1.8c0,0,0.1,0,0.1,0.1v0.1l-1.3,2.4v0h1.1
		c0,0,0.1,0,0.1,0.1v0.4c0,0,0,0.1-0.1,0.1h-1.9C101-85,101-85.1,101-85.2L101-85.2z"/>
	<path class="st58" d="M103.7-88C103.7-88.1,103.7-88.1,103.7-88l1.9-0.1c0,0,0.1,0,0.1,0.1v0.4c0,0,0,0.1-0.1,0.1h-1.3v0.7h1.1
		c0,0,0.1,0,0.1,0.1v0.4c0,0,0,0.1-0.1,0.1h-1.1v0.8h1.3c0,0,0.1,0,0.1,0.1v0.4c0,0,0,0.1-0.1,0.1h-1.8c0,0-0.1,0-0.1-0.1V-88z"/>
	<path class="st58" d="M107.8-86.5l-1-1.5c0-0.1,0-0.1,0.1-0.1h0.4c0,0,0.1,0,0.1,0l0.7,1l0.7-1c0,0,0,0,0.1,0h0.5
		c0.1,0,0.1,0.1,0.1,0.1l-1,1.5v1.4c0,0,0,0.1-0.1,0.1h-0.4c0,0-0.1,0-0.1-0.1V-86.5z"/>
	<path class="st58" d="M111.1-88.1c0.9,0,1.6,0.7,1.6,1.6c0,0.9-0.7,1.6-1.6,1.6s-1.6-0.7-1.6-1.6C109.5-87.4,110.2-88.1,111.1-88.1
		z M111.1-85.5c0.6,0,1-0.5,1-1c0-0.6-0.5-1-1-1c-0.6,0-1,0.5-1,1C110.1-86,110.5-85.5,111.1-85.5z"/>
	<path class="st58" d="M113.2-88C113.2-88.1,113.3-88.1,113.2-88l0.5-0.1c0,0,0.1,0,0.1,0.1v1.8c0,0.4,0.3,0.7,0.6,0.7
		c0.4,0,0.6-0.3,0.6-0.7V-88c0,0,0-0.1,0.1-0.1h0.4c0,0,0.1,0,0.1,0.1v1.8c0,0.7-0.5,1.2-1.2,1.2c-0.7,0-1.2-0.5-1.2-1.2V-88z"/>
	<path class="st58" d="M116.4-88C116.4-88.1,116.5-88.1,116.4-88l1.3-0.1c0.5,0,1,0.4,1,0.9c0,0.4-0.3,0.7-0.7,0.9l0.6,1.1
		c0,0.1,0,0.1-0.1,0.1h-0.5c0,0-0.1,0-0.1,0l-0.6-1.2H117v1.1c0,0,0,0.1-0.1,0.1h-0.4c0,0-0.1,0-0.1-0.1V-88z M117.7-86.7
		c0.2,0,0.4-0.2,0.4-0.4c0-0.2-0.2-0.4-0.4-0.4H117v0.9H117.7z"/>
	<path class="st58" d="M90.6-83.8c0.9,0,1.6,0.7,1.6,1.6c0,0.9-0.7,1.6-1.6,1.6S89-81.4,89-82.2C89-83.1,89.7-83.8,90.6-83.8z
		 M90.6-81.2c0.6,0,1-0.5,1-1s-0.5-1-1-1c-0.6,0-1,0.5-1,1S90-81.2,90.6-81.2z"/>
	<path class="st58" d="M92.7-83.7C92.7-83.7,92.8-83.8,92.7-83.7l1.1-0.1c0.5,0,1,0.4,1,1c0,0.5-0.4,1-1,1h-0.6v1c0,0,0,0.1-0.1,0.1
		h-0.4c0,0-0.1,0-0.1-0.1V-83.7z M93.8-82.4c0.2,0,0.5-0.2,0.5-0.5c0-0.2-0.2-0.4-0.5-0.4h-0.5v0.9H93.8z"/>
	<path class="st58" d="M95.3-83.7C95.3-83.7,95.4-83.8,95.3-83.7l1.9-0.1c0,0,0.1,0,0.1,0.1v0.4c0,0,0,0.1-0.1,0.1h-1.3v0.7H97
		c0,0,0.1,0,0.1,0.1v0.4c0,0,0,0.1-0.1,0.1h-1.1v0.8h1.3c0,0,0.1,0,0.1,0.1v0.4c0,0,0,0.1-0.1,0.1h-1.8c0,0-0.1,0-0.1-0.1V-83.7z"/>
	<path class="st58" d="M97.9-83.7C97.9-83.7,98-83.8,97.9-83.7l1.3-0.1c0.5,0,1,0.4,1,0.9c0,0.4-0.3,0.7-0.7,0.9l0.6,1.1
		c0,0.1,0,0.1-0.1,0.1h-0.5c0,0-0.1,0-0.1,0L99-81.9h-0.5v1.1c0,0,0,0.1-0.1,0.1H98c0,0-0.1,0-0.1-0.1V-83.7z M99.2-82.4
		c0.2,0,0.4-0.2,0.4-0.4c0-0.2-0.2-0.4-0.4-0.4h-0.7v0.9H99.2z"/>
	<path class="st58" d="M100.5-80.8l1.4-3c0,0,0,0,0.1,0h0c0,0,0.1,0,0.1,0l1.4,3c0,0.1,0,0.1-0.1,0.1h-0.4c-0.1,0-0.1,0-0.1-0.1
		l-0.2-0.5h-1.3l-0.2,0.5c0,0-0.1,0.1-0.1,0.1h-0.4C100.5-80.7,100.4-80.8,100.5-80.8z M102.4-81.8l-0.4-1h0l-0.4,1H102.4z"/>
	<path class="st58" d="M104-83.3h-0.7c0,0-0.1,0-0.1-0.1v-0.4c0,0,0-0.1,0.1-0.1h1.9c0,0,0.1,0,0.1,0.1v0.4c0,0,0,0.1-0.1,0.1h-0.7
		v2.5c0,0,0,0.1-0.1,0.1h-0.4c0,0-0.1,0-0.1-0.1V-83.3z"/>
	<path class="st58" d="M105.8-83.7C105.8-83.7,105.9-83.8,105.8-83.7l0.5-0.1c0,0,0.1,0,0.1,0.1v2.9c0,0,0,0.1-0.1,0.1h-0.4
		c0,0-0.1,0-0.1-0.1V-83.7z"/>
	<path class="st58" d="M108.6-83.8c0.9,0,1.6,0.7,1.6,1.6c0,0.9-0.7,1.6-1.6,1.6s-1.6-0.7-1.6-1.6C107-83.1,107.7-83.8,108.6-83.8z
		 M108.6-81.2c0.6,0,1-0.5,1-1s-0.5-1-1-1s-1,0.5-1,1S108-81.2,108.6-81.2z"/>
	<path class="st58" d="M110.7-83.8C110.7-83.8,110.8-83.8,110.7-83.8l0.2-0.1l1.8,1.9h0v-1.8c0,0,0-0.1,0.1-0.1h0.4
		c0,0,0.1,0,0.1,0.1v3c0,0,0,0.1-0.1,0.1h-0.1l-1.8-2h0v1.9c0,0,0,0.1-0.1,0.1h-0.4c0,0-0.1,0-0.1-0.1V-83.8z"/>
	<path class="st58" d="M113.9-81.1l0.2-0.3c0-0.1,0.1-0.1,0.1,0c0,0,0.4,0.3,0.7,0.3c0.2,0,0.4-0.1,0.4-0.3c0-0.2-0.2-0.4-0.6-0.5
		c-0.4-0.2-0.8-0.4-0.8-1c0-0.4,0.3-0.8,1-0.8c0.4,0,0.8,0.2,0.9,0.3c0,0,0.1,0.1,0,0.1l-0.2,0.3c0,0.1-0.1,0.1-0.2,0.1
		c0,0-0.4-0.2-0.6-0.2c-0.3,0-0.4,0.2-0.4,0.3c0,0.2,0.2,0.3,0.5,0.5c0.4,0.2,0.9,0.4,0.9,1c0,0.5-0.4,0.9-1,0.9
		c-0.6,0-0.9-0.3-1-0.3C113.9-81,113.9-81.1,113.9-81.1z"/>
</g>
<g>
	<path class="st58" d="M137.2-40h-0.7c0,0-0.1,0-0.1-0.1v-0.4c0,0,0-0.1,0.1-0.1h1.9c0,0,0.1,0,0.1,0.1v0.4c0,0,0,0.1-0.1,0.1h-0.7
		v2.5c0,0,0,0.1-0.1,0.1h-0.4c0,0-0.1,0-0.1-0.1V-40z"/>
	<path class="st58" d="M139-40.4C139-40.5,139-40.5,139-40.4l1.3-0.1c0.5,0,1,0.4,1,0.9c0,0.4-0.3,0.7-0.7,0.9l0.6,1.1
		c0,0.1,0,0.1-0.1,0.1h-0.5c0,0-0.1,0-0.1,0l-0.6-1.2h-0.5v1.1c0,0,0,0.1-0.1,0.1h-0.4c0,0-0.1,0-0.1-0.1V-40.4z M140.3-39.1
		c0.2,0,0.4-0.2,0.4-0.4c0-0.2-0.2-0.4-0.4-0.4h-0.7v0.9H140.3z"/>
	<path class="st58" d="M141.5-37.5l1.4-3c0,0,0,0,0.1,0h0c0,0,0.1,0,0.1,0l1.4,3c0,0.1,0,0.1-0.1,0.1H144c-0.1,0-0.1,0-0.1-0.1
		l-0.2-0.5h-1.3l-0.2,0.5c0,0-0.1,0.1-0.1,0.1h-0.4C141.5-37.4,141.5-37.5,141.5-37.5z M143.4-38.5l-0.4-1h0l-0.4,1H143.4z"/>
	<path class="st58" d="M144.8-40.5C144.8-40.5,144.9-40.6,144.8-40.5l0.2-0.1l1.8,1.9h0v-1.8c0,0,0-0.1,0.1-0.1h0.4
		c0,0,0.1,0,0.1,0.1v3c0,0,0,0.1-0.1,0.1h-0.1l-1.8-2h0v1.9c0,0,0,0.1-0.1,0.1h-0.4c0,0-0.1,0-0.1-0.1V-40.5z"/>
	<path class="st58" d="M148-37.9l0.2-0.3c0-0.1,0.1-0.1,0.1,0c0,0,0.4,0.3,0.7,0.3c0.2,0,0.4-0.1,0.4-0.3c0-0.2-0.2-0.4-0.6-0.5
		c-0.4-0.2-0.8-0.4-0.8-1c0-0.4,0.3-0.8,1-0.8c0.4,0,0.8,0.2,0.9,0.3c0,0,0.1,0.1,0,0.1l-0.2,0.3c0,0.1-0.1,0.1-0.2,0.1
		c0,0-0.4-0.2-0.6-0.2c-0.3,0-0.4,0.2-0.4,0.3c0,0.2,0.2,0.3,0.5,0.5c0.4,0.2,0.9,0.4,0.9,1c0,0.5-0.4,0.9-1,0.9
		c-0.6,0-0.9-0.3-1-0.3C148-37.8,148-37.8,148-37.9z"/>
	<path class="st58" d="M150.6-40.4C150.6-40.5,150.6-40.5,150.6-40.4l1.9-0.1c0,0,0.1,0,0.1,0.1v0.4c0,0,0,0.1-0.1,0.1h-1.3v0.8h1.1
		c0,0,0.1,0,0.1,0.1v0.4c0,0,0,0.1-0.1,0.1h-1.1v1.1c0,0,0,0.1-0.1,0.1h-0.4c0,0-0.1,0-0.1-0.1V-40.4z"/>
	<path class="st58" d="M154.4-40.6c0.9,0,1.6,0.7,1.6,1.6c0,0.9-0.7,1.6-1.6,1.6c-0.9,0-1.6-0.7-1.6-1.6
		C152.9-39.9,153.6-40.6,154.4-40.6z M154.4-38c0.6,0,1-0.5,1-1c0-0.6-0.5-1-1-1c-0.6,0-1,0.5-1,1C153.4-38.4,153.9-38,154.4-38z"/>
	<path class="st58" d="M156.6-40.4C156.6-40.5,156.6-40.5,156.6-40.4l1.3-0.1c0.5,0,1,0.4,1,0.9c0,0.4-0.3,0.7-0.7,0.9l0.6,1.1
		c0,0.1,0,0.1-0.1,0.1h-0.5c0,0-0.1,0-0.1,0l-0.6-1.2h-0.5v1.1c0,0,0,0.1-0.1,0.1h-0.4c0,0-0.1,0-0.1-0.1V-40.4z M157.9-39.1
		c0.2,0,0.4-0.2,0.4-0.4c0-0.2-0.2-0.4-0.4-0.4h-0.7v0.9H157.9z"/>
	<path class="st58" d="M159.9-40.5C159.9-40.5,159.9-40.6,159.9-40.5l0.1-0.1c0,0,0.1,0,0.1,0l1,2.1c0,0,0,0,0,0l1-2.1
		c0,0,0,0,0.1,0h0.1c0,0,0.1,0,0.1,0.1l0.5,3c0,0.1,0,0.1-0.1,0.1h-0.4c0,0-0.1,0-0.1-0.1l-0.3-1.7c0,0,0,0,0,0l-0.8,1.7
		c0,0,0,0-0.1,0H161c0,0-0.1,0-0.1,0l-0.8-1.7c0,0,0,0,0,0l-0.3,1.7c0,0,0,0.1-0.1,0.1h-0.4c-0.1,0-0.1,0-0.1-0.1L159.9-40.5z"/>
	<path class="st58" d="M133.8-34.6l-1-1.5c0-0.1,0-0.1,0.1-0.1h0.4c0,0,0.1,0,0.1,0l0.7,1l0.7-1c0,0,0,0,0.1,0h0.5
		c0.1,0,0.1,0.1,0.1,0.1l-1,1.5v1.4c0,0,0,0.1-0.1,0.1h-0.4c0,0-0.1,0-0.1-0.1V-34.6z"/>
	<path class="st58" d="M137-36.2c0.9,0,1.6,0.7,1.6,1.6c0,0.9-0.7,1.6-1.6,1.6s-1.6-0.7-1.6-1.6C135.5-35.5,136.2-36.2,137-36.2z
		 M137-33.7c0.6,0,1-0.5,1-1c0-0.6-0.5-1-1-1s-1,0.5-1,1C136-34.1,136.5-33.7,137-33.7z"/>
	<path class="st58" d="M139.2-36.1C139.2-36.2,139.2-36.2,139.2-36.1l0.5-0.1c0,0,0.1,0,0.1,0.1v1.8c0,0.4,0.3,0.7,0.6,0.7
		c0.4,0,0.6-0.3,0.6-0.7v-1.8c0,0,0-0.1,0.1-0.1h0.4c0,0,0.1,0,0.1,0.1v1.8c0,0.7-0.5,1.2-1.2,1.2c-0.7,0-1.2-0.5-1.2-1.2V-36.1z"/>
	<path class="st58" d="M142.4-36.1C142.4-36.2,142.4-36.2,142.4-36.1l1.3-0.1c0.5,0,1,0.4,1,0.9c0,0.4-0.3,0.7-0.7,0.9l0.6,1.1
		c0,0.1,0,0.1-0.1,0.1h-0.5c0,0-0.1,0-0.1,0l-0.6-1.2h-0.5v1.1c0,0,0,0.1-0.1,0.1h-0.4c0,0-0.1,0-0.1-0.1V-36.1z M143.7-34.8
		c0.2,0,0.4-0.2,0.4-0.4c0-0.2-0.2-0.4-0.4-0.4H143v0.9H143.7z"/>
	<path class="st58" d="M146.3-36.1C146.3-36.2,146.3-36.2,146.3-36.1l1.1-0.1c0.5,0,1,0.4,1,1c0,0.5-0.4,1-1,1h-0.6v1
		c0,0,0,0.1-0.1,0.1h-0.4c0,0-0.1,0-0.1-0.1V-36.1z M147.4-34.8c0.2,0,0.5-0.2,0.5-0.5c0-0.2-0.2-0.4-0.5-0.4h-0.5v0.9H147.4z"/>
	<path class="st58" d="M148.9-36.1C148.9-36.2,148.9-36.2,148.9-36.1l1.3-0.1c0.5,0,1,0.4,1,0.9c0,0.4-0.3,0.7-0.7,0.9l0.6,1.1
		c0,0.1,0,0.1-0.1,0.1h-0.5c0,0-0.1,0-0.1,0l-0.6-1.2h-0.5v1.1c0,0,0,0.1-0.1,0.1H149c0,0-0.1,0-0.1-0.1V-36.1z M150.2-34.8
		c0.2,0,0.4-0.2,0.4-0.4c0-0.2-0.2-0.4-0.4-0.4h-0.7v0.9H150.2z"/>
	<path class="st58" d="M153.2-36.2c0.9,0,1.6,0.7,1.6,1.6c0,0.9-0.7,1.6-1.6,1.6c-0.9,0-1.6-0.7-1.6-1.6
		C151.6-35.5,152.3-36.2,153.2-36.2z M153.2-33.7c0.6,0,1-0.5,1-1c0-0.6-0.5-1-1-1c-0.6,0-1,0.5-1,1
		C152.2-34.1,152.6-33.7,153.2-33.7z"/>
	<path class="st58" d="M155.3-36.1C155.3-36.2,155.4-36.2,155.3-36.1l1.1-0.1c0.8,0,1.5,0.7,1.5,1.5c0,0.9-0.7,1.5-1.5,1.5h-1
		c0,0-0.1,0-0.1-0.1V-36.1z M156.4-33.7c0.6,0,1-0.4,1-1c0-0.6-0.4-1-1-1h-0.5v2H156.4z"/>
	<path class="st58" d="M158.5-36.1C158.5-36.2,158.6-36.2,158.5-36.1l0.5-0.1c0,0,0.1,0,0.1,0.1v1.8c0,0.4,0.3,0.7,0.6,0.7
		c0.4,0,0.6-0.3,0.6-0.7v-1.8c0,0,0-0.1,0.1-0.1h0.4c0,0,0.1,0,0.1,0.1v1.8c0,0.7-0.5,1.2-1.2,1.2c-0.7,0-1.2-0.5-1.2-1.2V-36.1z"/>
	<path class="st58" d="M163.1-36.2c0.4,0,0.8,0.1,1.1,0.4c0,0,0,0.1,0,0.1l-0.3,0.3c0,0-0.1,0-0.1,0c-0.2-0.2-0.4-0.3-0.7-0.3
		c-0.6,0-1,0.5-1,1c0,0.6,0.4,1,1,1c0.3,0,0.5-0.1,0.7-0.3c0,0,0.1,0,0.1,0l0.3,0.3c0,0,0,0.1,0,0.1c-0.3,0.3-0.7,0.4-1.1,0.4
		c-0.9,0-1.6-0.7-1.6-1.6C161.5-35.5,162.2-36.2,163.1-36.2z"/>
	<path class="st58" d="M165.2-35.7h-0.7c0,0-0.1,0-0.1-0.1v-0.4c0,0,0-0.1,0.1-0.1h1.9c0,0,0.1,0,0.1,0.1v0.4c0,0,0,0.1-0.1,0.1
		h-0.7v2.5c0,0,0,0.1-0.1,0.1h-0.4c0,0-0.1,0-0.1-0.1V-35.7z"/>
</g>
<rect x="-60.3" y="-172" class="st42" width="264.6" height="148.9"/>
</svg>
