<?xml version="1.0" encoding="utf-8"?>
<!-- Generator: Adobe Illustrator 26.0.3, SVG Export Plug-In . SVG Version: 6.00 Build 0)  -->
<svg version="1.1" id="Layer_1" xmlns="http://www.w3.org/2000/svg" xmlns:xlink="http://www.w3.org/1999/xlink" x="0px" y="0px"
	 viewBox="0 0 800 800" style="enable-background:new 0 0 800 800;" xml:space="preserve">
<style type="text/css">
	.st0{fill:#1D4C8F;}
</style>
<g>
	<g>
		<g>
			<path class="st0" d="M290.9,303.1c-1.9-3.1-5.2-5.2-9.1-5.2c-5.8,0-10.6,4.7-10.6,10.6c0,5.8,4.7,10.6,10.6,10.6
				c5.6,0,10.1-4.3,10.5-9.7c11.3-3.5,22.4-7.4,33.2-11.6c-5.3,8.2-9.1,17.2-11.2,26.6c-9.6,3.3-19.2,6.3-28.7,9l-2.9,0.8l0.6,2.9
				c2.3,11.1,4.8,22,7.6,32.5c13.9,52.8,33.8,98.1,59.1,134.7l5.8,8.5v-32c0-1.8-1.4-3.2-3.2-3.2c-1.8,0-3.2,1.4-3.2,3.2V492
				c-22.1-34.4-39.7-76.1-52.3-124c-2.5-9.5-4.8-19.3-6.9-29.3c9.2-2.7,18.6-5.7,27.9-8.9l1.7-0.6l0.4-1.8
				c2.6-12.8,8.6-24.9,17.1-34.9l8.7-10.2l-12.4,5.2C319.8,293.3,305.5,298.5,290.9,303.1z"/>
			<path class="st0" d="M342.9,418.9c-0.7-1.6-2.5-2.4-4.2-1.8c-1.6,0.7-2.4,2.5-1.8,4.2c4,9.9,8.3,19.4,12.8,28.5l6.1,12.1v-52.2
				l-1.5-0.9c-9.5-6.1-17.8-14.4-23.8-24c-4-6.3-7-13.1-9-20.3c3.2-1.9,5.5-5.4,5.5-9.4c0-6-4.9-10.9-10.9-10.9
				c-6,0-10.9,4.9-10.9,10.9c0,5.8,4.5,10.5,10.2,10.9c2.2,7.8,5.5,15.3,9.9,22.2c6.3,9.9,14.6,18.5,24.3,25v21
				C347.2,429.2,345,424.1,342.9,418.9z M311.6,355c0-2.5,2-4.5,4.5-4.5c2.5,0,4.5,2,4.5,4.5c0,2.5-2,4.5-4.5,4.5
				C313.6,359.6,311.6,357.5,311.6,355z"/>
			<path class="st0" d="M467.7,388.1c7.6-12,12.1-25.9,12.9-40.1c0.1-1.8-1.2-3.3-3-3.4c-1.8-0.1-3.3,1.2-3.4,3
				c-0.8,13.1-4.9,25.9-11.9,37c-6.1,9.6-14.3,17.9-23.8,24l-1.5,0.9v20.9c-4.6,1.3-7.9,5.5-7.9,10.5c0,6,4.9,10.9,10.9,10.9
				c6,0,10.9-4.9,10.9-10.9c0-4.9-3.2-8.9-7.6-10.4v-17.5C453.1,406.6,461.4,398,467.7,388.1z M440,445.5c-2.5,0-4.5-2-4.5-4.5
				c0-2.5,2-4.5,4.5-4.5s4.5,2,4.5,4.5C444.6,443.5,442.5,445.5,440,445.5z"/>
			<path class="st0" d="M501.9,369.6c2.8-10.4,5.3-21.4,7.6-32.5l0.6-2.9l-2.9-0.8c-6.6-1.9-13.2-3.9-19.9-6.1
				c0.1-0.5,0.1-1,0.1-1.5c0-5.8-4.7-10.6-10.6-10.6c-5.8,0-10.6,4.7-10.6,10.6c0,5.8,4.7,10.6,10.6,10.6c3,0,5.7-1.3,7.7-3.3
				c6,2,12.1,3.9,18,5.6c-2.1,10-4.5,19.9-6.9,29.3c-12.6,47.9-30.2,89.5-52.3,124v-17.5c0-1.8-1.4-3.2-3.2-3.2s-3.2,1.4-3.2,3.2
				v38.4l5.8-8.5C468.1,467.7,487.9,422.4,501.9,369.6z"/>
			<path class="st0" d="M225,291l27.4,27.4c0.6,0.6,1.4,0.9,2.3,0.9c0.8,0,1.6-0.3,2.3-0.9c1.2-1.2,1.2-3.3,0-4.5l-19-19
				c18.4-3.9,36.5-8.7,53.8-14.5c2,2.8,5.2,4.6,8.9,4.6c6,0,10.9-4.9,10.9-10.9s-4.9-10.9-10.9-10.9c-6,0-10.9,4.9-10.9,10.9
				c0,0.1,0,0.2,0,0.3c-18.9,6.2-38.7,11.4-58.9,15.4L225,291z M300.7,269.6c2.5,0,4.5,2,4.5,4.5c0,2.5-2,4.5-4.5,4.5
				c-2.5,0-4.5-2-4.5-4.5C296.2,271.6,298.2,269.6,300.7,269.6z"/>
			<path class="st0" d="M533.5,341.1c-1.7-0.4-3.4,0.7-3.8,2.5c-2.2,10.6-4.7,21.2-7.4,31.5c-2.8,10.5-5.8,20.8-9,30.7
				c-0.2,0-0.4-0.1-0.7-0.1c-6,0-10.9,4.9-10.9,10.9c0,6,4.9,10.9,10.9,10.9c6,0,10.9-4.9,10.9-10.9c0-3.5-1.7-6.6-4.3-8.6
				c3.3-10.1,6.4-20.6,9.2-31.3c2.7-10.3,5.3-21,7.5-31.8C536.4,343.1,535.3,341.4,533.5,341.1z M512.6,421.1c-2.5,0-4.5-2-4.5-4.5
				c0-2.5,2-4.5,4.5-4.5c2.5,0,4.5,2,4.5,4.5C517.2,419.1,515.1,421.1,512.6,421.1z"/>
			<path class="st0" d="M303,240.5l25.9,26l2-0.9c20-8.7,39.2-18.7,57-29.9v23.7c-9.1,0.9-18,3.3-26.3,7.1c-1.6,0.7-2.3,2.6-1.6,4.2
				c0.5,1.2,1.7,1.9,2.9,1.9c0.4,0,0.9-0.1,1.3-0.3c8.5-3.9,17.6-6.2,27.1-6.8l3-0.2V224l-4.9,3.2c-18.3,11.9-38.2,22.5-59,31.7
				l-16.1-16.1c26.2-10.9,50.6-24.2,72.8-39.5c1.8,1.4,4,2.2,6.4,2.2c5.8,0,10.6-4.7,10.6-10.6c0-5.8-4.7-10.6-10.6-10.6
				s-10.6,4.7-10.6,10.6c0,1.1,0.2,2.2,0.5,3.2c-23,15.9-48.5,29.6-76,40.7L303,240.5z"/>
			<path class="st0" d="M490.9,525.9c0.5,0.3,1.1,0.5,1.7,0.5c1.1,0,2.1-0.5,2.7-1.5c13.8-21.5,26.1-45.6,36.7-71.6l1.8-4.4h-36.7
				l-0.8,1.9c-5.1,11.6-10.5,22.7-16.3,33.4c-0.6-0.1-1.1-0.2-1.7-0.2c-5.8,0-10.6,4.7-10.6,10.6c0,5.8,4.7,10.6,10.6,10.6
				c5.8,0,10.6-4.7,10.6-10.6c0-2.9-1.2-5.6-3.2-7.5c5.5-10.1,10.8-20.8,15.6-31.8h23c-10,23.9-21.6,46.2-34.3,66.1
				C489,522.9,489.4,524.9,490.9,525.9z"/>
			<path class="st0" d="M602,279.2l-39.6,39.6l-0.2,1c-3.5,21.3-8,42.3-13.3,62.3c-3.8,14.5-8.2,28.8-12.9,42.4
				c-0.6,1.7,0.3,3.5,2,4.1c0.3,0.1,0.7,0.2,1,0.2c1.3,0,2.6-0.8,3-2.1c4.8-13.8,9.2-28.2,13-42.8c5.2-19.9,9.7-40.7,13.2-61.9
				l25.1-25.1c-3.3,25.3-7.7,50-13.3,73.7c-5.9,0.2-10.6,5-10.6,10.9c0,6,4.9,10.9,10.9,10.9c6,0,10.9-4.9,10.9-10.9
				c0-3.9-2-7.3-5.1-9.2c6.3-26.9,11.2-55.1,14.6-83.8L602,279.2z M580.5,385.9c-2.5,0-4.5-2-4.5-4.5c0-2.5,2-4.5,4.5-4.5
				c2.5,0,4.5,2,4.5,4.5C585.1,383.8,583.1,385.9,580.5,385.9z"/>
			<path class="st0" d="M574.9,414.9c0.5-1.7-0.4-3.5-2.1-4c-1.7-0.5-3.5,0.4-4,2.1c-6.7,21.8-14.5,42.8-23.1,62.3l-6.4,13.8
				c-9,18.7-19,36.5-29.9,52.8c-1.6-0.9-3.4-1.4-5.3-1.4c-6,0-10.9,4.9-10.9,10.9c0,6,4.9,10.9,10.9,10.9c6,0,10.9-4.9,10.9-10.9
				c0-1.7-0.4-3.3-1.1-4.8c0-0.1,0.1-0.1,0.2-0.2c11.2-16.8,21.7-35.2,31-54.6l6.4-13.9C560.3,458.2,568.1,437,574.9,414.9z
				 M504.2,556c-2.5,0-4.5-2-4.5-4.5s2-4.5,4.5-4.5s4.5,2,4.5,4.5S506.7,556,504.2,556z"/>
			<path class="st0" d="M481,545.6l1.6-2.2l-24.3-24.3l-2.2,3c-4.2,5.8-8.6,11.5-13.1,16.9c-1.1,1.4-0.9,3.4,0.4,4.5
				c1.4,1.1,3.4,0.9,4.5-0.4c3.8-4.6,7.5-9.3,11.1-14.2l15.1,15.1c-15.1,20.1-32.2,38.1-50.9,53.6c-1.9-1.6-4.3-2.6-7-2.6
				c-6,0-10.9,4.9-10.9,10.9c0,6,4.9,10.9,10.9,10.9c6,0,10.9-4.9,10.9-10.9c0-1-0.2-2-0.4-2.9C446.8,586.5,465,567.2,481,545.6z
				 M416.4,610.5c-2.5,0-4.5-2-4.5-4.5c0-2.5,2-4.5,4.5-4.5c2.5,0,4.5,2,4.5,4.5C420.9,608.4,418.9,610.5,416.4,610.5z"/>
			<path class="st0" d="M352.1,619c-1.4-1.1-3.4-0.9-4.5,0.4c-1.1,1.4-0.9,3.4,0.4,4.5c14.6,12.1,30.3,23.1,46.8,32.6l4.8,2.8v-39.6
				l-1.5-0.9c-32.2-21-60.4-48.1-83.8-80.5c-1.1-1.5-2.1-3-3.1-4.5c1.8-2,3-4.6,3-7.4c0-6-4.9-10.9-10.9-10.9
				c-6,0-10.9,4.9-10.9,10.9c0,6,4.9,10.9,10.9,10.9c0.8,0,1.6-0.1,2.4-0.3c1.2,1.7,2.3,3.3,3.5,5c23.5,32.6,51.8,59.9,84,81.1v25
				C378.8,639.5,365,629.7,352.1,619z M298.7,526.4c0-2.5,2-4.5,4.5-4.5c2.5,0,4.5,2,4.5,4.5c0,2.5-2,4.5-4.5,4.5
				C300.8,530.9,298.7,528.9,298.7,526.4z"/>
			<path class="st0" d="M385.2,682.7c-0.2,0.8-0.4,1.7-0.4,2.6c0,5.8,4.7,10.6,10.6,10.6c5.8,0,10.6-4.7,10.6-10.6
				c0-5.8-4.7-10.6-10.6-10.6c-2.6,0-5,1-6.9,2.6c-8.5-4.8-16.8-9.9-24.8-15.2c-29.3-19.6-55.7-43.7-78.6-71.5
				c-1.1-1.4-3.1-1.6-4.5-0.4c-1.4,1.1-1.6,3.1-0.4,4.5c23.3,28.3,50.2,52.8,80,72.8C368.2,672.7,376.6,677.9,385.2,682.7z"/>
			<path class="st0" d="M547.6,545.1c0.9-1.5,0.4-3.5-1.1-4.4c-1.5-0.9-3.5-0.4-4.4,1.1c-6,9.9-12.4,19.6-19,28.7
				c-26.9,37.3-59.2,68.5-96.3,93v-25.7c19.9-14.4,38.3-31,54.9-49.7c1.4,0.7,3,1.2,4.7,1.2c5.8,0,10.6-4.7,10.6-10.6
				c0-5.8-4.7-10.6-10.6-10.6c-5.8,0-10.6,4.7-10.6,10.6c0,1.8,0.5,3.5,1.3,5c-16.8,18.8-35.4,35.5-55.4,49.9l-1.3,1v40.7l4.9-3.1
				c39.8-25.4,74.4-58.3,103-97.8C535.1,565,541.5,555.2,547.6,545.1z"/>
			<path class="st0" d="M579.5,545.1c18-32.1,33.3-67.8,45.6-106.1c5.7-0.4,10.2-5.1,10.2-10.9c0-6-4.9-10.9-10.9-10.9
				c-6,0-10.9,4.9-10.9,10.9c0,4,2.2,7.5,5.4,9.4c-11.6,36.3-26.1,70.2-42.9,100.8l-15.6-15.6c19.8-37.2,36-79.2,48.1-125
				c5.4-20.4,10-41.7,13.7-63.5c0.3-1.7-0.9-3.4-2.6-3.7c-1.7-0.3-3.4,0.9-3.7,2.6c-3.7,21.6-8.3,42.7-13.6,62.9
				c-12.2,46.2-28.5,88.4-48.6,125.7l-1.1,2.1l24.9,24.9L579.5,545.1z M624.3,423.6c2.5,0,4.5,2,4.5,4.5s-2,4.5-4.5,4.5
				c-2.5,0-4.5-2-4.5-4.5S621.8,423.6,624.3,423.6z"/>
			<path class="st0" d="M637.1,396.8c17.5-69.6,22.7-134.1,24-175.9l0.1-3.2l-3.2-0.1c-42.1-1.2-81.6-7.1-117.2-17.5l-1.8-0.5
				l-26.9,26.9l4.9,1.6c33.5,11.1,70.1,18.4,108.7,21.7c-0.9,13.6-2.2,27.2-3.7,40.6c-5.3,0.8-9.4,5.3-9.4,10.8
				c0,6,4.9,10.9,10.9,10.9c6,0,10.9-4.9,10.9-10.9c0-4.3-2.5-8-6.2-9.8c1.7-14.7,3.1-29.6,4-44.3l0.2-3.1l-3.1-0.2
				c-37.4-2.9-72.8-9.7-105.4-20l16.9-16.9c34.8,9.9,73.1,15.7,113.8,17.1c-1.4,41.5-6.8,104-23.7,171.4c-0.4,1.7,0.6,3.4,2.3,3.9
				c0.3,0.1,0.5,0.1,0.8,0.1C635.4,399.2,636.7,398.2,637.1,396.8z M623.6,305.7c-2.5,0-4.5-2-4.5-4.5c0-2.5,2-4.5,4.5-4.5
				s4.5,2,4.5,4.5C628.1,303.6,626.1,305.7,623.6,305.7z"/>
			<path class="st0" d="M370.2,705.9c2,1.1,3.9,2.2,5.9,3.3c6.2,3.4,12.5,6.6,18.9,9.7l1.4,0.7l1.4-0.7c36.7-17.6,70.3-40.5,99.8-68
				c0.1-0.1,0.1-0.2,0.2-0.3c1.4,0.6,2.9,1,4.5,1c6,0,10.9-4.9,10.9-10.9c0-6-4.9-10.9-10.9-10.9c-6,0-10.9,4.9-10.9,10.9
				c0,2.1,0.6,4.1,1.7,5.7c-28.6,26.7-61.1,48.9-96.6,66.1c-5.8-2.8-11.6-5.8-17.2-8.9c-2-1.1-3.9-2.1-5.8-3.2
				c-1.5-0.9-3.5-0.3-4.4,1.2C368.1,703.1,368.7,705,370.2,705.9z M502.4,636c2.5,0,4.5,2,4.5,4.5c0,2.5-2,4.5-4.5,4.5
				c-2.5,0-4.5-2-4.5-4.5C497.8,638.1,499.9,636,502.4,636z"/>
			<path class="st0" d="M162.3,222.5c21.7-1.7,42.9-4.8,62.9-9.1l22.8,22.8l1.8-0.5c31.7-8.3,61.4-19.9,88.4-34.6l3.8-2l-25-25
				l-2.1,1.1c-12.4,6.4-25.5,12-39,16.9c-1.9-2.4-4.9-4-8.3-4c-5.8,0-10.6,4.7-10.6,10.6c0,5.8,4.7,10.6,10.6,10.6
				s10.6-4.7,10.6-10.6c0-0.2,0-0.4-0.1-0.6c12.9-4.7,25.5-10.1,37.5-16.2l15.6,15.6c-25,13.2-52.4,23.8-81.4,31.5l-22.7-22.7
				l-1.7,0.4c-20.2,4.4-41.6,7.6-63.7,9.3c-1.8,0.1-3.1,1.7-2.9,3.4C159,221.3,160.5,222.6,162.3,222.5z"/>
			<path class="st0" d="M353,160.1c9.3-6.4,18.3-13.2,26.7-20.4c1.3-1.1,1.5-3.2,0.3-4.5c-1.1-1.3-3.2-1.5-4.5-0.3
				c-7.6,6.5-15.6,12.7-24,18.5L316.3,118c46.6-30,70.2-65.8,80.2-84.5c9.1,17.1,30.3,49.5,70.8,78.1c-0.1,0.7-0.2,1.3-0.2,2
				c0,6,4.9,10.9,10.9,10.9c6,0,10.9-4.9,10.9-10.9c0-6-4.9-10.9-10.9-10.9c-3,0-5.8,1.2-7.7,3.2C426.3,74.7,406.1,39,399.3,25
				l-2.9-6l-2.9,6c-7.7,16-31.2,56.8-84.1,89.7l-3.4,2.1l44.7,44.7L353,160.1z M478,109.1c2.5,0,4.5,2,4.5,4.5c0,2.5-2,4.5-4.5,4.5
				c-2.5,0-4.5-2-4.5-4.5C473.4,111.1,475.5,109.1,478,109.1z"/>
			<path class="st0" d="M462.5,141.7c1.5,0.9,3.5,0.5,4.4-1c1-1.5,0.5-3.5-1-4.4c-26.2-16.8-48.7-37.1-67-60.5l-5.7-7.3v52.4
				l0.9,0.9c6.1,6.3,12.7,12.4,19.4,18.1c24.4,20.9,52.6,38.2,83.7,51.4c0,0.3-0.1,0.7-0.1,1c0,5.8,4.7,10.6,10.6,10.6
				s10.6-4.7,10.6-10.6c0-5.8-4.7-10.6-10.6-10.6c-3.2,0-6,1.5-8,3.7c-30.5-13-58.2-29.9-82.1-50.4c-6.2-5.3-12.3-11-18-16.8V86.9
				C417.2,107.9,438.3,126.3,462.5,141.7z"/>
			<path class="st0" d="M381.5,100c1.2-1.3,1.2-3.3-0.1-4.5c-1.3-1.2-3.3-1.2-4.5,0.1c-6.4,6.6-13.2,13-20.3,19
				c-1.6-1-3.4-1.5-5.4-1.5c-5.8,0-10.6,4.7-10.6,10.6s4.7,10.6,10.6,10.6c5.8,0,10.6-4.7,10.6-10.6c0-1.5-0.3-3-0.9-4.3
				C368,113.2,375,106.7,381.5,100z"/>
			<path class="st0" d="M285.7,670.8c-1.3-1.2-3.3-1.1-4.5,0.2c-1.2,1.3-1.1,3.3,0.2,4.5c20.8,18.8,43.7,35.7,67.9,50l4.8,2.9v-39.7
				l-1.5-0.9c-26.7-17.4-51.3-38.2-73.2-61.9c1.7-1.9,2.7-4.4,2.7-7.1c0-6-4.9-10.9-10.9-10.9c-6,0-10.9,4.9-10.9,10.9
				c0,6,4.9,10.9,10.9,10.9c0.9,0,1.8-0.2,2.7-0.4c0,0,0,0,0,0c22.1,24,46.9,45.1,73.8,62.8v25C325.7,703.7,304.9,688.1,285.7,670.8
				z M266.8,618.8c0-2.5,2-4.5,4.5-4.5c2.5,0,4.5,2,4.5,4.5c0,2.5-2,4.5-4.5,4.5C268.8,623.3,266.8,621.3,266.8,618.8z"/>
			<path class="st0" d="M102.1,380.9C79.4,275.1,82.4,185.7,83.3,168.1c74.1,4.4,138.9-5.3,192.6-28.6c2,1.9,4.6,3.1,7.6,3.1
				c6,0,10.9-4.9,10.9-10.9c0-6-4.9-10.9-10.9-10.9c-6,0-10.9,4.9-10.9,10.9c0,0.8,0.1,1.5,0.2,2.2
				c-53.4,23.1-118.1,32.4-192.3,27.7l-3.2-0.2l-0.2,3.2c-0.1,1-6.7,99.2,18.7,217.7c0.3,1.5,1.6,2.5,3.1,2.5c0.2,0,0.4,0,0.7-0.1
				C101.4,384.3,102.5,382.6,102.1,380.9z M283.5,127.1c2.5,0,4.5,2,4.5,4.5c0,2.5-2,4.5-4.5,4.5c-2.5,0-4.5-2-4.5-4.5
				C278.9,129.1,281,127.1,283.5,127.1z"/>
			<path class="st0" d="M481.3,152.8c35,18.9,75.2,31.9,119.6,38.5c1.2,4.8,5.5,8.3,10.6,8.3c6,0,10.9-4.9,10.9-10.9
				c0-6-4.9-10.9-10.9-10.9c-4.7,0-8.7,3-10.2,7.1c-41.9-6.3-79.9-18.3-113.1-35.7l15.8-15.8c56.9,28.1,127.1,39.7,208.8,34.5
				c1.8-0.1,3.1-1.6,3-3.4c-0.1-1.8-1.7-3.1-3.4-3c-81.5,5.2-151.4-6.5-207.6-34.8l-2.1-1l-25.2,25.2L481.3,152.8z M611.5,184.2
				c2.5,0,4.5,2,4.5,4.5c0,2.5-2,4.5-4.5,4.5c-2.5,0-4.5-2-4.5-4.5C606.9,186.2,609,184.2,611.5,184.2z"/>
			<path class="st0" d="M376.2,733.1c-1.6-0.8-3.5-0.2-4.3,1.4c-0.8,1.6-0.2,3.5,1.4,4.3c6.6,3.4,13.3,6.6,20,9.6v23.1
				c-40.8-17.3-78.2-40-111.5-67.6c0.6-1.4,1-2.9,1-4.5c0-5.8-4.7-10.6-10.6-10.6s-10.6,4.7-10.6,10.6s4.7,10.6,10.6,10.6
				c1.9,0,3.7-0.5,5.2-1.4c35,29.1,74.6,52.8,117.8,70.6l4.4,1.8v-36.8l-1.9-0.8C390.5,740.2,383.3,736.7,376.2,733.1z"/>
			<path class="st0" d="M672.7,326.9c-4.4,28.7-10.1,56.7-17.2,83.3c-15.2,57.4-36.3,109.4-62.9,154.6l-1.3,2.1l24.7,24.7l2.1-3.5
				c19.2-31.7,36-66.8,49.7-104.2c0.6-1.7-0.2-3.5-1.9-4.1c-1.7-0.6-3.5,0.2-4.1,1.9c-13.1,35.7-29,69.2-47.1,99.6l-15.4-15.4
				c26.3-45.2,47.3-97.1,62.3-154.1c6.9-26,12.5-53.3,16.9-81.3H700c-5.5,35.8-13,70.6-22.5,103.4c-5.7,0.2-10.2,4.8-10.2,10.6
				c0,5.8,4.7,10.6,10.6,10.6c5.8,0,10.6-4.7,10.6-10.6c0-3.7-1.9-7-4.8-8.9c9.9-34.2,17.7-70.5,23.2-107.9l0.5-3.7h-34.3
				L672.7,326.9z"/>
			<path class="st0" d="M268.7,654.5c-15.6-15.8-30.3-33.2-43.7-51.7c-18.1-25.2-34.4-53.2-48.6-83.4c1.8-1.9,3-4.5,3-7.3
				c0-5.8-4.7-10.6-10.6-10.6c-5.8,0-10.6,4.7-10.6,10.6s4.7,10.6,10.6,10.6c0.7,0,1.3-0.1,2-0.2c14.2,30.5,30.7,58.7,49,84.1
				c12.9,17.9,27.1,34.8,42.1,50.2l-15,15c-22-22.7-42.2-48.2-60-76c-1-1.5-2.9-1.9-4.4-1c-1.5,1-1.9,2.9-1,4.4
				c18.6,29.1,39.9,55.8,63.1,79.4l2.3,2.3l24-24L268.7,654.5z"/>
			<path class="st0" d="M247.4,586.6c-18.3-25.4-34.7-53.9-48.6-84.8c-0.7-1.6-2.6-2.3-4.2-1.6c-1.6,0.7-2.3,2.6-1.6,4.2
				c14.1,31.2,30.7,60.1,49.3,85.9c0.5,0.7,1.1,1.5,1.6,2.2l3.3,4.4l24.2-24.2l-1.6-2.2c-33.4-46.3-59.4-102.8-77.3-167.8
				c3-2,4.9-5.3,4.9-9.1c0-6-4.9-10.9-10.9-10.9c-6,0-10.9,4.9-10.9,10.9c0,6,4.8,10.8,10.8,10.9c17.8,64.7,43.6,121.1,76.6,167.6
				l-15.2,15.2C247.6,587,247.5,586.8,247.4,586.6z M181.9,393.5c0-2.5,2-4.5,4.5-4.5c2.5,0,4.5,2,4.5,4.5c0,2.5-2,4.5-4.5,4.5
				C183.9,398.1,181.9,396,181.9,393.5z"/>
			<path class="st0" d="M175.9,361.4l0.5,2.5h28.2c2,9,4.2,18,6.5,26.8c9.6,36.4,21.9,70.4,36.6,101.1c0.5,1.1,1.7,1.8,2.9,1.8
				c0.5,0,0.9-0.1,1.4-0.3c1.6-0.8,2.3-2.7,1.5-4.3c-14.5-30.3-26.7-63.9-36.2-99.9c-2.5-9.5-4.9-19.2-7-29l-0.5-2.5h-28.1
				c-7.2-34.8-12-71.1-14.5-107.9c12.7-1.1,25.2-2.6,37.3-4.5c1.8,3.5,5.4,5.8,9.6,5.8c6,0,10.9-4.9,10.9-10.9
				c0-6-4.9-10.9-10.9-10.9c-5.6,0-10.2,4.3-10.8,9.8c-12.9,2-26.3,3.6-39.8,4.7l-3.1,0.2l0.2,3.1C163,286,168.2,324.5,175.9,361.4z
				 M214.1,235.5c2.5,0,4.5,2,4.5,4.5c0,2.5-2,4.5-4.5,4.5c-2.5,0-4.5-2-4.5-4.5C209.5,237.6,211.6,235.5,214.1,235.5z"/>
			<path class="st0" d="M283.8,254.2c1.7-0.6,2.6-2.4,2-4c-0.6-1.7-2.4-2.6-4-2c-28,9.3-58,16-88.9,20.1l-3.1,0.4l0.3,3.1
				c1.4,14.6,3.2,29.2,5.4,43.4c-3.5,1.7-5.9,5.3-5.9,9.4c0,5.8,4.7,10.6,10.6,10.6c5.8,0,10.6-4.7,10.6-10.6c0-5.3-3.9-9.7-9-10.4
				c-2-13.1-3.7-26.5-5-40C227.1,270,256.3,263.3,283.8,254.2z"/>
			<path class="st0" d="M264.4,376.7c15.5,58.8,38.1,109,67.2,149.3c4.7,6.5,9.6,12.8,14.7,18.8l1,1.1h14c1.6,4,5.5,6.9,10.1,6.9
				c6,0,10.9-4.9,10.9-10.9c0-6-4.9-10.9-10.9-10.9c-5.2,0-9.6,3.7-10.7,8.6h-10.5c-4.6-5.5-9.1-11.3-13.4-17.3
				c-28.6-39.6-50.8-89.2-66.2-147.2c-1.9-7.2-3.7-14.5-5.3-21.8l-0.2-0.9l-42.4-42.4l1.6,9.8c3.7,22.3,8.2,43.9,13.5,64
				c1.8,6.6,3.6,13.3,5.5,19.7c0.5,1.7,2.3,2.6,4,2.1c1.7-0.5,2.7-2.3,2.1-4c-1.9-6.4-3.8-12.9-5.5-19.5
				c-4.5-16.9-8.4-34.9-11.7-53.5l27,27C260.8,362.6,262.5,369.7,264.4,376.7z M371.3,537.3c2.5,0,4.5,2,4.5,4.5
				c0,2.5-2,4.5-4.5,4.5c-2.5,0-4.5-2-4.5-4.5C366.8,539.3,368.8,537.3,371.3,537.3z"/>
			<path class="st0" d="M598.6,600.8c-6,0-10.9,4.9-10.9,10.9c0,2.7,1,5.1,2.6,7c-44.4,61.7-100.7,109.5-167.2,142.1
				c-1.6,0.8-2.2,2.7-1.5,4.3c0.6,1.1,1.7,1.8,2.9,1.8c0.5,0,1-0.1,1.4-0.3c67.6-33.1,124.7-81.7,169.8-144.3c1,0.3,2,0.5,3,0.5
				c6,0,10.9-4.9,10.9-10.9C609.6,605.7,604.7,600.8,598.6,600.8z M598.6,616.3c-2.5,0-4.5-2-4.5-4.5c0-2.5,2-4.5,4.5-4.5
				c2.5,0,4.5,2,4.5,4.5C603.2,614.2,601.1,616.3,598.6,616.3z"/>
			<path class="st0" d="M154.7,195.4c61-4.2,114.9-19.1,160.1-44.3c1.5-0.9,2.1-2.8,1.2-4.3c-0.9-1.5-2.8-2.1-4.3-1.2
				c-44.3,24.7-97.2,39.3-157.2,43.5c-1.5-4.2-5.5-7.3-10.3-7.3c-6,0-10.9,4.9-10.9,10.9c0,6,4.9,10.9,10.9,10.9
				C149.2,203.5,153.4,200,154.7,195.4z M144.1,197.1c-2.5,0-4.5-2-4.5-4.5c0-2.5,2-4.5,4.5-4.5c2.4,0,4.3,1.8,4.5,4.2
				c0,0.1,0,0.2,0,0.3c0,0.1,0,0.1,0,0.2C148.6,195.2,146.6,197.1,144.1,197.1z"/>
			<path class="st0" d="M356,173.9c-6,0-10.9,4.9-10.9,10.9c0,6,4.9,10.9,10.9,10.9c6,0,10.9-4.9,10.9-10.9c0-0.4-0.1-0.7-0.1-1
				c10.3-6.9,20.3-14.4,29.6-22.3c28.4,24.1,61.5,43.7,98.2,58.3c0.4,0.2,0.8,0.2,1.2,0.2c1.3,0,2.5-0.8,3-2
				c0.7-1.6-0.1-3.5-1.8-4.2c-36.9-14.7-70.1-34.6-98.4-59l-2.1-1.8l-2.1,1.8c-9.4,8.1-19.5,15.8-30,22.9
				C362.3,175.5,359.4,173.9,356,173.9z M356,189.4c-2.5,0-4.5-2-4.5-4.5s2-4.5,4.5-4.5c2.5,0,4.5,2,4.5,4.5S358.5,189.4,356,189.4z
				"/>
			<path class="st0" d="M723.7,190.7c0-6-4.9-10.9-10.9-10.9c-6,0-10.9,4.9-10.9,10.9c0,5.2,3.6,9.5,8.4,10.6
				c-0.1,22.2-1.3,56.9-6.1,98.3h-21.3c5.3-44.9,6.3-82.4,6.2-106.2l0-3.2l-3.2,0.1c-15.4,0.3-30.4-0.1-44.9-1
				c-1.8-0.1-3.3,1.2-3.4,3c-0.1,1.8,1.2,3.3,3,3.4c13.6,0.9,27.8,1.2,42.2,1.1c0,24.4-1.2,61.6-6.6,105.8l-0.4,3.6h34.2l0.3-2.8
				c5.2-43.1,6.4-79.3,6.5-102.2c0,0,0-0.1,0-0.1C720.7,199.3,723.7,195.4,723.7,190.7z M712.8,195.3c-2.5,0-4.5-2-4.5-4.5
				c0-2.5,2-4.5,4.5-4.5c2.5,0,4.5,2,4.5,4.5C717.3,193.2,715.3,195.3,712.8,195.3z"/>
			<path class="st0" d="M168.5,559.8c-0.8,0-1.6,0.1-2.4,0.3c-23.4-43.6-42.2-92.6-56.1-145.8h21.9c6.2,23.2,13.5,45.9,21.8,67.5
				l0.8,2.1h36.5l-1.8-4.4c-9.6-23.9-18.1-49.6-25.1-76.2c-7.4-28.1-13.4-57.8-17.7-88.2c-0.2-1.7-1.9-3-3.6-2.7
				c-1.7,0.2-3,1.9-2.7,3.6c4.4,30.7,10.4,60.6,17.9,89c6.7,25.3,14.6,49.7,23.6,72.6h-22.6c-8.1-21.5-15.3-44.1-21.4-67.2l-0.6-2.4
				h-35l1,4c14.1,55.4,33.5,106.3,57.8,151.5c-1.8,2-3,4.6-3,7.4c0,6,4.9,10.9,10.9,10.9c6,0,10.9-4.9,10.9-10.9
				C179.4,564.7,174.5,559.8,168.5,559.8z M168.5,575.2c-2.5,0-4.5-2-4.5-4.5c0-1.2,0.4-2.2,1.2-3c0.4,0,0.9-0.1,1.3-0.4
				c0.5-0.3,0.9-0.6,1.1-1.1c0.3-0.1,0.6-0.1,1-0.1c2.5,0,4.5,2,4.5,4.5C173,573.2,171,575.2,168.5,575.2z"/>
			<path class="st0" d="M330.9,615c6,0,10.9-4.9,10.9-10.9c0-6-4.9-10.9-10.9-10.9c-1.9,0-3.7,0.5-5.2,1.4
				c-12-12.3-23.3-25.8-33.6-40.1c-7.7-10.7-15.1-22.1-22-34l20.2-20.2l-1.2-2.1c-11.4-20.8-21.6-43.8-30.4-68.1
				c-0.6-1.7-2.4-2.5-4.1-1.9c-1.7,0.6-2.5,2.4-1.9,4.1c8.5,23.9,18.5,46.4,29.6,66.9l-20.3,20.3l1.2,2.1
				c7.4,12.9,15.3,25.2,23.6,36.7c10.5,14.6,22,28.3,34.3,40.9c0,0,0,0,0.1,0c-0.8,1.5-1.3,3.2-1.3,5
				C319.9,610.1,324.8,615,330.9,615z M330.9,599.5c2.5,0,4.5,2,4.5,4.5c0,2.5-2,4.5-4.5,4.5c-2.5,0-4.5-2-4.5-4.5
				C326.3,601.6,328.4,599.5,330.9,599.5z"/>
			<path class="st0" d="M422,229.8c-6,0-10.9,4.9-10.9,10.9s4.9,10.9,10.9,10.9c2.5,0,4.7-0.8,6.5-2.2
				c38.3,20.6,80.7,35.9,126.4,45.4l-17.8,17.8c-26.8-6.3-52.8-14.7-77.2-24.9c-11.7-13.3-27.5-22.8-44.6-26.8
				c-1.7-0.4-3.4,0.7-3.8,2.4c-0.4,1.7,0.7,3.4,2.4,3.8c16.1,3.7,30.9,12.6,41.7,25.3l0.5,0.6l0.7,0.3
				c25.5,10.7,52.6,19.4,80.7,25.9l1.7,0.4l28.7-28.7l-5.9-1.2c-46.9-9.3-90.5-24.6-129.7-45.6c0.4-1.1,0.6-2.3,0.6-3.5
				C432.9,234.7,428,229.8,422,229.8z M422,245.3c-2.5,0-4.5-2-4.5-4.5c0-2.5,2-4.5,4.5-4.5c2.5,0,4.5,2,4.5,4.5
				C426.6,243.3,424.5,245.3,422,245.3z"/>
			<path class="st0" d="M433,732.8c0-0.3-0.1-0.7-0.1-1c55.1-30.6,102.3-72.7,140.2-125.3c4.6-6.4,9.2-13.2,13.7-20.1l1.4-2.2
				l-24.6-24.6l-2.1,3.4c-5.1,8.2-10.5,16.1-15.9,23.6c-7,9.7-14.4,19.1-22.1,28c-1.2,1.3-1,3.4,0.3,4.5c1.3,1.2,3.4,1,4.5-0.3
				c7.8-9,15.3-18.6,22.4-28.4c4.8-6.6,9.5-13.5,14-20.6L580,585c-4,6.1-8,12-12.1,17.7c-37.3,51.7-83.5,93-137.6,123.1
				c-1.9-2.2-4.8-3.7-8-3.7c-5.8,0-10.6,4.7-10.6,10.6s4.7,10.6,10.6,10.6S433,738.6,433,732.8z"/>
			<path class="st0" d="M424.3,574.5c5.8,0,10.6-4.7,10.6-10.6c0-5.8-4.7-10.6-10.6-10.6c-5.8,0-10.6,4.7-10.6,10.6
				c0,1.6,0.4,3.2,1.1,4.5c-11.2,8.9-27.6,8.4-38.3-1.4l-2.2,2.4l2-2.5l-2.2,2.3l-1.9,2.5c6.8,6.3,15.6,9.4,24.3,9.4
				c8.1,0,16.1-2.7,22.7-8C420.7,574,422.4,574.5,424.3,574.5z"/>
			<path class="st0" d="M571.3,256.2c-4,0-7.5,2.3-9.3,5.6c-52.1-10.9-99.2-29.5-140.2-55.5c-1.5-0.9-3.5-0.5-4.4,1
				c-0.9,1.5-0.5,3.5,1,4.4c41.6,26.4,89.5,45.4,142.4,56.4c0.7,5.2,5.1,9.3,10.5,9.3c5.8,0,10.6-4.7,10.6-10.6
				C581.9,260.9,577.1,256.2,571.3,256.2z"/>
			<path class="st0" d="M127.4,279c0,5.8,4.7,10.6,10.6,10.6c5.8,0,10.6-4.7,10.6-10.6c0-4.8-3.2-8.8-7.6-10.1
				c-1.3-15.4-2.3-30.9-2.8-46.1l0-1.3l-34.3-34.3l0,7.7c-0.1,34.8,2.3,105,19.5,184c0.3,1.5,1.6,2.5,3.1,2.5c0.2,0,0.5,0,0.7-0.1
				c1.7-0.4,2.8-2.1,2.4-3.8c-15.9-73-19-138.3-19.3-174.9l21.6,21.6c0.5,14.8,1.4,29.8,2.7,44.7C130.4,270.4,127.4,274.3,127.4,279
				z"/>
		</g>
		<g>
			<path class="st0" d="M290.9,303.1c-1.9-3.1-5.2-5.2-9.1-5.2c-5.8,0-10.6,4.7-10.6,10.6c0,5.8,4.7,10.6,10.6,10.6
				c5.6,0,10.1-4.3,10.5-9.7c11.3-3.5,22.4-7.4,33.2-11.6c-5.3,8.2-9.1,17.2-11.2,26.6c-9.6,3.3-19.2,6.3-28.7,9l-2.9,0.8l0.6,2.9
				c2.3,11.1,4.8,22,7.6,32.5c13.9,52.8,33.8,98.1,59.1,134.7l5.8,8.5v-32c0-1.8-1.4-3.2-3.2-3.2c-1.8,0-3.2,1.4-3.2,3.2V492
				c-22.1-34.4-39.7-76.1-52.3-124c-2.5-9.5-4.8-19.3-6.9-29.3c9.2-2.7,18.6-5.7,27.9-8.9l1.7-0.6l0.4-1.8
				c2.6-12.8,8.6-24.9,17.1-34.9l8.7-10.2l-12.4,5.2C319.8,293.3,305.5,298.5,290.9,303.1z"/>
			<path class="st0" d="M342.9,418.9c-0.7-1.6-2.5-2.4-4.2-1.8c-1.6,0.7-2.4,2.5-1.8,4.2c4,9.9,8.3,19.4,12.8,28.5l6.1,12.1v-52.2
				l-1.5-0.9c-9.5-6.1-17.8-14.4-23.8-24c-4-6.3-7-13.1-9-20.3c3.2-1.9,5.5-5.4,5.5-9.4c0-6-4.9-10.9-10.9-10.9
				c-6,0-10.9,4.9-10.9,10.9c0,5.8,4.5,10.5,10.2,10.9c2.2,7.8,5.5,15.3,9.9,22.2c6.3,9.9,14.6,18.5,24.3,25v21
				C347.2,429.2,345,424.1,342.9,418.9z M311.6,355c0-2.5,2-4.5,4.5-4.5c2.5,0,4.5,2,4.5,4.5c0,2.5-2,4.5-4.5,4.5
				C313.6,359.6,311.6,357.5,311.6,355z"/>
			<path class="st0" d="M467.7,388.1c7.6-12,12.1-25.9,12.9-40.1c0.1-1.8-1.2-3.3-3-3.4c-1.8-0.1-3.3,1.2-3.4,3
				c-0.8,13.1-4.9,25.9-11.9,37c-6.1,9.6-14.3,17.9-23.8,24l-1.5,0.9v20.9c-4.6,1.3-7.9,5.5-7.9,10.5c0,6,4.9,10.9,10.9,10.9
				c6,0,10.9-4.9,10.9-10.9c0-4.9-3.2-8.9-7.6-10.4v-17.5C453.1,406.6,461.4,398,467.7,388.1z M440,445.5c-2.5,0-4.5-2-4.5-4.5
				c0-2.5,2-4.5,4.5-4.5s4.5,2,4.5,4.5C444.6,443.5,442.5,445.5,440,445.5z"/>
			<path class="st0" d="M501.9,369.6c2.8-10.4,5.3-21.4,7.6-32.5l0.6-2.9l-2.9-0.8c-6.6-1.9-13.2-3.9-19.9-6.1
				c0.1-0.5,0.1-1,0.1-1.5c0-5.8-4.7-10.6-10.6-10.6c-5.8,0-10.6,4.7-10.6,10.6c0,5.8,4.7,10.6,10.6,10.6c3,0,5.7-1.3,7.7-3.3
				c6,2,12.1,3.9,18,5.6c-2.1,10-4.5,19.9-6.9,29.3c-12.6,47.9-30.2,89.5-52.3,124v-17.5c0-1.8-1.4-3.2-3.2-3.2s-3.2,1.4-3.2,3.2
				v38.4l5.8-8.5C468.1,467.7,487.9,422.4,501.9,369.6z"/>
			<path class="st0" d="M225,291l27.4,27.4c0.6,0.6,1.4,0.9,2.3,0.9c0.8,0,1.6-0.3,2.3-0.9c1.2-1.2,1.2-3.3,0-4.5l-19-19
				c18.4-3.9,36.5-8.7,53.8-14.5c2,2.8,5.2,4.6,8.9,4.6c6,0,10.9-4.9,10.9-10.9s-4.9-10.9-10.9-10.9c-6,0-10.9,4.9-10.9,10.9
				c0,0.1,0,0.2,0,0.3c-18.9,6.2-38.7,11.4-58.9,15.4L225,291z M300.7,269.6c2.5,0,4.5,2,4.5,4.5c0,2.5-2,4.5-4.5,4.5
				c-2.5,0-4.5-2-4.5-4.5C296.2,271.6,298.2,269.6,300.7,269.6z"/>
			<path class="st0" d="M533.5,341.1c-1.7-0.4-3.4,0.7-3.8,2.5c-2.2,10.6-4.7,21.2-7.4,31.5c-2.8,10.5-5.8,20.8-9,30.7
				c-0.2,0-0.4-0.1-0.7-0.1c-6,0-10.9,4.9-10.9,10.9c0,6,4.9,10.9,10.9,10.9c6,0,10.9-4.9,10.9-10.9c0-3.5-1.7-6.6-4.3-8.6
				c3.3-10.1,6.4-20.6,9.2-31.3c2.7-10.3,5.3-21,7.5-31.8C536.4,343.1,535.3,341.4,533.5,341.1z M512.6,421.1c-2.5,0-4.5-2-4.5-4.5
				c0-2.5,2-4.5,4.5-4.5c2.5,0,4.5,2,4.5,4.5C517.2,419.1,515.1,421.1,512.6,421.1z"/>
			<path class="st0" d="M303,240.5l25.9,26l2-0.9c20-8.7,39.2-18.7,57-29.9v23.7c-9.1,0.9-18,3.3-26.3,7.1c-1.6,0.7-2.3,2.6-1.6,4.2
				c0.5,1.2,1.7,1.9,2.9,1.9c0.4,0,0.9-0.1,1.3-0.3c8.5-3.9,17.6-6.2,27.1-6.8l3-0.2V224l-4.9,3.2c-18.3,11.9-38.2,22.5-59,31.7
				l-16.1-16.1c26.2-10.9,50.6-24.2,72.8-39.5c1.8,1.4,4,2.2,6.4,2.2c5.8,0,10.6-4.7,10.6-10.6c0-5.8-4.7-10.6-10.6-10.6
				s-10.6,4.7-10.6,10.6c0,1.1,0.2,2.2,0.5,3.2c-23,15.9-48.5,29.6-76,40.7L303,240.5z"/>
			<path class="st0" d="M490.9,525.9c0.5,0.3,1.1,0.5,1.7,0.5c1.1,0,2.1-0.5,2.7-1.5c13.8-21.5,26.1-45.6,36.7-71.6l1.8-4.4h-36.7
				l-0.8,1.9c-5.1,11.6-10.5,22.7-16.3,33.4c-0.6-0.1-1.1-0.2-1.7-0.2c-5.8,0-10.6,4.7-10.6,10.6c0,5.8,4.7,10.6,10.6,10.6
				c5.8,0,10.6-4.7,10.6-10.6c0-2.9-1.2-5.6-3.2-7.5c5.5-10.1,10.8-20.8,15.6-31.8h23c-10,23.9-21.6,46.2-34.3,66.1
				C489,522.9,489.4,524.9,490.9,525.9z"/>
			<path class="st0" d="M602,279.2l-39.6,39.6l-0.2,1c-3.5,21.3-8,42.3-13.3,62.3c-3.8,14.5-8.2,28.8-12.9,42.4
				c-0.6,1.7,0.3,3.5,2,4.1c0.3,0.1,0.7,0.2,1,0.2c1.3,0,2.6-0.8,3-2.1c4.8-13.8,9.2-28.2,13-42.8c5.2-19.9,9.7-40.7,13.2-61.9
				l25.1-25.1c-3.3,25.3-7.7,50-13.3,73.7c-5.9,0.2-10.6,5-10.6,10.9c0,6,4.9,10.9,10.9,10.9c6,0,10.9-4.9,10.9-10.9
				c0-3.9-2-7.3-5.1-9.2c6.3-26.9,11.2-55.1,14.6-83.8L602,279.2z M580.5,385.9c-2.5,0-4.5-2-4.5-4.5c0-2.5,2-4.5,4.5-4.5
				c2.5,0,4.5,2,4.5,4.5C585.1,383.8,583.1,385.9,580.5,385.9z"/>
			<path class="st0" d="M574.9,414.9c0.5-1.7-0.4-3.5-2.1-4c-1.7-0.5-3.5,0.4-4,2.1c-6.7,21.8-14.5,42.8-23.1,62.3l-6.4,13.8
				c-9,18.7-19,36.5-29.9,52.8c-1.6-0.9-3.4-1.4-5.3-1.4c-6,0-10.9,4.9-10.9,10.9c0,6,4.9,10.9,10.9,10.9c6,0,10.9-4.9,10.9-10.9
				c0-1.7-0.4-3.3-1.1-4.8c0-0.1,0.1-0.1,0.2-0.2c11.2-16.8,21.7-35.2,31-54.6l6.4-13.9C560.3,458.2,568.1,437,574.9,414.9z
				 M504.2,556c-2.5,0-4.5-2-4.5-4.5s2-4.5,4.5-4.5s4.5,2,4.5,4.5S506.7,556,504.2,556z"/>
			<path class="st0" d="M481,545.6l1.6-2.2l-24.3-24.3l-2.2,3c-4.2,5.8-8.6,11.5-13.1,16.9c-1.1,1.4-0.9,3.4,0.4,4.5
				c1.4,1.1,3.4,0.9,4.5-0.4c3.8-4.6,7.5-9.3,11.1-14.2l15.1,15.1c-15.1,20.1-32.2,38.1-50.9,53.6c-1.9-1.6-4.3-2.6-7-2.6
				c-6,0-10.9,4.9-10.9,10.9c0,6,4.9,10.9,10.9,10.9c6,0,10.9-4.9,10.9-10.9c0-1-0.2-2-0.4-2.9C446.8,586.5,465,567.2,481,545.6z
				 M416.4,610.5c-2.5,0-4.5-2-4.5-4.5c0-2.5,2-4.5,4.5-4.5c2.5,0,4.5,2,4.5,4.5C420.9,608.4,418.9,610.5,416.4,610.5z"/>
			<path class="st0" d="M352.1,619c-1.4-1.1-3.4-0.9-4.5,0.4c-1.1,1.4-0.9,3.4,0.4,4.5c14.6,12.1,30.3,23.1,46.8,32.6l4.8,2.8v-39.6
				l-1.5-0.9c-32.2-21-60.4-48.1-83.8-80.5c-1.1-1.5-2.1-3-3.1-4.5c1.8-2,3-4.6,3-7.4c0-6-4.9-10.9-10.9-10.9
				c-6,0-10.9,4.9-10.9,10.9c0,6,4.9,10.9,10.9,10.9c0.8,0,1.6-0.1,2.4-0.3c1.2,1.7,2.3,3.3,3.5,5c23.5,32.6,51.8,59.9,84,81.1v25
				C378.8,639.5,365,629.7,352.1,619z M298.7,526.4c0-2.5,2-4.5,4.5-4.5c2.5,0,4.5,2,4.5,4.5c0,2.5-2,4.5-4.5,4.5
				C300.8,530.9,298.7,528.9,298.7,526.4z"/>
			<path class="st0" d="M385.2,682.7c-0.2,0.8-0.4,1.7-0.4,2.6c0,5.8,4.7,10.6,10.6,10.6c5.8,0,10.6-4.7,10.6-10.6
				c0-5.8-4.7-10.6-10.6-10.6c-2.6,0-5,1-6.9,2.6c-8.5-4.8-16.8-9.9-24.8-15.2c-29.3-19.6-55.7-43.7-78.6-71.5
				c-1.1-1.4-3.1-1.6-4.5-0.4c-1.4,1.1-1.6,3.1-0.4,4.5c23.3,28.3,50.2,52.8,80,72.8C368.2,672.7,376.6,677.9,385.2,682.7z"/>
			<path class="st0" d="M547.6,545.1c0.9-1.5,0.4-3.5-1.1-4.4c-1.5-0.9-3.5-0.4-4.4,1.1c-6,9.9-12.4,19.6-19,28.7
				c-26.9,37.3-59.2,68.5-96.3,93v-25.7c19.9-14.4,38.3-31,54.9-49.7c1.4,0.7,3,1.2,4.7,1.2c5.8,0,10.6-4.7,10.6-10.6
				c0-5.8-4.7-10.6-10.6-10.6c-5.8,0-10.6,4.7-10.6,10.6c0,1.8,0.5,3.5,1.3,5c-16.8,18.8-35.4,35.5-55.4,49.9l-1.3,1v40.7l4.9-3.1
				c39.8-25.4,74.4-58.3,103-97.8C535.1,565,541.5,555.2,547.6,545.1z"/>
			<path class="st0" d="M579.5,545.1c18-32.1,33.3-67.8,45.6-106.1c5.7-0.4,10.2-5.1,10.2-10.9c0-6-4.9-10.9-10.9-10.9
				c-6,0-10.9,4.9-10.9,10.9c0,4,2.2,7.5,5.4,9.4c-11.6,36.3-26.1,70.2-42.9,100.8l-15.6-15.6c19.8-37.2,36-79.2,48.1-125
				c5.4-20.4,10-41.7,13.7-63.5c0.3-1.7-0.9-3.4-2.6-3.7c-1.7-0.3-3.4,0.9-3.7,2.6c-3.7,21.6-8.3,42.7-13.6,62.9
				c-12.2,46.2-28.5,88.4-48.6,125.7l-1.1,2.1l24.9,24.9L579.5,545.1z M624.3,423.6c2.5,0,4.5,2,4.5,4.5s-2,4.5-4.5,4.5
				c-2.5,0-4.5-2-4.5-4.5S621.8,423.6,624.3,423.6z"/>
			<path class="st0" d="M637.1,396.8c17.5-69.6,22.7-134.1,24-175.9l0.1-3.2l-3.2-0.1c-42.1-1.2-81.6-7.1-117.2-17.5l-1.8-0.5
				l-26.9,26.9l4.9,1.6c33.5,11.1,70.1,18.4,108.7,21.7c-0.9,13.6-2.2,27.2-3.7,40.6c-5.3,0.8-9.4,5.3-9.4,10.8
				c0,6,4.9,10.9,10.9,10.9c6,0,10.9-4.9,10.9-10.9c0-4.3-2.5-8-6.2-9.8c1.7-14.7,3.1-29.6,4-44.3l0.2-3.1l-3.1-0.2
				c-37.4-2.9-72.8-9.7-105.4-20l16.9-16.9c34.8,9.9,73.1,15.7,113.8,17.1c-1.4,41.5-6.8,104-23.7,171.4c-0.4,1.7,0.6,3.4,2.3,3.9
				c0.3,0.1,0.5,0.1,0.8,0.1C635.4,399.2,636.7,398.2,637.1,396.8z M623.6,305.7c-2.5,0-4.5-2-4.5-4.5c0-2.5,2-4.5,4.5-4.5
				s4.5,2,4.5,4.5C628.1,303.6,626.1,305.7,623.6,305.7z"/>
			<path class="st0" d="M370.2,705.9c2,1.1,3.9,2.2,5.9,3.3c6.2,3.4,12.5,6.6,18.9,9.7l1.4,0.7l1.4-0.7c36.7-17.6,70.3-40.5,99.8-68
				c0.1-0.1,0.1-0.2,0.2-0.3c1.4,0.6,2.9,1,4.5,1c6,0,10.9-4.9,10.9-10.9c0-6-4.9-10.9-10.9-10.9c-6,0-10.9,4.9-10.9,10.9
				c0,2.1,0.6,4.1,1.7,5.7c-28.6,26.7-61.1,48.9-96.6,66.1c-5.8-2.8-11.6-5.8-17.2-8.9c-2-1.1-3.9-2.1-5.8-3.2
				c-1.5-0.9-3.5-0.3-4.4,1.2C368.1,703.1,368.7,705,370.2,705.9z M502.4,636c2.5,0,4.5,2,4.5,4.5c0,2.5-2,4.5-4.5,4.5
				c-2.5,0-4.5-2-4.5-4.5C497.8,638.1,499.9,636,502.4,636z"/>
			<path class="st0" d="M162.3,222.5c21.7-1.7,42.9-4.8,62.9-9.1l22.8,22.8l1.8-0.5c31.7-8.3,61.4-19.9,88.4-34.6l3.8-2l-25-25
				l-2.1,1.1c-12.4,6.4-25.5,12-39,16.9c-1.9-2.4-4.9-4-8.3-4c-5.8,0-10.6,4.7-10.6,10.6c0,5.8,4.7,10.6,10.6,10.6
				s10.6-4.7,10.6-10.6c0-0.2,0-0.4-0.1-0.6c12.9-4.7,25.5-10.1,37.5-16.2l15.6,15.6c-25,13.2-52.4,23.8-81.4,31.5l-22.7-22.7
				l-1.7,0.4c-20.2,4.4-41.6,7.6-63.7,9.3c-1.8,0.1-3.1,1.7-2.9,3.4C159,221.3,160.5,222.6,162.3,222.5z"/>
			<path class="st0" d="M353,160.1c9.3-6.4,18.3-13.2,26.7-20.4c1.3-1.1,1.5-3.2,0.3-4.5c-1.1-1.3-3.2-1.5-4.5-0.3
				c-7.6,6.5-15.6,12.7-24,18.5L316.3,118c46.6-30,70.2-65.8,80.2-84.5c9.1,17.1,30.3,49.5,70.8,78.1c-0.1,0.7-0.2,1.3-0.2,2
				c0,6,4.9,10.9,10.9,10.9c6,0,10.9-4.9,10.9-10.9c0-6-4.9-10.9-10.9-10.9c-3,0-5.8,1.2-7.7,3.2C426.3,74.7,406.1,39,399.3,25
				l-2.9-6l-2.9,6c-7.7,16-31.2,56.8-84.1,89.7l-3.4,2.1l44.7,44.7L353,160.1z M478,109.1c2.5,0,4.5,2,4.5,4.5c0,2.5-2,4.5-4.5,4.5
				c-2.5,0-4.5-2-4.5-4.5C473.4,111.1,475.5,109.1,478,109.1z"/>
			<path class="st0" d="M462.5,141.7c1.5,0.9,3.5,0.5,4.4-1c1-1.5,0.5-3.5-1-4.4c-26.2-16.8-48.7-37.1-67-60.5l-5.7-7.3v52.4
				l0.9,0.9c6.1,6.3,12.7,12.4,19.4,18.1c24.4,20.9,52.6,38.2,83.7,51.4c0,0.3-0.1,0.7-0.1,1c0,5.8,4.7,10.6,10.6,10.6
				s10.6-4.7,10.6-10.6c0-5.8-4.7-10.6-10.6-10.6c-3.2,0-6,1.5-8,3.7c-30.5-13-58.2-29.9-82.1-50.4c-6.2-5.3-12.3-11-18-16.8V86.9
				C417.2,107.9,438.3,126.3,462.5,141.7z"/>
			<path class="st0" d="M381.5,100c1.2-1.3,1.2-3.3-0.1-4.5c-1.3-1.2-3.3-1.2-4.5,0.1c-6.4,6.6-13.2,13-20.3,19
				c-1.6-1-3.4-1.5-5.4-1.5c-5.8,0-10.6,4.7-10.6,10.6s4.7,10.6,10.6,10.6c5.8,0,10.6-4.7,10.6-10.6c0-1.5-0.3-3-0.9-4.3
				C368,113.2,375,106.7,381.5,100z"/>
			<path class="st0" d="M285.7,670.8c-1.3-1.2-3.3-1.1-4.5,0.2c-1.2,1.3-1.1,3.3,0.2,4.5c20.8,18.8,43.7,35.7,67.9,50l4.8,2.9v-39.7
				l-1.5-0.9c-26.7-17.4-51.3-38.2-73.2-61.9c1.7-1.9,2.7-4.4,2.7-7.1c0-6-4.9-10.9-10.9-10.9c-6,0-10.9,4.9-10.9,10.9
				c0,6,4.9,10.9,10.9,10.9c0.9,0,1.8-0.2,2.7-0.4c0,0,0,0,0,0c22.1,24,46.9,45.1,73.8,62.8v25C325.7,703.7,304.9,688.1,285.7,670.8
				z M266.8,618.8c0-2.5,2-4.5,4.5-4.5c2.5,0,4.5,2,4.5,4.5c0,2.5-2,4.5-4.5,4.5C268.8,623.3,266.8,621.3,266.8,618.8z"/>
			<path class="st0" d="M102.1,380.9C79.4,275.1,82.4,185.7,83.3,168.1c74.1,4.4,138.9-5.3,192.6-28.6c2,1.9,4.6,3.1,7.6,3.1
				c6,0,10.9-4.9,10.9-10.9c0-6-4.9-10.9-10.9-10.9c-6,0-10.9,4.9-10.9,10.9c0,0.8,0.1,1.5,0.2,2.2
				c-53.4,23.1-118.1,32.4-192.3,27.7l-3.2-0.2l-0.2,3.2c-0.1,1-6.7,99.2,18.7,217.7c0.3,1.5,1.6,2.5,3.1,2.5c0.2,0,0.4,0,0.7-0.1
				C101.4,384.3,102.5,382.6,102.1,380.9z M283.5,127.1c2.5,0,4.5,2,4.5,4.5c0,2.5-2,4.5-4.5,4.5c-2.5,0-4.5-2-4.5-4.5
				C278.9,129.1,281,127.1,283.5,127.1z"/>
			<path class="st0" d="M481.3,152.8c35,18.9,75.2,31.9,119.6,38.5c1.2,4.8,5.5,8.3,10.6,8.3c6,0,10.9-4.9,10.9-10.9
				c0-6-4.9-10.9-10.9-10.9c-4.7,0-8.7,3-10.2,7.1c-41.9-6.3-79.9-18.3-113.1-35.7l15.8-15.8c56.9,28.1,127.1,39.7,208.8,34.5
				c1.8-0.1,3.1-1.6,3-3.4c-0.1-1.8-1.7-3.1-3.4-3c-81.5,5.2-151.4-6.5-207.6-34.8l-2.1-1l-25.2,25.2L481.3,152.8z M611.5,184.2
				c2.5,0,4.5,2,4.5,4.5c0,2.5-2,4.5-4.5,4.5c-2.5,0-4.5-2-4.5-4.5C606.9,186.2,609,184.2,611.5,184.2z"/>
			<path class="st0" d="M376.2,733.1c-1.6-0.8-3.5-0.2-4.3,1.4c-0.8,1.6-0.2,3.5,1.4,4.3c6.6,3.4,13.3,6.6,20,9.6v23.1
				c-40.8-17.3-78.2-40-111.5-67.6c0.6-1.4,1-2.9,1-4.5c0-5.8-4.7-10.6-10.6-10.6s-10.6,4.7-10.6,10.6s4.7,10.6,10.6,10.6
				c1.9,0,3.7-0.5,5.2-1.4c35,29.1,74.6,52.8,117.8,70.6l4.4,1.8v-36.8l-1.9-0.8C390.5,740.2,383.3,736.7,376.2,733.1z"/>
			<path class="st0" d="M672.7,326.9c-4.4,28.7-10.1,56.7-17.2,83.3c-15.2,57.4-36.3,109.4-62.9,154.6l-1.3,2.1l24.7,24.7l2.1-3.5
				c19.2-31.7,36-66.8,49.7-104.2c0.6-1.7-0.2-3.5-1.9-4.1c-1.7-0.6-3.5,0.2-4.1,1.9c-13.1,35.7-29,69.2-47.1,99.6l-15.4-15.4
				c26.3-45.2,47.3-97.1,62.3-154.1c6.9-26,12.5-53.3,16.9-81.3H700c-5.5,35.8-13,70.6-22.5,103.4c-5.7,0.2-10.2,4.8-10.2,10.6
				c0,5.8,4.7,10.6,10.6,10.6c5.8,0,10.6-4.7,10.6-10.6c0-3.7-1.9-7-4.8-8.9c9.9-34.2,17.7-70.5,23.2-107.9l0.5-3.7h-34.3
				L672.7,326.9z"/>
			<path class="st0" d="M268.7,654.5c-15.6-15.8-30.3-33.2-43.7-51.7c-18.1-25.2-34.4-53.2-48.6-83.4c1.8-1.9,3-4.5,3-7.3
				c0-5.8-4.7-10.6-10.6-10.6c-5.8,0-10.6,4.7-10.6,10.6s4.7,10.6,10.6,10.6c0.7,0,1.3-0.1,2-0.2c14.2,30.5,30.7,58.7,49,84.1
				c12.9,17.9,27.1,34.8,42.1,50.2l-15,15c-22-22.7-42.2-48.2-60-76c-1-1.5-2.9-1.9-4.4-1c-1.5,1-1.9,2.9-1,4.4
				c18.6,29.1,39.9,55.8,63.1,79.4l2.3,2.3l24-24L268.7,654.5z"/>
			<path class="st0" d="M247.4,586.6c-18.3-25.4-34.7-53.9-48.6-84.8c-0.7-1.6-2.6-2.3-4.2-1.6c-1.6,0.7-2.3,2.6-1.6,4.2
				c14.1,31.2,30.7,60.1,49.3,85.9c0.5,0.7,1.1,1.5,1.6,2.2l3.3,4.4l24.2-24.2l-1.6-2.2c-33.4-46.3-59.4-102.8-77.3-167.8
				c3-2,4.9-5.3,4.9-9.1c0-6-4.9-10.9-10.9-10.9c-6,0-10.9,4.9-10.9,10.9c0,6,4.8,10.8,10.8,10.9c17.8,64.7,43.6,121.1,76.6,167.6
				l-15.2,15.2C247.6,587,247.5,586.8,247.4,586.6z M181.9,393.5c0-2.5,2-4.5,4.5-4.5c2.5,0,4.5,2,4.5,4.5c0,2.5-2,4.5-4.5,4.5
				C183.9,398.1,181.9,396,181.9,393.5z"/>
			<path class="st0" d="M175.9,361.4l0.5,2.5h28.2c2,9,4.2,18,6.5,26.8c9.6,36.4,21.9,70.4,36.6,101.1c0.5,1.1,1.7,1.8,2.9,1.8
				c0.5,0,0.9-0.1,1.4-0.3c1.6-0.8,2.3-2.7,1.5-4.3c-14.5-30.3-26.7-63.9-36.2-99.9c-2.5-9.5-4.9-19.2-7-29l-0.5-2.5h-28.1
				c-7.2-34.8-12-71.1-14.5-107.9c12.7-1.1,25.2-2.6,37.3-4.5c1.8,3.5,5.4,5.8,9.6,5.8c6,0,10.9-4.9,10.9-10.9
				c0-6-4.9-10.9-10.9-10.9c-5.6,0-10.2,4.3-10.8,9.8c-12.9,2-26.3,3.6-39.8,4.7l-3.1,0.2l0.2,3.1C163,286,168.2,324.5,175.9,361.4z
				 M214.1,235.5c2.5,0,4.5,2,4.5,4.5c0,2.5-2,4.5-4.5,4.5c-2.5,0-4.5-2-4.5-4.5C209.5,237.6,211.6,235.5,214.1,235.5z"/>
			<path class="st0" d="M283.8,254.2c1.7-0.6,2.6-2.4,2-4c-0.6-1.7-2.4-2.6-4-2c-28,9.3-58,16-88.9,20.1l-3.1,0.4l0.3,3.1
				c1.4,14.6,3.2,29.2,5.4,43.4c-3.5,1.7-5.9,5.3-5.9,9.4c0,5.8,4.7,10.6,10.6,10.6c5.8,0,10.6-4.7,10.6-10.6c0-5.3-3.9-9.7-9-10.4
				c-2-13.1-3.7-26.5-5-40C227.1,270,256.3,263.3,283.8,254.2z"/>
			<path class="st0" d="M264.4,376.7c15.5,58.8,38.1,109,67.2,149.3c4.7,6.5,9.6,12.8,14.7,18.8l1,1.1h14c1.6,4,5.5,6.9,10.1,6.9
				c6,0,10.9-4.9,10.9-10.9c0-6-4.9-10.9-10.9-10.9c-5.2,0-9.6,3.7-10.7,8.6h-10.5c-4.6-5.5-9.1-11.3-13.4-17.3
				c-28.6-39.6-50.8-89.2-66.2-147.2c-1.9-7.2-3.7-14.5-5.3-21.8l-0.2-0.9l-42.4-42.4l1.6,9.8c3.7,22.3,8.2,43.9,13.5,64
				c1.8,6.6,3.6,13.3,5.5,19.7c0.5,1.7,2.3,2.6,4,2.1c1.7-0.5,2.7-2.3,2.1-4c-1.9-6.4-3.8-12.9-5.5-19.5
				c-4.5-16.9-8.4-34.9-11.7-53.5l27,27C260.8,362.6,262.5,369.7,264.4,376.7z M371.3,537.3c2.5,0,4.5,2,4.5,4.5
				c0,2.5-2,4.5-4.5,4.5c-2.5,0-4.5-2-4.5-4.5C366.8,539.3,368.8,537.3,371.3,537.3z"/>
			<path class="st0" d="M598.6,600.8c-6,0-10.9,4.9-10.9,10.9c0,2.7,1,5.1,2.6,7c-44.4,61.7-100.7,109.5-167.2,142.1
				c-1.6,0.8-2.2,2.7-1.5,4.3c0.6,1.1,1.7,1.8,2.9,1.8c0.5,0,1-0.1,1.4-0.3c67.6-33.1,124.7-81.7,169.8-144.3c1,0.3,2,0.5,3,0.5
				c6,0,10.9-4.9,10.9-10.9C609.6,605.7,604.7,600.8,598.6,600.8z M598.6,616.3c-2.5,0-4.5-2-4.5-4.5c0-2.5,2-4.5,4.5-4.5
				c2.5,0,4.5,2,4.5,4.5C603.2,614.2,601.1,616.3,598.6,616.3z"/>
			<path class="st0" d="M154.7,195.4c61-4.2,114.9-19.1,160.1-44.3c1.5-0.9,2.1-2.8,1.2-4.3c-0.9-1.5-2.8-2.1-4.3-1.2
				c-44.3,24.7-97.2,39.3-157.2,43.5c-1.5-4.2-5.5-7.3-10.3-7.3c-6,0-10.9,4.9-10.9,10.9c0,6,4.9,10.9,10.9,10.9
				C149.2,203.5,153.4,200,154.7,195.4z M144.1,197.1c-2.5,0-4.5-2-4.5-4.5c0-2.5,2-4.5,4.5-4.5c2.4,0,4.3,1.8,4.5,4.2
				c0,0.1,0,0.2,0,0.3c0,0.1,0,0.1,0,0.2C148.6,195.2,146.6,197.1,144.1,197.1z"/>
			<path class="st0" d="M356,173.9c-6,0-10.9,4.9-10.9,10.9c0,6,4.9,10.9,10.9,10.9c6,0,10.9-4.9,10.9-10.9c0-0.4-0.1-0.7-0.1-1
				c10.3-6.9,20.3-14.4,29.6-22.3c28.4,24.1,61.5,43.7,98.2,58.3c0.4,0.2,0.8,0.2,1.2,0.2c1.3,0,2.5-0.8,3-2
				c0.7-1.6-0.1-3.5-1.8-4.2c-36.9-14.7-70.1-34.6-98.4-59l-2.1-1.8l-2.1,1.8c-9.4,8.1-19.5,15.8-30,22.9
				C362.3,175.5,359.4,173.9,356,173.9z M356,189.4c-2.5,0-4.5-2-4.5-4.5s2-4.5,4.5-4.5c2.5,0,4.5,2,4.5,4.5S358.5,189.4,356,189.4z
				"/>
			<path class="st0" d="M723.7,190.7c0-6-4.9-10.9-10.9-10.9c-6,0-10.9,4.9-10.9,10.9c0,5.2,3.6,9.5,8.4,10.6
				c-0.1,22.2-1.3,56.9-6.1,98.3h-21.3c5.3-44.9,6.3-82.4,6.2-106.2l0-3.2l-3.2,0.1c-15.4,0.3-30.4-0.1-44.9-1
				c-1.8-0.1-3.3,1.2-3.4,3c-0.1,1.8,1.2,3.3,3,3.4c13.6,0.9,27.8,1.2,42.2,1.1c0,24.4-1.2,61.6-6.6,105.8l-0.4,3.6h34.2l0.3-2.8
				c5.2-43.1,6.4-79.3,6.5-102.2c0,0,0-0.1,0-0.1C720.7,199.3,723.7,195.4,723.7,190.7z M712.8,195.3c-2.5,0-4.5-2-4.5-4.5
				c0-2.5,2-4.5,4.5-4.5c2.5,0,4.5,2,4.5,4.5C717.3,193.2,715.3,195.3,712.8,195.3z"/>
			<path class="st0" d="M168.5,559.8c-0.8,0-1.6,0.1-2.4,0.3c-23.4-43.6-42.2-92.6-56.1-145.8h21.9c6.2,23.2,13.5,45.9,21.8,67.5
				l0.8,2.1h36.5l-1.8-4.4c-9.6-23.9-18.1-49.6-25.1-76.2c-7.4-28.1-13.4-57.8-17.7-88.2c-0.2-1.7-1.9-3-3.6-2.7
				c-1.7,0.2-3,1.9-2.7,3.6c4.4,30.7,10.4,60.6,17.9,89c6.7,25.3,14.6,49.7,23.6,72.6h-22.6c-8.1-21.5-15.3-44.1-21.4-67.2l-0.6-2.4
				h-35l1,4c14.1,55.4,33.5,106.3,57.8,151.5c-1.8,2-3,4.6-3,7.4c0,6,4.9,10.9,10.9,10.9c6,0,10.9-4.9,10.9-10.9
				C179.4,564.7,174.5,559.8,168.5,559.8z M168.5,575.2c-2.5,0-4.5-2-4.5-4.5c0-1.2,0.4-2.2,1.2-3c0.4,0,0.9-0.1,1.3-0.4
				c0.5-0.3,0.9-0.6,1.1-1.1c0.3-0.1,0.6-0.1,1-0.1c2.5,0,4.5,2,4.5,4.5C173,573.2,171,575.2,168.5,575.2z"/>
			<path class="st0" d="M330.9,615c6,0,10.9-4.9,10.9-10.9c0-6-4.9-10.9-10.9-10.9c-1.9,0-3.7,0.5-5.2,1.4
				c-12-12.3-23.3-25.8-33.6-40.1c-7.7-10.7-15.1-22.1-22-34l20.2-20.2l-1.2-2.1c-11.4-20.8-21.6-43.8-30.4-68.1
				c-0.6-1.7-2.4-2.5-4.1-1.9c-1.7,0.6-2.5,2.4-1.9,4.1c8.5,23.9,18.5,46.4,29.6,66.9l-20.3,20.3l1.2,2.1
				c7.4,12.9,15.3,25.2,23.6,36.7c10.5,14.6,22,28.3,34.3,40.9c0,0,0,0,0.1,0c-0.8,1.5-1.3,3.2-1.3,5
				C319.9,610.1,324.8,615,330.9,615z M330.9,599.5c2.5,0,4.5,2,4.5,4.5c0,2.5-2,4.5-4.5,4.5c-2.5,0-4.5-2-4.5-4.5
				C326.3,601.6,328.4,599.5,330.9,599.5z"/>
			<path class="st0" d="M422,229.8c-6,0-10.9,4.9-10.9,10.9s4.9,10.9,10.9,10.9c2.5,0,4.7-0.8,6.5-2.2
				c38.3,20.6,80.7,35.9,126.4,45.4l-17.8,17.8c-26.8-6.3-52.8-14.7-77.2-24.9c-11.7-13.3-27.5-22.8-44.6-26.8
				c-1.7-0.4-3.4,0.7-3.8,2.4c-0.4,1.7,0.7,3.4,2.4,3.8c16.1,3.7,30.9,12.6,41.7,25.3l0.5,0.6l0.7,0.3
				c25.5,10.7,52.6,19.4,80.7,25.9l1.7,0.4l28.7-28.7l-5.9-1.2c-46.9-9.3-90.5-24.6-129.7-45.6c0.4-1.1,0.6-2.3,0.6-3.5
				C432.9,234.7,428,229.8,422,229.8z M422,245.3c-2.5,0-4.5-2-4.5-4.5c0-2.5,2-4.5,4.5-4.5c2.5,0,4.5,2,4.5,4.5
				C426.6,243.3,424.5,245.3,422,245.3z"/>
			<path class="st0" d="M433,732.8c0-0.3-0.1-0.7-0.1-1c55.1-30.6,102.3-72.7,140.2-125.3c4.6-6.4,9.2-13.2,13.7-20.1l1.4-2.2
				l-24.6-24.6l-2.1,3.4c-5.1,8.2-10.5,16.1-15.9,23.6c-7,9.7-14.4,19.1-22.1,28c-1.2,1.3-1,3.4,0.3,4.5c1.3,1.2,3.4,1,4.5-0.3
				c7.8-9,15.3-18.6,22.4-28.4c4.8-6.6,9.5-13.5,14-20.6L580,585c-4,6.1-8,12-12.1,17.7c-37.3,51.7-83.5,93-137.6,123.1
				c-1.9-2.2-4.8-3.7-8-3.7c-5.8,0-10.6,4.7-10.6,10.6s4.7,10.6,10.6,10.6S433,738.6,433,732.8z"/>
			<path class="st0" d="M424.3,574.5c5.8,0,10.6-4.7,10.6-10.6c0-5.8-4.7-10.6-10.6-10.6c-5.8,0-10.6,4.7-10.6,10.6
				c0,1.6,0.4,3.2,1.1,4.5c-11.2,8.9-27.6,8.4-38.3-1.4l-2.2,2.4l2-2.5l-2.2,2.3l-1.9,2.5c6.8,6.3,15.6,9.4,24.3,9.4
				c8.1,0,16.1-2.7,22.7-8C420.7,574,422.4,574.5,424.3,574.5z"/>
			<path class="st0" d="M571.3,256.2c-4,0-7.5,2.3-9.3,5.6c-52.1-10.9-99.2-29.5-140.2-55.5c-1.5-0.9-3.5-0.5-4.4,1
				c-0.9,1.5-0.5,3.5,1,4.4c41.6,26.4,89.5,45.4,142.4,56.4c0.7,5.2,5.1,9.3,10.5,9.3c5.8,0,10.6-4.7,10.6-10.6
				C581.9,260.9,577.1,256.2,571.3,256.2z"/>
			<path class="st0" d="M127.4,279c0,5.8,4.7,10.6,10.6,10.6c5.8,0,10.6-4.7,10.6-10.6c0-4.8-3.2-8.8-7.6-10.1
				c-1.3-15.4-2.3-30.9-2.8-46.1l0-1.3l-34.3-34.3l0,7.7c-0.1,34.8,2.3,105,19.5,184c0.3,1.5,1.6,2.5,3.1,2.5c0.2,0,0.5,0,0.7-0.1
				c1.7-0.4,2.8-2.1,2.4-3.8c-15.9-73-19-138.3-19.3-174.9l21.6,21.6c0.5,14.8,1.4,29.8,2.7,44.7C130.4,270.4,127.4,274.3,127.4,279
				z"/>
		</g>
	</g>
</g>
</svg>
