<?xml version="1.0" encoding="utf-8"?>
<!-- Generator: Adobe Illustrator 28.1.0, SVG Export Plug-In . SVG Version: 6.00 Build 0)  -->
<svg version="1.1" id="Digital_Transformation_no6" xmlns="http://www.w3.org/2000/svg" xmlns:xlink="http://www.w3.org/1999/xlink"
	 x="0px" y="0px" viewBox="0 0 4536 4550" style="enable-background:new 0 0 4536 4550;" xml:space="preserve">
<style type="text/css">
	.st0{fill:#2278B2;}
	.st1{fill:#1A5091;}
	.st2{fill:#053D75;}
	.st3{fill:#539AC2;}
	.st4{clip-path:url(#SVGID_00000075878416646342294700000004112371603351248056_);}
	.st5{fill:#94CFE4;}
	.st6{fill:#FFFFFF;}
	.st7{fill:#3F6C8A;}
	.st8{fill:#1A4E6B;}
	.st9{fill:none;stroke:#FFFFFF;stroke-width:11.3752;stroke-linecap:round;stroke-linejoin:round;stroke-miterlimit:10;}
</style>
<path class="st0" d="M2280,146.5c-589.8,0-1123.7,239.1-1510.2,625.6L2280,2282.3L3790.2,772C3403.7,385.5,2869.8,146.5,2280,146.5z
	"/>
<path class="st1" d="M4415.8,2282.3L4415.8,2282.3c0-0.2,0-0.4,0-0.6c0-0.1,0-0.1,0-0.2h0c-0.2-589.5-239.2-1123.1-625.6-1509.4
	L2280.8,2281.5h-0.8l0,0l0.4,0.4l-0.4,0.4l0,0h0.8l1509.4,1509.4C4176.6,3405.4,4415.6,2871.7,4415.8,2282.3z"/>
<path class="st2" d="M2280,2281.5L769.8,3791.7c386.5,386.5,920.4,625.6,1510.2,625.6s1123.7-239.1,1510.2-625.6L2280,2281.5z"/>
<path class="st3" d="M2280,2282.3l-0.4-0.4l0.4-0.4l0,0h-0.8L769.8,772c-386.3,386.3-625.3,920-625.6,1509.4h0c0,0.2,0,0.4,0,0.6
	c0,0.1,0,0.1,0,0.2h0c0.2,589.5,239.2,1123.1,625.6,1509.4l1509.4-1509.4H2280L2280,2282.3z"/>
<g>
	<defs>
		
			<rect id="SVGID_1_" x="983.4" y="-1525.2" transform="matrix(6.123234e-17 -1 1 6.123234e-17 1294.625 3265.375)" width="2593.2" height="5021.2"/>
	</defs>
	<clipPath id="SVGID_00000111193572498530836520000012931087921563257260_">
		<use xlink:href="#SVGID_1_"  style="overflow:visible;"/>
	</clipPath>
	<g style="clip-path:url(#SVGID_00000111193572498530836520000012931087921563257260_);">
		<polygon class="st5" points="2280,2282.3 2280,2282.3 2280,2282.3 		"/>
		<polygon class="st5" points="2280,2282.3 2280,2282.3 2280,2282.3 		"/>
	</g>
	<g style="clip-path:url(#SVGID_00000111193572498530836520000012931087921563257260_);">
	</g>
</g>
<g>
	<g>
	</g>
	<g>
		<path class="st6" d="M599.8,2492.9c0-1.3,1-2.4,2.4-2.4h52c1.4,0,2.4,1.1,2.4,2.4v10.5c0,1.3-1,2.4-2.4,2.4h-37.8v20.9h31.5
			c1.3,0,2.4,1.1,2.4,2.4v10.6c0,1.4-1.1,2.4-2.4,2.4h-31.5v22.4h37.8c1.4,0,2.4,1.1,2.4,2.4v10.5c0,1.3-1,2.4-2.4,2.4h-52
			c-1.4,0-2.4-1.1-2.4-2.4V2492.9z"/>
		<path class="st6" d="M684.2,2491.1c0.1-1,0.9-1.9,2.3-1.9h2c1,0,1.8,0.5,2.2,1.3l28.1,60.3c0.3,0,0.3,0,0.4,0l28.1-60.3
			c0.4-0.8,1-1.3,2.2-1.3h2c1.4,0,2.2,0.9,2.3,1.9l15.1,85.8c0.4,1.8-0.6,2.9-2.3,2.9h-11.6c-1.1,0-2.2-1-2.4-1.9l-7.5-48.4
			c-0.1,0-0.4,0-0.4,0l-22.4,50.2c-0.3,0.8-1,1.4-2.2,1.4h-2.3c-1.1,0-1.8-0.6-2.2-1.4l-22.6-50.2c0,0-0.3,0-0.4,0l-7.4,48.4
			c-0.1,0.9-1.1,1.9-2.3,1.9h-11.5c-1.7,0-2.7-1.1-2.4-2.9L684.2,2491.1z"/>
		<path class="st6" d="M786.4,2492.9c0-1.3,1-2.4,2.4-2.4h30c15.7,0,28.6,12.8,28.6,28.2c0,15.8-12.9,28.7-28.5,28.7h-16v30
			c0,1.3-1.1,2.4-2.4,2.4h-11.8c-1.4,0-2.4-1.1-2.4-2.4V2492.9z M817.8,2531.8c7.2,0,13.2-5.7,13.2-13.3c0-7-6-12.4-13.2-12.4H803
			v25.7H817.8z"/>
		<path class="st6" d="M901.5,2489.2c25.5,0,46,20.6,46,46.1c0,25.5-20.4,45.9-46,45.9c-25.5,0-45.9-20.3-45.9-45.9
			C855.6,2509.7,875.9,2489.2,901.5,2489.2z M901.5,2564.5c16.1,0,29.4-13.2,29.4-29.3s-13.3-29.5-29.4-29.5
			c-16.1,0-29.2,13.4-29.2,29.5S885.4,2564.5,901.5,2564.5z"/>
		<path class="st6" d="M955.6,2493.5c-0.5-1.8,0.5-3.1,2.3-3.1h11.8c1,0,2,0.9,2.3,1.8l13.3,51h0.5l20.3-52.6
			c0.3-0.8,0.9-1.4,2.2-1.4h2.3c1.3,0,1.9,0.6,2.2,1.4l20.4,52.6h0.5l13-51c0.3-0.9,1.3-1.8,2.3-1.8h11.8c1.8,0,2.8,1.3,2.3,3.1
			l-24.1,85.8c-0.3,1-1.3,1.8-2.3,1.8h-2c-1.1,0-1.9-0.6-2.2-1.4l-22.9-57.9h-0.6l-22.6,57.9c-0.4,0.8-0.9,1.4-2.2,1.4h-2
			c-1,0-2-0.8-2.3-1.8L955.6,2493.5z"/>
		<path class="st6" d="M1078,2492.9c0-1.3,1-2.4,2.4-2.4h52c1.4,0,2.4,1.1,2.4,2.4v10.5c0,1.3-1,2.4-2.4,2.4h-37.8v20.9h31.5
			c1.3,0,2.4,1.1,2.4,2.4v10.6c0,1.4-1.1,2.4-2.4,2.4h-31.5v22.4h37.8c1.4,0,2.4,1.1,2.4,2.4v10.5c0,1.3-1,2.4-2.4,2.4h-52
			c-1.4,0-2.4-1.1-2.4-2.4V2492.9z"/>
		<path class="st6" d="M1153.1,2492.9c0-1.3,1-2.4,2.4-2.4h36.5c15.3,0,27.8,12.3,27.8,27.5c0,11.8-7.8,21.3-18.9,25.8l17.5,32.4
			c0.9,1.7,0,3.7-2.2,3.7h-13.4c-1.1,0-1.8-0.6-2-1.1l-17-33.8h-14.2v32.6c0,1.3-1.1,2.4-2.4,2.4h-11.8c-1.4,0-2.4-1.1-2.4-2.4
			V2492.9z M1190.7,2531.2c6.8,0,12.6-5.9,12.6-13c0-6.8-5.9-12.4-12.6-12.4h-20.8v25.4H1190.7z"/>
		<path class="st6" d="M434.5,2661.9l-29.1-42.7c-1-1.7,0-3.7,2-3.7h13c1,0,1.7,0.6,2,1.1L443,2646l20.4-29.4c0.4-0.5,1-1.1,2-1.1
			h13.2c2,0,3.1,2,2,3.7l-29.5,42.5v40.7c0,1.3-1.1,2.4-2.4,2.4h-11.8c-1.4,0-2.4-1.1-2.4-2.4V2661.9z"/>
		<path class="st6" d="M529.7,2614.2c25.5,0,46,20.6,46,46.1c0,25.5-20.4,45.9-46,45.9c-25.5,0-45.9-20.3-45.9-45.9
			C483.8,2634.8,504.1,2614.2,529.7,2614.2z M529.7,2689.6c16.1,0,29.4-13.2,29.4-29.3c0-16.1-13.3-29.5-29.4-29.5
			c-16.1,0-29.2,13.4-29.2,29.5C500.4,2676.4,513.6,2689.6,529.7,2689.6z"/>
		<path class="st6" d="M591.1,2617.9c0-1.3,1.1-2.4,2.4-2.4h12.1c1.4,0,2.4,1.1,2.4,2.4v52.2c0,10.9,7.4,19.4,18.5,19.4
			c11.1,0,18.6-8.6,18.6-19.3v-52.4c0-1.3,1-2.4,2.4-2.4h12.1c1.3,0,2.4,1.1,2.4,2.4v53.1c0,19.4-15.5,35.1-35.6,35.1
			c-20.1,0-35.5-15.7-35.5-35.1V2617.9z"/>
		<path class="st6" d="M684.2,2617.9c0-1.3,1-2.4,2.4-2.4h36.5c15.3,0,27.8,12.3,27.8,27.5c0,11.8-7.8,21.3-18.9,25.8l17.5,32.4
			c0.9,1.7,0,3.7-2.2,3.7h-13.4c-1.1,0-1.8-0.6-2-1.1l-17-33.8h-14.2v32.6c0,1.3-1.1,2.4-2.4,2.4h-11.8c-1.4,0-2.4-1.1-2.4-2.4
			V2617.9z M721.8,2656.2c6.8,0,12.6-5.9,12.6-13c0-6.8-5.9-12.4-12.6-12.4H701v25.4H721.8z"/>
		<path class="st6" d="M797.5,2617.9c0-1.3,1-2.4,2.4-2.4h52c1.4,0,2.4,1.1,2.4,2.4v10.5c0,1.3-1,2.4-2.4,2.4h-37.8v20.9h31.5
			c1.3,0,2.4,1.1,2.4,2.4v10.6c0,1.4-1.1,2.4-2.4,2.4h-31.5v22.4H852c1.4,0,2.4,1.1,2.4,2.4v10.5c0,1.3-1,2.4-2.4,2.4h-52
			c-1.4,0-2.4-1.1-2.4-2.4V2617.9z"/>
		<path class="st6" d="M882,2616.1c0.1-1,0.9-1.9,2.3-1.9h2c1,0,1.8,0.5,2.2,1.3l28.1,60.3c0.3,0,0.3,0,0.4,0l28.1-60.3
			c0.4-0.8,1-1.3,2.2-1.3h2c1.4,0,2.2,0.9,2.3,1.9l15.1,85.8c0.4,1.8-0.6,2.9-2.3,2.9h-11.6c-1.1,0-2.2-1-2.4-1.9l-7.5-48.4
			c-0.1,0-0.4,0-0.4,0l-22.4,50.2c-0.3,0.8-1,1.4-2.2,1.4h-2.3c-1.1,0-1.8-0.6-2.2-1.4l-22.6-50.2c0,0-0.3,0-0.4,0L883,2703
			c-0.1,0.9-1.1,1.9-2.3,1.9h-11.5c-1.7,0-2.7-1.1-2.4-2.9L882,2616.1z"/>
		<path class="st6" d="M984.2,2617.9c0-1.3,1-2.4,2.4-2.4h30c15.7,0,28.6,12.8,28.6,28.2c0,15.8-12.9,28.7-28.5,28.7h-16v30
			c0,1.3-1.1,2.4-2.4,2.4h-11.8c-1.4,0-2.4-1.1-2.4-2.4V2617.9z M1015.6,2656.9c7.2,0,13.2-5.7,13.2-13.3c0-7-6-12.4-13.2-12.4
			h-14.8v25.7H1015.6z"/>
		<path class="st6" d="M1059.8,2617.9c0-1.3,1-2.4,2.4-2.4h11.8c1.3,0,2.4,1.1,2.4,2.4v71.7h32.6c1.4,0,2.4,1.1,2.4,2.4v10.5
			c0,1.3-1,2.4-2.4,2.4h-46.7c-1.4,0-2.4-1.1-2.4-2.4V2617.9z"/>
		<path class="st6" d="M1162.9,2614.2c25.5,0,46,20.6,46,46.1c0,25.5-20.4,45.9-46,45.9c-25.5,0-45.9-20.3-45.9-45.9
			C1117,2634.8,1137.3,2614.2,1162.9,2614.2z M1162.9,2689.6c16.1,0,29.4-13.2,29.4-29.3c0-16.1-13.3-29.5-29.4-29.5
			c-16.1,0-29.2,13.4-29.2,29.5C1133.6,2676.4,1146.8,2689.6,1162.9,2689.6z"/>
		<path class="st6" d="M1241.2,2661.9l-29.1-42.7c-1-1.7,0-3.7,2-3.7h13c1,0,1.7,0.6,2,1.1l20.4,29.4l20.4-29.4c0.4-0.5,1-1.1,2-1.1
			h13.2c2,0,3.1,2,2,3.7l-29.5,42.5v40.7c0,1.3-1.1,2.4-2.4,2.4h-11.8c-1.4,0-2.4-1.1-2.4-2.4V2661.9z"/>
		<path class="st6" d="M1298.5,2617.9c0-1.3,1-2.4,2.4-2.4h52c1.4,0,2.4,1.1,2.4,2.4v10.5c0,1.3-1,2.4-2.4,2.4h-37.8v20.9h31.5
			c1.3,0,2.4,1.1,2.4,2.4v10.6c0,1.4-1.1,2.4-2.4,2.4h-31.5v22.4h37.8c1.4,0,2.4,1.1,2.4,2.4v10.5c0,1.3-1,2.4-2.4,2.4h-52
			c-1.4,0-2.4-1.1-2.4-2.4V2617.9z"/>
		<path class="st6" d="M1373.6,2617.9c0-1.3,1-2.4,2.4-2.4h52c1.4,0,2.4,1.1,2.4,2.4v10.5c0,1.3-1,2.4-2.4,2.4h-37.8v20.9h31.5
			c1.3,0,2.4,1.1,2.4,2.4v10.6c0,1.4-1.1,2.4-2.4,2.4h-31.5v22.4h37.8c1.4,0,2.4,1.1,2.4,2.4v10.5c0,1.3-1,2.4-2.4,2.4h-52
			c-1.4,0-2.4-1.1-2.4-2.4V2617.9z"/>
	</g>
</g>
<circle class="st7" cx="2280" cy="2282.3" r="657.5"/>
<circle class="st8" cx="2280" cy="2282.3" r="552.3"/>
<g>
	<path class="st6" d="M669.2,2187.4c-3.1,0-5.6-2.5-5.7-5.6l-2.4-100.8c-0.1-3.1,2.4-5.7,5.5-5.8l74.4-1.8c1.5,0,3,0.5,4.1,1.6
		c1.1,1,1.7,2.5,1.8,4l0.5,21.2c0.2,8.8,3.8,17,10.2,23.1c6.4,6.1,14.8,9.3,23.6,9.1h0c3.1-0.1,5.7,2.4,5.8,5.5
		c0.1,3.1-2.4,5.7-5.5,5.8c0,0,0,0,0,0l-36.9,0.9c-1,10.3-5.4,19.9-12.6,27.5c-8.6,9-20.2,14.1-32.6,14.4l-30,0.7
		C669.3,2187.4,669.2,2187.4,669.2,2187.4z M672.6,2086.5l2.2,89.4l24.3-0.6c9.4-0.2,18.1-4.1,24.7-10.9c6.5-6.8,9.9-15.7,9.7-25.1
		c0-1.5,0.5-3,1.6-4.1c1-1.1,2.5-1.7,4-1.8l12.6-0.3c-0.6-0.5-1.2-1-1.8-1.6c-8.6-8.2-13.5-19.2-13.8-31.1l-0.4-15.5L672.6,2086.5z"
		/>
	<path class="st6" d="M1137.7,2176.1c-12,0-23.4-4.5-32.1-12.9c-7.6-7.3-12.5-16.7-14-26.9l-34.9,0.8c0,0-0.1,0-0.1,0
		c-3.1,0-5.6-2.5-5.7-5.6c-0.1-3.1,2.4-5.7,5.5-5.8h0c8.8-0.2,17-3.8,23.1-10.2c6.1-6.4,9.3-14.8,9.1-23.6l-0.5-21.2
		c-0.1-3.1,2.4-5.7,5.5-5.8l72.4-1.7c1.5,0,3,0.5,4.1,1.6c1.1,1,1.7,2.5,1.8,4l2.4,100.8c0.1,3.1-2.4,5.7-5.5,5.8l-30,0.7
		C1138.5,2176.1,1138.1,2176.1,1137.7,2176.1z M1096.9,2124.9c3.1,0,5.6,2.5,5.7,5.6c0.2,9.4,4.1,18.1,10.9,24.6
		c6.8,6.5,15.7,9.9,25.1,9.7l24.3-0.6l-2.2-89.4l-61,1.5l0.4,15.5c0.3,11.9-4.1,23.1-12.2,31.7c-0.5,0.6-1.1,1.1-1.7,1.7l10.6-0.3
		C1096.8,2124.9,1096.9,2124.9,1096.9,2124.9z"/>
	<path class="st9" d="M1034.3,1740.2c-32.7-31.1-77.3-49.8-126-48.6c-97.4,2.3-174.5,83.2-172.1,180.6l5.5,228.2
		c0.5,21.4,18.3,38.3,39.6,37.8l275.4-6.6c21.3-0.5,38.3-18.3,37.7-39.6l-5.5-228.2C1087.7,1815,1066.9,1771.4,1034.3,1740.2z
		 M914.1,1936.8c-42.1,1-77.1-32.3-78.1-74.4c-1-42.2,32.3-77.1,74.4-78.1c42.2-1,77.1,32.3,78.2,74.4
		C989.6,1900.8,956.2,1935.8,914.1,1936.8z"/>
	<path class="st6" d="M924.1,2367.1c-3.1,0-5.6-2.5-5.7-5.6l-4.5-186.1c-0.1-3.1,2.4-5.7,5.5-5.8c3.1-0.1,5.7,2.4,5.8,5.5l4.5,186.1
		c0.1,3.1-2.4,5.7-5.5,5.8C924.2,2367.1,924.1,2367.1,924.1,2367.1z"/>
	<path class="st6" d="M870.4,2307.5c-3.1,0-5.6-2.5-5.7-5.6l-3-125.2c-0.1-3.1,2.4-5.7,5.5-5.8c3.1-0.1,5.7,2.4,5.8,5.5l3,125.2
		c0.1,3.1-2.4,5.7-5.5,5.8C870.5,2307.5,870.5,2307.5,870.4,2307.5z"/>
	<path class="st6" d="M974.9,2305c-3.1,0-5.6-2.5-5.7-5.6l-3-125.2c-0.1-3.1,2.4-5.7,5.5-5.8c3.1-0.1,5.7,2.4,5.8,5.5l3,125.2
		c0.1,3.1-2.4,5.7-5.5,5.8C975,2305,974.9,2305,974.9,2305z"/>
</g>
<g>
	<g>
		<g>
			<path class="st6" d="M2290.5,1092.7c-42.1,0-76.8-31.6-80.6-73.6c-0.3-2.8,1.1-5.5,3.6-6.9c2.4-1.4,5.5-1.3,7.7,0.4
				c20.4,14.4,44.3,21.9,69.3,21.9c25,0,49-7.6,69.3-21.9h0c2.3-1.6,5.3-1.7,7.7-0.3c2.4,1.4,3.8,4.1,3.6,6.9
				c-1.8,20.2-11.1,38.8-26.1,52.4C2330.1,1085.2,2310.7,1092.7,2290.5,1092.7z M2222,1026.3c6.7,32.1,34.8,55.3,68.4,55.3
				c17.5,0,34.2-6.5,47.2-18.3c10.9-9.9,18.2-22.8,21.3-37.1c-20.6,12.6-44.1,19.2-68.4,19.2
				C2266.1,1045.5,2242.6,1038.9,2222,1026.3z"/>
			<path class="st6" d="M2290.5,1015c-26,0-51.2-7.6-72.7-21.9c-5.1-3.4-8.3-8.8-8.9-14.9l-2.2-24c-2.4-26.4-16.2-49.9-37.9-64.5
				c-2.5-1.7-5-3.5-7.6-5.3c-27.1-20-49.6-46.4-64.9-76.3c-15.8-31-24.1-65.8-23.8-100.9c0.5-58.3,23.8-113,65.7-153.9
				c42-41,97.2-63.1,155.6-62.2c57.5,0.9,111.4,23.9,151.8,64.9c40.5,41,62.7,95.4,62.7,153c0,34.7-8.4,69.2-24.2,99.9
				c-15.3,29.6-37.6,55.8-64.5,75.6c-2.1,1.6-4.5,3.2-6.9,4.9c-22.1,15-36.1,38.7-38.6,65l-2.2,24c-0.6,6.1-3.8,11.5-8.9,14.9
				C2341.6,1007.4,2316.5,1015,2290.5,1015z M2290.5,501.9c-54.2,0-105.4,20.9-144.5,59.1c-39.8,38.9-62,90.8-62.4,146.2
				c-0.5,66.1,31,129,84.2,168.3c2.4,1.8,4.8,3.5,7.2,5.1c24.4,16.5,40,42.9,42.7,72.7l2.2,24c0.3,2.7,1.7,5.2,4,6.7
				c19.8,13.1,42.8,20.1,66.6,20.1c23.8,0,46.9-6.9,66.6-20.1c2.3-1.5,3.7-4,4-6.7l2.2-24c2.7-29.6,18.5-56.2,43.3-73.1
				c2.3-1.6,4.5-3.1,6.5-4.6c25.6-18.8,46.8-43.7,61.3-71.8c15.2-29.5,23-61.4,23-94.8c0-54.7-21.2-106.3-59.6-145.3
				c-38.4-38.9-89.6-60.8-144.2-61.6C2292.6,501.9,2291.5,501.9,2290.5,501.9z"/>
			<path class="st6" d="M2247.4,916.7h-11V745.4h-12.3c-9.6,0-17.9-5.5-21.5-14.4c-3.7-8.9-1.7-18.6,5.1-25.4
				c6.8-6.8,16.5-8.7,25.4-5.1c8.9,3.7,14.4,11.9,14.4,21.5v12.3h43.1v11h-43.1V916.7z M2224,709.8c-2.8,0-5.9,1-8.6,3.6
				c-4.3,4.3-4.2,9.7-2.7,13.4c1.5,3.7,5.3,7.6,11.4,7.6h12.3v-12.3c0-6.1-3.9-9.8-7.6-11.4C2227.4,710.2,2225.7,709.8,2224,709.8z"
				/>
			<path class="st6" d="M2344.6,916.7h-11V745.4h-43.1v-11h43.1v-12.3c0-9.6,5.5-17.9,14.4-21.5c8.9-3.7,18.6-1.7,25.4,5.1
				c6.8,6.8,8.7,16.5,5.1,25.4c-3.7,8.9-11.9,14.4-21.5,14.4h-12.3V916.7z M2344.6,734.4h12.3c6.1,0,9.8-3.9,11.4-7.6
				c1.5-3.7,1.6-9.1-2.7-13.4c-4.3-4.3-9.7-4.2-13.4-2.7c-3.7,1.5-7.6,5.3-7.6,11.4V734.4z"/>
			<g>
				<g id="_x3C_Radial_Repeat_x3E__00000145748674262507770990000005685101716066766986_">
					
						<rect x="2044" y="980.5" transform="matrix(0.707 -0.7072 0.7072 0.707 -92.7287 1748.2073)" class="st6" width="39.4" height="11"/>
				</g>
				<g id="_x3C_Radial_Repeat_x3E__00000134946745914833154790000013036226097759335829_">
					<rect x="1949.5" y="752.4" class="st6" width="39.4" height="11"/>
				</g>
				<g id="_x3C_Radial_Repeat_x3E__00000013159497575373684450000000598786983029105301_">
					
						<rect x="2058.1" y="510.1" transform="matrix(0.7071 -0.7071 0.7071 0.7071 229.7881 1614.3971)" class="st6" width="11" height="39.4"/>
				</g>
				<g id="_x3C_Radial_Repeat_x3E__00000047045401639355890120000009469816371849392780_">
					<rect x="2286.2" y="415.7" class="st6" width="11" height="39.4"/>
				</g>
				<g id="_x3C_Radial_Repeat_x3E__00000026153272306469412380000002223651565944251530_">
					
						<rect x="2500.2" y="524.3" transform="matrix(0.7071 -0.7071 0.7071 0.7071 363.4076 1936.9811)" class="st6" width="39.4" height="11"/>
				</g>
				<g id="_x3C_Radial_Repeat_x3E__00000034079685197722213810000000923707820226187403_">
					<rect x="2594.7" y="752.4" class="st6" width="39.4" height="11"/>
				</g>
				<g id="_x3C_Radial_Repeat_x3E__00000046337108106520122560000009590110010059830916_">
					
						<rect x="2514.3" y="966.3" transform="matrix(0.7071 -0.7071 0.7071 0.7071 40.8344 2070.625)" class="st6" width="11" height="39.4"/>
				</g>
			</g>
		</g>
	</g>
	<g>
		<path class="st6" d="M1867.4,1229.2c0-1.2,1-2.3,2.3-2.3h50.3c1.4,0,2.3,1.1,2.3,2.3v10.1c0,1.2-1,2.3-2.3,2.3h-36.6v20.3h30.5
			c1.2,0,2.3,1.1,2.3,2.3v10.3c0,1.4-1.1,2.3-2.3,2.3h-30.5v21.6h36.6c1.4,0,2.3,1.1,2.3,2.3v10.1c0,1.2-1,2.3-2.3,2.3h-50.3
			c-1.4,0-2.3-1.1-2.3-2.3V1229.2z"/>
		<path class="st6" d="M1940.1,1227.8c0-1.2,1.1-2.2,2.3-2.2h3.1l51.4,54.6h0.1v-51.1c0-1.2,1-2.3,2.3-2.3h11.4
			c1.2,0,2.3,1.1,2.3,2.3v83.2c0,1.2-1.1,2.2-2.3,2.2h-3l-51.7-56.7h-0.1v53.2c0,1.2-1,2.3-2.3,2.3h-11.2c-1.2,0-2.3-1.1-2.3-2.3
			V1227.8z"/>
		<path class="st6" d="M2073.9,1225.6c11.1,0,21.8,4.3,30.2,11.5c1,1,1.1,2.5,0.1,3.5l-7.7,8c-1,1-2.1,1-3.2,0
			c-5.3-4.7-11.9-7.2-18.7-7.2c-15.5,0-27.7,13.2-27.7,28.7c0,15.3,12.2,28.3,27.8,28.3c6.9,0,12.2-2.1,14.7-3.1v-10.5h-9.9
			c-1.4,0-2.3-1-2.3-2.2v-9.8c0-1.4,1-2.3,2.3-2.3h23.7c1.2,0,2.2,1.1,2.2,2.3v31.6c0,1-0.5,1.6-1,2c0,0-12.7,8-30.7,8
			c-24.6,0-44.4-19.5-44.4-44.3C2029.5,1245.5,2049.3,1225.6,2073.9,1225.6z"/>
		<path class="st6" d="M2112.5,1310.2l38.4-83.2c0.4-0.7,1-1.4,2.1-1.4h1.2c1.2,0,1.7,0.6,2.1,1.4l38.1,83.2
			c0.7,1.6-0.2,3.2-2.1,3.2h-10.8c-1.9,0-2.7-0.7-3.6-2.5l-6.1-13.4h-37l-6.1,13.4c-0.5,1.2-1.6,2.5-3.6,2.5h-10.8
			C2112.7,1313.4,2111.7,1311.8,2112.5,1310.2z M2165.9,1283.8l-12.4-27.2h-0.4l-12.1,27.2H2165.9z"/>
		<path class="st6" d="M2243.3,1225.6c11.1,0,21.8,4.3,30.2,11.5c1,1,1.1,2.5,0.1,3.5l-7.7,8c-1,1-2.1,1-3.2,0
			c-5.3-4.7-11.9-7.2-18.7-7.2c-15.5,0-27.7,13.2-27.7,28.7c0,15.3,12.2,28.3,27.8,28.3c6.9,0,12.2-2.1,14.7-3.1v-10.5h-9.9
			c-1.4,0-2.3-1-2.3-2.2v-9.8c0-1.4,1-2.3,2.3-2.3h23.7c1.2,0,2.2,1.1,2.2,2.3v31.6c0,1-0.5,1.6-1,2c0,0-12.7,8-30.7,8
			c-24.6,0-44.4-19.5-44.4-44.3C2198.9,1245.5,2218.7,1225.6,2243.3,1225.6z"/>
		<path class="st6" d="M2293.1,1229.2c0-1.2,1-2.3,2.3-2.3h50.3c1.4,0,2.3,1.1,2.3,2.3v10.1c0,1.2-1,2.3-2.3,2.3h-36.6v20.3h30.5
			c1.2,0,2.3,1.1,2.3,2.3v10.3c0,1.4-1.1,2.3-2.3,2.3h-30.5v21.6h36.6c1.4,0,2.3,1.1,2.3,2.3v10.1c0,1.2-1,2.3-2.3,2.3h-50.3
			c-1.4,0-2.3-1.1-2.3-2.3V1229.2z"/>
		<path class="st6" d="M2409.7,1271.7l-28.2-41.3c-1-1.6,0-3.6,2-3.6h12.6c1,0,1.6,0.6,2,1.1l19.8,28.4l19.8-28.4
			c0.4-0.5,1-1.1,2-1.1h12.7c2,0,3,2,2,3.6l-28.6,41.2v39.4c0,1.2-1.1,2.3-2.3,2.3H2412c-1.4,0-2.3-1.1-2.3-2.3V1271.7z"/>
		<path class="st6" d="M2501.8,1225.6c24.7,0,44.5,19.9,44.5,44.6c0,24.7-19.8,44.4-44.5,44.4c-24.7,0-44.4-19.7-44.4-44.4
			C2457.4,1245.5,2477.1,1225.6,2501.8,1225.6z M2501.8,1298.5c15.6,0,28.4-12.7,28.4-28.3c0-15.6-12.9-28.6-28.4-28.6
			c-15.6,0-28.3,13-28.3,28.6C2473.5,1285.8,2486.2,1298.5,2501.8,1298.5z"/>
		<path class="st6" d="M2561.3,1229.2c0-1.2,1.1-2.3,2.3-2.3h11.7c1.4,0,2.3,1.1,2.3,2.3v50.6c0,10.5,7.2,18.8,17.9,18.8
			s18-8.3,18-18.7v-50.7c0-1.2,1-2.3,2.3-2.3h11.7c1.2,0,2.3,1.1,2.3,2.3v51.4c0,18.8-15,34-34.5,34c-19.4,0-34.4-15.2-34.4-34
			V1229.2z"/>
		<path class="st6" d="M2651.4,1229.2c0-1.2,1-2.3,2.3-2.3h35.4c14.8,0,27,11.9,27,26.6c0,11.4-7.5,20.6-18.3,25l16.9,31.4
			c0.9,1.6,0,3.6-2.1,3.6h-13c-1.1,0-1.7-0.6-2-1.1l-16.4-32.8h-13.7v31.5c0,1.2-1.1,2.3-2.3,2.3h-11.4c-1.4,0-2.3-1.1-2.3-2.3
			V1229.2z M2687.7,1266.3c6.6,0,12.2-5.7,12.2-12.6c0-6.6-5.7-12-12.2-12h-20.2v24.6H2687.7z"/>
		<path class="st6" d="M1987.4,1346.6c12.5,0,21.5,4,29.9,11.5c1.1,1,1.1,2.5,0.1,3.5l-7.5,7.8c-0.9,1-2.1,1-3.1,0
			c-5.2-4.6-12.1-7.3-19-7.3c-15.8,0-27.6,13.2-27.6,28.8c0,15.5,11.9,28.6,27.7,28.6c7.4,0,13.7-2.8,18.9-7c1-0.9,2.3-0.7,3.1,0
			l7.7,7.9c1,0.9,0.7,2.5-0.1,3.3c-8.4,8.2-19,12-30,12c-24.7,0-44.6-19.7-44.6-44.4C1942.7,1366.6,1962.6,1346.6,1987.4,1346.6z"/>
		<path class="st6" d="M2032.4,1350.2c0-1.2,1.1-2.3,2.3-2.3h11.7c1.4,0,2.3,1.1,2.3,2.3v50.6c0,10.5,7.2,18.8,17.9,18.8
			c10.8,0,18-8.3,18-18.7v-50.7c0-1.2,1-2.3,2.3-2.3h11.7c1.2,0,2.3,1.1,2.3,2.3v51.4c0,18.8-15,34-34.5,34
			c-19.4,0-34.4-15.2-34.4-34V1350.2z"/>
		<path class="st6" d="M2117.4,1422.3l4.5-7.7c1-1.7,3.1-1.7,4.2-0.9c0.6,0.4,10.6,7.7,18.7,7.7c6.4,0,11.2-4.2,11.2-9.5
			c0-6.3-5.3-10.6-15.7-14.8c-11.6-4.7-23.2-12.1-23.2-26.7c0-11,8.2-23.7,27.8-23.7c12.6,0,22.3,6.4,24.7,8.3
			c1.2,0.7,1.6,2.8,0.7,4.1l-4.7,7c-1,1.5-2.8,2.5-4.3,1.5c-1-0.6-10.4-6.8-17.2-6.8c-7,0-10.9,4.7-10.9,8.7
			c0,5.8,4.6,9.8,14.6,13.8c12,4.8,25.8,12,25.8,27.9c0,12.7-11,24.5-28.4,24.5c-15.6,0-24.7-7.3-27.2-9.6
			C2116.9,1424.9,2116.3,1424.3,2117.4,1422.3z"/>
		<path class="st6" d="M2201.1,1362.7h-18.9c-1.4,0-2.3-1.1-2.3-2.3v-10.1c0-1.2,1-2.3,2.3-2.3h54c1.4,0,2.3,1.1,2.3,2.3v10.1
			c0,1.2-1,2.3-2.3,2.3h-18.9v69.4c0,1.2-1.1,2.3-2.3,2.3h-11.5c-1.2,0-2.3-1.1-2.3-2.3V1362.7z"/>
		<path class="st6" d="M2288.8,1346.6c24.7,0,44.5,19.9,44.5,44.6c0,24.7-19.8,44.4-44.5,44.4c-24.7,0-44.4-19.7-44.4-44.4
			C2244.4,1366.6,2264.1,1346.6,2288.8,1346.6z M2288.8,1419.6c15.6,0,28.4-12.7,28.4-28.3c0-15.6-12.9-28.6-28.4-28.6
			c-15.6,0-28.3,13-28.3,28.6C2260.5,1406.9,2273.2,1419.6,2288.8,1419.6z"/>
		<path class="st6" d="M2358.5,1348.5c0.1-1,0.9-1.9,2.2-1.9h2c1,0,1.7,0.5,2.1,1.2l27.2,58.4c0.2,0,0.2,0,0.4,0l27.2-58.4
			c0.4-0.7,1-1.2,2.1-1.2h2c1.4,0,2.1,0.9,2.2,1.9l14.6,83.1c0.4,1.7-0.6,2.8-2.2,2.8H2427c-1.1,0-2.1-1-2.3-1.9l-7.3-46.9
			c-0.1,0-0.4,0-0.4,0l-21.6,48.6c-0.2,0.7-1,1.4-2.1,1.4h-2.2c-1.1,0-1.7-0.6-2.1-1.4l-21.9-48.6c0,0-0.2,0-0.4,0l-7.2,46.9
			c-0.1,0.9-1.1,1.9-2.2,1.9h-11.1c-1.6,0-2.6-1.1-2.3-2.8L2358.5,1348.5z"/>
		<path class="st6" d="M2457.4,1350.2c0-1.2,1-2.3,2.3-2.3h50.3c1.4,0,2.3,1.1,2.3,2.3v10.1c0,1.2-1,2.3-2.3,2.3h-36.6v20.3h30.5
			c1.2,0,2.3,1.1,2.3,2.3v10.3c0,1.4-1.1,2.3-2.3,2.3h-30.5v21.6h36.6c1.4,0,2.3,1.1,2.3,2.3v10.1c0,1.2-1,2.3-2.3,2.3h-50.3
			c-1.4,0-2.3-1.1-2.3-2.3V1350.2z"/>
		<path class="st6" d="M2530.1,1350.2c0-1.2,1-2.3,2.3-2.3h35.4c14.8,0,27,11.9,27,26.6c0,11.4-7.5,20.6-18.3,25l16.9,31.4
			c0.9,1.6,0,3.6-2.1,3.6h-13c-1.1,0-1.7-0.6-2-1.1l-16.4-32.8h-13.7v31.5c0,1.2-1.1,2.3-2.3,2.3h-11.4c-1.4,0-2.3-1.1-2.3-2.3
			V1350.2z M2566.5,1387.3c6.6,0,12.2-5.7,12.2-12.6c0-6.6-5.7-12-12.2-12h-20.2v24.6H2566.5z"/>
		<path class="st6" d="M2607.4,1422.3l4.5-7.7c1-1.7,3.1-1.7,4.2-0.9c0.6,0.4,10.6,7.7,18.7,7.7c6.4,0,11.2-4.2,11.2-9.5
			c0-6.3-5.3-10.6-15.7-14.8c-11.6-4.7-23.2-12.1-23.2-26.7c0-11,8.2-23.7,27.8-23.7c12.6,0,22.3,6.4,24.7,8.3
			c1.2,0.7,1.6,2.8,0.7,4.1l-4.7,7c-1,1.5-2.8,2.5-4.3,1.5c-1-0.6-10.4-6.8-17.2-6.8c-7,0-10.9,4.7-10.9,8.7
			c0,5.8,4.6,9.8,14.6,13.8c12,4.8,25.8,12,25.8,27.9c0,12.7-11,24.5-28.4,24.5c-15.6,0-24.7-7.3-27.2-9.6
			C2606.9,1424.9,2606.3,1424.3,2607.4,1422.3z"/>
	</g>
</g>
<g>
	<g>
		<g>
			<g>
				<path class="st6" d="M2215.9,3562.8c-29.6,0-54.1-23.6-55-53.4c-0.9-30.3,23.1-55.7,53.4-56.6l0,0c30.3-0.9,55.7,23.1,56.6,53.4
					c0.9,30.3-23.1,55.7-53.4,56.6C2217,3562.8,2216.5,3562.8,2215.9,3562.8z M2214.7,3463.3c-24.5,0.7-43.9,21.2-43.2,45.7
					c0.7,24.1,20.5,43.2,44.4,43.2c0.4,0,0.9,0,1.3,0c24.5-0.7,43.9-21.2,43.2-45.7c-0.7-24.1-20.5-43.2-44.4-43.2
					C2215.5,3463.3,2215.1,3463.3,2214.7,3463.3L2214.7,3463.3z"/>
				<path class="st6" d="M2215.9,3643.4c-34.8,0-67.7-13.1-93-37c-26.3-24.9-41.4-58.5-42.5-94.7c-2.1-74.8,56.9-137.3,131.7-139.5
					c13.8-0.4,27.4,1.3,40.5,4.9c2.8,0.8,4.4,3.7,3.6,6.5c-0.8,2.8-3.7,4.4-6.5,3.6c-12.1-3.4-24.7-4.9-37.4-4.6
					c-69,2-123.5,59.7-121.5,128.6c1,33.4,14.9,64.4,39.2,87.4c24.3,22.9,56.1,35,89.5,34.1c33.4-1,64.4-14.9,87.4-39.2
					c22.9-24.3,35.1-56.1,34.1-89.5c-0.5-16.9-4.3-33.2-11.2-48.4c-1.2-2.6,0-5.8,2.6-7c2.6-1.2,5.8,0,7,2.6
					c7.6,16.5,11.6,34.2,12.2,52.5c1,36.2-12.1,70.7-37,97c-24.9,26.3-58.5,41.4-94.7,42.5
					C2218.5,3643.4,2217.2,3643.4,2215.9,3643.4z"/>
				<path class="st6" d="M2215.9,3741.4c-125.7,0-229.8-100.4-233.4-226.9c-3.7-128.8,98.1-236.5,226.8-240.2
					c35.8-1,70.3,5.9,102.7,20.5c2.6,1.2,3.8,4.3,2.6,7c-1.2,2.7-4.3,3.8-7,2.6c-30.9-13.9-63.9-20.5-98-19.5
					c-123,3.5-220.1,106.4-216.6,229.4c3.5,120.8,102.8,216.7,222.9,216.7c2.2,0,4.3,0,6.5-0.1c123-3.5,220.1-106.4,216.6-229.4
					c-1.3-46.4-16.7-90.4-44.5-127.4c-1.7-2.3-1.3-5.6,1-7.4c2.3-1.7,5.6-1.3,7.4,1c29.1,38.7,45.2,84.9,46.6,133.4
					c3.7,128.8-98.1,236.5-226.8,240.2C2220.4,3741.4,2218.1,3741.4,2215.9,3741.4z"/>
				<path class="st6" d="M2212.3,3518.4c-1.1,0-2.3-0.4-3.3-1.1c-2.3-1.8-2.7-5.1-0.9-7.4l234-294.8c1.8-2.3,5.1-2.7,7.4-0.9
					c2.3,1.8,2.7,5.1,0.9,7.4l-234,294.8C2215.4,3517.8,2213.9,3518.4,2212.3,3518.4z"/>
				<g>
					<path class="st6" d="M2485.7,3309.4c-1.7,0-3.4-0.2-5-0.6l-85.7-21.2c-1.7-0.4-3.1-1.7-3.7-3.4c-0.6-1.7-0.3-3.6,0.9-5
						l115.9-146.6c1.3-1.6,3.4-2.3,5.4-1.8l71.8,17.8c7,1.7,12.5,6.8,14.8,13.6c2.3,6.8,1.1,14.2-3.4,19.8l-94.4,119.5
						C2498.1,3306.5,2492,3309.4,2485.7,3309.4z M2405.4,3279.3l77.8,19.3c4,1,8.2-0.5,10.8-3.7l94.4-119.5c2.3-2.9,2.9-6.5,1.7-9.9
						c-1.2-3.4-3.9-5.9-7.4-6.8l-68.5-17L2405.4,3279.3z"/>
					<path class="st6" d="M2395.6,3287.2c-0.2,0-0.3,0-0.5,0c-1.8-0.2-3.4-1.2-4.2-2.8l-40.5-78.5c-3.8-7.3-2.9-16.2,2.2-22.7
						l94.4-119.5c4.5-5.6,11.4-8.6,18.5-7.9c7.1,0.7,13.4,4.9,16.7,11.3l33.9,65.8c0.9,1.8,0.7,4.1-0.6,5.7l-115.9,146.6
						C2398.7,3286.5,2397.2,3287.2,2395.6,3287.2z M2463.5,3066.3c-3.2,0-6.2,1.4-8.2,4l-94.4,119.5c-2.6,3.2-3,7.7-1.1,11.3
						l36.7,71.3l108.7-137.6l-32.4-62.8c-1.7-3.2-4.7-5.3-8.3-5.6C2464.2,3066.3,2463.8,3066.3,2463.5,3066.3z"/>
				</g>
			</g>
		</g>
	</g>
	<g>
		<path class="st6" d="M1957.4,3892.2h-18.1c-1.3,0-2.2-1.1-2.2-2.2v-9.7c0-1.2,0.9-2.2,2.2-2.2h51.6c1.3,0,2.2,1.1,2.2,2.2v9.7
			c0,1.2-0.9,2.2-2.2,2.2h-18.1v66.3c0,1.2-1.1,2.2-2.2,2.2h-11c-1.2,0-2.2-1.1-2.2-2.2V3892.2z"/>
		<path class="st6" d="M2005.5,3880.3c0-1.2,0.9-2.2,2.2-2.2h33.8c14.2,0,25.8,11.3,25.8,25.4c0,10.9-7.2,19.7-17.5,23.9l16.2,30
			c0.8,1.5,0,3.4-2,3.4h-12.4c-1.1,0-1.7-0.6-1.9-1.1l-15.7-31.3h-13.1v30.1c0,1.2-1.1,2.2-2.2,2.2h-10.9c-1.3,0-2.2-1.1-2.2-2.2
			V3880.3z M2040.2,3915.7c6.3,0,11.7-5.4,11.7-12.1c0-6.3-5.4-11.5-11.7-11.5H2021v23.5H2040.2z"/>
		<path class="st6" d="M2073.4,3957.7l36.7-79.5c0.4-0.7,0.9-1.3,2-1.3h1.2c1.2,0,1.7,0.6,2,1.3l36.4,79.5c0.7,1.5-0.2,3.1-2,3.1
			h-10.3c-1.8,0-2.6-0.7-3.4-2.4l-5.8-12.8h-35.3l-5.8,12.8c-0.5,1.2-1.5,2.4-3.4,2.4h-10.3
			C2073.7,3960.7,2072.7,3959.2,2073.4,3957.7z M2124.5,3932.5l-11.8-26h-0.4l-11.6,26H2124.5z"/>
		<path class="st6" d="M2162.5,3879c0-1.2,1.1-2.1,2.2-2.1h3l49.2,52.2h0.1v-48.8c0-1.2,0.9-2.2,2.2-2.2h10.9c1.2,0,2.2,1.1,2.2,2.2
			v79.5c0,1.2-1.1,2.1-2.2,2.1h-2.8l-49.4-54.2h-0.1v50.8c0,1.2-0.9,2.2-2.2,2.2h-10.8c-1.2,0-2.2-1.1-2.2-2.2V3879z"/>
		<path class="st6" d="M2249,3949.1l4.3-7.3c0.9-1.7,3-1.7,4-0.8c0.6,0.4,10.2,7.3,17.8,7.3c6.1,0,10.8-4,10.8-9.1
			c0-6-5.1-10.2-15-14.2c-11.1-4.5-22.2-11.6-22.2-25.5c0-10.5,7.8-22.7,26.6-22.7c12.1,0,21.3,6.1,23.6,7.9
			c1.2,0.7,1.5,2.7,0.7,3.9l-4.5,6.7c-0.9,1.4-2.7,2.4-4.1,1.4c-0.9-0.6-9.9-6.5-16.4-6.5c-6.7,0-10.4,4.5-10.4,8.3
			c0,5.6,4.4,9.3,13.9,13.2c11.5,4.6,24.7,11.5,24.7,26.7c0,12.2-10.5,23.4-27.2,23.4c-14.9,0-23.6-7-26-9.2
			C2248.6,3951.6,2248,3951,2249,3949.1z"/>
		<path class="st6" d="M2317.9,3880.3c0-1.2,0.9-2.2,2.2-2.2h48.1c1.3,0,2.2,1.1,2.2,2.2v9.7c0,1.2-0.9,2.2-2.2,2.2h-35v22.2h29.2
			c1.2,0,2.2,1.1,2.2,2.2v9.7c0,1.2-1.1,2.2-2.2,2.2h-29.2v29.9c0,1.2-1.1,2.2-2.2,2.2h-10.9c-1.3,0-2.2-1.1-2.2-2.2V3880.3z"/>
		<path class="st6" d="M2421.1,3876.8c23.6,0,42.5,19,42.5,42.7c0,23.6-18.9,42.4-42.5,42.4s-42.4-18.8-42.4-42.4
			C2378.7,3895.9,2397.5,3876.8,2421.1,3876.8z M2421.1,3946.5c14.9,0,27.2-12.2,27.2-27.1c0-14.9-12.3-27.3-27.2-27.3
			c-14.9,0-27.1,12.4-27.1,27.3C2394,3934.4,2406.2,3946.5,2421.1,3946.5z"/>
		<path class="st6" d="M2479.1,3880.3c0-1.2,0.9-2.2,2.2-2.2h33.8c14.2,0,25.8,11.3,25.8,25.4c0,10.9-7.2,19.7-17.5,23.9l16.2,30
			c0.8,1.5,0,3.4-2,3.4h-12.4c-1.1,0-1.7-0.6-1.9-1.1l-15.7-31.3h-13.1v30.1c0,1.2-1.1,2.2-2.2,2.2h-10.9c-1.3,0-2.2-1.1-2.2-2.2
			V3880.3z M2513.9,3915.7c6.3,0,11.7-5.4,11.7-12.1c0-6.3-5.4-11.5-11.7-11.5h-19.3v23.5H2513.9z"/>
		<path class="st6" d="M2566.4,3878.6c0.1-0.9,0.8-1.8,2.1-1.8h1.9c0.9,0,1.7,0.5,2,1.2l26,55.8c0.2,0,0.2,0,0.4,0l26-55.8
			c0.4-0.7,0.9-1.2,2-1.2h1.9c1.3,0,2,0.8,2.1,1.8l13.9,79.4c0.4,1.7-0.6,2.7-2.1,2.7h-10.8c-1.1,0-2-0.9-2.2-1.8l-7-44.8
			c-0.1,0-0.4,0-0.4,0l-20.7,46.4c-0.2,0.7-0.9,1.3-2,1.3h-2.1c-1.1,0-1.7-0.6-2-1.3l-20.9-46.4c0,0-0.2,0-0.4,0l-6.9,44.8
			c-0.1,0.8-1.1,1.8-2.1,1.8h-10.6c-1.5,0-2.5-1.1-2.2-2.7L2566.4,3878.6z"/>
		<path class="st6" d="M1865.9,4036.6l-26.9-39.5c-0.9-1.5,0-3.4,1.9-3.4h12.1c0.9,0,1.5,0.6,1.9,1.1l18.9,27.2l18.9-27.2
			c0.4-0.5,0.9-1.1,1.9-1.1h12.2c1.9,0,2.8,1.9,1.9,3.4l-27.3,39.3v37.7c0,1.2-1.1,2.2-2.2,2.2h-10.9c-1.3,0-2.2-1.1-2.2-2.2V4036.6
			z"/>
		<path class="st6" d="M1954,3992.5c23.6,0,42.5,19,42.5,42.7c0,23.6-18.9,42.4-42.5,42.4s-42.4-18.8-42.4-42.4
			C1911.5,4011.6,1930.3,3992.5,1954,3992.5z M1954,4062.2c14.9,0,27.2-12.2,27.2-27.1s-12.3-27.3-27.2-27.3
			c-14.9,0-27.1,12.4-27.1,27.3S1939.1,4062.2,1954,4062.2z"/>
		<path class="st6" d="M2010.8,3996c0-1.2,1.1-2.2,2.2-2.2h11.2c1.3,0,2.2,1.1,2.2,2.2v48.3c0,10,6.9,18,17.1,18
			c10.3,0,17.3-7.9,17.3-17.8V3996c0-1.2,0.9-2.2,2.2-2.2h11.2c1.2,0,2.2,1.1,2.2,2.2v49.2c0,18-14.3,32.5-33,32.5
			c-18.6,0-32.8-14.5-32.8-32.5V3996z"/>
		<path class="st6" d="M2096.9,3996c0-1.2,0.9-2.2,2.2-2.2h33.8c14.2,0,25.8,11.3,25.8,25.4c0,10.9-7.2,19.7-17.5,23.9l16.2,30
			c0.8,1.5,0,3.4-2,3.4H2143c-1.1,0-1.7-0.6-1.9-1.1l-15.7-31.3h-13.1v30.1c0,1.2-1.1,2.2-2.2,2.2h-10.9c-1.3,0-2.2-1.1-2.2-2.2
			V3996z M2131.7,4031.4c6.3,0,11.7-5.4,11.7-12.1c0-6.3-5.4-11.5-11.7-11.5h-19.3v23.5H2131.7z"/>
		<path class="st6" d="M2201.8,3996c0-1.2,0.9-2.2,2.2-2.2h27.8c14.5,0,26.5,11.8,26.5,26.1c0,14.7-11.9,26.6-26.4,26.6h-14.8v27.8
			c0,1.2-1.1,2.2-2.2,2.2H2204c-1.3,0-2.2-1.1-2.2-2.2V3996z M2230.8,4032c6.6,0,12.2-5.3,12.2-12.3c0-6.5-5.6-11.5-12.2-11.5h-13.7
			v23.8H2230.8z"/>
		<path class="st6" d="M2271.7,3996c0-1.2,0.9-2.2,2.2-2.2h33.8c14.2,0,25.8,11.3,25.8,25.4c0,10.9-7.2,19.7-17.5,23.9l16.2,30
			c0.8,1.5,0,3.4-2,3.4h-12.4c-1.1,0-1.7-0.6-1.9-1.1l-15.7-31.3h-13.1v30.1c0,1.2-1.1,2.2-2.2,2.2H2274c-1.3,0-2.2-1.1-2.2-2.2
			V3996z M2306.5,4031.4c6.3,0,11.7-5.4,11.7-12.1c0-6.3-5.4-11.5-11.7-11.5h-19.3v23.5H2306.5z"/>
		<path class="st6" d="M2386.9,3992.5c23.6,0,42.5,19,42.5,42.7c0,23.6-18.9,42.4-42.5,42.4c-23.6,0-42.4-18.8-42.4-42.4
			C2344.5,4011.6,2363.3,3992.5,2386.9,3992.5z M2386.9,4062.2c14.9,0,27.2-12.2,27.2-27.1s-12.3-27.3-27.2-27.3
			c-14.9,0-27.1,12.4-27.1,27.3S2372,4062.2,2386.9,4062.2z"/>
		<path class="st6" d="M2445,3996c0-1.2,0.9-2.2,2.1-2.2h28c22.8,0,41.5,18.6,41.5,41.2c0,22.9-18.7,41.5-41.5,41.5h-28
			c-1.2,0-2.1-1.1-2.1-2.2V3996z M2473.7,4062c15.4,0,26.6-11.6,26.6-27.1c0-15.4-11.2-26.9-26.6-26.9h-13.5v54H2473.7z"/>
		<path class="st6" d="M2531,3996c0-1.2,1.1-2.2,2.2-2.2h11.2c1.3,0,2.2,1.1,2.2,2.2v48.3c0,10,6.9,18,17.1,18
			c10.3,0,17.3-7.9,17.3-17.8V3996c0-1.2,0.9-2.2,2.2-2.2h11.2c1.2,0,2.2,1.1,2.2,2.2v49.2c0,18-14.3,32.5-33,32.5
			c-18.6,0-32.8-14.5-32.8-32.5V3996z"/>
		<path class="st6" d="M2653.8,3992.5c11.9,0,20.6,3.8,28.6,11c1.1,0.9,1.1,2.4,0.1,3.3l-7.2,7.4c-0.8,0.9-2,0.9-3,0
			c-5-4.4-11.6-7-18.2-7c-15.1,0-26.4,12.6-26.4,27.5c0,14.8,11.3,27.3,26.5,27.3c7.1,0,13.1-2.7,18.1-6.7c0.9-0.8,2.2-0.7,3,0
			l7.3,7.6c0.9,0.8,0.7,2.4-0.1,3.2c-8,7.8-18.2,11.5-28.7,11.5c-23.6,0-42.7-18.8-42.7-42.4
			C2611.1,4011.6,2630.1,3992.5,2653.8,3992.5z"/>
		<path class="st6" d="M2709.1,4007.9H2691c-1.3,0-2.2-1.1-2.2-2.2v-9.7c0-1.2,0.9-2.2,2.2-2.2h51.6c1.3,0,2.2,1.1,2.2,2.2v9.7
			c0,1.2-0.9,2.2-2.2,2.2h-18.1v66.3c0,1.2-1.1,2.2-2.2,2.2h-11c-1.2,0-2.2-1.1-2.2-2.2V4007.9z"/>
	</g>
</g>
<g>
	<g>
		<path class="st6" d="M3462.6,2167.5c-3.4,0-6.8-0.5-10.2-1.4c-9.9-2.7-18.2-9.1-23.3-18.1l-36.6-64.1
			c-10.6-18.5-4.1-42.1,14.4-52.6l101.4-57.9c4-2.3,8.3-3.8,12.8-4.5c2.4-0.4,4.8,0.7,6,2.9l67.1,117.5c1.2,2.1,1,4.8-0.6,6.6
			c-2.9,3.5-6.4,6.4-10.4,8.7l-101.4,57.9C3475.8,2165.7,3469.2,2167.5,3462.6,2167.5z M3519,1981.2c-1.7,0.6-3.4,1.3-5.1,2.2
			l-101.4,57.9c-12.9,7.4-17.4,23.8-10,36.7l36.6,64.1c3.6,6.3,9.4,10.7,16.3,12.6c6.9,1.9,14.2,1,20.4-2.6l101.4-57.9
			c1.6-0.9,3.1-2,4.5-3.2L3519,1981.2z"/>
		<path class="st6" d="M3618.2,2115.6c-13.4,0-26.5-7-33.6-19.4l-0.7-1.3l-67.8-118.7c-5.1-9-6.4-19.4-3.7-29.3
			c2.7-9.9,9.1-18.2,18.1-23.3l83.8-47.9c1.5-0.9,3.3-1,5-0.4c1.6,0.6,2.9,1.9,3.5,3.6c0.5,1.5,1.2,3,2,4.5l77.4,135.5
			c1,1.7,1,3.9,0.1,5.6c-1,1.8-2.7,2.9-4.8,3.1c-22.8,1.5-40.6,20.6-40.6,43.5c0,6.9,1.5,13.4,4.6,19.5c1.4,2.8,0.4,6.1-2.3,7.7
			l-21.8,12.4C3631.2,2113.9,3624.7,2115.6,3618.2,2115.6z M3614.4,1888.9l-78.2,44.7c-6.2,3.6-10.7,9.4-12.6,16.3
			c-1.9,6.9-1,14.2,2.6,20.4l0.7,1.2l67.9,118.8c7.4,12.8,23.8,17.3,36.7,10l17.2-9.8c-2.4-6.2-3.6-12.9-3.6-19.6
			c0-25.9,18.1-48,42.6-53.8l-73.2-128.1C3614.5,1889,3614.4,1889,3614.4,1888.9z"/>
		<path class="st6" d="M3749.6,2074.4c-1.3,0-2.6-0.4-3.6-1.2c-1.3-1-2.2-2.6-2.2-4.3c-0.4-9.2-3.7-17.9-9.4-25.1
			c-8.3-10.5-20.7-16.4-34.1-16.4c-0.2,0-0.8,0.1-1.1,0.2c-0.6,0.1-1.3,0.2-1.9,0.2c-2.3,0.2-4.4-1-5.5-2.9l-77.2-135.8
			c-1.2-2.1-2.2-4.3-2.9-6.5c-6.2-17.5,1.1-36.9,17.3-46.2l92.1-52.6c4-2.3,8.3-3.8,12.7-4.5c2.4-0.4,4.8,0.7,6,2.9l125.6,219.9
			c1.2,2.1,1,4.8-0.6,6.6c-2.9,3.5-6.4,6.4-10.4,8.7l-92.1,52.6c-3.6,2-7.4,3.5-11.5,4.3C3750.4,2074.4,3750,2074.4,3749.6,2074.4z
			 M3700.3,2015.7c16.9,0,32.7,7.6,43.2,20.8c5.7,7.1,9.5,15.4,11.1,24.3c0.6-0.3,1.3-0.6,1.9-1l92.1-52.6c1.6-0.9,3.1-2,4.5-3.2
			l-121.3-212.3c-1.7,0.6-3.4,1.3-5,2.2l-92.1,52.6c-11.3,6.5-16.4,20-12.1,32.2c0.5,1.5,1.2,3,2,4.5l75.3,132.4
			C3700.1,2015.7,3700.2,2015.7,3700.3,2015.7z"/>
		<path class="st6" d="M3889.5,2028.5c-13.4,0-26.5-7-33.6-19.4l-0.7-1.3l-126.3-221.1c-10.6-18.5-4.1-42.1,14.4-52.6l54.8-31.3
			c8.9-5.1,19.3-6.4,29.3-3.7c9.9,2.7,18.2,9.1,23.3,18.1l127,222.4c10.5,18.5,4.1,42.1-14.4,52.6c0,0,0,0,0,0l-54.8,31.3
			C3902.5,2026.9,3896,2028.5,3889.5,2028.5z M3817.1,1709.3c-4.6,0-9.2,1.2-13.3,3.6l-54.8,31.3c-12.9,7.4-17.4,23.8-10,36.7
			l0.7,1.2l125.6,219.9l0.7,1.3c7.4,12.8,23.8,17.3,36.7,10l54.8-31.3c12.9-7.4,17.4-23.9,10-36.7l-127-222.4
			c-3.6-6.2-9.3-10.7-16.3-12.6C3821.9,1709.6,3819.5,1709.3,3817.1,1709.3z M3960.5,1987.1L3960.5,1987.1L3960.5,1987.1z"/>
		<path class="st6" d="M3700.3,2410.3c-3.2,0-5.8-2.6-5.8-5.8v-284.1c0-3.2,2.6-5.8,5.8-5.8c3.2,0,5.8,2.6,5.8,5.8v284.1
			C3706.1,2407.7,3703.5,2410.3,3700.3,2410.3z"/>
		<path class="st6" d="M3628,2410.3c-0.7,0-1.4-0.1-2-0.4c-3-1.1-4.6-4.5-3.5-7.5l72.3-195.8c1.1-3,4.5-4.6,7.5-3.4
			c3,1.1,4.6,4.5,3.5,7.5l-72.3,195.8C3632.6,2408.8,3630.4,2410.3,3628,2410.3z"/>
		<path class="st6" d="M3774.4,2410.3c-2.4,0-4.6-1.5-5.5-3.8l-72.3-195.8c-1.1-3,0.4-6.4,3.4-7.5c3-1.1,6.4,0.4,7.5,3.4l72.3,195.8
			c1.1,3-0.4,6.4-3.5,7.5C3775.8,2410.2,3775.1,2410.3,3774.4,2410.3z"/>
		<path class="st6" d="M3700.3,2126.2c-21,0-40-11.7-49.4-30.5c-3.8-7.6-5.8-16.1-5.8-24.7c0-29,22.6-53.2,51.5-55.1
			c0.4,0,0.8,0,1.2,0l0.7,0.1l0,0c0.6-0.2,1.2-0.3,1.8-0.3c16.9,0,32.7,7.6,43.2,20.8c7.3,9.1,11.5,20.1,12,31.8
			c0,0.8,0.1,1.7,0.1,2.6C3755.5,2101.4,3730.8,2126.2,3700.3,2126.2z M3696.8,2027.5c-22.5,1.8-40,20.7-40,43.4
			c0,6.9,1.5,13.4,4.6,19.5c7.5,14.9,22.4,24.1,39,24.1c24,0,43.6-19.6,43.6-43.6c0-0.7,0-1.4-0.1-2c-0.4-9.3-3.7-17.9-9.5-25.1
			c-8.1-10.2-20.2-16.2-33.2-16.4l-0.4,0.1c-0.8,0.3-1.7,0.3-2.6,0.2L3696.8,2027.5z"/>
	</g>
</g>
<g>
	<path class="st6" d="M3247.7,2495.3c26.2,0,47.1,21.1,47.1,47.2c0,26.2-20.9,47-47.1,47c-26.2,0-47-20.8-47-47
		C3200.8,2516.3,3221.6,2495.3,3247.7,2495.3z M3247.7,2572.5c16.5,0,30.1-13.5,30.1-30s-13.6-30.2-30.1-30.2s-30,13.7-30,30.2
		S3231.3,2572.5,3247.7,2572.5z"/>
	<path class="st6" d="M3312,2499.1c0-1.3,1-2.5,2.5-2.5h30.8c16.1,0,29.3,13.1,29.3,28.9c0,16.2-13.2,29.4-29.2,29.4H3329v30.8
		c0,1.3-1.2,2.5-2.5,2.5h-12c-1.4,0-2.5-1.2-2.5-2.5V2499.1z M3344.2,2539c7.3,0,13.5-5.9,13.5-13.6c0-7.2-6.2-12.7-13.5-12.7H3329
		v26.3H3344.2z"/>
	<path class="st6" d="M3401.8,2512.3h-20c-1.4,0-2.5-1.2-2.5-2.5v-10.7c0-1.3,1-2.5,2.5-2.5h57.2c1.4,0,2.5,1.2,2.5,2.5v10.7
		c0,1.3-1,2.5-2.5,2.5h-20v73.4c0,1.3-1.2,2.5-2.5,2.5h-12.2c-1.3,0-2.5-1.2-2.5-2.5V2512.3z"/>
	<path class="st6" d="M3455,2499.1c0-1.3,1.2-2.5,2.5-2.5h12.2c1.3,0,2.5,1.2,2.5,2.5v86.6c0,1.3-1.2,2.5-2.5,2.5h-12.2
		c-1.3,0-2.5-1.2-2.5-2.5V2499.1z"/>
	<path class="st6" d="M3505.6,2497.2c0.1-1,0.9-2,2.4-2h2.1c1,0,1.8,0.5,2.2,1.3l28.8,61.8c0.3,0,0.3,0,0.4,0l28.8-61.8
		c0.4-0.8,1-1.3,2.2-1.3h2.1c1.4,0,2.2,0.9,2.4,2l15.4,87.9c0.4,1.8-0.7,3-2.4,3h-11.9c-1.2,0-2.2-1-2.5-2l-7.7-49.6
		c-0.1,0-0.4,0-0.4,0l-22.9,51.4c-0.3,0.8-1,1.4-2.2,1.4h-2.4c-1.2,0-1.8-0.7-2.2-1.4l-23.2-51.4c0,0-0.3,0-0.4,0l-7.6,49.6
		c-0.1,0.9-1.2,2-2.4,2h-11.8c-1.7,0-2.7-1.2-2.5-3L3505.6,2497.2z"/>
	<path class="st6" d="M3610.3,2499.1c0-1.3,1.2-2.5,2.5-2.5h12.2c1.3,0,2.5,1.2,2.5,2.5v86.6c0,1.3-1.2,2.5-2.5,2.5h-12.2
		c-1.3,0-2.5-1.2-2.5-2.5V2499.1z"/>
	<path class="st6" d="M3642.6,2583.3l39-70.4v-0.5h-32.7c-1.3,0-2.5-1.2-2.5-2.5v-10.9c0-1.3,1.2-2.5,2.5-2.5h54.7
		c1.3,0,2.5,1.2,2.5,2.5v1.7l-38.5,71.3v0.3h33.4c1.4,0,2.5,1.2,2.5,2.5v10.9c0,1.3-1,2.5-2.5,2.5h-55.9c-1.3,0-2.5-1.2-2.5-2.5
		V2583.3z"/>
	<path class="st6" d="M3721.6,2499.1c0-1.3,1-2.5,2.5-2.5h53.3c1.4,0,2.5,1.2,2.5,2.5v10.7c0,1.3-1,2.5-2.5,2.5h-38.7v21.5h32.3
		c1.3,0,2.5,1.2,2.5,2.5v10.9c0,1.4-1.2,2.5-2.5,2.5h-32.3v22.9h38.7c1.4,0,2.5,1.2,2.5,2.5v10.7c0,1.3-1,2.5-2.5,2.5h-53.3
		c-1.4,0-2.5-1.2-2.5-2.5V2499.1z"/>
	<path class="st6" d="M3845,2544.1l-29.8-43.7c-1-1.7,0-3.8,2.1-3.8h13.3c1,0,1.7,0.7,2.1,1.2l20.9,30.1l20.9-30.1
		c0.4-0.5,1-1.2,2.1-1.2h13.5c2.1,0,3.1,2.1,2.1,3.8l-30.2,43.6v41.7c0,1.3-1.2,2.5-2.5,2.5h-12c-1.4,0-2.5-1.2-2.5-2.5V2544.1z"/>
	<path class="st6" d="M3942.5,2495.3c26.2,0,47.1,21.1,47.1,47.2c0,26.2-20.9,47-47.1,47s-47-20.8-47-47
		C3895.6,2516.3,3916.4,2495.3,3942.5,2495.3z M3942.5,2572.5c16.5,0,30.1-13.5,30.1-30s-13.6-30.2-30.1-30.2s-30,13.7-30,30.2
		S3926.1,2572.5,3942.5,2572.5z"/>
	<path class="st6" d="M4005.5,2499.1c0-1.3,1.2-2.5,2.5-2.5h12.4c1.4,0,2.5,1.2,2.5,2.5v53.5c0,11.1,7.6,19.9,19,19.9
		c11.4,0,19.1-8.8,19.1-19.8v-53.7c0-1.3,1-2.5,2.5-2.5h12.4c1.3,0,2.5,1.2,2.5,2.5v54.4c0,19.9-15.8,36-36.5,36
		c-20.5,0-36.4-16.1-36.4-36V2499.1z"/>
	<path class="st6" d="M4100.9,2499.1c0-1.3,1-2.5,2.5-2.5h37.4c15.7,0,28.5,12.6,28.5,28.1c0,12-8,21.9-19.4,26.4l17.9,33.2
		c0.9,1.7,0,3.8-2.2,3.8h-13.7c-1.2,0-1.8-0.7-2.1-1.2l-17.4-34.7h-14.5v33.4c0,1.3-1.2,2.5-2.5,2.5h-12c-1.4,0-2.5-1.2-2.5-2.5
		V2499.1z M4139.4,2538.3c6.9,0,13-6,13-13.3c0-6.9-6-12.7-13-12.7h-21.3v26H4139.4z"/>
	<path class="st6" d="M3332.4,2623.4c26.2,0,47.1,21.1,47.1,47.2c0,26.2-20.9,47-47.1,47s-47-20.8-47-47
		C3285.4,2644.5,3306.2,2623.4,3332.4,2623.4z M3332.4,2700.6c16.5,0,30.1-13.5,30.1-30s-13.6-30.2-30.1-30.2s-30,13.7-30,30.2
		S3315.9,2700.6,3332.4,2700.6z"/>
	<path class="st6" d="M3396.6,2627.2c0-1.3,1-2.5,2.5-2.5h30.8c16.1,0,29.3,13.1,29.3,28.9c0,16.2-13.2,29.4-29.2,29.4h-16.4v30.8
		c0,1.3-1.2,2.5-2.5,2.5h-12c-1.4,0-2.5-1.2-2.5-2.5V2627.2z M3428.8,2667.1c7.3,0,13.5-5.9,13.5-13.6c0-7.2-6.2-12.7-13.5-12.7
		h-15.2v26.3H3428.8z"/>
	<path class="st6" d="M3474.1,2627.2c0-1.3,1-2.5,2.5-2.5h53.3c1.4,0,2.5,1.2,2.5,2.5v10.7c0,1.3-1,2.5-2.5,2.5h-38.7v21.5h32.3
		c1.3,0,2.5,1.2,2.5,2.5v10.9c0,1.4-1.2,2.5-2.5,2.5h-32.3v22.9h38.7c1.4,0,2.5,1.2,2.5,2.5v10.7c0,1.3-1,2.5-2.5,2.5h-53.3
		c-1.4,0-2.5-1.2-2.5-2.5V2627.2z"/>
	<path class="st6" d="M3551,2627.2c0-1.3,1-2.5,2.5-2.5h37.4c15.7,0,28.5,12.6,28.5,28.1c0,12-8,21.9-19.4,26.4l17.9,33.2
		c0.9,1.7,0,3.8-2.2,3.8h-13.7c-1.2,0-1.8-0.7-2.1-1.2l-17.4-34.7h-14.5v33.4c0,1.3-1.2,2.5-2.5,2.5h-12c-1.4,0-2.5-1.2-2.5-2.5
		V2627.2z M3589.5,2666.5c6.9,0,13-6,13-13.3c0-6.9-6-12.7-13-12.7h-21.3v26H3589.5z"/>
	<path class="st6" d="M3626.3,2712.9l40.7-88.1c0.4-0.8,1-1.4,2.2-1.4h1.3c1.3,0,1.8,0.7,2.2,1.4l40.3,88.1c0.8,1.7-0.3,3.4-2.2,3.4
		h-11.4c-2,0-2.9-0.8-3.8-2.6l-6.4-14.1h-39.1l-6.4,14.1c-0.5,1.3-1.7,2.6-3.8,2.6h-11.4C3626.6,2716.3,3625.5,2714.6,3626.3,2712.9
		z M3682.8,2685l-13.1-28.8h-0.4l-12.8,28.8H3682.8z"/>
	<path class="st6" d="M3732.4,2640.4h-20c-1.4,0-2.5-1.2-2.5-2.5v-10.7c0-1.3,1-2.5,2.5-2.5h57.2c1.4,0,2.5,1.2,2.5,2.5v10.7
		c0,1.3-1,2.5-2.5,2.5h-20v73.4c0,1.3-1.2,2.5-2.5,2.5h-12.2c-1.3,0-2.5-1.2-2.5-2.5V2640.4z"/>
	<path class="st6" d="M3785.7,2627.2c0-1.3,1.2-2.5,2.5-2.5h12.2c1.3,0,2.5,1.2,2.5,2.5v86.6c0,1.3-1.2,2.5-2.5,2.5h-12.2
		c-1.3,0-2.5-1.2-2.5-2.5V2627.2z"/>
	<path class="st6" d="M3867.1,2623.4c26.2,0,47.1,21.1,47.1,47.2c0,26.2-20.9,47-47.1,47c-26.2,0-47-20.8-47-47
		C3820.1,2644.5,3840.9,2623.4,3867.1,2623.4z M3867.1,2700.6c16.5,0,30.1-13.5,30.1-30s-13.6-30.2-30.1-30.2s-30,13.7-30,30.2
		S3850.6,2700.6,3867.1,2700.6z"/>
	<path class="st6" d="M3931.4,2625.8c0-1.3,1.2-2.4,2.5-2.4h3.3l54.4,57.8h0.1v-54c0-1.3,1-2.5,2.5-2.5h12c1.3,0,2.5,1.2,2.5,2.5
		v88.1c0,1.3-1.2,2.4-2.5,2.4h-3.1l-54.7-60.1h-0.1v56.3c0,1.3-1,2.5-2.5,2.5h-11.9c-1.3,0-2.5-1.2-2.5-2.5V2625.8z"/>
	<path class="st6" d="M4027.2,2703.5l4.7-8.1c1-1.8,3.3-1.8,4.4-0.9c0.7,0.4,11.3,8.1,19.8,8.1c6.8,0,11.9-4.5,11.9-10.1
		c0-6.7-5.6-11.3-16.6-15.7c-12.3-5-24.6-12.8-24.6-28.3c0-11.6,8.6-25.1,29.4-25.1c13.3,0,23.6,6.8,26.2,8.8c1.3,0.8,1.7,3,0.8,4.3
		l-5,7.5c-1,1.6-3,2.6-4.6,1.6c-1-0.7-11-7.2-18.2-7.2c-7.5,0-11.5,5-11.5,9.2c0,6.2,4.8,10.3,15.4,14.7
		c12.7,5.1,27.4,12.7,27.4,29.6c0,13.5-11.6,25.9-30.1,25.9c-16.5,0-26.2-7.7-28.8-10.2C4026.6,2706.2,4026,2705.6,4027.2,2703.5z"
		/>
</g>
</svg>
