<?xml version="1.0" encoding="utf-8"?>
<!-- Generator: Adobe Illustrator 22.1.0, SVG Export Plug-In . SVG Version: 6.00 Build 0)  -->
<svg version="1.1" id="Capa_1" xmlns="http://www.w3.org/2000/svg" xmlns:xlink="http://www.w3.org/1999/xlink" x="0px" y="0px"
	 viewBox="0 0 81.3 20.8" style="enable-background:new 0 0 81.3 20.8;" xml:space="preserve">
<style type="text/css">
	.st0{fill:#C33B26;}
	.st1{fill:#003E7B;}
	.st2{fill:#FFFFFF;}
</style>
<g>
	<g>
		<path class="st0" d="M81.3,0H22c0,0,0,0,0,0c-2.3,2.9-3.7,6.5-3.7,10.5c0,3.9,1.3,7.4,3.5,10.3h59.5L81.3,0L81.3,0z"/>
		<path class="st1" d="M19.6,0.1c0,0,0-0.1,0.1-0.1H0v20.8h19.5c-1.9-2.9-3.1-6.5-3.1-10.3C16.4,6.7,17.6,3.1,19.6,0.1"/>
		<path class="st2" d="M7.2,16.8c-2.2-0.4-4-1.9-4.8-3.9h5.9V12H2.9c1.2-1.4,1.8-3.1,1.8-5c0-0.4,0-0.8-0.1-1.2h7.5
			c0.9,1.3,1.3,2.8,1.3,4.4c0,0.6-0.1,1.2-0.2,1.8H9.1v0.9h5c-0.5,1.3-1.5,2.3-2.6,3.1c0,0,0,0,0,0c0-0.3-0.1-0.7-0.3-0.9
			c-0.1-0.2-0.4-0.3-0.7-0.3c-0.4,0-0.7,0.3-0.8,0.6c-0.3,0.9-1.2,1.5-2.2,1.5C7.4,16.8,7.3,16.8,7.2,16.8 M7.5,16.1
			c0.7,0,1.3-0.4,1.5-1.1c0.2-0.6,0.8-1,1.5-1c0.4,0,0.9,0.2,1.2,0.6c0.1,0.1,0.1,0.1,0.1,0.3c0.4-0.4,0.9-0.8,1.2-1.3H3.4
			c0.9,1.4,2.2,2.3,3.9,2.6l0,0l0,0l0,0C7.4,16.1,7.5,16.1,7.5,16.1 M5.4,7c0,1.6-0.4,3.1-1.2,4.4h8.6c0.1-0.4,0.1-0.8,0.1-1.2
			c0-1.3-0.4-2.6-1-3.7H5.4C5.4,6.6,5.4,6.8,5.4,7"/>
		<path class="st2" d="M7.8,5.2C7.5,5.2,6.6,5,6.4,4.7c0.4,0.2,1.2,0,1.5-0.1C8,4.4,8.5,3.9,9.1,4v1.3C8.7,5,7.9,5.2,7.8,5.2"/>
		<path class="st2" d="M8.1,10.3C8.3,10,8.4,9.7,8.4,9.5c0-0.1,0-0.1-0.1-0.2c-0.2-0.1-0.6,0-1,0.3V8.2c0.4,0.3,0.8,0.5,1,0.3
			c0,0,0.1-0.1,0.1-0.2c0-0.2-0.1-0.5-0.4-0.7h1.4C9.2,7.9,9.1,8.2,9.1,8.4c0,0.1,0,0.1,0.1,0.2c0.1,0.1,0.6,0,1-0.3v1.4
			c-0.4-0.3-0.8-0.5-1-0.3c0,0-0.1,0.1-0.1,0.2c0,0.2,0.1,0.5,0.4,0.7L8.1,10.3L8.1,10.3z"/>
		<path class="st2" d="M43.8,3.8v0.8h0.1c0.3,0,0.4,0,0.5-0.1c0.1-0.1,0.1-0.1,0.1-0.3c0-0.1,0-0.2-0.1-0.3s-0.3-0.1-0.5-0.1
			L43.8,3.8L43.8,3.8z M43.8,2.6v0.6h0.1c0.1,0,0.3,0,0.3-0.1c0.1-0.1,0.1-0.1,0.1-0.2c0-0.1,0-0.1-0.1-0.2c-0.1,0-0.1-0.1-0.3-0.1
			L43.8,2.6L43.8,2.6z M43.2,5.1V2.1h0.5c0.3,0,0.5,0,0.6,0c0.2,0,0.3,0.1,0.4,0.3c0.1,0.1,0.1,0.3,0.1,0.4c0,0.1,0,0.2-0.1,0.3
			c0,0.1-0.1,0.2-0.2,0.3c0.2,0.1,0.3,0.2,0.4,0.3c0.1,0.1,0.1,0.3,0.1,0.4c0,0.2,0,0.3-0.1,0.5c-0.1,0.1-0.2,0.3-0.3,0.3
			C44.5,5,44.3,5,44,5L43.2,5.1L43.2,5.1L43.2,5.1z"/>
		<path class="st2" d="M46.7,2.9l-0.4,1h0.8L46.7,2.9z M46.4,2.1H47l1.2,3.1h-0.6l-0.2-0.6h-1.2l-0.3,0.6h-0.6L46.4,2.1z"/>
		<polygon class="st2" points="48.6,2.1 49.1,2.1 50.3,4 50.3,2.1 50.8,2.1 50.8,5.1 50.3,5.1 49.2,3.2 49.2,5.1 48.6,5.1 		"/>
		<path class="st2" d="M54.2,2.6L53.8,3c-0.3-0.3-0.6-0.4-0.9-0.4c-0.3,0-0.5,0.1-0.7,0.3c-0.2,0.2-0.3,0.4-0.3,0.7
			c0,0.2,0,0.4,0.1,0.5s0.2,0.3,0.4,0.4c0.1,0.1,0.3,0.1,0.5,0.1c0.1,0,0.3,0,0.4-0.1c0.1-0.1,0.3-0.2,0.4-0.3l0.4,0.4
			c-0.2,0.2-0.4,0.4-0.6,0.4c-0.2,0.1-0.4,0.1-0.7,0.1c-0.5,0-0.9-0.1-1.2-0.4c-0.3-0.3-0.4-0.7-0.4-1.2c0-0.3,0.1-0.6,0.2-0.8
			c0.1-0.2,0.3-0.4,0.6-0.6C52.3,2.1,52.5,2,52.8,2c0.3,0,0.5,0,0.7,0.1C53.8,2.3,54,2.4,54.2,2.6"/>
		<path class="st2" d="M56.1,2.6c-0.3,0-0.5,0.1-0.7,0.3c-0.2,0.2-0.3,0.4-0.3,0.7c0,0.3,0.1,0.6,0.4,0.8c0.2,0.1,0.4,0.2,0.6,0.2
			c0.3,0,0.5-0.1,0.7-0.3c0.2-0.2,0.3-0.4,0.3-0.7S57,3.1,56.8,2.8C56.6,2.6,56.4,2.6,56.1,2.6 M56.1,2c0.4,0,0.8,0.1,1.1,0.5
			c0.3,0.3,0.4,0.7,0.4,1.1s-0.1,0.8-0.4,1.1c-0.3,0.3-0.7,0.4-1.1,0.4c-0.4,0-0.8-0.1-1.1-0.5c-0.3-0.3-0.4-0.7-0.4-1.1
			c0-0.3,0.1-0.6,0.2-0.8c0.1-0.3,0.3-0.4,0.6-0.6C55.6,2.1,55.8,2,56.1,2"/>
		<path class="st2" d="M30.1,7.9l-1,1c-0.7-0.7-1.5-1.1-2.4-1.1c-0.7,0-1.4,0.3-1.9,0.8C24.3,9.1,24,9.7,24,10.4
			c0,0.5,0.1,1,0.3,1.4c0.2,0.4,0.6,0.7,1,1c0.4,0.2,0.9,0.3,1.4,0.3c0.4,0,0.8-0.1,1.2-0.2c0.4-0.1,0.7-0.4,1.2-0.9l1,1
			c-0.6,0.6-1.1,1-1.6,1.2c-0.5,0.2-1.1,0.3-1.8,0.3c-1.2,0-2.2-0.4-3-1.2c-0.8-0.8-1.2-1.8-1.2-2.9c0-0.8,0.2-1.5,0.5-2.1
			c0.3-0.6,0.9-1.1,1.5-1.5c0.7-0.4,1.4-0.6,2.1-0.6c0.6,0,1.3,0.1,1.9,0.4C29.2,7,29.7,7.4,30.1,7.9"/>
		<path class="st2" d="M35.1,7.8c-0.7,0-1.3,0.3-1.8,0.7c-0.5,0.5-0.7,1.2-0.7,1.9c0,0.9,0.3,1.6,0.9,2.1c0.5,0.4,1,0.6,1.6,0.6
			c0.7,0,1.3-0.3,1.8-0.8c0.5-0.5,0.7-1.2,0.7-1.9c0-0.7-0.3-1.4-0.7-1.9C36.4,8.1,35.8,7.8,35.1,7.8 M35.2,6.3
			c1.1,0,2.1,0.4,2.8,1.2c0.8,0.8,1.2,1.8,1.2,2.9c0,1.2-0.4,2.1-1.2,2.9c-0.8,0.8-1.8,1.2-2.9,1.2c-1.2,0-2.2-0.4-2.9-1.2
			c-0.8-0.8-1.2-1.8-1.2-2.9c0-0.7,0.2-1.4,0.6-2.1c0.4-0.6,0.9-1.1,1.5-1.5C33.8,6.5,34.4,6.3,35.2,6.3"/>
		<polygon class="st2" points="40.6,6.5 42.1,6.5 42.1,12.9 44.3,12.9 44.3,14.4 40.6,14.4 		"/>
		<path class="st2" d="M45.4,6.5h1.5v5.1c0,0.4,0,0.7,0.1,0.9c0.1,0.2,0.2,0.3,0.4,0.4c0.2,0.1,0.4,0.1,0.6,0.1
			c0.3,0,0.5-0.1,0.7-0.2c0.2-0.1,0.3-0.3,0.4-0.4c0.1-0.2,0.1-0.6,0.1-1.1V6.5h1.5v4.7c0,0.8,0,1.3-0.1,1.6
			c-0.1,0.3-0.3,0.6-0.5,0.9c-0.3,0.3-0.6,0.5-0.9,0.6c-0.3,0.1-0.7,0.2-1.2,0.2c-0.6,0-1.1-0.1-1.5-0.4c-0.4-0.3-0.7-0.6-0.9-1
			c-0.2-0.4-0.3-1-0.3-2L45.4,6.5L45.4,6.5z"/>
		<polyline class="st2" points="60.5,12.9 60.7,14.4 59.3,14.4 58.4,9.4 56.8,14.4 55.5,14.4 53.8,9.4 52.9,14.4 51.5,14.4 
			52.9,6.5 54.3,6.5 56.1,12 57.9,6.5 59.4,6.5 60.5,12.9 		"/>
		<path class="st2" d="M63.5,10.9v2h0.4c0.6,0,1-0.1,1.3-0.2c0.2-0.1,0.3-0.4,0.3-0.7c0-0.3-0.1-0.6-0.4-0.8
			c-0.3-0.2-0.7-0.3-1.3-0.3L63.5,10.9L63.5,10.9z M63.5,8v1.6h0.3c0.4,0,0.6-0.1,0.8-0.2c0.2-0.1,0.3-0.4,0.3-0.6
			c0-0.2-0.1-0.4-0.3-0.6C64.5,8.1,64.2,8,63.9,8H63.5z M62,14.4V6.5h1.2c0.7,0,1.2,0,1.6,0.1c0.5,0.1,0.9,0.3,1.1,0.7
			s0.4,0.7,0.4,1.2c0,0.3-0.1,0.6-0.2,0.8C66,9.6,65.8,9.8,65.5,10c0.5,0.2,0.8,0.5,1,0.9c0.2,0.3,0.3,0.7,0.3,1.2
			c0,0.4-0.1,0.9-0.3,1.2c-0.2,0.4-0.5,0.6-0.9,0.8c-0.4,0.2-0.9,0.3-1.5,0.3H62z"/>
		<rect x="68.1" y="6.5" class="st2" width="1.5" height="7.8"/>
		<path class="st2" d="M74.5,8.6l-1.1,2.7h2.1L74.5,8.6z M73.7,6.5h1.5l3,7.8h-1.6l-0.6-1.6h-3.2l-0.6,1.6h-1.6L73.7,6.5z"/>
		<path class="st2" d="M18.2,10.5c0-4,1.4-7.6,3.7-10.5h-2.3c-2.1,3-3.3,6.6-3.3,10.5c0,3.8,1.2,7.4,3.2,10.4h2.3
			C19.5,18,18.2,14.4,18.2,10.5"/>
	</g>
</g>
</svg>
