<?xml version="1.0" encoding="utf-8"?>
<!-- Generator: Adobe Illustrator 26.0.3, SVG Export Plug-In . SVG Version: 6.00 Build 0)  -->
<svg version="1.1"
	 id="svg1" xmlns:inkscape="http://www.inkscape.org/namespaces/inkscape" xmlns:sodipodi="http://sodipodi.sourceforge.net/DTD/sodipodi-0.dtd" xmlns:svg="http://www.w3.org/2000/svg"
	 xmlns="http://www.w3.org/2000/svg" xmlns:xlink="http://www.w3.org/1999/xlink" x="0px" y="0px" viewBox="0 0 128.9 19.8"
	 style="enable-background:new 0 0 128.9 19.8;" xml:space="preserve">
<style type="text/css">
	.st0{fill:#1CA2CA;}
	.st1{fill:#F28F2F;}
</style>
<g id="layer1" transform="translate(-61.647917,-116.94583)" inkscape:groupmode="layer" inkscape:label="Capa 1">
	<g id="Logo_3_" transform="matrix(0.26458333,0,0,0.26458333,53.945896,109.12475)">
		<path id="path1" class="st0" d="M150,30.7c12,0,18.7,8.5,18.7,18.5c0,8.9-3.3,14.9-9.6,17.6c7.4,2.5,11.4,9.3,11.4,17
			c0,12.7-6.8,19.6-18.9,19.6h-28.9V30.7H150z M129.5,97.2h20.8c8.7,0,13.4-4.8,13.4-14c0-7.2-4.6-13.1-13.3-13.1h-21L129.5,97.2z
			 M148.5,63.9c8.7,0,13.4-4.8,13.4-14c0-7.2-4.6-13.1-13.3-13.1h-19.1v27.1L148.5,63.9z"/>
		<rect id="rect2" x="184.2" y="30.7" class="st0" width="6.5" height="72.6"/>
		<path id="path2" class="st0" d="M238.9,103.3l-0.1-2.7c-4.5,2.4-9.8,3.5-14.9,3.5c-10.3,0-20-4.5-20-17.6V51.3h6.5v35
			c0,9,6.2,12.6,14.2,12.6c4.6,0,9.3-1.1,12.9-2.9V51.3h6.5v52H238.9z"/>
		<path id="path3" class="st0" d="M256.3,69.2c0-12,7.8-18.8,20.2-18.8c12.6,0,19,7.2,19,18.6v10.5h-32.8v8.6
			c0,7.8,5,11.1,12.6,11.1c5.5,0,10.2-1.5,14.2-4.2l3.6,3.3c-4.5,3.7-10.5,6.1-18.2,6.1c-12,0-18.5-6.6-18.5-16.9L256.3,69.2
			L256.3,69.2z M289.3,68.8c0-9.9-6.7-13-13-13c-6.9,0-13.5,3.4-13.5,13.2v6h26.5L289.3,68.8L289.3,68.8z"/>
		<path id="path4" class="st0" d="M333.8,30.7c16.7,0,25.1,10.5,25.1,24.3v26.7c0,16.7-11,21.7-23.2,21.7h-26.1V30.7H333.8z
			 M316.3,97.2h19.4c9.4,0,16.4-3.4,16.4-15.6V55c0-10.8-6.1-18.2-18.3-18.2h-17.4L316.3,97.2L316.3,97.2z"/>
		<path id="path5" class="st0" d="M379.1,58.6c3.1-5.7,8.4-8.2,15.8-8.2c2.1,0,4.1,0.2,6,0.7l-0.4,5.5c-2.4-0.6-4.8-0.9-6.9-0.7
			c-8.8,0.2-13.5,5.4-13.5,15.2v32.3h-6.5V51h5.3L379.1,58.6z"/>
		<path id="path6" class="st0" d="M409.8,55.4c3.4-2.8,8.5-4.9,16-4.9c19.6,0,21.8,11,21.8,21.8v31.3h-5.3l-0.1-2.7
			c-4.3,2.4-9.7,3.6-14.8,3.6c-11.2-0.3-20.9-4.6-20.9-18c0-14.1,10.8-17.5,22.3-17.5c3.7,0,8.1,0.5,12.3,1
			C441,62.8,438.9,56,425.2,56c-5,0-9,1.2-12,3L409.8,55.4z M441.1,74.6c-3.8-0.5-7.7-0.9-11.4-0.9c-9.2,0-17,2.6-17,12.7
			c0,9.7,7,12.7,15.7,12.7c4.5,0,9.2-1.1,12.7-3L441.1,74.6L441.1,74.6z"/>
		<path id="path7" class="st0" d="M461.9,46.8c0-13,8.6-17.2,16.8-17.2c1.5,0,3,0.1,4.5,0.4v5.4c-1.7-0.3-3.3-0.4-4.4-0.3
			c-5.5,0.2-10.3,3.7-10.3,12.4v3.8h13.7v5.2h-13.7v46.7h-6.5V46.8z"/>
		<path id="path8" class="st0" d="M513.2,51.3v5.5h-13.7v25.9c0,8.4,3.4,13.5,9.8,15.4c2,0.6,4.4,0.9,7.2,0.7v5.5
			c-2.8,0.1-5.4-0.1-7.9-0.6c-8.9-1.8-15.6-8-15.6-20V38.7h6.5v12.6L513.2,51.3z"/>
		<path id="path9" class="st1" d="M61.3,45.9c0,8.9-7.2,16.1-16.1,16.1s-16.1-7.2-16.1-16.1c0-8.9,7.2-16.1,16.1-16.1
			S61.3,37,61.3,45.9"/>
		<path id="path10" class="st0" d="M101.7,45.9c0,8.9-7.2,16.1-16.1,16.1s-16.1-7.2-16.1-16.1c0-8.9,7.2-16.1,16.1-16.1
			C94.5,29.8,101.7,37,101.7,45.9"/>
		<path id="path11" class="st1" d="M101.7,87.2c0,8.9-7.2,16.1-16.1,16.1s-16.1-7.2-16.1-16.1c0-8.9,7.2-16.1,16.1-16.1
			C94.5,71.1,101.7,78.3,101.7,87.2"/>
	</g>
</g>
</svg>
