<svg xmlns="http://www.w3.org/2000/svg" viewBox="0 0 316.08 43"><title>Asset 22</title><path d="M102.65,6.82a.38.38,0,0,1,.14.3,1,1,0,0,1-.18.53,3.05,3.05,0,0,1-1.14,1.12,3.38,3.38,0,0,1-4.77-1.68,5.74,5.74,0,0,1-.43-2.31,4.82,4.82,0,0,1,.94-3.17A3.25,3.25,0,0,1,99.85.48a3.69,3.69,0,0,1,1.47.29,2.74,2.74,0,0,1,1.07.78,1.67,1.67,0,0,1,.4,1.08.9.9,0,0,1-.2.61.76.76,0,0,1-1,0,.64.64,0,0,1-.2-.48.71.71,0,0,1,.25-.57,1.45,1.45,0,0,0-.69-.58,2.53,2.53,0,0,0-1-.21q-2.5,0-2.5,3.35A4.32,4.32,0,0,0,98,7.31a2.15,2.15,0,0,0,1.87.88A2.31,2.31,0,0,0,101,7.92a2.17,2.17,0,0,0,.81-.85.83.83,0,0,1,.2-.29.41.41,0,0,1,.25-.07.53.53,0,0,1,.35.12"></path><path d="M106.08,8.63a3.33,3.33,0,0,1-1.27-1.47,5.27,5.27,0,0,1-.45-2.25,5.48,5.48,0,0,1,.47-2.34A3.58,3.58,0,0,1,106.17,1a3.71,3.71,0,0,1,2-.55,3.65,3.65,0,0,1,2,.51,3.33,3.33,0,0,1,1.28,1.46,5.24,5.24,0,0,1,.45,2.24A5.51,5.51,0,0,1,111.4,7a3.57,3.57,0,0,1-1.34,1.55,3.7,3.7,0,0,1-2,.55,3.63,3.63,0,0,1-2-.51m4-1.35a4.12,4.12,0,0,0,.71-2.58,3.87,3.87,0,0,0-.66-2.43,2.29,2.29,0,0,0-1.91-.84,2.39,2.39,0,0,0-2,.91,4.09,4.09,0,0,0-.71,2.57,3.89,3.89,0,0,0,.66,2.44,2.29,2.29,0,0,0,1.91.84,2.38,2.38,0,0,0,2-.91"></path><path d="M121.05.92v.3q0,.33-.39.33h-.31v7a.44.44,0,0,1-.12.32.41.41,0,0,1-.31.13h-.41a.39.39,0,0,1-.31-.17l-4.07-6.39V8.07h.31q.4,0,.4.33v.3q0,.32-.4.32h-1.61q-.4,0-.4-.32V8.4q0-.33.4-.33h.31V1.55h-.31q-.4,0-.4-.33V.92q0-.32.4-.32H115a.4.4,0,0,1,.32.17l4.07,6.39V1.55H119q-.39,0-.39-.33V.92q0-.32.39-.32h1.63q.38,0,.39.32"></path><path d="M130.08.92v.3q0,.33-.39.33h-.31v7a.44.44,0,0,1-.12.32A.41.41,0,0,1,129,9h-.41a.39.39,0,0,1-.31-.17l-4.07-6.39V8.07h.31q.4,0,.4.33v.3q0,.32-.4.32h-1.61q-.4,0-.4-.32V8.4q0-.33.4-.33h.31V1.55h-.31q-.4,0-.4-.33V.92q0-.32.4-.32H124a.4.4,0,0,1,.32.17l4.07,6.39V1.55h-.32q-.39,0-.39-.33V.92q0-.32.39-.32h1.63q.38,0,.39.32"></path><path d="M137.64,6.9a.45.45,0,0,1,.08.3V8.55a.45.45,0,0,1-.14.33.47.47,0,0,1-.34.14h-5.36q-.4,0-.4-.32V8.4q0-.32.4-.32h.31V1.55h-.31q-.4,0-.4-.33V.92q0-.32.4-.32h5.3a.45.45,0,0,1,.34.14.48.48,0,0,1,.13.34V2.2q0,.4-.31.4H137q-.31,0-.31-.4V1.55h-3.43V4.18h2.65a.35.35,0,0,1,.35.35v.25a.35.35,0,0,1-.35.35h-2.65V8.07h3.49V7.19q0-.4.33-.4h.3a.29.29,0,0,1,.24.1"></path><path d="M145.75,6.82a.38.38,0,0,1,.14.3,1,1,0,0,1-.18.53,3.05,3.05,0,0,1-1.14,1.12,3.38,3.38,0,0,1-4.77-1.68,5.74,5.74,0,0,1-.43-2.31,4.82,4.82,0,0,1,.95-3.17A3.25,3.25,0,0,1,143,.48a3.69,3.69,0,0,1,1.47.29,2.74,2.74,0,0,1,1.07.78,1.67,1.67,0,0,1,.4,1.08.9.9,0,0,1-.2.61.76.76,0,0,1-1,0,.64.64,0,0,1-.2-.48.71.71,0,0,1,.25-.57,1.44,1.44,0,0,0-.69-.58,2.53,2.53,0,0,0-1-.21q-2.5,0-2.5,3.35a4.32,4.32,0,0,0,.63,2.53,2.15,2.15,0,0,0,1.87.88,2.31,2.31,0,0,0,1.16-.28,2.17,2.17,0,0,0,.81-.85.83.83,0,0,1,.2-.29.41.41,0,0,1,.25-.07.53.53,0,0,1,.35.12"></path><path d="M153.91.74a.47.47,0,0,1,.14.34V2.37q0,.4-.33.4h-.3q-.32,0-.32-.4V1.55h-1.82V8.07h.31q.4,0,.4.33v.3q0,.32-.4.33h-1.71q-.39,0-.39-.33V8.4q0-.33.39-.33h.31V1.55h-1.82v.82q0,.4-.32.4h-.3q-.33,0-.33-.4V1.08a.48.48,0,0,1,.13-.34A.45.45,0,0,1,147.9.6h5.67a.47.47,0,0,1,.34.14"></path><path d="M164.74,5.17a2,2,0,0,1,.43,1.3,2.21,2.21,0,0,1-.9,1.88,4.15,4.15,0,0,1-2.53.67h-2.61q-.4,0-.4-.32V8.4q0-.32.4-.32h.31V1.55h-.31q-.4,0-.4-.33V.92q0-.33.4-.32h2.74q2.91,0,2.91,2a1.86,1.86,0,0,1-.32,1.08,2.39,2.39,0,0,1-.94.77,2.23,2.23,0,0,1,1.22.73m-4.22-3.62V4.16h1.2a2.49,2.49,0,0,0,1.45-.36,1.18,1.18,0,0,0,.5-1,1,1,0,0,0-.45-.94,2.89,2.89,0,0,0-1.48-.28Zm2.95,6.14a1.37,1.37,0,0,0,.59-1.24q0-1.34-2-1.34h-1.53v3h1.06a3.56,3.56,0,0,0,1.89-.39"></path><path d="M174.07.92v.3q0,.33-.4.33h-.31L170.8,5.8V8.07h.31q.4,0,.4.33v.3q0,.32-.4.32H169.4q-.4,0-.4-.32V8.4q0-.33.4-.33h.31V5.8l-2.56-4.25h-.31q-.4,0-.4-.33V.92q0-.32.4-.32h1.85q.39,0,.39.32v.3q0,.33-.39.33h-.31l1.94,3.24,1.94-3.24h-.32q-.39,0-.39-.33V.92q0-.32.39-.32h1.75q.4,0,.4.32"></path><path d="M113.82,36.48a1.15,1.15,0,0,1,.45.92,2.67,2.67,0,0,1-.55,1.53,7.29,7.29,0,0,1-2.82,2.72,9,9,0,0,1-4.19.88,9.09,9.09,0,0,1-4.87-1.29,8.64,8.64,0,0,1-3.25-3.64,12.09,12.09,0,0,1-1.15-5.4,11.5,11.5,0,0,1,1.15-5.28,8.39,8.39,0,0,1,3.23-3.5,9.24,9.24,0,0,1,4.81-1.23,9.84,9.84,0,0,1,4,.78,6.36,6.36,0,0,1,2.74,2.21,5.58,5.58,0,0,1,1,3.23,2.68,2.68,0,0,1-.67,1.92A2.31,2.31,0,0,1,112,31a2.24,2.24,0,0,1-1.62-.63,2.09,2.09,0,0,1-.65-1.56,2.25,2.25,0,0,1,.74-1.76A3.07,3.07,0,0,0,109,25.7a5.72,5.72,0,0,0-2.45-.47,4.91,4.91,0,0,0-4.09,1.8A8.07,8.07,0,0,0,101,32.15a8.42,8.42,0,0,0,1.55,5.36,5.15,5.15,0,0,0,4.28,2,5.8,5.8,0,0,0,2.74-.55,5.5,5.5,0,0,0,1.92-2,2.37,2.37,0,0,1,.61-.67,1.21,1.21,0,0,1,.68-.2,1.58,1.58,0,0,1,1,.37"></path><path d="M118.22,41.07v-1q0-1.06,1.25-1.06h1V25.66h-1q-1.25,0-1.25-1.06v-1q0-1.06,1.25-1.06h3.09A1.4,1.4,0,0,1,124,24V39h1q1.29,0,1.29,1.06v1q0,1.06-1.29,1.06h-5.56q-1.25,0-1.25-1.06m1.57-23a2.5,2.5,0,0,1-.74-1.84,2.43,2.43,0,0,1,.74-1.82,2.53,2.53,0,0,1,1.84-.72,2.47,2.47,0,0,1,2.54,2.54,2.53,2.53,0,0,1-.72,1.84,2.43,2.43,0,0,1-1.82.74,2.5,2.5,0,0,1-1.84-.74"></path><path d="M143.69,22.9a2.55,2.55,0,0,1,.82,2,2.35,2.35,0,0,1-.67,1.7,2.29,2.29,0,0,1-1.72.68,2.24,2.24,0,0,1-1.56-.57,2.15,2.15,0,0,1-.7-1.47,3.59,3.59,0,0,0-2.23,1.15A7.47,7.47,0,0,0,136,29.08a9.81,9.81,0,0,0-.61,3.46V39h1.84q1.29,0,1.29,1.06v1q0,1.06-1.29,1.06h-6.38q-1.25,0-1.25-1.06v-1q0-1.06,1.25-1.06h1V25.66h-1q-1.25,0-1.25-1.06v-1q0-1.06,1.25-1.06H134A1.4,1.4,0,0,1,135.4,24v3.44a8.08,8.08,0,0,1,2.29-3.85,5.25,5.25,0,0,1,3.62-1.43,3.51,3.51,0,0,1,2.39.72"></path><path d="M163.43,36.48a1.15,1.15,0,0,1,.45.92,2.67,2.67,0,0,1-.55,1.53,7.29,7.29,0,0,1-2.82,2.72,9,9,0,0,1-4.19.88,9.09,9.09,0,0,1-4.87-1.29,8.64,8.64,0,0,1-3.25-3.64,12.08,12.08,0,0,1-1.15-5.4,11.5,11.5,0,0,1,1.15-5.28,8.39,8.39,0,0,1,3.23-3.5,9.24,9.24,0,0,1,4.81-1.23,9.83,9.83,0,0,1,4,.78A6.36,6.36,0,0,1,163,25.17a5.58,5.58,0,0,1,1,3.23,2.68,2.68,0,0,1-.67,1.92,2.31,2.31,0,0,1-1.76.7,2.24,2.24,0,0,1-1.62-.63,2.09,2.09,0,0,1-.65-1.56,2.25,2.25,0,0,1,.74-1.76,3.07,3.07,0,0,0-1.47-1.37,5.72,5.72,0,0,0-2.45-.47A4.91,4.91,0,0,0,152,27a8.07,8.07,0,0,0-1.43,5.13,8.43,8.43,0,0,0,1.55,5.36,5.15,5.15,0,0,0,4.28,2,5.8,5.8,0,0,0,2.74-.55,5.5,5.5,0,0,0,1.92-2,2.37,2.37,0,0,1,.61-.67,1.21,1.21,0,0,1,.68-.2,1.58,1.58,0,0,1,1,.37"></path><path d="M188,40.1v1q0,1.06-1.25,1.06h-3.09a1.41,1.41,0,0,1-1.45-1.45V37.75a8.13,8.13,0,0,1-2.64,3.42,6.15,6.15,0,0,1-3.78,1.35,5.46,5.46,0,0,1-4.75-2.15q-1.55-2.15-1.55-6.61v-8.1h-1q-1.25,0-1.25-1.06v-1q0-1.06,1.25-1.06h3.17a1.31,1.31,0,0,1,1,.41,1.41,1.41,0,0,1,.41,1v9.19a16.11,16.11,0,0,0,.33,3.72,3.34,3.34,0,0,0,1.13,1.94,3.51,3.51,0,0,0,2.17.61,4.52,4.52,0,0,0,2.7-.94A6.82,6.82,0,0,0,181.45,36a7.05,7.05,0,0,0,.78-3.23V25.66h-1q-1.29,0-1.29-1.06v-1q0-1.06,1.29-1.06h3.13a1.34,1.34,0,0,1,1,.41,1.45,1.45,0,0,1,.39,1V39h1Q188,39,188,40.1"></path><path d="M191.11,41.07v-1q0-1.06,1.29-1.06h1V16.27h-1q-1.29,0-1.29-1.06v-1q0-1.06,1.29-1.06h3.09a1.36,1.36,0,0,1,1,.41,1.41,1.41,0,0,1,.41,1V39h1q1.29,0,1.29,1.06v1q0,1.06-1.29,1.06H192.4q-1.29,0-1.29-1.06"></path><path d="M220.89,40.1v1q0,1.06-1.25,1.06h-3.13a1.36,1.36,0,0,1-1-.41,1.4,1.4,0,0,1-.41-1V38.22a7.21,7.21,0,0,1-6.42,4.3,6.19,6.19,0,0,1-4.42-1.58,5.51,5.51,0,0,1-1.68-4.21,5.1,5.1,0,0,1,1.86-4.23,8.3,8.3,0,0,1,5.3-1.49,24,24,0,0,1,5.36.63V29.88a5,5,0,0,0-1.13-3.6,4.7,4.7,0,0,0-3.52-1.17,4.41,4.41,0,0,0-2.74.7,2,2,0,0,1,.27,1A2.14,2.14,0,0,1,205.82,29a2.2,2.2,0,0,1-1.68-.67,2.52,2.52,0,0,1-.63-1.8,3.59,3.59,0,0,1,2-3.13,9.66,9.66,0,0,1,5.09-1.21,8,8,0,0,1,5.93,2.07,8,8,0,0,1,2.05,5.87V39h1.06q1.25,0,1.25,1.06m-8.63-1.23a6,6,0,0,0,2-2.15,6.22,6.22,0,0,0,.8-3,33.36,33.36,0,0,0-4.85-.27q-4.23,0-4.23,3.13a2.8,2.8,0,0,0,.94,2.25,3.78,3.78,0,0,0,2.54.8,5.07,5.07,0,0,0,2.76-.8"></path><path d="M238.14,22.9a2.55,2.55,0,0,1,.82,2,2.35,2.35,0,0,1-.67,1.7,2.29,2.29,0,0,1-1.72.68,2.24,2.24,0,0,1-1.56-.57,2.15,2.15,0,0,1-.7-1.47,3.59,3.59,0,0,0-2.23,1.15,7.47,7.47,0,0,0-1.62,2.66,9.81,9.81,0,0,0-.61,3.46V39h1.84Q233,39,233,40.1v1q0,1.06-1.29,1.06h-6.38q-1.25,0-1.25-1.06v-1q0-1.06,1.25-1.06h1V25.66h-1q-1.25,0-1.25-1.06v-1q0-1.06,1.25-1.06h3.09A1.4,1.4,0,0,1,229.85,24v3.44a8.08,8.08,0,0,1,2.29-3.85,5.25,5.25,0,0,1,3.62-1.43,3.51,3.51,0,0,1,2.39.72"></path><path d="M243.5,30.47a1.27,1.27,0,0,1-.35-.94v-.47a1.32,1.32,0,0,1,.35-1,1.44,1.44,0,0,1,1.06-.35H258a1.44,1.44,0,0,1,1.06.35,1.32,1.32,0,0,1,.35,1v.47a1.27,1.27,0,0,1-.35.94,1.44,1.44,0,0,1-1.06.35H244.56a1.43,1.43,0,0,1-1.06-.35"></path><path d="M264,41.07v-1Q264,39,265.29,39h1V16.27h-1q-1.29,0-1.29-1.06v-1q0-1.06,1.29-1.06h3.09a1.36,1.36,0,0,1,1,.41,1.41,1.41,0,0,1,.41,1V39h1q1.29,0,1.29,1.06v1q0,1.06-1.29,1.06h-5.52q-1.29,0-1.29-1.06"></path><path d="M293.78,40.1v1q0,1.06-1.25,1.06H289.4a1.36,1.36,0,0,1-1-.41,1.4,1.4,0,0,1-.41-1V38.22a7.21,7.21,0,0,1-6.42,4.3,6.19,6.19,0,0,1-4.42-1.58,5.51,5.51,0,0,1-1.68-4.21,5.1,5.1,0,0,1,1.86-4.23,8.3,8.3,0,0,1,5.3-1.49,24,24,0,0,1,5.36.63V29.88a5,5,0,0,0-1.13-3.6,4.7,4.7,0,0,0-3.52-1.17,4.41,4.41,0,0,0-2.74.7,2,2,0,0,1,.27,1A2.14,2.14,0,0,1,278.71,29a2.2,2.2,0,0,1-1.68-.67,2.52,2.52,0,0,1-.63-1.8,3.59,3.59,0,0,1,2-3.13,9.66,9.66,0,0,1,5.09-1.21,8,8,0,0,1,5.93,2.07,8,8,0,0,1,2.05,5.87V39h1.06q1.25,0,1.25,1.06m-8.63-1.23a6,6,0,0,0,2-2.15,6.22,6.22,0,0,0,.8-3,33.36,33.36,0,0,0-4.85-.27q-4.23,0-4.23,3.13a2.8,2.8,0,0,0,.94,2.25,3.78,3.78,0,0,0,2.54.8,5.07,5.07,0,0,0,2.76-.8"></path><path d="M312.38,23.39a7.73,7.73,0,0,1,2.74,3.46,13.35,13.35,0,0,1,1,5.26,11.65,11.65,0,0,1-2.29,7.63,7.74,7.74,0,0,1-6.32,2.78,6.61,6.61,0,0,1-3.29-.88,7.68,7.68,0,0,1-2.62-2.45l-.23,1.92q-.16,1.25-1.29,1.25h-.27a1.46,1.46,0,0,1-1-.35,1.4,1.4,0,0,1-.39-1.1V16.27h-1q-1.25,0-1.25-1.06v-1q0-1.06,1.25-1.06h3.13a1.34,1.34,0,0,1,1,.41,1.45,1.45,0,0,1,.39,1V26.4a6.58,6.58,0,0,1,2.52-3,6.79,6.79,0,0,1,3.85-1.19,7.16,7.16,0,0,1,4.13,1.21m-1.23,14.14a9.67,9.67,0,0,0,1.37-5.61A8,8,0,0,0,311.19,27a4.43,4.43,0,0,0-3.76-1.76,5,5,0,0,0-2.8.84,5.93,5.93,0,0,0-2,2.29,6.83,6.83,0,0,0-.74,3.17v5.09a7.7,7.7,0,0,0,2.43,2.11,5.9,5.9,0,0,0,2.86.74,4.58,4.58,0,0,0,4-1.94"></path><path d="M55,.39a20.68,20.68,0,0,0-7.81,2.56,21.79,21.79,0,0,0-6.47,5.59L27.57,24.2a2.83,2.83,0,0,0-.5,2,2.54,2.54,0,0,0,1.08,1.85,2.31,2.31,0,0,0,2,.55,2.56,2.56,0,0,0,1.81-1L45,11.92a15.62,15.62,0,0,1,4.88-4.17,16.82,16.82,0,0,1,5.87-2A15.55,15.55,0,0,1,67.5,9a15.24,15.24,0,0,1,4.12,4.84,17,17,0,0,1,1.9,5.83,15.51,15.51,0,0,1-.39,6.07,15.67,15.67,0,0,1-2.85,5.66,15.27,15.27,0,0,1-4.84,4.12,16.08,16.08,0,0,1-12,1.39,15.94,15.94,0,0,1-5.75-2.88,2.25,2.25,0,0,0-1.93-.56A2.4,2.4,0,0,0,44,34.62a2.33,2.33,0,0,0-.61,1.89,2.48,2.48,0,0,0,1.08,1.81,21.07,21.07,0,0,0,7.73,3.92,22.11,22.11,0,0,0,8.23.61,20.79,20.79,0,0,0,7.77-2.51,21.33,21.33,0,0,0,6.43-5.54,20.25,20.25,0,0,0,3.8-7.63A22.68,22.68,0,0,0,79,18.95a21.16,21.16,0,0,0-2.51-7.82,21.53,21.53,0,0,0-5.36-6.4A23.35,23.35,0,0,0,63.3,1,23,23,0,0,0,57.53.24,21.86,21.86,0,0,0,55,.39" style="fill:#fc766a"></path><path d="M18.72.14a20.8,20.8,0,0,0-7.77,2.51A21.32,21.32,0,0,0,4.51,8.2a20.23,20.23,0,0,0-3.8,7.63A23,23,0,0,0,0,21.43v.1a22.4,22.4,0,0,0,.15,2.52,21.17,21.17,0,0,0,2.51,7.82A21.53,21.53,0,0,0,8,38.27,23.37,23.37,0,0,0,15.87,42a22.56,22.56,0,0,0,8.28.61A20.68,20.68,0,0,0,32,40.05a21.78,21.78,0,0,0,6.47-5.59L51.6,18.8a2.83,2.83,0,0,0,.5-2A2.54,2.54,0,0,0,51,14.93a2.3,2.3,0,0,0-2-.55,2.55,2.55,0,0,0-1.81,1L34.14,31.07a15.64,15.64,0,0,1-4.88,4.17,16.82,16.82,0,0,1-5.87,2A15.55,15.55,0,0,1,11.68,34a15.25,15.25,0,0,1-4.12-4.83,17.05,17.05,0,0,1-1.9-5.83A15.54,15.54,0,0,1,8.89,11.58a15.25,15.25,0,0,1,4.84-4.12,16.08,16.08,0,0,1,12-1.39,15.93,15.93,0,0,1,5.75,2.88,2.25,2.25,0,0,0,1.93.56,2.4,2.4,0,0,0,1.76-1.12,2.32,2.32,0,0,0,.61-1.89,2.48,2.48,0,0,0-1.08-1.81A21.08,21.08,0,0,0,26.95.76,22.47,22.47,0,0,0,21.21,0a21.67,21.67,0,0,0-2.5.14" style="fill:#fc766a"></path></svg>