<svg xmlns="http://www.w3.org/2000/svg" viewBox="0 0 264.76 41.88"><defs><style>.cls-1,.cls-2{fill:#0f89dd;}.cls-2{fill-rule:evenodd;}.cls-3{fill:#777;}</style></defs><g id="home1"><path class="cls-1" d="M261.23,4.39a1.23,1.23,0,0,0,.95-1.27c0-.83-.63-1.27-1.58-1.27h-1.27V6.1h.76V4.39h.44l1.27,1.9.7-.19Zm-.63-.57H260V2.55h.64c.63,0,.76.31.76.63C261.36,3.69,261,3.82,260.6,3.82Z"/><path class="cls-1" d="M260.69,0a4.07,4.07,0,1,0,4.07,4.07A4.07,4.07,0,0,0,260.69,0Zm0,7.39A3.32,3.32,0,1,1,264,4.07,3.32,3.32,0,0,1,260.69,7.39Z"/><path class="cls-2" d="M13.81,9.92H4.66A9,9,0,0,1,7.1,5.49a5.35,5.35,0,0,1,3.6-1.37c1.53,0,2.52.46,3,1.38A5.8,5.8,0,0,1,14,9.11C14,9.28,13.9,9.56,13.81,9.92Zm3.9-.82a8.3,8.3,0,0,0-.35-4.3,5.23,5.23,0,0,0-2.27-2.68,7.28,7.28,0,0,0-3.65-.89A10.32,10.32,0,0,0,6.13,2.6,11.17,11.17,0,0,0,2.31,6.36a15,15,0,0,0-2,5.44,13.07,13.07,0,0,0,.06,5.78,6.28,6.28,0,0,0,2.48,3.67,8.3,8.3,0,0,0,4.78,1.26A18.39,18.39,0,0,0,11.67,22,9.76,9.76,0,0,0,15,20.77l-.37-2.27a9.72,9.72,0,0,1-2.55.78,15.2,15.2,0,0,1-2.83.34q-6,0-5.21-6.44a2,2,0,0,0,0-.37H16.86a9,9,0,0,0,.41-1.42C17.39,10.85,17.53,10.09,17.71,9.1Z"/><path class="cls-2" d="M25.29,19.62q-3.6,0-3-3.42a3.52,3.52,0,0,1,.94-1.94,6.36,6.36,0,0,1,2-1.33A10.85,10.85,0,0,1,28,12.14a19.82,19.82,0,0,1,3.05-.27L30,18.06a4.37,4.37,0,0,1-1.07.64,10.21,10.21,0,0,1-1.78.65A7.19,7.19,0,0,1,25.29,19.62ZM29.55,1.23a16,16,0,0,0-3.13.34,23.91,23.91,0,0,0-3,.78,13.5,13.5,0,0,0-1.85.72l.54,2.57A7.81,7.81,0,0,1,23.7,5a18.81,18.81,0,0,1,2.24-.6A10.52,10.52,0,0,1,28,4.12a10.11,10.11,0,0,1,2.53.25,1.8,1.8,0,0,1,1.23,1,3.68,3.68,0,0,1,.09,2.13l-.36,2a28.12,28.12,0,0,0-4.14.34,20,20,0,0,0-4,1A8.57,8.57,0,0,0,20,13.13a6.72,6.72,0,0,0-1.68,3.44,5.46,5.46,0,0,0,.26,3.16,4.12,4.12,0,0,0,1.89,2.06,6.54,6.54,0,0,0,3.17.72A10.73,10.73,0,0,0,27,21.94a9.86,9.86,0,0,0,2.76-1.38l0,.15a2.18,2.18,0,0,0,0,1.22.84.84,0,0,0,.57.48,5.93,5.93,0,0,0,1.23.1h1.64L35.8,7.81a7.17,7.17,0,0,0-.19-4,3.52,3.52,0,0,0-2.14-2A11.62,11.62,0,0,0,29.55,1.23Z"/><path class="cls-2" d="M38.28,18.13l-1.12,3a6.65,6.65,0,0,0,2.51,1,17.16,17.16,0,0,0,3.86.43,11.5,11.5,0,0,0,4-.67,7,7,0,0,0,2.89-2,6.7,6.7,0,0,0,1.44-3.17,4.3,4.3,0,0,0-1-3.91,11.74,11.74,0,0,0-3.92-2.59,16.76,16.76,0,0,1-2.06-1A3,3,0,0,1,43.76,8a2.3,2.3,0,0,1-.19-1.56,2.41,2.41,0,0,1,1.31-1.69,6.23,6.23,0,0,1,3-.62,8.59,8.59,0,0,1,2.61.4,3.85,3.85,0,0,1,1.65.9l1.21-3.14a8.82,8.82,0,0,0-2-.69,12.48,12.48,0,0,0-3.09-.36,11.88,11.88,0,0,0-3.94.62,7.62,7.62,0,0,0-3,1.85,5.47,5.47,0,0,0-1.52,3,4.72,4.72,0,0,0,.82,4,10,10,0,0,0,3.79,2.73,12.51,12.51,0,0,1,2.9,1.72,2,2,0,0,1,.74,2A2.69,2.69,0,0,1,46.79,19a5.33,5.33,0,0,1-2.86.67,10.88,10.88,0,0,1-2.42-.27,13.75,13.75,0,0,1-2.06-.63A5.5,5.5,0,0,1,38.28,18.13Z"/><path class="cls-2" d="M70.71,1.94,64.29,16l-1.53,3.4L62.3,16l-2.12-14H55.9l3.85,20.81H61a14.34,14.34,0,0,1-2.16,3.76,7.24,7.24,0,0,1-2.3,1.87,4.89,4.89,0,0,1-2,.51c-.24,0-.54,0-.91-.05a3.94,3.94,0,0,1-.8-.14L52.18,32a2.81,2.81,0,0,0,.83.17,9.16,9.16,0,0,0,1.17.08,6.35,6.35,0,0,0,1-.08c.38-.06.73-.11,1-.19q4.38-1.2,8-8.38L75,1.94Z"/><path class="cls-2" d="M89.61.75a11.31,11.31,0,0,0-9.85,5.3,14.94,14.94,0,0,0-2.12,5.56A12,12,0,0,0,77.77,17a6.68,6.68,0,0,0,2.49,3.7A7.62,7.62,0,0,0,84.94,22a14,14,0,0,0,3.78-.51,8.77,8.77,0,0,0,2.93-1.34l-.42-2.28a9.77,9.77,0,0,1-2.3.86,11.39,11.39,0,0,1-2.88.38,4.47,4.47,0,0,1-2.82-.91,4.79,4.79,0,0,1-1.64-2.66,9.7,9.7,0,0,1,0-4.21A11.5,11.5,0,0,1,83.17,7a7.54,7.54,0,0,1,2.65-2.55,6.43,6.43,0,0,1,3.08-.82A9.53,9.53,0,0,1,91.54,4a4.75,4.75,0,0,1,1.81,1l1.19-3.15a5.84,5.84,0,0,0-1.85-.7A13.37,13.37,0,0,0,89.61.75Z"/><path class="cls-2" d="M109.17,11.63a11.6,11.6,0,0,1-2.32,5.55,5.28,5.28,0,0,1-4.21,2,3.55,3.55,0,0,1-2.75-1.08,5.23,5.23,0,0,1-1.25-2.92A13.44,13.44,0,0,1,98.79,11a11.11,11.11,0,0,1,2.28-5.45,5.34,5.34,0,0,1,4.19-1.91,3.72,3.72,0,0,1,2.8,1,5,5,0,0,1,1.26,2.84A13.22,13.22,0,0,1,109.17,11.63Zm-14.49-.42a14.47,14.47,0,0,0,0,5.49A6.64,6.64,0,0,0,97,20.59,7.63,7.63,0,0,0,101.89,22,11.07,11.07,0,0,0,107,20.83a10.93,10.93,0,0,0,4-3.57,14.09,14.09,0,0,0,2.22-5.68,14.4,14.4,0,0,0,0-5.48A6.57,6.57,0,0,0,111,2.21,7.66,7.66,0,0,0,106,.75,10.88,10.88,0,0,0,96.9,5.54,14.1,14.1,0,0,0,94.68,11.21Z"/><path class="cls-2" d="M142.43.75a13.19,13.19,0,0,0-4.24.77,16.66,16.66,0,0,0-3.83,1.77,3.14,3.14,0,0,0-1.61-1.95A7.43,7.43,0,0,0,129.5.75a11.41,11.41,0,0,0-3.94.77,22.59,22.59,0,0,0-3.65,1.72L122.29,1h-3.57L115.05,21.8h4l2.78-15.74a12.51,12.51,0,0,1,2.84-1.46,8.42,8.42,0,0,1,2.61-.54,4.26,4.26,0,0,1,2.29.49,2,2,0,0,1,.85,1.5,10.84,10.84,0,0,1-.19,2.84L128,21.8h4l2.29-13a25,25,0,0,0,.35-2.87,13.06,13.06,0,0,1,2.8-1.32A8.19,8.19,0,0,1,140,4.06a4.3,4.3,0,0,1,2.3.49,1.92,1.92,0,0,1,.85,1.5,10.93,10.93,0,0,1-.2,2.84L140.7,21.8h4l2.29-13a14.45,14.45,0,0,0,.22-4.73,3.63,3.63,0,0,0-1.46-2.54A5.91,5.91,0,0,0,142.43.75Z"/><path class="cls-2" d="M176.92.75a13.3,13.3,0,0,0-4.25.77,16.38,16.38,0,0,0-3.82,1.77,3.12,3.12,0,0,0-1.62-1.95A7.38,7.38,0,0,0,164,.75a11.41,11.41,0,0,0-3.94.77,22.2,22.2,0,0,0-3.65,1.72L156.78,1h-3.57L149.54,21.8h4l2.78-15.74a12.3,12.3,0,0,1,2.84-1.46,8.36,8.36,0,0,1,2.61-.54,4.28,4.28,0,0,1,2.29.49,2,2,0,0,1,.85,1.5,10.93,10.93,0,0,1-.2,2.84L162.44,21.8h4l2.3-13a22.77,22.77,0,0,0,.34-2.87,13.29,13.29,0,0,1,2.8-1.32,8.29,8.29,0,0,1,2.61-.51,4.36,4.36,0,0,1,2.31.49,1.92,1.92,0,0,1,.85,1.5,11,11,0,0,1-.21,2.84L175.18,21.8h4l2.29-13a14.73,14.73,0,0,0,.22-4.73,3.64,3.64,0,0,0-1.47-2.54A5.88,5.88,0,0,0,176.92.75Z"/><path class="cls-2" d="M197.94,9.45h-9.15A8.91,8.91,0,0,1,191.24,5a5.31,5.31,0,0,1,3.6-1.38c1.52,0,2.51.47,3,1.38a5.82,5.82,0,0,1,.3,3.61C198.09,8.81,198,9.08,197.94,9.45Zm3.9-.83a8.27,8.27,0,0,0-.34-4.29,5.23,5.23,0,0,0-2.27-2.68,7.3,7.3,0,0,0-3.66-.9,10.19,10.19,0,0,0-5.3,1.38,11.08,11.08,0,0,0-3.82,3.76,15.16,15.16,0,0,0-2,5.44,13.23,13.23,0,0,0,.06,5.78A6.29,6.29,0,0,0,187,20.77,8.2,8.2,0,0,0,191.74,22a18,18,0,0,0,4.07-.49,9.62,9.62,0,0,0,3.27-1.25L198.71,18a9.72,9.72,0,0,1-2.55.78,15,15,0,0,1-2.83.34q-6,0-5.21-6.44a2.24,2.24,0,0,0,0-.37H201a11.89,11.89,0,0,0,.41-1.43C201.53,10.37,201.67,9.61,201.84,8.62Z"/><path class="cls-2" d="M215.73.75a6.93,6.93,0,0,0-2.34.46,11.9,11.9,0,0,0-2.26,1.12,7.17,7.17,0,0,0-1.51,1.25L209.79,1h-3.36L202.75,21.8h4L209.5,6.29a9.08,9.08,0,0,1,2.2-1.24,7.22,7.22,0,0,1,2.65-.51,7.38,7.38,0,0,1,1.72.15,3.05,3.05,0,0,1,.92.4l.74-4.17A8,8,0,0,0,215.73.75Z"/><path class="cls-2" d="M228.9.75a11.61,11.61,0,0,0-5.77,1.42,11.49,11.49,0,0,0-4.08,3.88,14.94,14.94,0,0,0-2.12,5.56,11.85,11.85,0,0,0,.13,5.37,6.68,6.68,0,0,0,2.49,3.7A7.62,7.62,0,0,0,224.23,22a13.94,13.94,0,0,0,3.77-.51,8.59,8.59,0,0,0,2.93-1.34l-.41-2.28a9.77,9.77,0,0,1-2.3.86,11.39,11.39,0,0,1-2.88.38,4.5,4.5,0,0,1-2.83-.91,4.83,4.83,0,0,1-1.63-2.66,9.7,9.7,0,0,1,0-4.21A11.5,11.5,0,0,1,222.46,7a7.54,7.54,0,0,1,2.65-2.55,6.43,6.43,0,0,1,3.08-.82,9.53,9.53,0,0,1,2.64.32,4.75,4.75,0,0,1,1.81,1l1.18-3.15a5.67,5.67,0,0,0-1.84-.7A13.37,13.37,0,0,0,228.9.75Z"/><path class="cls-2" d="M247.49,9.45h-9.16A9,9,0,0,1,240.78,5a5.31,5.31,0,0,1,3.61-1.38c1.52,0,2.51.47,3,1.38a5.89,5.89,0,0,1,.31,3.61C247.63,8.81,247.58,9.08,247.49,9.45Zm3.9-.83A8.16,8.16,0,0,0,251,4.33a5.19,5.19,0,0,0-2.27-2.68,7.29,7.29,0,0,0-3.65-.9,10.23,10.23,0,0,0-5.31,1.38A11.08,11.08,0,0,0,236,5.89a15,15,0,0,0-2,5.44,13.09,13.09,0,0,0,.05,5.78,6.26,6.26,0,0,0,2.5,3.66A8.17,8.17,0,0,0,241.29,22a17.91,17.91,0,0,0,4.06-.49,9.77,9.77,0,0,0,3.28-1.25L248.26,18a9.72,9.72,0,0,1-2.55.78,15.2,15.2,0,0,1-2.83.34q-6,0-5.21-6.44a2,2,0,0,0,0-.37h12.83a10.3,10.3,0,0,0,.41-1.43C251.07,10.37,251.21,9.61,251.39,8.62Z"/><path class="cls-2" d="M65.9,22.59S75.2-.58,90.65,2.25C88.13,3.36,73.15,7.29,65.9,22.59Z"/><path class="cls-3" d="M202.83,30.35l.4-2.47H213l-.37,2.47H209.4l-1.66,11.52h-3.29l1.66-11.52Z"/><path class="cls-3" d="M223.13,27.88l-.34,2.51h-5.13l-.44,3h3.83l-.33,2.46h-3.85l-.5,3.46h5.78l-.33,2.52h-9l2-14Z"/><path class="cls-3" d="M232.87,28a7.58,7.58,0,0,1,1.16.36l.49.13-.93,3a4.41,4.41,0,0,0-1.08-.65,3.67,3.67,0,0,0-1.55-.29,3.07,3.07,0,0,0-2.15.78,4.59,4.59,0,0,0-1.24,2,9,9,0,0,0-.39,2.7,3.9,3.9,0,0,0,.59,2.37,2.26,2.26,0,0,0,1.92.76A5.25,5.25,0,0,0,231.3,39a5,5,0,0,0,1.21-.54l.42,2.25a5.29,5.29,0,0,1-.87.46,9,9,0,0,1-1.47.49,7.31,7.31,0,0,1-1.76.22,4.77,4.77,0,0,1-2.9-.81A4.32,4.32,0,0,1,224.35,39a8.25,8.25,0,0,1-.47-2.84,9.15,9.15,0,0,1,1-4.13,7.57,7.57,0,0,1,2.64-3,6.75,6.75,0,0,1,3.83-1.12A7,7,0,0,1,232.87,28Z"/><path class="cls-3" d="M247.48,27.88l-2,14H242.2l.82-5.69h-4.41l-.81,5.69h-3.24l2-14h3.24L238.93,34h4.41l.86-6.07Z"/></g></svg>