<svg width="81" height="20" viewBox="0 0 81 20" fill="none" xmlns="http://www.w3.org/2000/svg">
<path d="M79.8987 6.01916C79.3899 4.80413 78.6767 3.73649 77.7784 2.84539C76.8817 1.95612 75.8088 1.25206 74.5887 0.752263C73.3705 0.252856 72.0456 0 70.6505 0C69.2555 0 67.9306 0.252856 66.7127 0.752263C65.4928 1.25167 64.4194 1.95612 63.5228 2.84539C62.6253 3.73557 61.912 4.80335 61.4027 6.01916C60.8932 7.23681 60.6349 8.57635 60.6349 9.99997C60.6349 11.4007 60.8932 12.7278 61.4027 13.9445C61.912 15.1609 62.6253 16.229 63.5228 17.1183C64.4187 18.0077 65.4902 18.7177 66.7085 19.2286C67.9293 19.7405 69.2555 19.9999 70.6505 19.9999C72.0456 19.9999 73.3717 19.7405 74.593 19.2286C75.8114 18.7173 76.883 18.0072 77.7784 17.1187C78.6767 16.2281 79.3899 15.1601 79.8987 13.9445C80.4084 12.7278 80.6667 11.4007 80.6667 9.99997C80.6667 8.57635 80.4084 7.23681 79.8987 6.01916ZM75.1676 12.1129C74.9271 12.7506 74.588 13.3206 74.1605 13.8066C73.7392 14.2845 73.223 14.6615 72.6252 14.9282C72.0247 15.1958 71.3602 15.3315 70.6505 15.3315C69.9188 15.3315 69.2499 15.1962 68.6618 14.9294C68.0739 14.6628 67.5623 14.2849 67.1415 13.8066C66.7132 13.3206 66.3743 12.751 66.134 12.1129C65.8936 11.4748 65.7715 10.7639 65.7715 9.99997C65.7715 9.23431 65.894 8.5095 66.1359 7.84563C66.3757 7.18808 66.7127 6.6155 67.1378 6.14368C67.5594 5.6758 68.0722 5.30262 68.6618 5.03466C69.2505 4.76788 69.9197 4.63259 70.6505 4.63259C71.3594 4.63259 72.0238 4.76841 72.6252 5.03597C73.2247 5.30354 73.7427 5.67619 74.1638 6.14329C74.5887 6.6155 74.926 7.18847 75.1655 7.84563C75.4076 8.51042 75.5301 9.23509 75.5301 9.99997C75.5301 10.763 75.4081 11.4739 75.1676 12.1129Z" fill="#20D3A4"/>
<path d="M16.8329 0.666993C16.4415 0.545491 15.9967 0.483887 15.5107 0.483887C14.7516 0.483887 14.1339 0.672247 13.6749 1.04319C13.1775 1.44513 12.9251 2.07248 12.9251 2.9075V10.8058C12.9251 12.2833 12.5974 13.4082 11.9507 14.1497C11.3182 14.8757 10.3067 15.2437 8.94437 15.2437C7.58168 15.2437 6.57014 14.8757 5.93779 14.1497C5.2913 13.4091 4.96375 12.284 4.96375 10.8058V1.04661L4.64051 0.914332C4.5071 0.859557 4.26759 0.778644 3.90783 0.666993C3.51622 0.545491 3.08318 0.483887 2.62001 0.483887C1.83754 0.483887 1.20826 0.672247 0.749647 1.04319C0.252178 1.44513 0 2.07248 0 2.9075V11.6989C0 12.9829 0.224021 14.1553 0.665916 15.1838C1.1099 16.2165 1.73536 17.102 2.52473 17.8151C3.31089 18.5273 4.26698 19.0736 5.36606 19.4398C6.45026 19.8005 7.65397 19.9836 8.94437 19.9836C10.2348 19.9836 11.4385 19.8005 12.5226 19.4398C13.6197 19.0745 14.5806 18.529 15.3782 17.8181C16.1824 17.102 16.8097 16.214 17.2421 15.1787C17.6712 14.1506 17.889 12.9798 17.889 11.6989V1.04661L17.5657 0.914332C17.4323 0.859557 17.1928 0.778644 16.8329 0.666993Z" fill="#20D3A4"/>
<path d="M55.7181 2.1655C54.9205 1.45448 53.9596 0.909099 52.8625 0.543673C51.7784 0.183107 50.5747 0 49.2843 0C47.9939 0 46.7902 0.183107 45.706 0.543673C44.6068 0.909887 43.6507 1.45632 42.8646 2.16852C42.0752 2.88164 41.4499 3.76696 41.0059 4.7998C40.564 5.8283 40.3398 7.00076 40.3398 8.28461V17.0761C40.3398 17.9111 40.5921 18.5383 41.0895 18.9404C41.5482 19.3114 42.1775 19.4997 42.96 19.4997C43.4231 19.4997 43.8562 19.4381 44.2477 19.3166C44.6076 19.205 44.8471 19.1239 44.9804 19.0693L45.3037 18.937V9.17782C45.3037 7.69956 45.6313 6.57452 46.2778 5.83394C46.9101 5.10782 47.9216 4.7399 49.2843 4.7399C50.6465 4.7399 51.6582 5.10782 52.2907 5.83394C52.9374 6.57544 53.2651 7.70035 53.2651 9.17782V17.0761C53.2651 17.9111 53.5174 18.5383 54.0147 18.9404C54.4738 19.3114 55.0914 19.4997 55.8507 19.4997C56.3367 19.4997 56.7814 19.4381 57.1729 19.3166C57.5328 19.205 57.7723 19.1239 57.9056 19.0693L58.2289 18.937V8.28461C58.2289 7.00365 58.0112 5.83302 57.5821 4.80492C57.1497 3.76959 56.5222 2.88164 55.7181 2.1655Z" fill="#20D3A4"/>
<path d="M37.8991 16.4116C37.8161 16.0707 37.669 15.7159 37.4616 15.3567C37.1377 14.796 36.7439 14.4198 36.2917 14.2389C35.8448 14.0602 35.355 14.1141 34.8344 14.3942C34.8342 14.3937 34.8337 14.3929 34.8333 14.3922C34.5737 14.532 34.3426 14.6468 33.9671 14.8066C33.5974 14.9635 33.1704 15.1032 32.6981 15.2224C32.2302 15.3401 31.7064 15.4176 31.1412 15.4524C29.4925 15.554 28.2014 15.2912 27.3037 14.6704C26.5959 14.1815 26.1075 13.5636 25.8227 12.7939C26.0403 12.7894 26.2507 12.7843 26.4533 12.7775C26.861 12.7653 27.2976 12.7439 27.7634 12.7152C29.7662 12.5917 31.4408 12.3462 32.7407 11.9865C34.0651 11.6193 35.1308 11.1458 35.9079 10.5778C36.7187 9.98595 37.28 9.28439 37.5762 8.49167C37.8614 7.72772 37.9796 6.88272 37.9275 5.97967C37.8766 5.09841 37.6493 4.26734 37.252 3.50838C36.8533 2.74863 36.2849 2.08936 35.5621 1.54897C34.8517 1.01831 33.9877 0.607695 32.9937 0.32778C32.0058 0.0498355 30.873 -0.0519635 29.6271 0.024747C28.2122 0.111966 26.9042 0.439562 25.7393 0.998603C24.5715 1.5587 23.5568 2.32094 22.7229 3.26445C21.8882 4.20889 21.2499 5.33091 20.826 6.59834C20.402 7.86315 20.2306 9.25957 20.3166 10.7487C20.4067 12.3109 20.7462 13.7025 21.3249 14.8845C21.9042 16.0685 22.6734 17.0685 23.6106 17.8559C24.5453 18.642 25.6284 19.2199 26.8302 19.5736C28.0189 19.9234 29.3009 20.0591 30.6409 19.9766C31.5863 19.9183 32.4654 19.789 33.2535 19.5926C34.0335 19.3984 34.7296 19.1816 35.3221 18.9486C35.9232 18.7123 36.4328 18.464 36.8376 18.2097C37.234 17.9603 37.5167 17.773 37.7018 17.6369L38.0871 17.3534L38.0406 17.0583C38.0216 16.9365 37.9754 16.7251 37.8991 16.4116ZM25.577 7.60648C25.761 6.99096 26.0403 6.43362 26.4068 5.94959C26.7685 5.47238 27.236 5.07188 27.7968 4.76018C28.3543 4.44979 29.0285 4.26865 29.8004 4.2211C30.7327 4.16357 31.5297 4.3162 32.1689 4.6744C32.7431 4.99688 33.03 5.48367 33.0718 6.20717C33.0884 6.49431 33.05 6.76739 32.9536 7.04363C32.8738 7.27324 32.6682 7.50232 32.3416 7.72509C31.9686 7.98097 31.4165 8.21071 30.7 8.40971C29.966 8.61357 28.9723 8.75543 27.7469 8.83096L26.2979 8.92015C25.9846 8.93959 25.6611 8.9543 25.3311 8.96468C25.3608 8.51006 25.443 8.05532 25.577 7.60648Z" fill="#20D3A4"/>
</svg>
